%TF.GenerationSoftware,Altium Limited,Altium Designer,24.3.1 (35)*%
G04 Layer_Color=32896*
%FSLAX45Y45*%
%MOMM*%
%TF.SameCoordinates,065391E9-2A1D-4ECE-AA0D-878B158C5FC5*%
%TF.FilePolarity,Positive*%
%TF.FileFunction,Legend,Bot*%
%TF.Part,CustomerPanel*%
G01*
G75*
%TA.AperFunction,NonConductor*%
%ADD30C,0.12700*%
%ADD32C,0.00000*%
%ADD33C,0.25400*%
D30*
X2373500Y8119800D02*
X3523500D01*
X2373500D02*
Y8859800D01*
X3523500D01*
Y8119800D02*
Y8859800D01*
X56398Y158999D02*
Y1619001D01*
X56601Y158902D02*
Y160802D01*
X636402Y158999D02*
Y385003D01*
Y1410000D02*
Y1619001D01*
X526400Y158999D02*
X636402D01*
X526400Y1619001D02*
X636402D01*
X56398Y158999D02*
X286400D01*
X56398Y1619001D02*
X286400D01*
X1708902Y157399D02*
Y1417401D01*
X1128898Y1203401D02*
Y1417401D01*
Y157399D02*
Y378399D01*
Y1417401D02*
X1238900D01*
X1128898Y157399D02*
X1238900D01*
X1488902D02*
X1708902D01*
X1478900Y1417401D02*
X1708902D01*
X474144Y448720D02*
X482608Y457183D01*
X499536D01*
X508000Y448720D01*
Y414864D01*
X499536Y406400D01*
X482608D01*
X474144Y414864D01*
Y431792D01*
X491072D01*
X457217Y406400D02*
Y457183D01*
X423361Y406400D01*
Y457183D01*
X406433D02*
Y406400D01*
X381041D01*
X372577Y414864D01*
Y448720D01*
X381041Y457183D01*
X406433D01*
X1358900Y1159920D02*
X1350436Y1168383D01*
X1333508D01*
X1325044Y1159920D01*
Y1151456D01*
X1333508Y1142992D01*
X1341972D01*
X1333508D01*
X1325044Y1134528D01*
Y1126064D01*
X1333508Y1117600D01*
X1350436D01*
X1358900Y1126064D01*
X1308117Y1117600D02*
Y1126064D01*
X1299652D01*
Y1117600D01*
X1308117D01*
X1265797Y1159920D02*
X1257333Y1168383D01*
X1240405D01*
X1231941Y1159920D01*
Y1151456D01*
X1240405Y1142992D01*
X1248869D01*
X1240405D01*
X1231941Y1134528D01*
Y1126064D01*
X1240405Y1117600D01*
X1257333D01*
X1265797Y1126064D01*
X1215013Y1168383D02*
Y1134528D01*
X1198085Y1117600D01*
X1181158Y1134528D01*
Y1168383D01*
X524944Y550320D02*
X533408Y558783D01*
X550336D01*
X558800Y550320D01*
Y541856D01*
X550336Y533392D01*
X533408D01*
X524944Y524928D01*
Y516464D01*
X533408Y508000D01*
X550336D01*
X558800Y516464D01*
X474161Y550320D02*
X482625Y558783D01*
X499552D01*
X508017Y550320D01*
Y516464D01*
X499552Y508000D01*
X482625D01*
X474161Y516464D01*
X457233Y558783D02*
Y508000D01*
X423377D01*
X406450Y550320D02*
X397985Y558783D01*
X381058D01*
X372594Y550320D01*
Y516464D01*
X381058Y508000D01*
X397985D01*
X406450Y516464D01*
Y550320D01*
X524944Y651920D02*
X533408Y660383D01*
X550336D01*
X558800Y651920D01*
Y643456D01*
X550336Y634992D01*
X533408D01*
X524944Y626528D01*
Y618064D01*
X533408Y609600D01*
X550336D01*
X558800Y618064D01*
X508017Y660383D02*
Y609600D01*
X482625D01*
X474161Y618064D01*
Y651920D01*
X482625Y660383D01*
X508017D01*
X457233Y609600D02*
Y643456D01*
X440305Y660383D01*
X423377Y643456D01*
Y609600D01*
Y634992D01*
X457233D01*
X406450Y651920D02*
X397985Y660383D01*
X381058D01*
X372594Y651920D01*
Y618064D01*
X381058Y609600D01*
X397985D01*
X406450Y618064D01*
Y651920D01*
X524944Y753520D02*
X533408Y761983D01*
X550336D01*
X558800Y753520D01*
Y745056D01*
X550336Y736592D01*
X533408D01*
X524944Y728128D01*
Y719664D01*
X533408Y711200D01*
X550336D01*
X558800Y719664D01*
X474161Y753520D02*
X482625Y761983D01*
X499552D01*
X508017Y753520D01*
Y719664D01*
X499552Y711200D01*
X482625D01*
X474161Y719664D01*
X457233Y761983D02*
Y711200D01*
X423377D01*
X406450D02*
X389522D01*
X397985D01*
Y761983D01*
X406450Y753520D01*
X524944Y855120D02*
X533408Y863583D01*
X550336D01*
X558800Y855120D01*
Y846656D01*
X550336Y838192D01*
X533408D01*
X524944Y829728D01*
Y821264D01*
X533408Y812800D01*
X550336D01*
X558800Y821264D01*
X508017Y863583D02*
Y812800D01*
X482625D01*
X474161Y821264D01*
Y855120D01*
X482625Y863583D01*
X508017D01*
X457233Y812800D02*
Y846656D01*
X440305Y863583D01*
X423377Y846656D01*
Y812800D01*
Y838192D01*
X457233D01*
X406450Y812800D02*
X389522D01*
X397985D01*
Y863583D01*
X406450Y855120D01*
X1337744Y550320D02*
X1346208Y558783D01*
X1363136D01*
X1371600Y550320D01*
Y541856D01*
X1363136Y533392D01*
X1346208D01*
X1337744Y524928D01*
Y516464D01*
X1346208Y508000D01*
X1363136D01*
X1371600Y516464D01*
X1286961Y550320D02*
X1295425Y558783D01*
X1312352D01*
X1320817Y550320D01*
Y516464D01*
X1312352Y508000D01*
X1295425D01*
X1286961Y516464D01*
X1270033Y558783D02*
Y508000D01*
X1236177D01*
X1219250Y550320D02*
X1210785Y558783D01*
X1193858D01*
X1185394Y550320D01*
Y516464D01*
X1193858Y508000D01*
X1210785D01*
X1219250Y516464D01*
Y550320D01*
X1337744Y651920D02*
X1346208Y660383D01*
X1363136D01*
X1371600Y651920D01*
Y643456D01*
X1363136Y634992D01*
X1346208D01*
X1337744Y626528D01*
Y618064D01*
X1346208Y609600D01*
X1363136D01*
X1371600Y618064D01*
X1320817Y660383D02*
Y609600D01*
X1295425D01*
X1286961Y618064D01*
Y651920D01*
X1295425Y660383D01*
X1320817D01*
X1270033Y609600D02*
Y643456D01*
X1253105Y660383D01*
X1236177Y643456D01*
Y609600D01*
Y634992D01*
X1270033D01*
X1219250Y651920D02*
X1210785Y660383D01*
X1193858D01*
X1185394Y651920D01*
Y618064D01*
X1193858Y609600D01*
X1210785D01*
X1219250Y618064D01*
Y651920D01*
X524944Y1159920D02*
X533408Y1168383D01*
X550336D01*
X558800Y1159920D01*
Y1151456D01*
X550336Y1142992D01*
X533408D01*
X524944Y1134528D01*
Y1126064D01*
X533408Y1117600D01*
X550336D01*
X558800Y1126064D01*
X474161Y1159920D02*
X482625Y1168383D01*
X499552D01*
X508017Y1159920D01*
Y1126064D01*
X499552Y1117600D01*
X482625D01*
X474161Y1126064D01*
X457233Y1168383D02*
Y1117600D01*
X423377D01*
X406450Y1159920D02*
X397985Y1168383D01*
X381058D01*
X372594Y1159920D01*
Y1151456D01*
X381058Y1142992D01*
X389522D01*
X381058D01*
X372594Y1134528D01*
Y1126064D01*
X381058Y1117600D01*
X397985D01*
X406450Y1126064D01*
X524944Y1261520D02*
X533408Y1269983D01*
X550336D01*
X558800Y1261520D01*
Y1253056D01*
X550336Y1244592D01*
X533408D01*
X524944Y1236128D01*
Y1227664D01*
X533408Y1219200D01*
X550336D01*
X558800Y1227664D01*
X508017Y1269983D02*
Y1219200D01*
X482625D01*
X474161Y1227664D01*
Y1261520D01*
X482625Y1269983D01*
X508017D01*
X457233Y1219200D02*
Y1253056D01*
X440305Y1269983D01*
X423377Y1253056D01*
Y1219200D01*
Y1244592D01*
X457233D01*
X406450Y1261520D02*
X397985Y1269983D01*
X381058D01*
X372594Y1261520D01*
Y1253056D01*
X381058Y1244592D01*
X389522D01*
X381058D01*
X372594Y1236128D01*
Y1227664D01*
X381058Y1219200D01*
X397985D01*
X406450Y1227664D01*
X1325044Y855120D02*
X1333508Y863583D01*
X1350436D01*
X1358900Y855120D01*
Y846656D01*
X1350436Y838192D01*
X1333508D01*
X1325044Y829728D01*
Y821264D01*
X1333508Y812800D01*
X1350436D01*
X1358900Y821264D01*
X1308117Y863583D02*
Y812800D01*
X1282725D01*
X1274261Y821264D01*
Y855120D01*
X1282725Y863583D01*
X1308117D01*
X1257333Y812800D02*
Y846656D01*
X1240405Y863583D01*
X1223477Y846656D01*
Y812800D01*
Y838192D01*
X1257333D01*
X1206550Y812800D02*
X1189622D01*
X1198085D01*
Y863583D01*
X1206550Y855120D01*
X1325044Y753520D02*
X1333508Y761983D01*
X1350436D01*
X1358900Y753520D01*
Y745056D01*
X1350436Y736592D01*
X1333508D01*
X1325044Y728128D01*
Y719664D01*
X1333508Y711200D01*
X1350436D01*
X1358900Y719664D01*
X1274261Y753520D02*
X1282725Y761983D01*
X1299652D01*
X1308117Y753520D01*
Y719664D01*
X1299652Y711200D01*
X1282725D01*
X1274261Y719664D01*
X1257333Y761983D02*
Y711200D01*
X1223477D01*
X1206550D02*
X1189622D01*
X1198085D01*
Y761983D01*
X1206550Y753520D01*
X1337744Y956720D02*
X1346208Y965183D01*
X1363136D01*
X1371600Y956720D01*
Y948256D01*
X1363136Y939792D01*
X1346208D01*
X1337744Y931328D01*
Y922864D01*
X1346208Y914400D01*
X1363136D01*
X1371600Y922864D01*
X1286961Y956720D02*
X1295425Y965183D01*
X1312352D01*
X1320817Y956720D01*
Y922864D01*
X1312352Y914400D01*
X1295425D01*
X1286961Y922864D01*
X1270033Y965183D02*
Y914400D01*
X1236177D01*
X1185394D02*
X1219250D01*
X1185394Y948256D01*
Y956720D01*
X1193858Y965183D01*
X1210785D01*
X1219250Y956720D01*
X1337744Y1058320D02*
X1346208Y1066783D01*
X1363136D01*
X1371600Y1058320D01*
Y1049856D01*
X1363136Y1041392D01*
X1346208D01*
X1337744Y1032928D01*
Y1024464D01*
X1346208Y1016000D01*
X1363136D01*
X1371600Y1024464D01*
X1320817Y1066783D02*
Y1016000D01*
X1295425D01*
X1286961Y1024464D01*
Y1058320D01*
X1295425Y1066783D01*
X1320817D01*
X1270033Y1016000D02*
Y1049856D01*
X1253105Y1066783D01*
X1236177Y1049856D01*
Y1016000D01*
Y1041392D01*
X1270033D01*
X1185394Y1016000D02*
X1219250D01*
X1185394Y1049856D01*
Y1058320D01*
X1193858Y1066783D01*
X1210785D01*
X1219250Y1058320D01*
X524944D02*
X533408Y1066783D01*
X550336D01*
X558800Y1058320D01*
Y1049856D01*
X550336Y1041392D01*
X533408D01*
X524944Y1032928D01*
Y1024464D01*
X533408Y1016000D01*
X550336D01*
X558800Y1024464D01*
X508017Y1066783D02*
Y1016000D01*
X482625D01*
X474161Y1024464D01*
Y1058320D01*
X482625Y1066783D01*
X508017D01*
X457233Y1016000D02*
Y1049856D01*
X440305Y1066783D01*
X423377Y1049856D01*
Y1016000D01*
Y1041392D01*
X457233D01*
X372594Y1016000D02*
X406450D01*
X372594Y1049856D01*
Y1058320D01*
X381058Y1066783D01*
X397985D01*
X406450Y1058320D01*
X524944Y956720D02*
X533408Y965183D01*
X550336D01*
X558800Y956720D01*
Y948256D01*
X550336Y939792D01*
X533408D01*
X524944Y931328D01*
Y922864D01*
X533408Y914400D01*
X550336D01*
X558800Y922864D01*
X474161Y956720D02*
X482625Y965183D01*
X499552D01*
X508017Y956720D01*
Y922864D01*
X499552Y914400D01*
X482625D01*
X474161Y922864D01*
X457233Y965183D02*
Y914400D01*
X423377D01*
X372594D02*
X406450D01*
X372594Y948256D01*
Y956720D01*
X381058Y965183D01*
X397985D01*
X406450Y956720D01*
X1299644Y448720D02*
X1308108Y457183D01*
X1325036D01*
X1333500Y448720D01*
Y414864D01*
X1325036Y406400D01*
X1308108D01*
X1299644Y414864D01*
Y431792D01*
X1316572D01*
X1282717Y406400D02*
Y457183D01*
X1248861Y406400D01*
Y457183D01*
X1231933D02*
Y406400D01*
X1206541D01*
X1198077Y414864D01*
Y448720D01*
X1206541Y457183D01*
X1231933D01*
X558800Y1363120D02*
X550336Y1371583D01*
X533408D01*
X524944Y1363120D01*
Y1354656D01*
X533408Y1346192D01*
X541872D01*
X533408D01*
X524944Y1337728D01*
Y1329264D01*
X533408Y1320800D01*
X550336D01*
X558800Y1329264D01*
X508017Y1320800D02*
Y1329264D01*
X499552D01*
Y1320800D01*
X508017D01*
X465697Y1363120D02*
X457233Y1371583D01*
X440305D01*
X431841Y1363120D01*
Y1354656D01*
X440305Y1346192D01*
X448769D01*
X440305D01*
X431841Y1337728D01*
Y1329264D01*
X440305Y1320800D01*
X457233D01*
X465697Y1329264D01*
X414913Y1371583D02*
Y1337728D01*
X397985Y1320800D01*
X381058Y1337728D01*
Y1371583D01*
X56398Y2458999D02*
Y3919001D01*
X56601Y2458902D02*
Y2460802D01*
X636402Y2458999D02*
Y2685003D01*
Y3710000D02*
Y3919001D01*
X526400Y2458999D02*
X636402D01*
X526400Y3919001D02*
X636402D01*
X56398Y2458999D02*
X286400D01*
X56398Y3919001D02*
X286400D01*
X1708902Y2457399D02*
Y3717401D01*
X1128898Y3503401D02*
Y3717401D01*
Y2457399D02*
Y2678399D01*
Y3717401D02*
X1238900D01*
X1128898Y2457399D02*
X1238900D01*
X1488902D02*
X1708902D01*
X1478900Y3717401D02*
X1708902D01*
X474144Y2748720D02*
X482608Y2757183D01*
X499536D01*
X508000Y2748720D01*
Y2714864D01*
X499536Y2706400D01*
X482608D01*
X474144Y2714864D01*
Y2731792D01*
X491072D01*
X457217Y2706400D02*
Y2757183D01*
X423361Y2706400D01*
Y2757183D01*
X406433D02*
Y2706400D01*
X381041D01*
X372577Y2714864D01*
Y2748720D01*
X381041Y2757183D01*
X406433D01*
X1358900Y3459920D02*
X1350436Y3468383D01*
X1333508D01*
X1325044Y3459920D01*
Y3451456D01*
X1333508Y3442992D01*
X1341972D01*
X1333508D01*
X1325044Y3434528D01*
Y3426064D01*
X1333508Y3417600D01*
X1350436D01*
X1358900Y3426064D01*
X1308117Y3417600D02*
Y3426064D01*
X1299652D01*
Y3417600D01*
X1308117D01*
X1265797Y3459920D02*
X1257333Y3468383D01*
X1240405D01*
X1231941Y3459920D01*
Y3451456D01*
X1240405Y3442992D01*
X1248869D01*
X1240405D01*
X1231941Y3434528D01*
Y3426064D01*
X1240405Y3417600D01*
X1257333D01*
X1265797Y3426064D01*
X1215013Y3468383D02*
Y3434528D01*
X1198085Y3417600D01*
X1181158Y3434528D01*
Y3468383D01*
X524944Y2850320D02*
X533408Y2858783D01*
X550336D01*
X558800Y2850320D01*
Y2841856D01*
X550336Y2833392D01*
X533408D01*
X524944Y2824928D01*
Y2816464D01*
X533408Y2808000D01*
X550336D01*
X558800Y2816464D01*
X474161Y2850320D02*
X482625Y2858783D01*
X499552D01*
X508017Y2850320D01*
Y2816464D01*
X499552Y2808000D01*
X482625D01*
X474161Y2816464D01*
X457233Y2858783D02*
Y2808000D01*
X423377D01*
X406450Y2850320D02*
X397985Y2858783D01*
X381058D01*
X372594Y2850320D01*
Y2816464D01*
X381058Y2808000D01*
X397985D01*
X406450Y2816464D01*
Y2850320D01*
X524944Y2951920D02*
X533408Y2960383D01*
X550336D01*
X558800Y2951920D01*
Y2943456D01*
X550336Y2934992D01*
X533408D01*
X524944Y2926528D01*
Y2918064D01*
X533408Y2909600D01*
X550336D01*
X558800Y2918064D01*
X508017Y2960383D02*
Y2909600D01*
X482625D01*
X474161Y2918064D01*
Y2951920D01*
X482625Y2960383D01*
X508017D01*
X457233Y2909600D02*
Y2943456D01*
X440305Y2960383D01*
X423377Y2943456D01*
Y2909600D01*
Y2934992D01*
X457233D01*
X406450Y2951920D02*
X397985Y2960383D01*
X381058D01*
X372594Y2951920D01*
Y2918064D01*
X381058Y2909600D01*
X397985D01*
X406450Y2918064D01*
Y2951920D01*
X524944Y3053520D02*
X533408Y3061983D01*
X550336D01*
X558800Y3053520D01*
Y3045056D01*
X550336Y3036592D01*
X533408D01*
X524944Y3028128D01*
Y3019664D01*
X533408Y3011200D01*
X550336D01*
X558800Y3019664D01*
X474161Y3053520D02*
X482625Y3061983D01*
X499552D01*
X508017Y3053520D01*
Y3019664D01*
X499552Y3011200D01*
X482625D01*
X474161Y3019664D01*
X457233Y3061983D02*
Y3011200D01*
X423377D01*
X406450D02*
X389522D01*
X397985D01*
Y3061983D01*
X406450Y3053520D01*
X524944Y3155120D02*
X533408Y3163583D01*
X550336D01*
X558800Y3155120D01*
Y3146656D01*
X550336Y3138192D01*
X533408D01*
X524944Y3129728D01*
Y3121264D01*
X533408Y3112800D01*
X550336D01*
X558800Y3121264D01*
X508017Y3163583D02*
Y3112800D01*
X482625D01*
X474161Y3121264D01*
Y3155120D01*
X482625Y3163583D01*
X508017D01*
X457233Y3112800D02*
Y3146656D01*
X440305Y3163583D01*
X423377Y3146656D01*
Y3112800D01*
Y3138192D01*
X457233D01*
X406450Y3112800D02*
X389522D01*
X397985D01*
Y3163583D01*
X406450Y3155120D01*
X1337744Y2850320D02*
X1346208Y2858783D01*
X1363136D01*
X1371600Y2850320D01*
Y2841856D01*
X1363136Y2833392D01*
X1346208D01*
X1337744Y2824928D01*
Y2816464D01*
X1346208Y2808000D01*
X1363136D01*
X1371600Y2816464D01*
X1286961Y2850320D02*
X1295425Y2858783D01*
X1312352D01*
X1320817Y2850320D01*
Y2816464D01*
X1312352Y2808000D01*
X1295425D01*
X1286961Y2816464D01*
X1270033Y2858783D02*
Y2808000D01*
X1236177D01*
X1219250Y2850320D02*
X1210785Y2858783D01*
X1193858D01*
X1185394Y2850320D01*
Y2816464D01*
X1193858Y2808000D01*
X1210785D01*
X1219250Y2816464D01*
Y2850320D01*
X1337744Y2951920D02*
X1346208Y2960383D01*
X1363136D01*
X1371600Y2951920D01*
Y2943456D01*
X1363136Y2934992D01*
X1346208D01*
X1337744Y2926528D01*
Y2918064D01*
X1346208Y2909600D01*
X1363136D01*
X1371600Y2918064D01*
X1320817Y2960383D02*
Y2909600D01*
X1295425D01*
X1286961Y2918064D01*
Y2951920D01*
X1295425Y2960383D01*
X1320817D01*
X1270033Y2909600D02*
Y2943456D01*
X1253105Y2960383D01*
X1236177Y2943456D01*
Y2909600D01*
Y2934992D01*
X1270033D01*
X1219250Y2951920D02*
X1210785Y2960383D01*
X1193858D01*
X1185394Y2951920D01*
Y2918064D01*
X1193858Y2909600D01*
X1210785D01*
X1219250Y2918064D01*
Y2951920D01*
X524944Y3459920D02*
X533408Y3468383D01*
X550336D01*
X558800Y3459920D01*
Y3451456D01*
X550336Y3442992D01*
X533408D01*
X524944Y3434528D01*
Y3426064D01*
X533408Y3417600D01*
X550336D01*
X558800Y3426064D01*
X474161Y3459920D02*
X482625Y3468383D01*
X499552D01*
X508017Y3459920D01*
Y3426064D01*
X499552Y3417600D01*
X482625D01*
X474161Y3426064D01*
X457233Y3468383D02*
Y3417600D01*
X423377D01*
X406450Y3459920D02*
X397985Y3468383D01*
X381058D01*
X372594Y3459920D01*
Y3451456D01*
X381058Y3442992D01*
X389522D01*
X381058D01*
X372594Y3434528D01*
Y3426064D01*
X381058Y3417600D01*
X397985D01*
X406450Y3426064D01*
X524944Y3561520D02*
X533408Y3569983D01*
X550336D01*
X558800Y3561520D01*
Y3553056D01*
X550336Y3544592D01*
X533408D01*
X524944Y3536128D01*
Y3527664D01*
X533408Y3519200D01*
X550336D01*
X558800Y3527664D01*
X508017Y3569983D02*
Y3519200D01*
X482625D01*
X474161Y3527664D01*
Y3561520D01*
X482625Y3569983D01*
X508017D01*
X457233Y3519200D02*
Y3553056D01*
X440305Y3569983D01*
X423377Y3553056D01*
Y3519200D01*
Y3544592D01*
X457233D01*
X406450Y3561520D02*
X397985Y3569983D01*
X381058D01*
X372594Y3561520D01*
Y3553056D01*
X381058Y3544592D01*
X389522D01*
X381058D01*
X372594Y3536128D01*
Y3527664D01*
X381058Y3519200D01*
X397985D01*
X406450Y3527664D01*
X1325044Y3155120D02*
X1333508Y3163583D01*
X1350436D01*
X1358900Y3155120D01*
Y3146656D01*
X1350436Y3138192D01*
X1333508D01*
X1325044Y3129728D01*
Y3121264D01*
X1333508Y3112800D01*
X1350436D01*
X1358900Y3121264D01*
X1308117Y3163583D02*
Y3112800D01*
X1282725D01*
X1274261Y3121264D01*
Y3155120D01*
X1282725Y3163583D01*
X1308117D01*
X1257333Y3112800D02*
Y3146656D01*
X1240405Y3163583D01*
X1223477Y3146656D01*
Y3112800D01*
Y3138192D01*
X1257333D01*
X1206550Y3112800D02*
X1189622D01*
X1198085D01*
Y3163583D01*
X1206550Y3155120D01*
X1325044Y3053520D02*
X1333508Y3061983D01*
X1350436D01*
X1358900Y3053520D01*
Y3045056D01*
X1350436Y3036592D01*
X1333508D01*
X1325044Y3028128D01*
Y3019664D01*
X1333508Y3011200D01*
X1350436D01*
X1358900Y3019664D01*
X1274261Y3053520D02*
X1282725Y3061983D01*
X1299652D01*
X1308117Y3053520D01*
Y3019664D01*
X1299652Y3011200D01*
X1282725D01*
X1274261Y3019664D01*
X1257333Y3061983D02*
Y3011200D01*
X1223477D01*
X1206550D02*
X1189622D01*
X1198085D01*
Y3061983D01*
X1206550Y3053520D01*
X1337744Y3256720D02*
X1346208Y3265183D01*
X1363136D01*
X1371600Y3256720D01*
Y3248256D01*
X1363136Y3239792D01*
X1346208D01*
X1337744Y3231328D01*
Y3222864D01*
X1346208Y3214400D01*
X1363136D01*
X1371600Y3222864D01*
X1286961Y3256720D02*
X1295425Y3265183D01*
X1312352D01*
X1320817Y3256720D01*
Y3222864D01*
X1312352Y3214400D01*
X1295425D01*
X1286961Y3222864D01*
X1270033Y3265183D02*
Y3214400D01*
X1236177D01*
X1185394D02*
X1219250D01*
X1185394Y3248256D01*
Y3256720D01*
X1193858Y3265183D01*
X1210785D01*
X1219250Y3256720D01*
X1337744Y3358320D02*
X1346208Y3366783D01*
X1363136D01*
X1371600Y3358320D01*
Y3349856D01*
X1363136Y3341392D01*
X1346208D01*
X1337744Y3332928D01*
Y3324464D01*
X1346208Y3316000D01*
X1363136D01*
X1371600Y3324464D01*
X1320817Y3366783D02*
Y3316000D01*
X1295425D01*
X1286961Y3324464D01*
Y3358320D01*
X1295425Y3366783D01*
X1320817D01*
X1270033Y3316000D02*
Y3349856D01*
X1253105Y3366783D01*
X1236177Y3349856D01*
Y3316000D01*
Y3341392D01*
X1270033D01*
X1185394Y3316000D02*
X1219250D01*
X1185394Y3349856D01*
Y3358320D01*
X1193858Y3366783D01*
X1210785D01*
X1219250Y3358320D01*
X524944D02*
X533408Y3366783D01*
X550336D01*
X558800Y3358320D01*
Y3349856D01*
X550336Y3341392D01*
X533408D01*
X524944Y3332928D01*
Y3324464D01*
X533408Y3316000D01*
X550336D01*
X558800Y3324464D01*
X508017Y3366783D02*
Y3316000D01*
X482625D01*
X474161Y3324464D01*
Y3358320D01*
X482625Y3366783D01*
X508017D01*
X457233Y3316000D02*
Y3349856D01*
X440305Y3366783D01*
X423377Y3349856D01*
Y3316000D01*
Y3341392D01*
X457233D01*
X372594Y3316000D02*
X406450D01*
X372594Y3349856D01*
Y3358320D01*
X381058Y3366783D01*
X397985D01*
X406450Y3358320D01*
X524944Y3256720D02*
X533408Y3265183D01*
X550336D01*
X558800Y3256720D01*
Y3248256D01*
X550336Y3239792D01*
X533408D01*
X524944Y3231328D01*
Y3222864D01*
X533408Y3214400D01*
X550336D01*
X558800Y3222864D01*
X474161Y3256720D02*
X482625Y3265183D01*
X499552D01*
X508017Y3256720D01*
Y3222864D01*
X499552Y3214400D01*
X482625D01*
X474161Y3222864D01*
X457233Y3265183D02*
Y3214400D01*
X423377D01*
X372594D02*
X406450D01*
X372594Y3248256D01*
Y3256720D01*
X381058Y3265183D01*
X397985D01*
X406450Y3256720D01*
X1299644Y2748720D02*
X1308108Y2757183D01*
X1325036D01*
X1333500Y2748720D01*
Y2714864D01*
X1325036Y2706400D01*
X1308108D01*
X1299644Y2714864D01*
Y2731792D01*
X1316572D01*
X1282717Y2706400D02*
Y2757183D01*
X1248861Y2706400D01*
Y2757183D01*
X1231933D02*
Y2706400D01*
X1206541D01*
X1198077Y2714864D01*
Y2748720D01*
X1206541Y2757183D01*
X1231933D01*
X558800Y3663120D02*
X550336Y3671583D01*
X533408D01*
X524944Y3663120D01*
Y3654656D01*
X533408Y3646192D01*
X541872D01*
X533408D01*
X524944Y3637728D01*
Y3629264D01*
X533408Y3620800D01*
X550336D01*
X558800Y3629264D01*
X508017Y3620800D02*
Y3629264D01*
X499552D01*
Y3620800D01*
X508017D01*
X465697Y3663120D02*
X457233Y3671583D01*
X440305D01*
X431841Y3663120D01*
Y3654656D01*
X440305Y3646192D01*
X448769D01*
X440305D01*
X431841Y3637728D01*
Y3629264D01*
X440305Y3620800D01*
X457233D01*
X465697Y3629264D01*
X414913Y3671583D02*
Y3637728D01*
X397985Y3620800D01*
X381058Y3637728D01*
Y3671583D01*
X3490000Y384399D02*
X3720002D01*
X3490000Y1444401D02*
X3720002D01*
X3139998Y384399D02*
X3250000D01*
X3139998Y1444401D02*
X3250000D01*
X3139998Y384399D02*
Y612399D01*
Y1216401D02*
Y1444401D01*
X3720002Y384399D02*
Y1444401D01*
X2081798Y271699D02*
Y1531701D01*
X2661802Y271699D02*
Y485699D01*
Y1310701D02*
Y1531701D01*
X2551800Y271699D02*
X2661802D01*
X2551800Y1531701D02*
X2661802D01*
X2081798D02*
X2301798D01*
X2081798Y271699D02*
X2311800D01*
X3408100Y1172620D02*
X3399636Y1181083D01*
X3382708D01*
X3374244Y1172620D01*
Y1164156D01*
X3382708Y1155692D01*
X3391172D01*
X3382708D01*
X3374244Y1147228D01*
Y1138764D01*
X3382708Y1130300D01*
X3399636D01*
X3408100Y1138764D01*
X3357317Y1130300D02*
Y1138764D01*
X3348853D01*
Y1130300D01*
X3357317D01*
X3314997Y1172620D02*
X3306533Y1181083D01*
X3289605D01*
X3281141Y1172620D01*
Y1164156D01*
X3289605Y1155692D01*
X3298069D01*
X3289605D01*
X3281141Y1147228D01*
Y1138764D01*
X3289605Y1130300D01*
X3306533D01*
X3314997Y1138764D01*
X3264213Y1181083D02*
Y1147228D01*
X3247286Y1130300D01*
X3230358Y1147228D01*
Y1181083D01*
X3388544Y1071020D02*
X3397008Y1079483D01*
X3413936D01*
X3422400Y1071020D01*
Y1062556D01*
X3413936Y1054092D01*
X3397008D01*
X3388544Y1045628D01*
Y1037164D01*
X3397008Y1028700D01*
X3413936D01*
X3422400Y1037164D01*
X3371617Y1079483D02*
Y1028700D01*
X3346225D01*
X3337761Y1037164D01*
Y1071020D01*
X3346225Y1079483D01*
X3371617D01*
X3320833Y1028700D02*
Y1062556D01*
X3303905Y1079483D01*
X3286977Y1062556D01*
Y1028700D01*
Y1054092D01*
X3320833D01*
X3270050Y1028700D02*
X3253122D01*
X3261586D01*
Y1079483D01*
X3270050Y1071020D01*
X3388544Y969420D02*
X3397008Y977883D01*
X3413936D01*
X3422400Y969420D01*
Y960956D01*
X3413936Y952492D01*
X3397008D01*
X3388544Y944028D01*
Y935564D01*
X3397008Y927100D01*
X3413936D01*
X3422400Y935564D01*
X3337761Y969420D02*
X3346225Y977883D01*
X3363153D01*
X3371617Y969420D01*
Y935564D01*
X3363153Y927100D01*
X3346225D01*
X3337761Y935564D01*
X3320833Y977883D02*
Y927100D01*
X3286977D01*
X3270050D02*
X3253122D01*
X3261586D01*
Y977883D01*
X3270050Y969420D01*
X3388544Y778920D02*
X3397008Y787383D01*
X3413936D01*
X3422400Y778920D01*
Y770456D01*
X3413936Y761992D01*
X3397008D01*
X3388544Y753528D01*
Y745064D01*
X3397008Y736600D01*
X3413936D01*
X3422400Y745064D01*
X3337761Y778920D02*
X3346225Y787383D01*
X3363153D01*
X3371617Y778920D01*
Y745064D01*
X3363153Y736600D01*
X3346225D01*
X3337761Y745064D01*
X3320833Y787383D02*
Y736600D01*
X3286977D01*
X3270050Y778920D02*
X3261586Y787383D01*
X3244658D01*
X3236194Y778920D01*
Y745064D01*
X3244658Y736600D01*
X3261586D01*
X3270050Y745064D01*
Y778920D01*
X3388544Y867820D02*
X3397008Y876283D01*
X3413936D01*
X3422400Y867820D01*
Y859356D01*
X3413936Y850892D01*
X3397008D01*
X3388544Y842428D01*
Y833964D01*
X3397008Y825500D01*
X3413936D01*
X3422400Y833964D01*
X3371617Y876283D02*
Y825500D01*
X3346225D01*
X3337761Y833964D01*
Y867820D01*
X3346225Y876283D01*
X3371617D01*
X3320833Y825500D02*
Y859356D01*
X3303905Y876283D01*
X3286977Y859356D01*
Y825500D01*
Y850892D01*
X3320833D01*
X3270050Y867820D02*
X3261586Y876283D01*
X3244658D01*
X3236194Y867820D01*
Y833964D01*
X3244658Y825500D01*
X3261586D01*
X3270050Y833964D01*
Y867820D01*
X3388544Y677320D02*
X3397008Y685783D01*
X3413936D01*
X3422400Y677320D01*
Y643464D01*
X3413936Y635000D01*
X3397008D01*
X3388544Y643464D01*
Y660392D01*
X3405472D01*
X3371617Y635000D02*
Y685783D01*
X3337761Y635000D01*
Y685783D01*
X3320833D02*
Y635000D01*
X3295441D01*
X3286977Y643464D01*
Y677320D01*
X3295441Y685783D01*
X3320833D01*
X2563044Y664620D02*
X2571508Y673083D01*
X2588436D01*
X2596900Y664620D01*
Y656156D01*
X2588436Y647692D01*
X2571508D01*
X2563044Y639228D01*
Y630764D01*
X2571508Y622300D01*
X2588436D01*
X2596900Y630764D01*
X2512261Y664620D02*
X2520725Y673083D01*
X2537653D01*
X2546117Y664620D01*
Y630764D01*
X2537653Y622300D01*
X2520725D01*
X2512261Y630764D01*
X2495333Y673083D02*
Y622300D01*
X2461477D01*
X2444550Y664620D02*
X2436086Y673083D01*
X2419158D01*
X2410694Y664620D01*
Y630764D01*
X2419158Y622300D01*
X2436086D01*
X2444550Y630764D01*
Y664620D01*
X2563044Y766220D02*
X2571508Y774683D01*
X2588436D01*
X2596900Y766220D01*
Y757756D01*
X2588436Y749292D01*
X2571508D01*
X2563044Y740828D01*
Y732364D01*
X2571508Y723900D01*
X2588436D01*
X2596900Y732364D01*
X2546117Y774683D02*
Y723900D01*
X2520725D01*
X2512261Y732364D01*
Y766220D01*
X2520725Y774683D01*
X2546117D01*
X2495333Y723900D02*
Y757756D01*
X2478405Y774683D01*
X2461477Y757756D01*
Y723900D01*
Y749292D01*
X2495333D01*
X2444550Y766220D02*
X2436086Y774683D01*
X2419158D01*
X2410694Y766220D01*
Y732364D01*
X2419158Y723900D01*
X2436086D01*
X2444550Y732364D01*
Y766220D01*
X2563044Y867820D02*
X2571508Y876283D01*
X2588436D01*
X2596900Y867820D01*
Y859356D01*
X2588436Y850892D01*
X2571508D01*
X2563044Y842428D01*
Y833964D01*
X2571508Y825500D01*
X2588436D01*
X2596900Y833964D01*
X2512261Y867820D02*
X2520725Y876283D01*
X2537653D01*
X2546117Y867820D01*
Y833964D01*
X2537653Y825500D01*
X2520725D01*
X2512261Y833964D01*
X2495333Y876283D02*
Y825500D01*
X2461477D01*
X2444550D02*
X2427622D01*
X2436086D01*
Y876283D01*
X2444550Y867820D01*
X2563044Y969420D02*
X2571508Y977883D01*
X2588436D01*
X2596900Y969420D01*
Y960956D01*
X2588436Y952492D01*
X2571508D01*
X2563044Y944028D01*
Y935564D01*
X2571508Y927100D01*
X2588436D01*
X2596900Y935564D01*
X2546117Y977883D02*
Y927100D01*
X2520725D01*
X2512261Y935564D01*
Y969420D01*
X2520725Y977883D01*
X2546117D01*
X2495333Y927100D02*
Y960956D01*
X2478405Y977883D01*
X2461477Y960956D01*
Y927100D01*
Y952492D01*
X2495333D01*
X2444550Y927100D02*
X2427622D01*
X2436086D01*
Y977883D01*
X2444550Y969420D01*
X2566907Y1079660D02*
X2575371Y1088123D01*
X2592299D01*
X2600763Y1079660D01*
Y1071195D01*
X2592299Y1062732D01*
X2575371D01*
X2566907Y1054268D01*
Y1045804D01*
X2575371Y1037340D01*
X2592299D01*
X2600763Y1045804D01*
X2516124Y1079660D02*
X2524588Y1088123D01*
X2541516D01*
X2549980Y1079660D01*
Y1045804D01*
X2541516Y1037340D01*
X2524588D01*
X2516124Y1045804D01*
X2499196Y1088123D02*
Y1037340D01*
X2465341D01*
X2414557D02*
X2448413D01*
X2414557Y1071195D01*
Y1079660D01*
X2423021Y1088123D01*
X2439949D01*
X2448413Y1079660D01*
X2563044Y1172620D02*
X2571508Y1181083D01*
X2588436D01*
X2596900Y1172620D01*
Y1164156D01*
X2588436Y1155692D01*
X2571508D01*
X2563044Y1147228D01*
Y1138764D01*
X2571508Y1130300D01*
X2588436D01*
X2596900Y1138764D01*
X2546117Y1181083D02*
Y1130300D01*
X2520725D01*
X2512261Y1138764D01*
Y1172620D01*
X2520725Y1181083D01*
X2546117D01*
X2495333Y1130300D02*
Y1164156D01*
X2478405Y1181083D01*
X2461477Y1164156D01*
Y1130300D01*
Y1155692D01*
X2495333D01*
X2410694Y1130300D02*
X2444550D01*
X2410694Y1164156D01*
Y1172620D01*
X2419158Y1181083D01*
X2436086D01*
X2444550Y1172620D01*
X2596900Y1274220D02*
X2588436Y1282683D01*
X2571508D01*
X2563044Y1274220D01*
Y1265756D01*
X2571508Y1257292D01*
X2579972D01*
X2571508D01*
X2563044Y1248828D01*
Y1240364D01*
X2571508Y1231900D01*
X2588436D01*
X2596900Y1240364D01*
X2546117Y1231900D02*
Y1240364D01*
X2537653D01*
Y1231900D01*
X2546117D01*
X2503797Y1274220D02*
X2495333Y1282683D01*
X2478405D01*
X2469941Y1274220D01*
Y1265756D01*
X2478405Y1257292D01*
X2486869D01*
X2478405D01*
X2469941Y1248828D01*
Y1240364D01*
X2478405Y1231900D01*
X2495333D01*
X2503797Y1240364D01*
X2453013Y1282683D02*
Y1248828D01*
X2436086Y1231900D01*
X2419158Y1248828D01*
Y1282683D01*
X2563044Y563020D02*
X2571508Y571483D01*
X2588436D01*
X2596900Y563020D01*
Y529164D01*
X2588436Y520700D01*
X2571508D01*
X2563044Y529164D01*
Y546092D01*
X2579972D01*
X2546117Y520700D02*
Y571483D01*
X2512261Y520700D01*
Y571483D01*
X2495333D02*
Y520700D01*
X2469941D01*
X2461477Y529164D01*
Y563020D01*
X2469941Y571483D01*
X2495333D01*
X3490000Y2684398D02*
X3720002D01*
X3490000Y3744401D02*
X3720002D01*
X3139998Y2684398D02*
X3250000D01*
X3139998Y3744401D02*
X3250000D01*
X3139998Y2684398D02*
Y2912399D01*
Y3516401D02*
Y3744401D01*
X3720002Y2684398D02*
Y3744401D01*
X2081798Y2571699D02*
Y3831701D01*
X2661802Y2571699D02*
Y2785699D01*
Y3610701D02*
Y3831701D01*
X2551800Y2571699D02*
X2661802D01*
X2551800Y3831701D02*
X2661802D01*
X2081798D02*
X2301798D01*
X2081798Y2571699D02*
X2311800D01*
X3408100Y3472620D02*
X3399636Y3481083D01*
X3382708D01*
X3374244Y3472620D01*
Y3464156D01*
X3382708Y3455692D01*
X3391172D01*
X3382708D01*
X3374244Y3447228D01*
Y3438764D01*
X3382708Y3430300D01*
X3399636D01*
X3408100Y3438764D01*
X3357317Y3430300D02*
Y3438764D01*
X3348853D01*
Y3430300D01*
X3357317D01*
X3314997Y3472620D02*
X3306533Y3481083D01*
X3289605D01*
X3281141Y3472620D01*
Y3464156D01*
X3289605Y3455692D01*
X3298069D01*
X3289605D01*
X3281141Y3447228D01*
Y3438764D01*
X3289605Y3430300D01*
X3306533D01*
X3314997Y3438764D01*
X3264213Y3481083D02*
Y3447228D01*
X3247286Y3430300D01*
X3230358Y3447228D01*
Y3481083D01*
X3388544Y3371020D02*
X3397008Y3379483D01*
X3413936D01*
X3422400Y3371020D01*
Y3362556D01*
X3413936Y3354092D01*
X3397008D01*
X3388544Y3345628D01*
Y3337164D01*
X3397008Y3328700D01*
X3413936D01*
X3422400Y3337164D01*
X3371617Y3379483D02*
Y3328700D01*
X3346225D01*
X3337761Y3337164D01*
Y3371020D01*
X3346225Y3379483D01*
X3371617D01*
X3320833Y3328700D02*
Y3362556D01*
X3303905Y3379483D01*
X3286977Y3362556D01*
Y3328700D01*
Y3354092D01*
X3320833D01*
X3270050Y3328700D02*
X3253122D01*
X3261586D01*
Y3379483D01*
X3270050Y3371020D01*
X3388544Y3269420D02*
X3397008Y3277883D01*
X3413936D01*
X3422400Y3269420D01*
Y3260956D01*
X3413936Y3252492D01*
X3397008D01*
X3388544Y3244028D01*
Y3235564D01*
X3397008Y3227100D01*
X3413936D01*
X3422400Y3235564D01*
X3337761Y3269420D02*
X3346225Y3277883D01*
X3363153D01*
X3371617Y3269420D01*
Y3235564D01*
X3363153Y3227100D01*
X3346225D01*
X3337761Y3235564D01*
X3320833Y3277883D02*
Y3227100D01*
X3286977D01*
X3270050D02*
X3253122D01*
X3261586D01*
Y3277883D01*
X3270050Y3269420D01*
X3388544Y3078920D02*
X3397008Y3087383D01*
X3413936D01*
X3422400Y3078920D01*
Y3070456D01*
X3413936Y3061992D01*
X3397008D01*
X3388544Y3053528D01*
Y3045064D01*
X3397008Y3036600D01*
X3413936D01*
X3422400Y3045064D01*
X3337761Y3078920D02*
X3346225Y3087383D01*
X3363153D01*
X3371617Y3078920D01*
Y3045064D01*
X3363153Y3036600D01*
X3346225D01*
X3337761Y3045064D01*
X3320833Y3087383D02*
Y3036600D01*
X3286977D01*
X3270050Y3078920D02*
X3261586Y3087383D01*
X3244658D01*
X3236194Y3078920D01*
Y3045064D01*
X3244658Y3036600D01*
X3261586D01*
X3270050Y3045064D01*
Y3078920D01*
X3388544Y3167820D02*
X3397008Y3176283D01*
X3413936D01*
X3422400Y3167820D01*
Y3159356D01*
X3413936Y3150892D01*
X3397008D01*
X3388544Y3142428D01*
Y3133964D01*
X3397008Y3125500D01*
X3413936D01*
X3422400Y3133964D01*
X3371617Y3176283D02*
Y3125500D01*
X3346225D01*
X3337761Y3133964D01*
Y3167820D01*
X3346225Y3176283D01*
X3371617D01*
X3320833Y3125500D02*
Y3159356D01*
X3303905Y3176283D01*
X3286977Y3159356D01*
Y3125500D01*
Y3150892D01*
X3320833D01*
X3270050Y3167820D02*
X3261586Y3176283D01*
X3244658D01*
X3236194Y3167820D01*
Y3133964D01*
X3244658Y3125500D01*
X3261586D01*
X3270050Y3133964D01*
Y3167820D01*
X3388544Y2977320D02*
X3397008Y2985783D01*
X3413936D01*
X3422400Y2977320D01*
Y2943464D01*
X3413936Y2935000D01*
X3397008D01*
X3388544Y2943464D01*
Y2960392D01*
X3405472D01*
X3371617Y2935000D02*
Y2985783D01*
X3337761Y2935000D01*
Y2985783D01*
X3320833D02*
Y2935000D01*
X3295441D01*
X3286977Y2943464D01*
Y2977320D01*
X3295441Y2985783D01*
X3320833D01*
X2563044Y2964620D02*
X2571508Y2973083D01*
X2588436D01*
X2596900Y2964620D01*
Y2956156D01*
X2588436Y2947692D01*
X2571508D01*
X2563044Y2939228D01*
Y2930764D01*
X2571508Y2922300D01*
X2588436D01*
X2596900Y2930764D01*
X2512261Y2964620D02*
X2520725Y2973083D01*
X2537653D01*
X2546117Y2964620D01*
Y2930764D01*
X2537653Y2922300D01*
X2520725D01*
X2512261Y2930764D01*
X2495333Y2973083D02*
Y2922300D01*
X2461477D01*
X2444550Y2964620D02*
X2436086Y2973083D01*
X2419158D01*
X2410694Y2964620D01*
Y2930764D01*
X2419158Y2922300D01*
X2436086D01*
X2444550Y2930764D01*
Y2964620D01*
X2563044Y3066220D02*
X2571508Y3074683D01*
X2588436D01*
X2596900Y3066220D01*
Y3057756D01*
X2588436Y3049292D01*
X2571508D01*
X2563044Y3040828D01*
Y3032364D01*
X2571508Y3023900D01*
X2588436D01*
X2596900Y3032364D01*
X2546117Y3074683D02*
Y3023900D01*
X2520725D01*
X2512261Y3032364D01*
Y3066220D01*
X2520725Y3074683D01*
X2546117D01*
X2495333Y3023900D02*
Y3057756D01*
X2478405Y3074683D01*
X2461477Y3057756D01*
Y3023900D01*
Y3049292D01*
X2495333D01*
X2444550Y3066220D02*
X2436086Y3074683D01*
X2419158D01*
X2410694Y3066220D01*
Y3032364D01*
X2419158Y3023900D01*
X2436086D01*
X2444550Y3032364D01*
Y3066220D01*
X2563044Y3167820D02*
X2571508Y3176283D01*
X2588436D01*
X2596900Y3167820D01*
Y3159356D01*
X2588436Y3150892D01*
X2571508D01*
X2563044Y3142428D01*
Y3133964D01*
X2571508Y3125500D01*
X2588436D01*
X2596900Y3133964D01*
X2512261Y3167820D02*
X2520725Y3176283D01*
X2537653D01*
X2546117Y3167820D01*
Y3133964D01*
X2537653Y3125500D01*
X2520725D01*
X2512261Y3133964D01*
X2495333Y3176283D02*
Y3125500D01*
X2461477D01*
X2444550D02*
X2427622D01*
X2436086D01*
Y3176283D01*
X2444550Y3167820D01*
X2563044Y3269420D02*
X2571508Y3277883D01*
X2588436D01*
X2596900Y3269420D01*
Y3260956D01*
X2588436Y3252492D01*
X2571508D01*
X2563044Y3244028D01*
Y3235564D01*
X2571508Y3227100D01*
X2588436D01*
X2596900Y3235564D01*
X2546117Y3277883D02*
Y3227100D01*
X2520725D01*
X2512261Y3235564D01*
Y3269420D01*
X2520725Y3277883D01*
X2546117D01*
X2495333Y3227100D02*
Y3260956D01*
X2478405Y3277883D01*
X2461477Y3260956D01*
Y3227100D01*
Y3252492D01*
X2495333D01*
X2444550Y3227100D02*
X2427622D01*
X2436086D01*
Y3277883D01*
X2444550Y3269420D01*
X2566907Y3379659D02*
X2575371Y3388123D01*
X2592299D01*
X2600763Y3379659D01*
Y3371195D01*
X2592299Y3362732D01*
X2575371D01*
X2566907Y3354268D01*
Y3345804D01*
X2575371Y3337340D01*
X2592299D01*
X2600763Y3345804D01*
X2516124Y3379659D02*
X2524588Y3388123D01*
X2541516D01*
X2549980Y3379659D01*
Y3345804D01*
X2541516Y3337340D01*
X2524588D01*
X2516124Y3345804D01*
X2499196Y3388123D02*
Y3337340D01*
X2465341D01*
X2414557D02*
X2448413D01*
X2414557Y3371195D01*
Y3379659D01*
X2423021Y3388123D01*
X2439949D01*
X2448413Y3379659D01*
X2563044Y3472620D02*
X2571508Y3481083D01*
X2588436D01*
X2596900Y3472620D01*
Y3464156D01*
X2588436Y3455692D01*
X2571508D01*
X2563044Y3447228D01*
Y3438764D01*
X2571508Y3430300D01*
X2588436D01*
X2596900Y3438764D01*
X2546117Y3481083D02*
Y3430300D01*
X2520725D01*
X2512261Y3438764D01*
Y3472620D01*
X2520725Y3481083D01*
X2546117D01*
X2495333Y3430300D02*
Y3464156D01*
X2478405Y3481083D01*
X2461477Y3464156D01*
Y3430300D01*
Y3455692D01*
X2495333D01*
X2410694Y3430300D02*
X2444550D01*
X2410694Y3464156D01*
Y3472620D01*
X2419158Y3481083D01*
X2436086D01*
X2444550Y3472620D01*
X2596900Y3574220D02*
X2588436Y3582683D01*
X2571508D01*
X2563044Y3574220D01*
Y3565756D01*
X2571508Y3557292D01*
X2579972D01*
X2571508D01*
X2563044Y3548828D01*
Y3540364D01*
X2571508Y3531900D01*
X2588436D01*
X2596900Y3540364D01*
X2546117Y3531900D02*
Y3540364D01*
X2537653D01*
Y3531900D01*
X2546117D01*
X2503797Y3574220D02*
X2495333Y3582683D01*
X2478405D01*
X2469941Y3574220D01*
Y3565756D01*
X2478405Y3557292D01*
X2486869D01*
X2478405D01*
X2469941Y3548828D01*
Y3540364D01*
X2478405Y3531900D01*
X2495333D01*
X2503797Y3540364D01*
X2453013Y3582683D02*
Y3548828D01*
X2436086Y3531900D01*
X2419158Y3548828D01*
Y3582683D01*
X2563044Y2863020D02*
X2571508Y2871483D01*
X2588436D01*
X2596900Y2863020D01*
Y2829164D01*
X2588436Y2820700D01*
X2571508D01*
X2563044Y2829164D01*
Y2846092D01*
X2579972D01*
X2546117Y2820700D02*
Y2871483D01*
X2512261Y2820700D01*
Y2871483D01*
X2495333D02*
Y2820700D01*
X2469941D01*
X2461477Y2829164D01*
Y2863020D01*
X2469941Y2871483D01*
X2495333D01*
X6246903Y320003D02*
X6476900D01*
X6246903Y1180002D02*
X6476900D01*
X6716900D02*
X6826902D01*
X6716900Y320003D02*
X6826902D01*
Y958001D02*
Y1180002D01*
Y320003D02*
Y544001D01*
X6246903Y320003D02*
Y1180002D01*
X6715444Y614520D02*
X6723908Y622984D01*
X6740836D01*
X6749300Y614520D01*
Y580664D01*
X6740836Y572200D01*
X6723908D01*
X6715444Y580664D01*
Y597592D01*
X6732372D01*
X6698516Y572200D02*
Y622984D01*
X6664661Y572200D01*
Y622984D01*
X6647733D02*
Y572200D01*
X6622341D01*
X6613877Y580664D01*
Y614520D01*
X6622341Y622984D01*
X6647733D01*
X6715444Y817020D02*
X6723908Y825483D01*
X6740836D01*
X6749300Y817020D01*
Y808556D01*
X6740836Y800092D01*
X6723908D01*
X6715444Y791628D01*
Y783164D01*
X6723908Y774700D01*
X6740836D01*
X6749300Y783164D01*
X6698516Y825483D02*
Y774700D01*
X6673125D01*
X6664661Y783164D01*
Y817020D01*
X6673125Y825483D01*
X6698516D01*
X6647733Y774700D02*
Y808556D01*
X6630805Y825483D01*
X6613877Y808556D01*
Y774700D01*
Y800092D01*
X6647733D01*
X6596949Y817020D02*
X6588485Y825483D01*
X6571558D01*
X6563094Y817020D01*
Y783164D01*
X6571558Y774700D01*
X6588485D01*
X6596949Y783164D01*
Y817020D01*
X6736600Y918620D02*
X6728136Y927083D01*
X6711208D01*
X6702744Y918620D01*
Y910156D01*
X6711208Y901692D01*
X6719672D01*
X6711208D01*
X6702744Y893228D01*
Y884764D01*
X6711208Y876300D01*
X6728136D01*
X6736600Y884764D01*
X6685816Y876300D02*
Y884764D01*
X6677352D01*
Y876300D01*
X6685816D01*
X6643497Y918620D02*
X6635033Y927083D01*
X6618105D01*
X6609641Y918620D01*
Y910156D01*
X6618105Y901692D01*
X6626569D01*
X6618105D01*
X6609641Y893228D01*
Y884764D01*
X6618105Y876300D01*
X6635033D01*
X6643497Y884764D01*
X6592713Y927083D02*
Y893228D01*
X6575785Y876300D01*
X6558858Y893228D01*
Y927083D01*
X6715444Y715420D02*
X6723908Y723883D01*
X6740836D01*
X6749300Y715420D01*
Y706956D01*
X6740836Y698492D01*
X6723908D01*
X6715444Y690028D01*
Y681564D01*
X6723908Y673100D01*
X6740836D01*
X6749300Y681564D01*
X6664661Y715420D02*
X6673125Y723883D01*
X6690052D01*
X6698516Y715420D01*
Y681564D01*
X6690052Y673100D01*
X6673125D01*
X6664661Y681564D01*
X6647733Y723883D02*
Y673100D01*
X6613877D01*
X6596949Y715420D02*
X6588485Y723883D01*
X6571558D01*
X6563094Y715420D01*
Y681564D01*
X6571558Y673100D01*
X6588485D01*
X6596949Y681564D01*
Y715420D01*
X6246903Y2920004D02*
X6476900D01*
X6246903Y3780002D02*
X6476900D01*
X6716900D02*
X6826902D01*
X6716900Y2920004D02*
X6826902D01*
Y3558001D02*
Y3780002D01*
Y2920004D02*
Y3144001D01*
X6246903Y2920004D02*
Y3780002D01*
X6715444Y3214520D02*
X6723908Y3222984D01*
X6740836D01*
X6749300Y3214520D01*
Y3180664D01*
X6740836Y3172200D01*
X6723908D01*
X6715444Y3180664D01*
Y3197592D01*
X6732372D01*
X6698516Y3172200D02*
Y3222984D01*
X6664661Y3172200D01*
Y3222984D01*
X6647733D02*
Y3172200D01*
X6622341D01*
X6613877Y3180664D01*
Y3214520D01*
X6622341Y3222984D01*
X6647733D01*
X6715444Y3417020D02*
X6723908Y3425484D01*
X6740836D01*
X6749300Y3417020D01*
Y3408556D01*
X6740836Y3400092D01*
X6723908D01*
X6715444Y3391628D01*
Y3383164D01*
X6723908Y3374700D01*
X6740836D01*
X6749300Y3383164D01*
X6698516Y3425484D02*
Y3374700D01*
X6673125D01*
X6664661Y3383164D01*
Y3417020D01*
X6673125Y3425484D01*
X6698516D01*
X6647733Y3374700D02*
Y3408556D01*
X6630805Y3425484D01*
X6613877Y3408556D01*
Y3374700D01*
Y3400092D01*
X6647733D01*
X6596949Y3417020D02*
X6588485Y3425484D01*
X6571558D01*
X6563094Y3417020D01*
Y3383164D01*
X6571558Y3374700D01*
X6588485D01*
X6596949Y3383164D01*
Y3417020D01*
X6736600Y3518620D02*
X6728136Y3527084D01*
X6711208D01*
X6702744Y3518620D01*
Y3510156D01*
X6711208Y3501692D01*
X6719672D01*
X6711208D01*
X6702744Y3493228D01*
Y3484764D01*
X6711208Y3476300D01*
X6728136D01*
X6736600Y3484764D01*
X6685816Y3476300D02*
Y3484764D01*
X6677352D01*
Y3476300D01*
X6685816D01*
X6643497Y3518620D02*
X6635033Y3527084D01*
X6618105D01*
X6609641Y3518620D01*
Y3510156D01*
X6618105Y3501692D01*
X6626569D01*
X6618105D01*
X6609641Y3493228D01*
Y3484764D01*
X6618105Y3476300D01*
X6635033D01*
X6643497Y3484764D01*
X6592713Y3527084D02*
Y3493228D01*
X6575785Y3476300D01*
X6558858Y3493228D01*
Y3527084D01*
X6715444Y3315420D02*
X6723908Y3323884D01*
X6740836D01*
X6749300Y3315420D01*
Y3306956D01*
X6740836Y3298492D01*
X6723908D01*
X6715444Y3290028D01*
Y3281564D01*
X6723908Y3273100D01*
X6740836D01*
X6749300Y3281564D01*
X6664661Y3315420D02*
X6673125Y3323884D01*
X6690052D01*
X6698516Y3315420D01*
Y3281564D01*
X6690052Y3273100D01*
X6673125D01*
X6664661Y3281564D01*
X6647733Y3323884D02*
Y3273100D01*
X6613877D01*
X6596949Y3315420D02*
X6588485Y3323884D01*
X6571558D01*
X6563094Y3315420D01*
Y3281564D01*
X6571558Y3273100D01*
X6588485D01*
X6596949Y3281564D01*
Y3315420D01*
X6246903Y5520004D02*
X6476900D01*
X6246903Y6380002D02*
X6476900D01*
X6716900D02*
X6826902D01*
X6716900Y5520004D02*
X6826902D01*
Y6158001D02*
Y6380002D01*
Y5520004D02*
Y5744001D01*
X6246903Y5520004D02*
Y6380002D01*
X6715444Y5814520D02*
X6723908Y5822984D01*
X6740836D01*
X6749300Y5814520D01*
Y5780664D01*
X6740836Y5772200D01*
X6723908D01*
X6715444Y5780664D01*
Y5797592D01*
X6732372D01*
X6698516Y5772200D02*
Y5822984D01*
X6664661Y5772200D01*
Y5822984D01*
X6647733D02*
Y5772200D01*
X6622341D01*
X6613877Y5780664D01*
Y5814520D01*
X6622341Y5822984D01*
X6647733D01*
X6715444Y6017020D02*
X6723908Y6025484D01*
X6740836D01*
X6749300Y6017020D01*
Y6008556D01*
X6740836Y6000092D01*
X6723908D01*
X6715444Y5991628D01*
Y5983164D01*
X6723908Y5974700D01*
X6740836D01*
X6749300Y5983164D01*
X6698516Y6025484D02*
Y5974700D01*
X6673125D01*
X6664661Y5983164D01*
Y6017020D01*
X6673125Y6025484D01*
X6698516D01*
X6647733Y5974700D02*
Y6008556D01*
X6630805Y6025484D01*
X6613877Y6008556D01*
Y5974700D01*
Y6000092D01*
X6647733D01*
X6596949Y6017020D02*
X6588485Y6025484D01*
X6571558D01*
X6563094Y6017020D01*
Y5983164D01*
X6571558Y5974700D01*
X6588485D01*
X6596949Y5983164D01*
Y6017020D01*
X6736600Y6118620D02*
X6728136Y6127084D01*
X6711208D01*
X6702744Y6118620D01*
Y6110156D01*
X6711208Y6101692D01*
X6719672D01*
X6711208D01*
X6702744Y6093228D01*
Y6084764D01*
X6711208Y6076300D01*
X6728136D01*
X6736600Y6084764D01*
X6685816Y6076300D02*
Y6084764D01*
X6677352D01*
Y6076300D01*
X6685816D01*
X6643497Y6118620D02*
X6635033Y6127084D01*
X6618105D01*
X6609641Y6118620D01*
Y6110156D01*
X6618105Y6101692D01*
X6626569D01*
X6618105D01*
X6609641Y6093228D01*
Y6084764D01*
X6618105Y6076300D01*
X6635033D01*
X6643497Y6084764D01*
X6592713Y6127084D02*
Y6093228D01*
X6575785Y6076300D01*
X6558858Y6093228D01*
Y6127084D01*
X6715444Y5915420D02*
X6723908Y5923884D01*
X6740836D01*
X6749300Y5915420D01*
Y5906956D01*
X6740836Y5898492D01*
X6723908D01*
X6715444Y5890028D01*
Y5881564D01*
X6723908Y5873100D01*
X6740836D01*
X6749300Y5881564D01*
X6664661Y5915420D02*
X6673125Y5923884D01*
X6690052D01*
X6698516Y5915420D01*
Y5881564D01*
X6690052Y5873100D01*
X6673125D01*
X6664661Y5881564D01*
X6647733Y5923884D02*
Y5873100D01*
X6613877D01*
X6596949Y5915420D02*
X6588485Y5923884D01*
X6571558D01*
X6563094Y5915420D01*
Y5881564D01*
X6571558Y5873100D01*
X6588485D01*
X6596949Y5881564D01*
Y5915420D01*
X4081798Y369998D02*
Y1430001D01*
X4661802Y369998D02*
Y597999D01*
Y1202001D02*
Y1430001D01*
X4551800Y369998D02*
X4661802D01*
X4551800Y1430001D02*
X4661802D01*
X4081798Y369998D02*
X4311800D01*
X4081798Y1430001D02*
X4311800D01*
X5721602Y469998D02*
Y1330002D01*
X5141598Y1105999D02*
Y1330002D01*
Y469998D02*
Y691999D01*
Y1330002D02*
X5251600D01*
X5141598Y469998D02*
X5251600D01*
X5491600D02*
X5721602D01*
X5491600Y1330002D02*
X5721602D01*
X4563044Y804320D02*
X4571508Y812783D01*
X4588436D01*
X4596900Y804320D01*
Y795856D01*
X4588436Y787392D01*
X4571508D01*
X4563044Y778928D01*
Y770464D01*
X4571508Y762000D01*
X4588436D01*
X4596900Y770464D01*
X4512261Y804320D02*
X4520725Y812783D01*
X4537652D01*
X4546116Y804320D01*
Y770464D01*
X4537652Y762000D01*
X4520725D01*
X4512261Y770464D01*
X4495333Y812783D02*
Y762000D01*
X4461477D01*
X4444549Y804320D02*
X4436085Y812783D01*
X4419158D01*
X4410694Y804320D01*
Y770464D01*
X4419158Y762000D01*
X4436085D01*
X4444549Y770464D01*
Y804320D01*
X4563044Y675620D02*
X4571508Y684083D01*
X4588436D01*
X4596900Y675620D01*
Y641764D01*
X4588436Y633300D01*
X4571508D01*
X4563044Y641764D01*
Y658692D01*
X4579972D01*
X4546116Y633300D02*
Y684083D01*
X4512261Y633300D01*
Y684083D01*
X4495333D02*
Y633300D01*
X4469941D01*
X4461477Y641764D01*
Y675620D01*
X4469941Y684083D01*
X4495333D01*
X5397000Y1071020D02*
X5388536Y1079483D01*
X5371608D01*
X5363144Y1071020D01*
Y1062556D01*
X5371608Y1054092D01*
X5380072D01*
X5371608D01*
X5363144Y1045628D01*
Y1037164D01*
X5371608Y1028700D01*
X5388536D01*
X5397000Y1037164D01*
X5346216Y1028700D02*
Y1037164D01*
X5337752D01*
Y1028700D01*
X5346216D01*
X5303897Y1071020D02*
X5295433Y1079483D01*
X5278505D01*
X5270041Y1071020D01*
Y1062556D01*
X5278505Y1054092D01*
X5286969D01*
X5278505D01*
X5270041Y1045628D01*
Y1037164D01*
X5278505Y1028700D01*
X5295433D01*
X5303897Y1037164D01*
X5253113Y1079483D02*
Y1045628D01*
X5236185Y1028700D01*
X5219258Y1045628D01*
Y1079483D01*
X4566907Y1017760D02*
X4575371Y1026223D01*
X4592299D01*
X4600763Y1017760D01*
Y1009296D01*
X4592299Y1000832D01*
X4575371D01*
X4566907Y992368D01*
Y983904D01*
X4575371Y975440D01*
X4592299D01*
X4600763Y983904D01*
X4516124Y1017760D02*
X4524588Y1026223D01*
X4541515D01*
X4549979Y1017760D01*
Y983904D01*
X4541515Y975440D01*
X4524588D01*
X4516124Y983904D01*
X4499196Y1026223D02*
Y975440D01*
X4465340D01*
X4448412D02*
X4431485D01*
X4439948D01*
Y1026223D01*
X4448412Y1017760D01*
X4563044Y1109120D02*
X4571508Y1117583D01*
X4588436D01*
X4596900Y1109120D01*
Y1100656D01*
X4588436Y1092192D01*
X4571508D01*
X4563044Y1083728D01*
Y1075264D01*
X4571508Y1066800D01*
X4588436D01*
X4596900Y1075264D01*
X4546116Y1117583D02*
Y1066800D01*
X4520725D01*
X4512261Y1075264D01*
Y1109120D01*
X4520725Y1117583D01*
X4546116D01*
X4495333Y1066800D02*
Y1100656D01*
X4478405Y1117583D01*
X4461477Y1100656D01*
Y1066800D01*
Y1092192D01*
X4495333D01*
X4444549Y1066800D02*
X4427622D01*
X4436085D01*
Y1117583D01*
X4444549Y1109120D01*
X4596900Y1210720D02*
X4588436Y1219183D01*
X4571508D01*
X4563044Y1210720D01*
Y1202256D01*
X4571508Y1193792D01*
X4579972D01*
X4571508D01*
X4563044Y1185328D01*
Y1176864D01*
X4571508Y1168400D01*
X4588436D01*
X4596900Y1176864D01*
X4546116Y1168400D02*
Y1176864D01*
X4537652D01*
Y1168400D01*
X4546116D01*
X4503797Y1210720D02*
X4495333Y1219183D01*
X4478405D01*
X4469941Y1210720D01*
Y1202256D01*
X4478405Y1193792D01*
X4486869D01*
X4478405D01*
X4469941Y1185328D01*
Y1176864D01*
X4478405Y1168400D01*
X4495333D01*
X4503797Y1176864D01*
X4453013Y1219183D02*
Y1185328D01*
X4436085Y1168400D01*
X4419158Y1185328D01*
Y1219183D01*
X4563044Y905920D02*
X4571508Y914383D01*
X4588436D01*
X4596900Y905920D01*
Y897456D01*
X4588436Y888992D01*
X4571508D01*
X4563044Y880528D01*
Y872064D01*
X4571508Y863600D01*
X4588436D01*
X4596900Y872064D01*
X4546116Y914383D02*
Y863600D01*
X4520725D01*
X4512261Y872064D01*
Y905920D01*
X4520725Y914383D01*
X4546116D01*
X4495333Y863600D02*
Y897456D01*
X4478405Y914383D01*
X4461477Y897456D01*
Y863600D01*
Y888992D01*
X4495333D01*
X4444549Y905920D02*
X4436085Y914383D01*
X4419158D01*
X4410694Y905920D01*
Y872064D01*
X4419158Y863600D01*
X4436085D01*
X4444549Y872064D01*
Y905920D01*
X5363144Y867820D02*
X5371608Y876283D01*
X5388536D01*
X5397000Y867820D01*
Y859356D01*
X5388536Y850892D01*
X5371608D01*
X5363144Y842428D01*
Y833964D01*
X5371608Y825500D01*
X5388536D01*
X5397000Y833964D01*
X5312361Y867820D02*
X5320825Y876283D01*
X5337752D01*
X5346216Y867820D01*
Y833964D01*
X5337752Y825500D01*
X5320825D01*
X5312361Y833964D01*
X5295433Y876283D02*
Y825500D01*
X5261577D01*
X5244649Y867820D02*
X5236185Y876283D01*
X5219258D01*
X5210794Y867820D01*
Y833964D01*
X5219258Y825500D01*
X5236185D01*
X5244649Y833964D01*
Y867820D01*
X5363144Y969420D02*
X5371608Y977883D01*
X5388536D01*
X5397000Y969420D01*
Y960956D01*
X5388536Y952492D01*
X5371608D01*
X5363144Y944028D01*
Y935564D01*
X5371608Y927100D01*
X5388536D01*
X5397000Y935564D01*
X5346216Y977883D02*
Y927100D01*
X5320825D01*
X5312361Y935564D01*
Y969420D01*
X5320825Y977883D01*
X5346216D01*
X5295433Y927100D02*
Y960956D01*
X5278505Y977883D01*
X5261577Y960956D01*
Y927100D01*
Y952492D01*
X5295433D01*
X5244649Y969420D02*
X5236185Y977883D01*
X5219258D01*
X5210794Y969420D01*
Y935564D01*
X5219258Y927100D01*
X5236185D01*
X5244649Y935564D01*
Y969420D01*
X5312344Y766220D02*
X5320808Y774683D01*
X5337736D01*
X5346200Y766220D01*
Y732364D01*
X5337736Y723900D01*
X5320808D01*
X5312344Y732364D01*
Y749292D01*
X5329272D01*
X5295416Y723900D02*
Y774683D01*
X5261561Y723900D01*
Y774683D01*
X5244633D02*
Y723900D01*
X5219241D01*
X5210777Y732364D01*
Y766220D01*
X5219241Y774683D01*
X5244633D01*
X4081798Y2669998D02*
Y3730001D01*
X4661802Y2669998D02*
Y2897999D01*
Y3502001D02*
Y3730001D01*
X4551800Y2669998D02*
X4661802D01*
X4551800Y3730001D02*
X4661802D01*
X4081798Y2669998D02*
X4311800D01*
X4081798Y3730001D02*
X4311800D01*
X5721602Y2769998D02*
Y3630002D01*
X5141598Y3405999D02*
Y3630002D01*
Y2769998D02*
Y2991999D01*
Y3630002D02*
X5251600D01*
X5141598Y2769998D02*
X5251600D01*
X5491600D02*
X5721602D01*
X5491600Y3630002D02*
X5721602D01*
X4563044Y3104320D02*
X4571508Y3112783D01*
X4588436D01*
X4596900Y3104320D01*
Y3095856D01*
X4588436Y3087392D01*
X4571508D01*
X4563044Y3078928D01*
Y3070464D01*
X4571508Y3062000D01*
X4588436D01*
X4596900Y3070464D01*
X4512261Y3104320D02*
X4520725Y3112783D01*
X4537652D01*
X4546116Y3104320D01*
Y3070464D01*
X4537652Y3062000D01*
X4520725D01*
X4512261Y3070464D01*
X4495333Y3112783D02*
Y3062000D01*
X4461477D01*
X4444549Y3104320D02*
X4436085Y3112783D01*
X4419158D01*
X4410694Y3104320D01*
Y3070464D01*
X4419158Y3062000D01*
X4436085D01*
X4444549Y3070464D01*
Y3104320D01*
X4563044Y2975620D02*
X4571508Y2984083D01*
X4588436D01*
X4596900Y2975620D01*
Y2941764D01*
X4588436Y2933300D01*
X4571508D01*
X4563044Y2941764D01*
Y2958692D01*
X4579972D01*
X4546116Y2933300D02*
Y2984083D01*
X4512261Y2933300D01*
Y2984083D01*
X4495333D02*
Y2933300D01*
X4469941D01*
X4461477Y2941764D01*
Y2975620D01*
X4469941Y2984083D01*
X4495333D01*
X5397000Y3371020D02*
X5388536Y3379483D01*
X5371608D01*
X5363144Y3371020D01*
Y3362556D01*
X5371608Y3354092D01*
X5380072D01*
X5371608D01*
X5363144Y3345628D01*
Y3337164D01*
X5371608Y3328700D01*
X5388536D01*
X5397000Y3337164D01*
X5346216Y3328700D02*
Y3337164D01*
X5337752D01*
Y3328700D01*
X5346216D01*
X5303897Y3371020D02*
X5295433Y3379483D01*
X5278505D01*
X5270041Y3371020D01*
Y3362556D01*
X5278505Y3354092D01*
X5286969D01*
X5278505D01*
X5270041Y3345628D01*
Y3337164D01*
X5278505Y3328700D01*
X5295433D01*
X5303897Y3337164D01*
X5253113Y3379483D02*
Y3345628D01*
X5236185Y3328700D01*
X5219258Y3345628D01*
Y3379483D01*
X4566907Y3317760D02*
X4575371Y3326223D01*
X4592299D01*
X4600763Y3317760D01*
Y3309296D01*
X4592299Y3300832D01*
X4575371D01*
X4566907Y3292368D01*
Y3283904D01*
X4575371Y3275440D01*
X4592299D01*
X4600763Y3283904D01*
X4516124Y3317760D02*
X4524588Y3326223D01*
X4541515D01*
X4549979Y3317760D01*
Y3283904D01*
X4541515Y3275440D01*
X4524588D01*
X4516124Y3283904D01*
X4499196Y3326223D02*
Y3275440D01*
X4465340D01*
X4448412D02*
X4431485D01*
X4439948D01*
Y3326223D01*
X4448412Y3317760D01*
X4563044Y3409120D02*
X4571508Y3417583D01*
X4588436D01*
X4596900Y3409120D01*
Y3400656D01*
X4588436Y3392192D01*
X4571508D01*
X4563044Y3383728D01*
Y3375264D01*
X4571508Y3366800D01*
X4588436D01*
X4596900Y3375264D01*
X4546116Y3417583D02*
Y3366800D01*
X4520725D01*
X4512261Y3375264D01*
Y3409120D01*
X4520725Y3417583D01*
X4546116D01*
X4495333Y3366800D02*
Y3400656D01*
X4478405Y3417583D01*
X4461477Y3400656D01*
Y3366800D01*
Y3392192D01*
X4495333D01*
X4444549Y3366800D02*
X4427622D01*
X4436085D01*
Y3417583D01*
X4444549Y3409120D01*
X4596900Y3510720D02*
X4588436Y3519183D01*
X4571508D01*
X4563044Y3510720D01*
Y3502256D01*
X4571508Y3493792D01*
X4579972D01*
X4571508D01*
X4563044Y3485328D01*
Y3476864D01*
X4571508Y3468400D01*
X4588436D01*
X4596900Y3476864D01*
X4546116Y3468400D02*
Y3476864D01*
X4537652D01*
Y3468400D01*
X4546116D01*
X4503797Y3510720D02*
X4495333Y3519183D01*
X4478405D01*
X4469941Y3510720D01*
Y3502256D01*
X4478405Y3493792D01*
X4486869D01*
X4478405D01*
X4469941Y3485328D01*
Y3476864D01*
X4478405Y3468400D01*
X4495333D01*
X4503797Y3476864D01*
X4453013Y3519183D02*
Y3485328D01*
X4436085Y3468400D01*
X4419158Y3485328D01*
Y3519183D01*
X4563044Y3205920D02*
X4571508Y3214383D01*
X4588436D01*
X4596900Y3205920D01*
Y3197456D01*
X4588436Y3188992D01*
X4571508D01*
X4563044Y3180528D01*
Y3172064D01*
X4571508Y3163600D01*
X4588436D01*
X4596900Y3172064D01*
X4546116Y3214383D02*
Y3163600D01*
X4520725D01*
X4512261Y3172064D01*
Y3205920D01*
X4520725Y3214383D01*
X4546116D01*
X4495333Y3163600D02*
Y3197456D01*
X4478405Y3214383D01*
X4461477Y3197456D01*
Y3163600D01*
Y3188992D01*
X4495333D01*
X4444549Y3205920D02*
X4436085Y3214383D01*
X4419158D01*
X4410694Y3205920D01*
Y3172064D01*
X4419158Y3163600D01*
X4436085D01*
X4444549Y3172064D01*
Y3205920D01*
X5363144Y3167820D02*
X5371608Y3176283D01*
X5388536D01*
X5397000Y3167820D01*
Y3159356D01*
X5388536Y3150892D01*
X5371608D01*
X5363144Y3142428D01*
Y3133964D01*
X5371608Y3125500D01*
X5388536D01*
X5397000Y3133964D01*
X5312361Y3167820D02*
X5320825Y3176283D01*
X5337752D01*
X5346216Y3167820D01*
Y3133964D01*
X5337752Y3125500D01*
X5320825D01*
X5312361Y3133964D01*
X5295433Y3176283D02*
Y3125500D01*
X5261577D01*
X5244649Y3167820D02*
X5236185Y3176283D01*
X5219258D01*
X5210794Y3167820D01*
Y3133964D01*
X5219258Y3125500D01*
X5236185D01*
X5244649Y3133964D01*
Y3167820D01*
X5363144Y3269420D02*
X5371608Y3277883D01*
X5388536D01*
X5397000Y3269420D01*
Y3260956D01*
X5388536Y3252492D01*
X5371608D01*
X5363144Y3244028D01*
Y3235564D01*
X5371608Y3227100D01*
X5388536D01*
X5397000Y3235564D01*
X5346216Y3277883D02*
Y3227100D01*
X5320825D01*
X5312361Y3235564D01*
Y3269420D01*
X5320825Y3277883D01*
X5346216D01*
X5295433Y3227100D02*
Y3260956D01*
X5278505Y3277883D01*
X5261577Y3260956D01*
Y3227100D01*
Y3252492D01*
X5295433D01*
X5244649Y3269420D02*
X5236185Y3277883D01*
X5219258D01*
X5210794Y3269420D01*
Y3235564D01*
X5219258Y3227100D01*
X5236185D01*
X5244649Y3235564D01*
Y3269420D01*
X5312344Y3066220D02*
X5320808Y3074683D01*
X5337736D01*
X5346200Y3066220D01*
Y3032364D01*
X5337736Y3023900D01*
X5320808D01*
X5312344Y3032364D01*
Y3049292D01*
X5329272D01*
X5295416Y3023900D02*
Y3074683D01*
X5261561Y3023900D01*
Y3074683D01*
X5244633D02*
Y3023900D01*
X5219241D01*
X5210777Y3032364D01*
Y3066220D01*
X5219241Y3074683D01*
X5244633D01*
D32*
X2678900Y8039800D02*
G03*
X2678900Y8039800I-25400J0D01*
G01*
D33*
X2209800Y8614800D02*
X2276445D01*
X2184400Y8368722D02*
X2251045D01*
X2217723Y8402045D02*
Y8335400D01*
%TF.MD5,c36de8f1e290729630e6f8829ba57586*%
M02*
