%TF.GenerationSoftware,Altium Limited,Altium Designer,24.3.1 (35)*%
G04 Layer_Color=8388736*
%FSLAX45Y45*%
%MOMM*%
%TF.SameCoordinates,065391E9-2A1D-4ECE-AA0D-878B158C5FC5*%
%TF.FilePolarity,Positive*%
%TF.FileFunction,Other,Mechanical_14*%
%TF.Part,CustomerPanel*%
G01*
G75*
%TA.AperFunction,NonConductor*%
%ADD30C,0.12700*%
%ADD33C,0.25400*%
D30*
X6246903Y1180002D02*
X6826902D01*
Y320003D02*
Y1180002D01*
X6246903Y320003D02*
X6826902D01*
X6246903Y3780002D02*
X6826902D01*
Y2920004D02*
Y3780002D01*
X6246903Y2920004D02*
X6826902D01*
X6246903Y6380002D02*
X6826902D01*
Y5520004D02*
Y6380002D01*
X6246903Y5520004D02*
X6826902D01*
X4081798Y369998D02*
X4661802D01*
Y1430001D01*
X4081798D02*
X4661802D01*
X5141598Y1330002D02*
X5721602D01*
X5141598Y469998D02*
Y1330002D01*
Y469998D02*
X5721602D01*
X4081798Y2669998D02*
X4661802D01*
Y3730001D01*
X4081798D02*
X4661802D01*
X5141598Y3630002D02*
X5721602D01*
X5141598Y2769998D02*
Y3630002D01*
Y2769998D02*
X5721602D01*
D33*
X6631900Y560000D02*
Y602320D01*
Y581160D01*
X6758859D01*
X6737699Y560000D01*
X6631900Y3160000D02*
Y3202320D01*
Y3181160D01*
X6758859D01*
X6737699Y3160000D01*
X6631900Y5760000D02*
Y5802320D01*
Y5781160D01*
X6758859D01*
X6737699Y5760000D01*
X4551886Y649822D02*
Y670150D01*
Y659986D01*
X4612870D01*
X4602706Y649822D01*
X5336600Y1090000D02*
Y1047680D01*
Y1068840D01*
X5209641D01*
X5230801Y1090000D01*
X4551886Y2949822D02*
Y2970150D01*
Y2959986D01*
X4612870D01*
X4602706Y2949822D01*
X5336600Y3390000D02*
Y3347680D01*
Y3368840D01*
X5209641D01*
X5230801Y3390000D01*
%TF.MD5,754eb61eed6d4063f2a932cc073fd7af*%
M02*
