%TF.GenerationSoftware,Altium Limited,Altium Designer,24.3.1 (35)*%
G04 Layer_Color=16711935*
%FSLAX45Y45*%
%MOMM*%
%TF.SameCoordinates,065391E9-2A1D-4ECE-AA0D-878B158C5FC5*%
%TF.FilePolarity,Positive*%
%TF.FileFunction,Keep-out,Top*%
%TF.Part,CustomerPanel*%
G01*
G75*
%TA.AperFunction,NonConductor*%
%ADD52C,0.30000*%
%ADD53C,2.03200*%
D52*
X6000000Y4100000D02*
X6200000D01*
X5300000D02*
X5800000D01*
X6200000Y4100000D02*
Y5200000D01*
X2000000Y500000D02*
Y1300000D01*
X1800000Y500000D02*
X2000000D01*
X1800000D02*
Y1300000D01*
X2000000D01*
X4000000Y500000D02*
Y1300000D01*
X3800000Y500000D02*
X4000000D01*
X3800000D02*
Y1300000D01*
X4000000D01*
X6000000Y500000D02*
Y1000000D01*
X5800000Y500000D02*
X6000000D01*
X5800000D02*
Y1000000D01*
X6000000D01*
X6200000Y1500000D02*
Y2600000D01*
X6000000Y1500000D02*
X6200000D01*
X6000000Y1200000D02*
Y1500000D01*
X5800000Y1200000D02*
X6000000D01*
X5800000D02*
Y1500000D01*
Y1800000D01*
X5600000D02*
X5800000D01*
X5600000D02*
Y2300000D01*
X5800000D01*
Y2600000D01*
X7100000Y1500000D02*
Y2600000D01*
X6400000Y1500000D02*
X7100000D01*
X6400000D02*
Y2600000D01*
X7100000D01*
X2000000Y2300000D02*
Y2500000D01*
Y2300000D02*
X2200000D01*
Y1800000D02*
Y2300000D01*
X2000000Y1800000D02*
X2200000D01*
X2000000Y1600000D02*
Y1800000D01*
X1800000Y1600000D02*
X2000000D01*
X1800000D02*
Y1800000D01*
X1600000D02*
X1800000D01*
X1600000D02*
Y2300000D01*
X1800000D01*
Y2500000D01*
X2000000D01*
X4000000Y2300000D02*
Y2500000D01*
Y2300000D02*
X4200000D01*
Y1800000D02*
Y2300000D01*
X4000000Y1800000D02*
X4200000D01*
X4000000Y1600000D02*
Y1800000D01*
X3800000Y1600000D02*
X4000000D01*
X3800000D02*
Y1800000D01*
X3600000D02*
X3800000D01*
X3600000D02*
Y2300000D01*
X3800000D01*
Y2500000D01*
X4000000D01*
X1400000Y1800000D02*
Y2300000D01*
X400000Y1800000D02*
X1400000D01*
X400000D02*
Y2300000D01*
X1400000D01*
X3400000Y1800000D02*
Y2300000D01*
X2400000Y1800000D02*
X3400000D01*
X2400000D02*
Y2300000D01*
X3400000D01*
X5400000Y1800000D02*
Y2300000D01*
X4400000Y1800000D02*
X5400000D01*
X4400000D02*
Y2300000D01*
X5400000D01*
X6000000Y2600000D02*
Y2900000D01*
X5800000Y2600000D02*
Y2900000D01*
X6000000D01*
X2000000Y2800000D02*
Y3500000D01*
X1800000Y2800000D02*
X2000000D01*
X1800000D02*
Y3500000D01*
X2000000D01*
X4000000Y2800000D02*
Y3500000D01*
X3800000Y2800000D02*
X4000000D01*
X3800000D02*
Y3500000D01*
X4000000D01*
X6000000Y3100000D02*
Y3600000D01*
X5800000Y3100000D02*
X6000000D01*
X5800000D02*
Y3600000D01*
X6000000D01*
X2200000Y4100000D02*
Y4500000D01*
X2000000Y4100000D02*
X2200000D01*
X2000000Y3800000D02*
Y4100000D01*
X1800000Y3800000D02*
X2000000D01*
X1800000D02*
Y4100000D01*
X1600000D02*
X1800000D01*
X1600000D02*
Y4500000D01*
X2200000D01*
X4200000Y4100000D02*
Y4500000D01*
X4000000Y4100000D02*
X4200000D01*
X4000000Y3800000D02*
Y4100000D01*
X3800000Y3800000D02*
X4000000D01*
X3800000D02*
Y4100000D01*
X3600000D02*
X3800000D01*
X3600000D02*
Y4500000D01*
X4200000D01*
X6000000Y3800000D02*
Y4100000D01*
X5800000Y3800000D02*
X6000000D01*
X5800000D02*
Y4100000D01*
X1400000D02*
Y4500000D01*
X400000Y4100000D02*
X1400000D01*
X400000D02*
Y4500000D01*
X1400000D01*
X3400000Y4100000D02*
Y4500000D01*
X2400000Y4100000D02*
X3400000D01*
X2400000D02*
Y4500000D01*
X3400000D01*
X5100000Y4100000D02*
Y4500000D01*
X4400000Y4100000D02*
X5100000D01*
X4400000D02*
Y4500000D01*
X5100000D01*
X6000000Y5200000D02*
Y5400000D01*
Y5200000D02*
X6200000D01*
X5500000Y4100000D02*
Y4100000D01*
X5300000Y4100000D02*
X5500000D01*
X5300000D02*
Y4500000D01*
X5500000D01*
Y5200000D01*
Y5400000D01*
X6000000D01*
X7100000Y4100000D02*
Y5200000D01*
X6400000Y4100000D02*
X7100000D01*
X6400000D02*
Y5200000D01*
X7100000D01*
X6000000Y5562600D02*
Y6300000D01*
X5500000Y5562600D02*
X6000000D01*
X5500000D02*
Y6300000D01*
X6000000D01*
X5499960Y6700000D02*
Y9000000D01*
X0D02*
X5499960D01*
X0Y4500000D02*
Y9000000D01*
Y4500000D02*
X200000D01*
Y4100000D02*
Y4500000D01*
X0Y4100000D02*
X200000D01*
X0Y2300000D02*
Y4100000D01*
Y2300000D02*
X200000D01*
Y1800000D02*
Y2300000D01*
X0Y1800000D02*
X200000D01*
X0Y0D02*
Y1800000D01*
Y0D02*
X1800000D01*
Y200000D01*
X2000000D01*
Y0D02*
Y200000D01*
Y0D02*
X3800000D01*
Y200000D01*
X4000000D01*
Y0D02*
Y200000D01*
Y0D02*
X5800000D01*
Y300000D01*
X6000000D01*
Y0D02*
Y300000D01*
Y0D02*
X7500000D01*
Y1500000D01*
X7300000D02*
X7500000D01*
X7300000D02*
Y2600000D01*
X7500000D01*
Y4100000D01*
X7300000D02*
X7500000D01*
X7300000D02*
Y5200000D01*
X7500000D01*
Y6700000D01*
X6000000D02*
X7500000D01*
X6000000Y6500000D02*
Y6700000D01*
X5500000Y6500000D02*
X6000000D01*
X5500000D02*
Y6700000D01*
X5499960D02*
X5500000D01*
X2000000Y500000D02*
Y1300000D01*
X1800000Y500000D02*
X2000000D01*
X1800000D02*
Y1300000D01*
X2000000D01*
X4000000Y500000D02*
Y1300000D01*
X3800000Y500000D02*
X4000000D01*
X3800000D02*
Y1300000D01*
X4000000D01*
X6000000Y500000D02*
Y1000000D01*
X5800000Y500000D02*
X6000000D01*
X5800000D02*
Y1000000D01*
X6000000D01*
X6200000Y1500000D02*
Y2600000D01*
X6000000Y1500000D02*
X6200000D01*
X6000000Y1200000D02*
Y1500000D01*
X5800000Y1200000D02*
X6000000D01*
X5800000D02*
Y1500000D01*
Y1800000D01*
X5600000D02*
X5800000D01*
X5600000D02*
Y2300000D01*
X5800000D01*
Y2600000D01*
X7100000Y1500000D02*
Y2600000D01*
X6400000Y1500000D02*
X7100000D01*
X6400000D02*
Y2600000D01*
X7100000D01*
X2000000Y2300000D02*
Y2500000D01*
Y2300000D02*
X2200000D01*
Y1800000D02*
Y2300000D01*
X2000000Y1800000D02*
X2200000D01*
X2000000Y1600000D02*
Y1800000D01*
X1800000Y1600000D02*
X2000000D01*
X1800000D02*
Y1800000D01*
X1600000D02*
X1800000D01*
X1600000D02*
Y2300000D01*
X1800000D01*
Y2500000D01*
X2000000D01*
X4000000Y2300000D02*
Y2500000D01*
Y2300000D02*
X4200000D01*
Y1800000D02*
Y2300000D01*
X4000000Y1800000D02*
X4200000D01*
X4000000Y1600000D02*
Y1800000D01*
X3800000Y1600000D02*
X4000000D01*
X3800000D02*
Y1800000D01*
X3600000D02*
X3800000D01*
X3600000D02*
Y2300000D01*
X3800000D01*
Y2500000D01*
X4000000D01*
X1400000Y1800000D02*
Y2300000D01*
X400000Y1800000D02*
X1400000D01*
X400000D02*
Y2300000D01*
X1400000D01*
X3400000Y1800000D02*
Y2300000D01*
X2400000Y1800000D02*
X3400000D01*
X2400000D02*
Y2300000D01*
X3400000D01*
X5400000Y1800000D02*
Y2300000D01*
X4400000Y1800000D02*
X5400000D01*
X4400000D02*
Y2300000D01*
X5400000D01*
X6000000Y2600000D02*
Y2900000D01*
X5800000Y2600000D02*
Y2900000D01*
X6000000D01*
X2000000Y2800000D02*
Y3500000D01*
X1800000Y2800000D02*
X2000000D01*
X1800000D02*
Y3500000D01*
X2000000D01*
X4000000Y2800000D02*
Y3500000D01*
X3800000Y2800000D02*
X4000000D01*
X3800000D02*
Y3500000D01*
X4000000D01*
X6000000Y3100000D02*
Y3600000D01*
X5800000Y3100000D02*
X6000000D01*
X5800000D02*
Y3600000D01*
X6000000D01*
X2200000Y4100000D02*
Y4500000D01*
X2000000Y4100000D02*
X2200000D01*
X2000000Y3800000D02*
Y4100000D01*
X1800000Y3800000D02*
X2000000D01*
X1800000D02*
Y4100000D01*
X1600000D02*
X1800000D01*
X1600000D02*
Y4500000D01*
X2200000D01*
X4200000Y4100000D02*
Y4500000D01*
X4000000Y4100000D02*
X4200000D01*
X4000000Y3800000D02*
Y4100000D01*
X3800000Y3800000D02*
X4000000D01*
X3800000D02*
Y4100000D01*
X3600000D02*
X3800000D01*
X3600000D02*
Y4500000D01*
X4200000D01*
X1400000Y4100000D02*
Y4500000D01*
X400000Y4100000D02*
X1400000D01*
X400000D02*
Y4500000D01*
X1400000D01*
X3400000Y4100000D02*
Y4500000D01*
X2400000Y4100000D02*
X3400000D01*
X2400000D02*
Y4500000D01*
X3400000D01*
X5100000Y4100000D02*
Y4500000D01*
X4400000Y4100000D02*
X5100000D01*
X4400000D02*
Y4500000D01*
X5100000D01*
X5499960D02*
Y9000000D01*
X0D02*
X5499960D01*
X0Y4500000D02*
Y9000000D01*
Y4500000D02*
X200000D01*
Y4100000D02*
Y4500000D01*
X0Y4100000D02*
X200000D01*
X0Y2300000D02*
Y4100000D01*
Y2300000D02*
X200000D01*
Y1800000D02*
Y2300000D01*
X0Y1800000D02*
X200000D01*
X0Y0D02*
Y1800000D01*
Y0D02*
X1800000D01*
Y200000D01*
X2000000D01*
Y0D02*
Y200000D01*
Y0D02*
X3800000D01*
Y200000D01*
X4000000D01*
Y0D02*
Y200000D01*
Y0D02*
X5800000D01*
Y300000D01*
X6000000D01*
Y0D02*
Y300000D01*
Y0D02*
X7500000D01*
Y1500000D01*
X7300000D02*
X7500000D01*
X7300000D02*
Y2600000D01*
X7500000D01*
Y4100000D01*
X6000000D02*
X7500000D01*
X6000000Y3800000D02*
Y4100000D01*
X5800000Y3800000D02*
X6000000D01*
X5800000D02*
Y4100000D01*
X5300000D02*
X5800000D01*
X5300000D02*
Y4500000D01*
X5499960D01*
X3800000Y3800000D02*
X4000000D01*
X0Y4500000D02*
X5500000D01*
Y9000000D01*
X0D02*
X5500000D01*
X0Y4500000D02*
Y9000000D01*
Y0D02*
X1800000D01*
Y1800000D01*
X0D02*
X1800000D01*
X0Y0D02*
Y1800000D01*
Y2300000D02*
X1800000D01*
Y4100000D01*
X0D02*
X1800000D01*
X0Y2300000D02*
Y4100000D01*
X2000000Y0D02*
Y1800000D01*
X3800000D01*
Y0D02*
Y1800000D01*
X2000000Y0D02*
X3800000D01*
X2000000Y2300000D02*
Y4100000D01*
X3800000D01*
Y2300000D02*
Y4100000D01*
X2000000Y2300000D02*
X3800000D01*
X6000000Y0D02*
X7500000D01*
Y1500000D01*
X6000000D02*
X7500000D01*
X6000000Y0D02*
Y1500000D01*
Y2600000D02*
X7500000D01*
Y4100000D01*
X6000000D02*
X7500000D01*
X6000000Y2600000D02*
Y4100000D01*
Y5200000D02*
X7500000D01*
Y6700000D01*
X6000000D02*
X7500000D01*
X6000000Y5200000D02*
Y6700000D01*
X4000000Y0D02*
X5800000D01*
Y1800000D01*
X4000000D02*
X5800000D01*
X4000000Y0D02*
Y1800000D01*
Y2300000D02*
X5800000D01*
Y4100000D01*
X4000000D02*
X5800000D01*
X4000000Y2300000D02*
Y4100000D01*
D53*
X3186100Y7649600D02*
G03*
X3186100Y7649600I-100000J0D01*
G01*
D02*
G03*
X3186100Y7649600I-100000J0D01*
G01*
Y5109600D02*
G03*
X3186100Y5109600I-100000J0D01*
G01*
D02*
G03*
X3186100Y5109600I-100000J0D01*
G01*
%TF.MD5,49bda2abff8d24be411a4241b70b4773*%
M02*
