%TF.GenerationSoftware,Altium Limited,Altium Designer,24.3.1 (35)*%
G04 Layer_Color=128*
%FSLAX45Y45*%
%MOMM*%
%TF.SameCoordinates,065391E9-2A1D-4ECE-AA0D-878B158C5FC5*%
%TF.FilePolarity,Positive*%
%TF.FileFunction,Paste,Bot*%
%TF.Part,CustomerPanel*%
G01*
G75*
%TA.AperFunction,SMDPad,CuDef*%
%ADD10R,1.80000X2.00000*%
%ADD11R,1.30000X0.60000*%
D10*
X406400Y1569004D02*
D03*
Y209001D02*
D03*
X1358900Y207401D02*
D03*
Y1367399D02*
D03*
X406400Y3869004D02*
D03*
Y2509001D02*
D03*
X1358900Y2507401D02*
D03*
Y3667399D02*
D03*
X3370000Y1394399D02*
D03*
Y434401D02*
D03*
X2431800Y1481699D02*
D03*
Y321701D02*
D03*
X3370000Y3694399D02*
D03*
Y2734401D02*
D03*
X2431800Y3781699D02*
D03*
Y2621701D02*
D03*
X6596900Y370001D02*
D03*
Y1130004D02*
D03*
Y2970001D02*
D03*
Y3730004D02*
D03*
Y5570001D02*
D03*
Y6330005D02*
D03*
X4431800Y1379999D02*
D03*
Y420001D02*
D03*
X5371600Y520001D02*
D03*
Y1279999D02*
D03*
X4431800Y3679999D02*
D03*
Y2720001D02*
D03*
X5371600Y2820001D02*
D03*
Y3579999D02*
D03*
D11*
X681401Y439003D02*
D03*
Y539003D02*
D03*
Y639003D02*
D03*
Y739003D02*
D03*
Y839003D02*
D03*
Y939002D02*
D03*
Y1039002D02*
D03*
Y1139002D02*
D03*
Y1239002D02*
D03*
Y1339002D02*
D03*
X1083899Y1137397D02*
D03*
Y1037397D02*
D03*
Y937397D02*
D03*
Y837397D02*
D03*
Y737398D02*
D03*
Y637398D02*
D03*
Y537398D02*
D03*
Y437398D02*
D03*
X681401Y2739003D02*
D03*
Y2839003D02*
D03*
Y2939003D02*
D03*
Y3039003D02*
D03*
Y3139003D02*
D03*
Y3239002D02*
D03*
Y3339002D02*
D03*
Y3439002D02*
D03*
Y3539002D02*
D03*
Y3639002D02*
D03*
X1083899Y3437397D02*
D03*
Y3337397D02*
D03*
Y3237397D02*
D03*
Y3137397D02*
D03*
Y3037398D02*
D03*
Y2937398D02*
D03*
Y2837398D02*
D03*
Y2737398D02*
D03*
X3094999Y664398D02*
D03*
Y764398D02*
D03*
Y864403D02*
D03*
Y964402D02*
D03*
Y1064402D02*
D03*
Y1164402D02*
D03*
X2706801Y551698D02*
D03*
Y651698D02*
D03*
Y751698D02*
D03*
Y851703D02*
D03*
Y951702D02*
D03*
Y1051702D02*
D03*
Y1151702D02*
D03*
Y1251702D02*
D03*
X3094999Y2964398D02*
D03*
Y3064398D02*
D03*
Y3164403D02*
D03*
Y3264402D02*
D03*
Y3364402D02*
D03*
Y3464402D02*
D03*
X2706801Y2851698D02*
D03*
Y2951698D02*
D03*
Y3051698D02*
D03*
Y3151703D02*
D03*
Y3251702D02*
D03*
Y3351702D02*
D03*
Y3451702D02*
D03*
Y3551702D02*
D03*
X6871901Y900002D02*
D03*
Y800002D02*
D03*
Y700003D02*
D03*
Y600003D02*
D03*
Y3500002D02*
D03*
Y3400003D02*
D03*
Y3300003D02*
D03*
Y3200003D02*
D03*
Y6100003D02*
D03*
Y6000003D02*
D03*
Y5900003D02*
D03*
Y5800003D02*
D03*
X4706801Y650003D02*
D03*
Y750003D02*
D03*
Y850003D02*
D03*
Y950002D02*
D03*
Y1050002D02*
D03*
Y1150002D02*
D03*
X5096599Y1050002D02*
D03*
Y950002D02*
D03*
Y850003D02*
D03*
Y750003D02*
D03*
X4706801Y2950003D02*
D03*
Y3050003D02*
D03*
Y3150003D02*
D03*
Y3250002D02*
D03*
Y3350002D02*
D03*
Y3450002D02*
D03*
X5096599Y3350002D02*
D03*
Y3250002D02*
D03*
Y3150003D02*
D03*
Y3050003D02*
D03*
%TF.MD5,6e5748c77d4781b335631a4bf5d961f1*%
M02*
