%TF.GenerationSoftware,Altium Limited,Altium Designer,24.3.1 (35)*%
G04 Layer_Color=8388736*
%FSLAX45Y45*%
%MOMM*%
%TF.SameCoordinates,065391E9-2A1D-4ECE-AA0D-878B158C5FC5*%
%TF.FilePolarity,Positive*%
%TF.FileFunction,Other,Mechanical_2*%
%TF.Part,CustomerPanel*%
G01*
G75*
%TA.AperFunction,NonConductor*%
%ADD55C,0.10000*%
D55*
X848802Y150698D02*
Y255702D01*
X903798Y150698D02*
Y255702D01*
X848802Y150698D02*
X903798D01*
X848802Y255702D02*
X903798D01*
X1614996Y1598497D02*
Y1703500D01*
X1560000Y1598497D02*
Y1703500D01*
X1614996D01*
X1560000Y1598497D02*
X1614996D01*
X910199Y1729297D02*
X1020196D01*
X910199Y1669297D02*
X1020196D01*
X910199D02*
Y1729297D01*
X1020196Y1669297D02*
Y1729297D01*
X848802Y2450698D02*
Y2555702D01*
X903798Y2450698D02*
Y2555702D01*
X848802Y2450698D02*
X903798D01*
X848802Y2555702D02*
X903798D01*
X1614996Y3898497D02*
Y4003500D01*
X1560000Y3898497D02*
Y4003500D01*
X1614996D01*
X1560000Y3898497D02*
X1614996D01*
X910199Y4029297D02*
X1020196D01*
X910199Y3969297D02*
X1020196D01*
X910199D02*
Y4029297D01*
X1020196Y3969297D02*
Y4029297D01*
X3477498Y213802D02*
X3582502D01*
X3477498Y268798D02*
X3582502D01*
Y213802D02*
Y268798D01*
X3477498Y213802D02*
Y268798D01*
X3011403Y1595999D02*
Y1706001D01*
X3071403Y1595999D02*
Y1706001D01*
X3011403Y1595999D02*
X3071403D01*
X3011403Y1706001D02*
X3071403D01*
X2867698Y268798D02*
X2972702D01*
X2867698Y213802D02*
X2972702D01*
X2867698D02*
Y268798D01*
X2972702Y213802D02*
Y268798D01*
X3477498Y2513802D02*
X3582502D01*
X3477498Y2568798D02*
X3582502D01*
Y2513802D02*
Y2568798D01*
X3477498Y2513802D02*
Y2568798D01*
X3011403Y3895999D02*
Y4006001D01*
X3071403Y3895999D02*
Y4006001D01*
X3011403Y3895999D02*
X3071403D01*
X3011403Y4006001D02*
X3071403D01*
X2867698Y2568798D02*
X2972702D01*
X2867698Y2513802D02*
X2972702D01*
X2867698D02*
Y2568798D01*
X2972702Y2513802D02*
Y2568798D01*
%TF.MD5,4f49e1bb23c5a944dd3ee07798d0e147*%
M02*
