%TF.GenerationSoftware,Altium Limited,Altium Designer,24.3.1 (35)*%
G04 Layer_Color=16711935*
%FSLAX45Y45*%
%MOMM*%
%TF.SameCoordinates,065391E9-2A1D-4ECE-AA0D-878B158C5FC5*%
%TF.FilePolarity,Positive*%
%TF.FileFunction,Other,Mechanical_13*%
%TF.Part,CustomerPanel*%
G01*
G75*
%TA.AperFunction,NonConductor*%
%ADD29C,0.20000*%
%ADD30C,0.12700*%
%ADD32C,0.00000*%
%ADD33C,0.25400*%
%ADD54C,0.05000*%
%ADD55C,0.10000*%
D29*
X1899800Y4996000D02*
G03*
X1899800Y4996000I-10000J0D01*
G01*
X2146100Y7776600D02*
G03*
X2146100Y7776600I-10000J0D01*
G01*
D30*
X50800Y4615001D02*
X1828800D01*
X50800D02*
Y8933001D01*
X1828800D01*
Y4615001D02*
Y8933001D01*
X3975100Y4855600D02*
Y7903600D01*
X2197100D02*
X3975100D01*
X2197100Y4855600D02*
Y7903600D01*
Y4855600D02*
X3975100D01*
X4697598Y8530001D02*
X5277602D01*
X4697598Y7069999D02*
Y8530001D01*
Y7069999D02*
X5277602D01*
X4697598Y4995000D02*
X5277602D01*
X4697598D02*
Y6455002D01*
X5277602D01*
X56398Y158999D02*
X636402D01*
Y1619001D01*
X56398D02*
X636402D01*
X1128898Y1417401D02*
X1708902D01*
X1128898Y157399D02*
Y1417401D01*
Y157399D02*
X1708902D01*
X56398Y2458999D02*
X636402D01*
Y3919001D01*
X56398D02*
X636402D01*
X1128898Y3717401D02*
X1708902D01*
X1128898Y2457399D02*
Y3717401D01*
Y2457399D02*
X1708902D01*
X3139998Y384399D02*
X3720002D01*
X3139998D02*
Y1444401D01*
X3720002D01*
X2081798Y271699D02*
X2661802D01*
Y1531701D01*
X2081798D02*
X2661802D01*
X3139998Y2684398D02*
X3720002D01*
X3139998D02*
Y3744401D01*
X3720002D01*
X2081798Y2571699D02*
X2661802D01*
Y3831701D01*
X2081798D02*
X2661802D01*
D32*
X1204061Y1151700D02*
G03*
X1204061Y1151700I-22361J0D01*
G01*
Y3451700D02*
G03*
X1204061Y3451700I-22361J0D01*
G01*
X3202361Y1150000D02*
G03*
X3202361Y1150000I-22361J0D01*
G01*
Y3450000D02*
G03*
X3202361Y3450000I-22361J0D01*
G01*
X7051661Y999300D02*
G03*
X7051661Y999300I-22361J0D01*
G01*
Y3599300D02*
G03*
X7051661Y3599300I-22361J0D01*
G01*
Y6199300D02*
G03*
X7051661Y6199300I-22361J0D01*
G01*
X5204060Y1151700D02*
G03*
X5204060Y1151700I-22361J0D01*
G01*
Y3451700D02*
G03*
X5204060Y3451700I-22361J0D01*
G01*
D33*
X4807600Y7325000D02*
Y7345313D01*
Y7335157D01*
X4746660D01*
X4756816Y7325000D01*
X4807600Y5250001D02*
Y5270315D01*
Y5260158D01*
X4746660D01*
X4756816Y5250001D01*
X526400Y414000D02*
Y434313D01*
Y424157D01*
X587340D01*
X577184Y414000D01*
X1228900Y1167400D02*
Y1147087D01*
Y1157243D01*
X1167960D01*
X1178117Y1167400D01*
X526400Y2714000D02*
Y2734313D01*
Y2724157D01*
X587340D01*
X577184Y2714000D01*
X1228900Y3467400D02*
Y3447087D01*
Y3457243D01*
X1167960D01*
X1178117Y3467400D01*
X3249914Y1164578D02*
Y1144250D01*
Y1154414D01*
X3188930D01*
X3199094Y1164578D01*
X2561800Y521700D02*
Y542013D01*
Y531857D01*
X2622740D01*
X2612584Y521700D01*
X3249914Y3464578D02*
Y3444250D01*
Y3454414D01*
X3188930D01*
X3199094Y3464578D01*
X2561800Y2821700D02*
Y2842013D01*
Y2831857D01*
X2622740D01*
X2612584Y2821700D01*
D54*
X711700Y591700D02*
G03*
X701700Y581700I0J-10000D01*
G01*
X721700D02*
G03*
X711700Y591700I-10000J0D01*
G01*
X836688Y591483D02*
G03*
X826688Y581483I0J-10000D01*
G01*
X846691D02*
G03*
X836691Y591483I-10000J0D01*
G01*
X1101700Y581700D02*
G03*
X1091700Y591700I-10000J0D01*
G01*
D02*
G03*
X1081700Y581700I0J-10000D01*
G01*
X976700D02*
G03*
X966700Y591700I-10000J0D01*
G01*
D02*
G03*
X956700Y581700I0J-10000D01*
G01*
X1091700Y1211700D02*
G03*
X1101700Y1221700I0J10000D01*
G01*
X1081700D02*
G03*
X1091700Y1211700I10000J0D01*
G01*
X966700D02*
G03*
X976700Y1221700I0J10000D01*
G01*
X956700D02*
G03*
X966700Y1211700I10000J0D01*
G01*
X836700D02*
G03*
X846700Y1221700I0J10000D01*
G01*
X826700D02*
G03*
X836700Y1211700I10000J0D01*
G01*
X711700D02*
G03*
X721700Y1221700I0J10000D01*
G01*
X701700D02*
G03*
X711700Y1211700I10000J0D01*
G01*
X591698Y631698D02*
X641701Y581701D01*
X701700D01*
X721700D02*
X826699D01*
X976701D02*
X1081700D01*
X846699D02*
X956701D01*
X1101700D02*
X1161699D01*
X1211702Y631698D01*
Y1171702D01*
X1161699Y1221699D02*
X1211702Y1171702D01*
X1101700Y1221699D02*
X1161699D01*
X976701D02*
X1081700D01*
X846699D02*
X956701D01*
X721700D02*
X826699D01*
X591698Y631698D02*
Y1171702D01*
X641701Y1221699D01*
X701700D01*
X711700Y2891700D02*
G03*
X701700Y2881700I0J-10000D01*
G01*
X721700D02*
G03*
X711700Y2891700I-10000J0D01*
G01*
X836688Y2891483D02*
G03*
X826688Y2881483I0J-10000D01*
G01*
X846691D02*
G03*
X836691Y2891483I-10000J0D01*
G01*
X1101700Y2881700D02*
G03*
X1091700Y2891700I-10000J0D01*
G01*
D02*
G03*
X1081700Y2881700I0J-10000D01*
G01*
X976700D02*
G03*
X966700Y2891700I-10000J0D01*
G01*
D02*
G03*
X956700Y2881700I0J-10000D01*
G01*
X1091700Y3511700D02*
G03*
X1101700Y3521700I0J10000D01*
G01*
X1081700D02*
G03*
X1091700Y3511700I10000J0D01*
G01*
X966700D02*
G03*
X976700Y3521700I0J10000D01*
G01*
X956700D02*
G03*
X966700Y3511700I10000J0D01*
G01*
X836700D02*
G03*
X846700Y3521700I0J10000D01*
G01*
X826700D02*
G03*
X836700Y3511700I10000J0D01*
G01*
X711700D02*
G03*
X721700Y3521700I0J10000D01*
G01*
X701700D02*
G03*
X711700Y3511700I10000J0D01*
G01*
X591698Y2931698D02*
X641701Y2881701D01*
X701700D01*
X721700D02*
X826699D01*
X976701D02*
X1081700D01*
X846699D02*
X956701D01*
X1101700D02*
X1161699D01*
X1211702Y2931698D01*
Y3471702D01*
X1161699Y3521699D02*
X1211702Y3471702D01*
X1101700Y3521699D02*
X1161699D01*
X976701D02*
X1081700D01*
X846699D02*
X956701D01*
X721700D02*
X826699D01*
X591698Y2931698D02*
Y3471702D01*
X641701Y3521699D01*
X701700D01*
X2710000Y590000D02*
G03*
X2700000Y580000I0J-10000D01*
G01*
X2720000D02*
G03*
X2710000Y590000I-10000J0D01*
G01*
X2834988Y589783D02*
G03*
X2824988Y579783I0J-10000D01*
G01*
X2844991D02*
G03*
X2834991Y589783I-10000J0D01*
G01*
X3100000Y580000D02*
G03*
X3090000Y590000I-10000J0D01*
G01*
D02*
G03*
X3080000Y580000I0J-10000D01*
G01*
X2975000D02*
G03*
X2965000Y590000I-10000J0D01*
G01*
D02*
G03*
X2955000Y580000I0J-10000D01*
G01*
X3090000Y1210000D02*
G03*
X3100000Y1220000I0J10000D01*
G01*
X3080000D02*
G03*
X3090000Y1210000I10000J0D01*
G01*
X2965000D02*
G03*
X2975000Y1220000I0J10000D01*
G01*
X2955000D02*
G03*
X2965000Y1210000I10000J0D01*
G01*
X2835000D02*
G03*
X2845000Y1220000I0J10000D01*
G01*
X2825000D02*
G03*
X2835000Y1210000I10000J0D01*
G01*
X2710000D02*
G03*
X2720000Y1220000I0J10000D01*
G01*
X2700000D02*
G03*
X2710000Y1210000I10000J0D01*
G01*
X2590001Y630001D02*
X2639999Y579999D01*
X2699999D01*
X2719999D02*
X2825002D01*
X2974999D02*
X3079998D01*
X2845002D02*
X2954999D01*
X3099998D02*
X3159998D01*
X3210000Y630001D01*
Y1170000D01*
X3159998Y1220003D02*
X3210000Y1170000D01*
X3099998Y1220003D02*
X3159998D01*
X2974999D02*
X3079998D01*
X2845002D02*
X2954999D01*
X2719999D02*
X2825002D01*
X2590001Y630001D02*
Y1170000D01*
X2639999Y1220003D01*
X2699999D01*
X2710000Y2890000D02*
G03*
X2700000Y2880000I0J-10000D01*
G01*
X2720000D02*
G03*
X2710000Y2890000I-10000J0D01*
G01*
X2834988Y2889783D02*
G03*
X2824988Y2879783I0J-10000D01*
G01*
X2844991D02*
G03*
X2834991Y2889783I-10000J0D01*
G01*
X3100000Y2880000D02*
G03*
X3090000Y2890000I-10000J0D01*
G01*
D02*
G03*
X3080000Y2880000I0J-10000D01*
G01*
X2975000D02*
G03*
X2965000Y2890000I-10000J0D01*
G01*
D02*
G03*
X2955000Y2880000I0J-10000D01*
G01*
X3090000Y3510000D02*
G03*
X3100000Y3520000I0J10000D01*
G01*
X3080000D02*
G03*
X3090000Y3510000I10000J0D01*
G01*
X2965000D02*
G03*
X2975000Y3520000I0J10000D01*
G01*
X2955000D02*
G03*
X2965000Y3510000I10000J0D01*
G01*
X2835000D02*
G03*
X2845000Y3520000I0J10000D01*
G01*
X2825000D02*
G03*
X2835000Y3510000I10000J0D01*
G01*
X2710000D02*
G03*
X2720000Y3520000I0J10000D01*
G01*
X2700000D02*
G03*
X2710000Y3510000I10000J0D01*
G01*
X2590001Y2930001D02*
X2639999Y2879999D01*
X2699999D01*
X2719999D02*
X2825002D01*
X2974999D02*
X3079998D01*
X2845002D02*
X2954999D01*
X3099998D02*
X3159998D01*
X3210000Y2930001D01*
Y3470000D01*
X3159998Y3520003D02*
X3210000Y3470000D01*
X3099998Y3520003D02*
X3159998D01*
X2974999D02*
X3079998D01*
X2845002D02*
X2954999D01*
X2719999D02*
X2825002D01*
X2590001Y2930001D02*
Y3470000D01*
X2639999Y3520003D01*
X2699999D01*
X6559300Y439300D02*
G03*
X6549300Y429300I0J-10000D01*
G01*
X6569300D02*
G03*
X6559300Y439300I-10000J0D01*
G01*
X6684288Y439083D02*
G03*
X6674288Y429083I0J-10000D01*
G01*
X6694291D02*
G03*
X6684291Y439083I-10000J0D01*
G01*
X6949300Y429300D02*
G03*
X6939300Y439300I-10000J0D01*
G01*
D02*
G03*
X6929300Y429300I0J-10000D01*
G01*
X6824300D02*
G03*
X6814300Y439300I-10000J0D01*
G01*
D02*
G03*
X6804300Y429300I0J-10000D01*
G01*
X6939300Y1059300D02*
G03*
X6949300Y1069300I0J10000D01*
G01*
X6929300D02*
G03*
X6939300Y1059300I10000J0D01*
G01*
X6814300D02*
G03*
X6824300Y1069300I0J10000D01*
G01*
X6804300D02*
G03*
X6814300Y1059300I10000J0D01*
G01*
X6684300D02*
G03*
X6694300Y1069300I0J10000D01*
G01*
X6674300D02*
G03*
X6684300Y1059300I10000J0D01*
G01*
X6559300D02*
G03*
X6569300Y1069300I0J10000D01*
G01*
X6549300D02*
G03*
X6559300Y1059300I10000J0D01*
G01*
X6439298Y479298D02*
X6489300Y429301D01*
X6549300D01*
X6569300D02*
X6674299D01*
X6824301D02*
X6929300D01*
X6694299D02*
X6804301D01*
X6949300D02*
X7009299D01*
X7059302Y479298D01*
Y1019302D01*
X7009299Y1069299D02*
X7059302Y1019302D01*
X6949300Y1069299D02*
X7009299D01*
X6824301D02*
X6929300D01*
X6694299D02*
X6804301D01*
X6569300D02*
X6674299D01*
X6439298Y479298D02*
Y1019302D01*
X6489300Y1069299D01*
X6549300D01*
X6559300Y3039300D02*
G03*
X6549300Y3029300I0J-10000D01*
G01*
X6569300D02*
G03*
X6559300Y3039300I-10000J0D01*
G01*
X6684288Y3039083D02*
G03*
X6674288Y3029083I0J-10000D01*
G01*
X6694291D02*
G03*
X6684291Y3039083I-10000J0D01*
G01*
X6949300Y3029300D02*
G03*
X6939300Y3039300I-10000J0D01*
G01*
D02*
G03*
X6929300Y3029300I0J-10000D01*
G01*
X6824300D02*
G03*
X6814300Y3039300I-10000J0D01*
G01*
D02*
G03*
X6804300Y3029300I0J-10000D01*
G01*
X6939300Y3659300D02*
G03*
X6949300Y3669300I0J10000D01*
G01*
X6929300D02*
G03*
X6939300Y3659300I10000J0D01*
G01*
X6814300D02*
G03*
X6824300Y3669300I0J10000D01*
G01*
X6804300D02*
G03*
X6814300Y3659300I10000J0D01*
G01*
X6684300D02*
G03*
X6694300Y3669300I0J10000D01*
G01*
X6674300D02*
G03*
X6684300Y3659300I10000J0D01*
G01*
X6559300D02*
G03*
X6569300Y3669300I0J10000D01*
G01*
X6549300D02*
G03*
X6559300Y3659300I10000J0D01*
G01*
X6439298Y3079298D02*
X6489300Y3029301D01*
X6549300D01*
X6569300D02*
X6674299D01*
X6824301D02*
X6929300D01*
X6694299D02*
X6804301D01*
X6949300D02*
X7009299D01*
X7059302Y3079298D01*
Y3619302D01*
X7009299Y3669299D02*
X7059302Y3619302D01*
X6949300Y3669299D02*
X7009299D01*
X6824301D02*
X6929300D01*
X6694299D02*
X6804301D01*
X6569300D02*
X6674299D01*
X6439298Y3079298D02*
Y3619302D01*
X6489300Y3669299D01*
X6549300D01*
X6559300Y5639300D02*
G03*
X6549300Y5629300I0J-10000D01*
G01*
X6569300D02*
G03*
X6559300Y5639300I-10000J0D01*
G01*
X6684288Y5639083D02*
G03*
X6674288Y5629083I0J-10000D01*
G01*
X6694291D02*
G03*
X6684291Y5639083I-10000J0D01*
G01*
X6949300Y5629300D02*
G03*
X6939300Y5639300I-10000J0D01*
G01*
D02*
G03*
X6929300Y5629300I0J-10000D01*
G01*
X6824300D02*
G03*
X6814300Y5639300I-10000J0D01*
G01*
D02*
G03*
X6804300Y5629300I0J-10000D01*
G01*
X6939300Y6259300D02*
G03*
X6949300Y6269300I0J10000D01*
G01*
X6929300D02*
G03*
X6939300Y6259300I10000J0D01*
G01*
X6814300D02*
G03*
X6824300Y6269300I0J10000D01*
G01*
X6804300D02*
G03*
X6814300Y6259300I10000J0D01*
G01*
X6684300D02*
G03*
X6694300Y6269300I0J10000D01*
G01*
X6674300D02*
G03*
X6684300Y6259300I10000J0D01*
G01*
X6559300D02*
G03*
X6569300Y6269300I0J10000D01*
G01*
X6549300D02*
G03*
X6559300Y6259300I10000J0D01*
G01*
X6439298Y5679298D02*
X6489300Y5629301D01*
X6549300D01*
X6569300D02*
X6674299D01*
X6824301D02*
X6929300D01*
X6694299D02*
X6804301D01*
X6949300D02*
X7009299D01*
X7059302Y5679298D01*
Y6219302D01*
X7009299Y6269300D02*
X7059302Y6219302D01*
X6949300Y6269300D02*
X7009299D01*
X6824301D02*
X6929300D01*
X6694299D02*
X6804301D01*
X6569300D02*
X6674299D01*
X6439298Y5679298D02*
Y6219302D01*
X6489300Y6269300D01*
X6549300D01*
X4711700Y591700D02*
G03*
X4701700Y581700I0J-10000D01*
G01*
X4721700D02*
G03*
X4711700Y591700I-10000J0D01*
G01*
X4836688Y591483D02*
G03*
X4826688Y581483I0J-10000D01*
G01*
X4846691D02*
G03*
X4836691Y591483I-10000J0D01*
G01*
X5101700Y581700D02*
G03*
X5091700Y591700I-10000J0D01*
G01*
D02*
G03*
X5081700Y581700I0J-10000D01*
G01*
X4976700D02*
G03*
X4966700Y591700I-10000J0D01*
G01*
D02*
G03*
X4956700Y581700I0J-10000D01*
G01*
X5091700Y1211700D02*
G03*
X5101700Y1221700I0J10000D01*
G01*
X5081700D02*
G03*
X5091700Y1211700I10000J0D01*
G01*
X4966700D02*
G03*
X4976700Y1221700I0J10000D01*
G01*
X4956700D02*
G03*
X4966700Y1211700I10000J0D01*
G01*
X4836700D02*
G03*
X4846700Y1221700I0J10000D01*
G01*
X4826700D02*
G03*
X4836700Y1211700I10000J0D01*
G01*
X4711700D02*
G03*
X4721700Y1221700I0J10000D01*
G01*
X4701700D02*
G03*
X4711700Y1211700I10000J0D01*
G01*
X4591698Y631698D02*
X4641700Y581701D01*
X4701700D01*
X4721700D02*
X4826699D01*
X4976701D02*
X5081700D01*
X4846699D02*
X4956701D01*
X5101699D02*
X5161699D01*
X5211702Y631698D01*
Y1171702D01*
X5161699Y1221699D02*
X5211702Y1171702D01*
X5101699Y1221699D02*
X5161699D01*
X4976701D02*
X5081700D01*
X4846699D02*
X4956701D01*
X4721700D02*
X4826699D01*
X4591698Y631698D02*
Y1171702D01*
X4641700Y1221699D01*
X4701700D01*
X4711700Y2891700D02*
G03*
X4701700Y2881700I0J-10000D01*
G01*
X4721700D02*
G03*
X4711700Y2891700I-10000J0D01*
G01*
X4836688Y2891483D02*
G03*
X4826688Y2881483I0J-10000D01*
G01*
X4846691D02*
G03*
X4836691Y2891483I-10000J0D01*
G01*
X5101700Y2881700D02*
G03*
X5091700Y2891700I-10000J0D01*
G01*
D02*
G03*
X5081700Y2881700I0J-10000D01*
G01*
X4976700D02*
G03*
X4966700Y2891700I-10000J0D01*
G01*
D02*
G03*
X4956700Y2881700I0J-10000D01*
G01*
X5091700Y3511700D02*
G03*
X5101700Y3521700I0J10000D01*
G01*
X5081700D02*
G03*
X5091700Y3511700I10000J0D01*
G01*
X4966700D02*
G03*
X4976700Y3521700I0J10000D01*
G01*
X4956700D02*
G03*
X4966700Y3511700I10000J0D01*
G01*
X4836700D02*
G03*
X4846700Y3521700I0J10000D01*
G01*
X4826700D02*
G03*
X4836700Y3511700I10000J0D01*
G01*
X4711700D02*
G03*
X4721700Y3521700I0J10000D01*
G01*
X4701700D02*
G03*
X4711700Y3511700I10000J0D01*
G01*
X4591698Y2931698D02*
X4641700Y2881701D01*
X4701700D01*
X4721700D02*
X4826699D01*
X4976701D02*
X5081700D01*
X4846699D02*
X4956701D01*
X5101699D02*
X5161699D01*
X5211702Y2931698D01*
Y3471702D01*
X5161699Y3521699D02*
X5211702Y3471702D01*
X5101699Y3521699D02*
X5161699D01*
X4976701D02*
X5081700D01*
X4846699D02*
X4956701D01*
X4721700D02*
X4826699D01*
X4591698Y2931698D02*
Y3471702D01*
X4641700Y3521699D01*
X4701700D01*
D55*
X7240399Y1096797D02*
X7350401D01*
X7240399Y1036798D02*
X7350401D01*
X7240399D02*
Y1096797D01*
X7350401Y1036798D02*
Y1096797D01*
X7242903Y333702D02*
X7347902D01*
X7242903Y388698D02*
X7347902D01*
Y333702D02*
Y388698D01*
X7242903Y333702D02*
Y388698D01*
X7242898Y683702D02*
X7347902D01*
X7242898Y738698D02*
X7347902D01*
Y683702D02*
Y738698D01*
X7242898Y683702D02*
Y738698D01*
X7240399Y3696798D02*
X7350401D01*
X7240399Y3636798D02*
X7350401D01*
X7240399D02*
Y3696798D01*
X7350401Y3636798D02*
Y3696798D01*
X7242903Y2933702D02*
X7347902D01*
X7242903Y2988698D02*
X7347902D01*
Y2933702D02*
Y2988698D01*
X7242903Y2933702D02*
Y2988698D01*
X7242898Y3283702D02*
X7347902D01*
X7242898Y3338698D02*
X7347902D01*
Y3283702D02*
Y3338698D01*
X7242898Y3283702D02*
Y3338698D01*
X7240399Y6296798D02*
X7350401D01*
X7240399Y6236798D02*
X7350401D01*
X7240399D02*
Y6296798D01*
X7350401Y6236798D02*
Y6296798D01*
X7242903Y5533702D02*
X7347902D01*
X7242903Y5588698D02*
X7347902D01*
Y5533702D02*
Y5588698D01*
X7242903Y5533702D02*
Y5588698D01*
X7242898Y5883702D02*
X7347902D01*
X7242898Y5938698D02*
X7347902D01*
Y5883702D02*
Y5938698D01*
X7242898Y5883702D02*
Y5938698D01*
X5119698Y1534998D02*
Y1640002D01*
X5064702Y1534998D02*
Y1640002D01*
X5119698D01*
X5064702Y1534998D02*
X5119698D01*
X4939102Y195697D02*
Y300700D01*
X4994098Y195697D02*
Y300700D01*
X4939102Y195697D02*
X4994098D01*
X4939102Y300700D02*
X4994098D01*
X4452999Y1557503D02*
X4563001D01*
X4452999Y1617502D02*
X4563001D01*
Y1557503D02*
Y1617502D01*
X4452999Y1557503D02*
Y1617502D01*
X5119698Y3834998D02*
Y3940002D01*
X5064702Y3834998D02*
Y3940002D01*
X5119698D01*
X5064702Y3834998D02*
X5119698D01*
X4939102Y2495697D02*
Y2600700D01*
X4994098Y2495697D02*
Y2600700D01*
X4939102Y2495697D02*
X4994098D01*
X4939102Y2600700D02*
X4994098D01*
X4452999Y3857503D02*
X4563001D01*
X4452999Y3917502D02*
X4563001D01*
Y3857503D02*
Y3917502D01*
X4452999Y3857503D02*
Y3917502D01*
%TF.MD5,152e8693f853b7652acf31eadecce145*%
M02*
