%TF.GenerationSoftware,Altium Limited,Altium Designer,24.3.1 (35)*%
G04 Layer_Color=16711935*
%FSLAX45Y45*%
%MOMM*%
%TF.SameCoordinates,065391E9-2A1D-4ECE-AA0D-878B158C5FC5*%
%TF.FilePolarity,Negative*%
%TF.FileFunction,Soldermask,Bot*%
%TF.Part,CustomerPanel*%
G01*
G75*
%TA.AperFunction,SMDPad,CuDef*%
%ADD34R,2.00320X2.20320*%
%ADD35R,1.50320X0.80320*%
%TA.AperFunction,ComponentPad*%
%ADD40C,1.71120*%
%ADD41R,1.71120X1.71120*%
%ADD42C,1.85420*%
%ADD43C,1.72720*%
%ADD44R,1.72720X1.72720*%
%ADD45C,3.61600*%
%ADD46C,1.60800*%
%ADD47R,1.60800X1.60800*%
%TA.AperFunction,ViaPad*%
%ADD48C,1.30320*%
%ADD49C,5.20320*%
%ADD50C,0.90320*%
%ADD51C,1.70320*%
D34*
X406400Y1569004D02*
D03*
Y209001D02*
D03*
X1358900Y207401D02*
D03*
Y1367399D02*
D03*
X406400Y3869004D02*
D03*
Y2509001D02*
D03*
X1358900Y2507401D02*
D03*
Y3667399D02*
D03*
X3370000Y1394399D02*
D03*
Y434401D02*
D03*
X2431800Y1481699D02*
D03*
Y321701D02*
D03*
X3370000Y3694399D02*
D03*
Y2734401D02*
D03*
X2431800Y3781699D02*
D03*
Y2621701D02*
D03*
X6596900Y370001D02*
D03*
Y1130004D02*
D03*
Y2970001D02*
D03*
Y3730004D02*
D03*
Y5570001D02*
D03*
Y6330005D02*
D03*
X4431800Y1379999D02*
D03*
Y420001D02*
D03*
X5371600Y520001D02*
D03*
Y1279999D02*
D03*
X4431800Y3679999D02*
D03*
Y2720001D02*
D03*
X5371600Y2820001D02*
D03*
Y3579999D02*
D03*
D35*
X681401Y439003D02*
D03*
Y539003D02*
D03*
Y639003D02*
D03*
Y739003D02*
D03*
Y839003D02*
D03*
Y939002D02*
D03*
Y1039002D02*
D03*
Y1139002D02*
D03*
Y1239002D02*
D03*
Y1339002D02*
D03*
X1083899Y1137397D02*
D03*
Y1037397D02*
D03*
Y937397D02*
D03*
Y837397D02*
D03*
Y737398D02*
D03*
Y637398D02*
D03*
Y537398D02*
D03*
Y437398D02*
D03*
X681401Y2739003D02*
D03*
Y2839003D02*
D03*
Y2939003D02*
D03*
Y3039003D02*
D03*
Y3139003D02*
D03*
Y3239002D02*
D03*
Y3339002D02*
D03*
Y3439002D02*
D03*
Y3539002D02*
D03*
Y3639002D02*
D03*
X1083899Y3437397D02*
D03*
Y3337397D02*
D03*
Y3237397D02*
D03*
Y3137397D02*
D03*
Y3037398D02*
D03*
Y2937398D02*
D03*
Y2837398D02*
D03*
Y2737398D02*
D03*
X3094999Y664398D02*
D03*
Y764398D02*
D03*
Y864403D02*
D03*
Y964402D02*
D03*
Y1064402D02*
D03*
Y1164402D02*
D03*
X2706801Y551698D02*
D03*
Y651698D02*
D03*
Y751698D02*
D03*
Y851703D02*
D03*
Y951702D02*
D03*
Y1051702D02*
D03*
Y1151702D02*
D03*
Y1251702D02*
D03*
X3094999Y2964398D02*
D03*
Y3064398D02*
D03*
Y3164403D02*
D03*
Y3264402D02*
D03*
Y3364402D02*
D03*
Y3464402D02*
D03*
X2706801Y2851698D02*
D03*
Y2951698D02*
D03*
Y3051698D02*
D03*
Y3151703D02*
D03*
Y3251702D02*
D03*
Y3351702D02*
D03*
Y3451702D02*
D03*
Y3551702D02*
D03*
X6871901Y900002D02*
D03*
Y800002D02*
D03*
Y700003D02*
D03*
Y600003D02*
D03*
Y3500002D02*
D03*
Y3400003D02*
D03*
Y3300003D02*
D03*
Y3200003D02*
D03*
Y6100003D02*
D03*
Y6000003D02*
D03*
Y5900003D02*
D03*
Y5800003D02*
D03*
X4706801Y650003D02*
D03*
Y750003D02*
D03*
Y850003D02*
D03*
Y950002D02*
D03*
Y1050002D02*
D03*
Y1150002D02*
D03*
X5096599Y1050002D02*
D03*
Y950002D02*
D03*
Y850003D02*
D03*
Y750003D02*
D03*
X4706801Y2950003D02*
D03*
Y3050003D02*
D03*
Y3150003D02*
D03*
Y3250002D02*
D03*
Y3350002D02*
D03*
Y3450002D02*
D03*
X5096599Y3350002D02*
D03*
Y3250002D02*
D03*
Y3150003D02*
D03*
Y3050003D02*
D03*
D40*
X2603500Y8614800D02*
D03*
D41*
Y8364800D02*
D03*
D42*
X1701800Y8806001D02*
D03*
X177800D02*
D03*
Y4742001D02*
D03*
X1701800D02*
D03*
D43*
X177800Y4996001D02*
D03*
Y5250001D02*
D03*
Y5504001D02*
D03*
Y5758001D02*
D03*
Y6012001D02*
D03*
Y6266001D02*
D03*
Y6520001D02*
D03*
Y6774001D02*
D03*
Y7028001D02*
D03*
Y7282001D02*
D03*
Y7536001D02*
D03*
Y7790001D02*
D03*
Y8044001D02*
D03*
Y8298001D02*
D03*
Y8552001D02*
D03*
X1701800D02*
D03*
Y8298001D02*
D03*
Y8044001D02*
D03*
Y7790001D02*
D03*
Y7536001D02*
D03*
Y7282001D02*
D03*
Y7028001D02*
D03*
Y6774001D02*
D03*
Y6520001D02*
D03*
Y6266001D02*
D03*
Y6012001D02*
D03*
Y5758001D02*
D03*
Y5504001D02*
D03*
Y5250001D02*
D03*
D44*
Y4996001D02*
D03*
D45*
X3086100Y5109600D02*
D03*
Y7649600D02*
D03*
D46*
X3848100Y7776600D02*
D03*
Y7522600D02*
D03*
Y7268600D02*
D03*
Y7014600D02*
D03*
Y6760600D02*
D03*
Y6506600D02*
D03*
Y6252600D02*
D03*
Y5998600D02*
D03*
Y5744600D02*
D03*
Y5490600D02*
D03*
Y5236600D02*
D03*
Y4982600D02*
D03*
X2324100D02*
D03*
Y5236600D02*
D03*
Y5490600D02*
D03*
Y5744600D02*
D03*
Y5998600D02*
D03*
Y6252600D02*
D03*
Y6506600D02*
D03*
Y6760600D02*
D03*
Y7014600D02*
D03*
Y7268600D02*
D03*
Y7522600D02*
D03*
D47*
Y7776600D02*
D03*
D48*
X4900000Y4750000D02*
D03*
Y6850000D02*
D03*
X2006600Y6557400D02*
D03*
D49*
X4000000Y8500000D02*
D03*
D50*
X4069412Y7850000D02*
D03*
X4182127Y7950000D02*
D03*
X4419600Y8150000D02*
D03*
X4305300Y8050000D02*
D03*
X4241800Y4982600D02*
D03*
X4140200Y5731900D02*
D03*
X4394200Y5058800D02*
D03*
X4089400Y4906400D02*
D03*
X1130000Y1524000D02*
D03*
X930000D02*
D03*
X730000D02*
D03*
X1460500Y1610599D02*
D03*
X114300Y1701800D02*
D03*
X1724601Y1689100D02*
D03*
X1130000Y3824000D02*
D03*
X930000D02*
D03*
X730000D02*
D03*
X1460500Y3910598D02*
D03*
X114300Y4001800D02*
D03*
X1724601Y3989100D02*
D03*
X3143000Y241300D02*
D03*
X3295400D02*
D03*
X2177800Y190500D02*
D03*
X2368300Y88900D02*
D03*
X3485900Y1689100D02*
D03*
X3143000Y2541300D02*
D03*
X3295400D02*
D03*
X2177800Y2490500D02*
D03*
X2368300Y2388900D02*
D03*
X3485900Y3989100D02*
D03*
X6990600Y177800D02*
D03*
X7193800Y901700D02*
D03*
X7155700Y1333500D02*
D03*
X6127000Y901700D02*
D03*
X6990600Y2777800D02*
D03*
X7193800Y3501700D02*
D03*
X7155700Y3933500D02*
D03*
X6127000Y3501700D02*
D03*
X6990600Y5377800D02*
D03*
X7193800Y6101700D02*
D03*
X7155700Y6533500D02*
D03*
X6127000Y6101700D02*
D03*
X4812800Y1435100D02*
D03*
X4444500Y203200D02*
D03*
X4711600D02*
D03*
X4138902Y78740D02*
D03*
X5371600Y1676400D02*
D03*
X4914400Y1549400D02*
D03*
X4812800Y3735100D02*
D03*
X4444500Y2503200D02*
D03*
X4711600D02*
D03*
X4138902Y2378740D02*
D03*
X5371600Y3976400D02*
D03*
X4914400Y3849400D02*
D03*
D51*
X3649999Y1649999D02*
D03*
Y3949999D02*
D03*
X6150000Y1350000D02*
D03*
Y3950000D02*
D03*
Y6550000D02*
D03*
X4150000Y1650000D02*
D03*
Y3950000D02*
D03*
%TF.MD5,e79959c9a2f75cc38aa657981e458685*%
M02*
