%TF.GenerationSoftware,Altium Limited,Altium Designer,24.3.1 (35)*%
G04 Layer_Color=32768*
%FSLAX45Y45*%
%MOMM*%
%TF.SameCoordinates,065391E9-2A1D-4ECE-AA0D-878B158C5FC5*%
%TF.FilePolarity,Positive*%
%TF.FileFunction,Other,Mechanical_15*%
%TF.Part,CustomerPanel*%
G01*
G75*
%TA.AperFunction,NonConductor*%
%ADD30C,0.12700*%
%ADD54C,0.05000*%
G36*
X5302600Y6520001D02*
Y4930001D01*
X4552600D01*
Y6520001D01*
X5302600D01*
D02*
G37*
G36*
Y8595000D02*
Y7005000D01*
X4552600D01*
Y8595000D01*
X5302600D01*
D02*
G37*
D30*
X2343500Y8089800D02*
X3553500D01*
X2343500D02*
Y8889800D01*
X3553500D01*
Y8089800D02*
Y8889800D01*
D54*
X25801Y4590002D02*
X1853799D01*
X25801D02*
Y8958000D01*
X1853799D01*
Y4590002D02*
Y8958000D01*
X2172101Y4830601D02*
Y7928599D01*
X4000099D01*
Y4830601D02*
Y7928599D01*
X2172101Y4830601D02*
X4000099D01*
X848802Y203200D02*
X903798D01*
X876300Y175702D02*
Y230698D01*
X831301Y118201D02*
Y288199D01*
X921299Y118201D02*
Y288199D01*
X831301Y118201D02*
X921299D01*
X831301Y288199D02*
X921299D01*
X1560000Y1650998D02*
X1614996D01*
X1587498Y1623500D02*
Y1678497D01*
X1632496Y1566000D02*
Y1735997D01*
X1542499Y1566000D02*
Y1735997D01*
X1632496D01*
X1542499Y1566000D02*
X1632496D01*
X965200Y1671802D02*
Y1726798D01*
X937697Y1699300D02*
X992698D01*
X1055197Y1654301D02*
Y1744299D01*
X875198Y1654301D02*
Y1744299D01*
Y1654301D02*
X1055197D01*
X875198Y1744299D02*
X1055197D01*
X848802Y2503200D02*
X903798D01*
X876300Y2475702D02*
Y2530698D01*
X831301Y2418201D02*
Y2588199D01*
X921299Y2418201D02*
Y2588199D01*
X831301Y2418201D02*
X921299D01*
X831301Y2588199D02*
X921299D01*
X1560000Y3950998D02*
X1614996D01*
X1587498Y3923500D02*
Y3978496D01*
X1632496Y3866000D02*
Y4035997D01*
X1542499Y3866000D02*
Y4035997D01*
X1632496D01*
X1542499Y3866000D02*
X1632496D01*
X965200Y3971802D02*
Y4026798D01*
X937697Y3999300D02*
X992698D01*
X1055197Y3954301D02*
Y4044298D01*
X875198Y3954301D02*
Y4044298D01*
Y3954301D02*
X1055197D01*
X875198Y4044298D02*
X1055197D01*
X3530000Y213802D02*
Y268798D01*
X3502502Y241300D02*
X3557498D01*
X3445001Y196301D02*
X3614999D01*
X3445001Y286299D02*
X3614999D01*
Y196301D02*
Y286299D01*
X3445001Y196301D02*
Y286299D01*
X3013902Y1651000D02*
X3068898D01*
X3041400Y1623502D02*
Y1678503D01*
X2996401Y1741002D02*
X3086399D01*
X2996401Y1561003D02*
X3086399D01*
Y1741002D01*
X2996401Y1561003D02*
Y1741002D01*
X2920200Y213802D02*
Y268798D01*
X2892702Y241300D02*
X2947698D01*
X2835202Y286299D02*
X3005199D01*
X2835202Y196301D02*
X3005199D01*
X2835202D02*
Y286299D01*
X3005199Y196301D02*
Y286299D01*
X3530000Y2513802D02*
Y2568798D01*
X3502502Y2541300D02*
X3557498D01*
X3445001Y2496301D02*
X3614999D01*
X3445001Y2586299D02*
X3614999D01*
Y2496301D02*
Y2586299D01*
X3445001Y2496301D02*
Y2586299D01*
X3013902Y3951000D02*
X3068898D01*
X3041400Y3923502D02*
Y3978503D01*
X2996401Y4041002D02*
X3086399D01*
X2996401Y3861003D02*
X3086399D01*
Y4041002D01*
X2996401Y3861003D02*
Y4041002D01*
X2920200Y2513802D02*
Y2568798D01*
X2892702Y2541300D02*
X2947698D01*
X2835202Y2586299D02*
X3005199D01*
X2835202Y2496301D02*
X3005199D01*
X2835202D02*
Y2586299D01*
X3005199Y2496301D02*
Y2586299D01*
X7295400Y1039302D02*
Y1094298D01*
X7267902Y1066800D02*
X7322903D01*
X7385402Y1021801D02*
Y1111799D01*
X7205403Y1021801D02*
Y1111799D01*
Y1021801D02*
X7385402D01*
X7205403Y1111799D02*
X7385402D01*
X7295400Y333702D02*
Y388698D01*
X7267902Y361200D02*
X7322903D01*
X7210401Y316201D02*
X7380404D01*
X7210401Y406199D02*
X7380404D01*
Y316201D02*
Y406199D01*
X7210401Y316201D02*
Y406199D01*
X7295400Y683702D02*
Y738698D01*
X7267902Y711200D02*
X7322898D01*
X7210401Y666201D02*
X7380398D01*
X7210401Y756199D02*
X7380398D01*
Y666201D02*
Y756199D01*
X7210401Y666201D02*
Y756199D01*
X7295400Y3639302D02*
Y3694298D01*
X7267902Y3666800D02*
X7322903D01*
X7385402Y3621801D02*
Y3711799D01*
X7205403Y3621801D02*
Y3711799D01*
Y3621801D02*
X7385402D01*
X7205403Y3711799D02*
X7385402D01*
X7295400Y2933702D02*
Y2988698D01*
X7267902Y2961200D02*
X7322903D01*
X7210401Y2916201D02*
X7380404D01*
X7210401Y3006199D02*
X7380404D01*
Y2916201D02*
Y3006199D01*
X7210401Y2916201D02*
Y3006199D01*
X7295400Y3283702D02*
Y3338698D01*
X7267902Y3311200D02*
X7322898D01*
X7210401Y3266201D02*
X7380398D01*
X7210401Y3356199D02*
X7380398D01*
Y3266201D02*
Y3356199D01*
X7210401Y3266201D02*
Y3356199D01*
X7295400Y6239302D02*
Y6294298D01*
X7267902Y6266800D02*
X7322903D01*
X7385402Y6221802D02*
Y6311799D01*
X7205403Y6221802D02*
Y6311799D01*
Y6221802D02*
X7385402D01*
X7205403Y6311799D02*
X7385402D01*
X7295400Y5533702D02*
Y5588698D01*
X7267902Y5561200D02*
X7322903D01*
X7210401Y5516202D02*
X7380404D01*
X7210401Y5606199D02*
X7380404D01*
Y5516202D02*
Y5606199D01*
X7210401Y5516202D02*
Y5606199D01*
X7295400Y5883702D02*
Y5938698D01*
X7267902Y5911200D02*
X7322898D01*
X7210401Y5866202D02*
X7380398D01*
X7210401Y5956199D02*
X7380398D01*
Y5866202D02*
Y5956199D01*
X7210401Y5866202D02*
Y5956199D01*
X5064702Y1587500D02*
X5119698D01*
X5092200Y1560002D02*
Y1614998D01*
X5137199Y1502501D02*
Y1672499D01*
X5047201Y1502501D02*
Y1672499D01*
X5137199D01*
X5047201Y1502501D02*
X5137199D01*
X4939102Y248199D02*
X4994098D01*
X4966600Y220701D02*
Y275697D01*
X4921601Y163200D02*
Y333197D01*
X5011599Y163200D02*
Y333197D01*
X4921601Y163200D02*
X5011599D01*
X4921601Y333197D02*
X5011599D01*
X4508000Y1560002D02*
Y1614998D01*
X4480502Y1587500D02*
X4535498D01*
X4417998Y1542501D02*
Y1632499D01*
X4598002Y1542501D02*
Y1632499D01*
X4417998D02*
X4598002D01*
X4417998Y1542501D02*
X4598002D01*
X5064702Y3887500D02*
X5119698D01*
X5092200Y3860002D02*
Y3914998D01*
X5137199Y3802501D02*
Y3972499D01*
X5047201Y3802501D02*
Y3972499D01*
X5137199D01*
X5047201Y3802501D02*
X5137199D01*
X4939102Y2548199D02*
X4994098D01*
X4966600Y2520701D02*
Y2575697D01*
X4921601Y2463200D02*
Y2633197D01*
X5011599Y2463200D02*
Y2633197D01*
X4921601Y2463200D02*
X5011599D01*
X4921601Y2633197D02*
X5011599D01*
X4508000Y3860002D02*
Y3914998D01*
X4480502Y3887500D02*
X4535498D01*
X4417998Y3842501D02*
Y3932499D01*
X4598002Y3842501D02*
Y3932499D01*
X4417998D02*
X4598002D01*
X4417998Y3842501D02*
X4598002D01*
%TF.MD5,913545f7e61defea48cbac51095493c1*%
M02*
