M48
;Layer_Color=9474304
;FILE_FORMAT=4:4
METRIC,LZ
;TYPE=PLATED
T01F00S00C0.4000
T02F00S00C0.6000
T03F00S00C1.0000
T04F00S00C1.0160
T05F00S00C1.5000
T06F00S00C2.5000
T07F00S00C4.0000
;TYPE=NON_PLATED
T08F00S00C1.6510
%
T01
X0001143Y0017018
X00073Y001524
X00093
X00113
X0014605Y0016106
X0017246Y0016891
X0021778Y0024905
X0023683Y0023889
X003143Y0025413
X0032954
X0034859Y0016891
X0032954Y0002413
X003143
X0023683Y0000889
X0021778Y0001905
X0014605Y0039106
X00113Y003824
X00093
X00073
X0048128Y0037351
X0049144Y0038494
X0047116Y0025032
X0044445
X0041389Y00237874
X0049144Y0015494
X0048128Y0014351
X0053716Y0016764
X006127Y0009017
X0071938
X0071557Y0013335
X0069906Y0001778
X0047116Y0002032
X0044445
X0041389Y00007874
X006127Y0035017
X0071938
X0071557Y0039335
X0069906Y0027778
Y0053778
X0071938Y0061017
X0071557Y0065335
X006127Y0061017
X0041402Y0057319
X0042418Y0049826
X0043942Y0050588
X0040894Y0049064
X0053716Y0039764
X00406941Y00785
X0034859Y0039891
X0017246
X0001143Y0040018
X00418213Y00795
X0043053Y00805
X0044196Y00815
T02
X0049Y00475
Y00685
X0020066Y0065574
T03
X0023241Y0049826
Y0052366
Y0054906
Y0057446
Y0059986
Y0062526
Y0065066
Y0067606
Y0070146
Y0072686
Y0075226
Y0077766
X0038481
Y0075226
Y0072686
Y0070146
Y0067606
Y0065066
Y0062526
Y0059986
Y0057446
Y0054906
Y0052366
Y0049826
X0026035Y0083648
Y0086148
T04
X0001778Y004996
Y00525
Y005504
Y005758
Y006012
Y006266
Y00652
Y006774
Y007028
Y007282
Y007536
Y00779
X0017018
Y007536
Y007282
Y007028
Y006774
Y00652
Y006266
Y006012
Y005758
Y005504
Y00525
Y004996
Y008044
Y008298
Y008552
X0001778
Y008298
Y008044
T05
X00365Y00165
Y00395
X00415Y00395
X00615Y00395
Y00135
X00415Y00165
X00615Y00655
T06
X0030861Y0051096
Y0076496
T07
X004Y0085
T08
X0001778Y004742
X0017018
Y008806
X0001778
M30
