%TF.GenerationSoftware,Altium Limited,Altium Designer,24.3.1 (35)*%
G04 Layer_Color=65535*
%FSLAX45Y45*%
%MOMM*%
%TF.SameCoordinates,065391E9-2A1D-4ECE-AA0D-878B158C5FC5*%
%TF.FilePolarity,Positive*%
%TF.FileFunction,Legend,Top*%
%TF.Part,CustomerPanel*%
G01*
G75*
%TA.AperFunction,NonConductor*%
%ADD29C,0.20000*%
%ADD30C,0.12700*%
%ADD31C,0.15000*%
D29*
X1899800Y4996000D02*
G03*
X1899800Y4996000I-10000J0D01*
G01*
X2146100Y7776600D02*
G03*
X2146100Y7776600I-10000J0D01*
G01*
X3144823Y5815156D02*
X3044855D01*
X3078177Y5848479D01*
X3044855Y5881801D01*
X3144823D01*
X3078177Y5915124D02*
X3128161D01*
X3144823Y5931785D01*
Y5981769D01*
X3078177D01*
X3144823Y6015092D02*
Y6048414D01*
Y6031753D01*
X3044855D01*
Y6015092D01*
X3061516Y6115060D02*
X3078177D01*
Y6098398D01*
Y6131721D01*
Y6115060D01*
X3128161D01*
X3144823Y6131721D01*
Y6181705D02*
Y6215027D01*
Y6198366D01*
X3078177D01*
Y6181705D01*
X3178145Y6265011D02*
X3078177D01*
Y6314995D01*
X3094839Y6331656D01*
X3128161D01*
X3144823Y6314995D01*
Y6265011D01*
Y6364979D02*
Y6398301D01*
Y6381640D01*
X3044855D01*
Y6364979D01*
X3144823Y6498269D02*
Y6464947D01*
X3128161Y6448285D01*
X3094839D01*
X3078177Y6464947D01*
Y6498269D01*
X3094839Y6514930D01*
X3111500D01*
Y6448285D01*
X3078177Y6548253D02*
X3144823Y6614898D01*
X3111500Y6581576D01*
X3078177Y6614898D01*
X3144823Y6548253D01*
Y6698205D02*
Y6664882D01*
X3128161Y6648221D01*
X3094839D01*
X3078177Y6664882D01*
Y6698205D01*
X3094839Y6714866D01*
X3111500D01*
Y6648221D01*
X3078177Y6748189D02*
X3144823D01*
X3111500D01*
X3094839Y6764850D01*
X3078177Y6781511D01*
Y6798173D01*
X3044855Y6948124D02*
Y6981447D01*
Y6964786D01*
X3144823D01*
Y6948124D01*
Y6981447D01*
Y7098076D02*
Y7031431D01*
X3078177Y7098076D01*
X3061516D01*
X3044855Y7081415D01*
Y7048092D01*
X3061516Y7031431D01*
Y7198044D02*
X3044855Y7181382D01*
Y7148060D01*
X3061516Y7131398D01*
X3128161D01*
X3144823Y7148060D01*
Y7181382D01*
X3128161Y7198044D01*
X913584Y6325485D02*
X846939D01*
X813616Y6358807D01*
X846939Y6392130D01*
X913584D01*
X863600D01*
Y6325485D01*
X846939Y6425453D02*
X913584D01*
X880261D01*
X863600Y6442114D01*
X846939Y6458775D01*
Y6475437D01*
X813616Y6592066D02*
X913584D01*
Y6542082D01*
X896922Y6525421D01*
X863600D01*
X846939Y6542082D01*
Y6592066D01*
Y6625388D02*
X896922D01*
X913584Y6642050D01*
Y6692033D01*
X846939D01*
X913584Y6725356D02*
Y6758679D01*
Y6742018D01*
X846939D01*
Y6725356D01*
X913584Y6808663D02*
X846939D01*
Y6858646D01*
X863600Y6875308D01*
X913584D01*
Y6925292D02*
Y6958614D01*
X896922Y6975275D01*
X863600D01*
X846939Y6958614D01*
Y6925292D01*
X863600Y6908630D01*
X896922D01*
X913584Y6925292D01*
Y7108566D02*
X813616D01*
X913584Y7175211D01*
X813616D01*
X846939Y7225195D02*
Y7258518D01*
X863600Y7275179D01*
X913584D01*
Y7225195D01*
X896922Y7208534D01*
X880261Y7225195D01*
Y7275179D01*
X913584Y7308502D02*
X846939D01*
Y7358485D01*
X863600Y7375147D01*
X913584D01*
Y7425131D02*
Y7458453D01*
X896922Y7475114D01*
X863600D01*
X846939Y7458453D01*
Y7425131D01*
X863600Y7408469D01*
X896922D01*
X913584Y7425131D01*
D30*
X50800Y4615001D02*
X1828800D01*
X50800D02*
Y8933001D01*
X1828800D01*
Y4615001D02*
Y8933001D01*
X2197100Y4855600D02*
Y7903600D01*
Y4855600D02*
X3975100D01*
Y7903600D01*
X2197100D02*
X3975100D01*
X5047600Y8530001D02*
X5277602D01*
X5047600Y7069999D02*
X5277602D01*
X4697598Y8530001D02*
X4807600D01*
X4697598Y7069999D02*
X4807600D01*
X4697598Y8321000D02*
Y8530001D01*
Y7069999D02*
Y7295998D01*
X5277399Y7069902D02*
Y7071802D01*
X5277602Y7069999D02*
Y8530001D01*
Y4995000D02*
Y6455002D01*
X5277399Y4994904D02*
Y4996804D01*
X4697598Y4995000D02*
Y5220999D01*
Y6246001D02*
Y6455002D01*
Y4995000D02*
X4807600D01*
X4697598Y6455002D02*
X4807600D01*
X5047600Y4995000D02*
X5277602D01*
X5047600Y6455002D02*
X5277602D01*
X1659481Y1574808D02*
Y1625592D01*
X1684872D01*
X1693336Y1617128D01*
Y1600200D01*
X1684872Y1591736D01*
X1659481D01*
X1676408D02*
X1693336Y1574808D01*
X1710264Y1617128D02*
X1718728Y1625592D01*
X1735656D01*
X1744120Y1617128D01*
Y1608664D01*
X1735656Y1600200D01*
X1727192D01*
X1735656D01*
X1744120Y1591736D01*
Y1583272D01*
X1735656Y1574808D01*
X1718728D01*
X1710264Y1583272D01*
X948281Y177808D02*
Y228592D01*
X973672D01*
X982136Y220128D01*
Y203200D01*
X973672Y194736D01*
X948281D01*
X965208D02*
X982136Y177808D01*
X1032920D02*
X999064D01*
X1032920Y211664D01*
Y220128D01*
X1024456Y228592D01*
X1007528D01*
X999064Y220128D01*
X818598Y1716228D02*
X810134Y1724692D01*
X793206D01*
X784742Y1716228D01*
Y1682372D01*
X793206Y1673908D01*
X810134D01*
X818598Y1682372D01*
X835525Y1673908D02*
X852453D01*
X843989D01*
Y1724692D01*
X835525Y1716228D01*
X1659481Y3874808D02*
Y3925592D01*
X1684872D01*
X1693336Y3917128D01*
Y3900200D01*
X1684872Y3891736D01*
X1659481D01*
X1676408D02*
X1693336Y3874808D01*
X1710264Y3917128D02*
X1718728Y3925592D01*
X1735656D01*
X1744120Y3917128D01*
Y3908664D01*
X1735656Y3900200D01*
X1727192D01*
X1735656D01*
X1744120Y3891736D01*
Y3883272D01*
X1735656Y3874808D01*
X1718728D01*
X1710264Y3883272D01*
X948281Y2477808D02*
Y2528592D01*
X973672D01*
X982136Y2520128D01*
Y2503200D01*
X973672Y2494736D01*
X948281D01*
X965208D02*
X982136Y2477808D01*
X1032920D02*
X999064D01*
X1032920Y2511664D01*
Y2520128D01*
X1024456Y2528592D01*
X1007528D01*
X999064Y2520128D01*
X818598Y4016228D02*
X810134Y4024692D01*
X793206D01*
X784742Y4016228D01*
Y3982372D01*
X793206Y3973908D01*
X810134D01*
X818598Y3982372D01*
X835525Y3973908D02*
X852453D01*
X843989D01*
Y4024692D01*
X835525Y4016228D01*
X3481681Y127008D02*
Y177792D01*
X3507072D01*
X3515536Y169328D01*
Y152400D01*
X3507072Y143936D01*
X3481681D01*
X3498608D02*
X3515536Y127008D01*
X3532464Y169328D02*
X3540928Y177792D01*
X3557856D01*
X3566320Y169328D01*
Y160864D01*
X3557856Y152400D01*
X3549392D01*
X3557856D01*
X3566320Y143936D01*
Y135472D01*
X3557856Y127008D01*
X3540928D01*
X3532464Y135472D01*
X2884860Y126876D02*
X2884701Y177659D01*
X2910093Y177739D01*
X2918583Y169301D01*
X2918636Y152374D01*
X2910199Y143883D01*
X2884807Y143804D01*
X2901735Y143857D02*
X2918716Y126982D01*
X2969499Y127141D02*
X2935644Y127035D01*
X2969393Y160997D01*
X2969367Y169460D01*
X2960876Y177898D01*
X2943949Y177845D01*
X2935511Y169355D01*
X3126076Y1657179D02*
X3117425Y1648908D01*
X3117046Y1631984D01*
X3125318Y1623332D01*
X3159165Y1622574D01*
X3167816Y1630846D01*
X3168196Y1647769D01*
X3159923Y1656421D01*
X3168765Y1673155D02*
X3169144Y1690078D01*
X3168954Y1681616D01*
X3118184Y1682755D01*
X3126456Y1674103D01*
X3481681Y2427008D02*
Y2477792D01*
X3507072D01*
X3515536Y2469328D01*
Y2452400D01*
X3507072Y2443936D01*
X3481681D01*
X3498608D02*
X3515536Y2427008D01*
X3532464Y2469328D02*
X3540928Y2477792D01*
X3557856D01*
X3566320Y2469328D01*
Y2460864D01*
X3557856Y2452400D01*
X3549392D01*
X3557856D01*
X3566320Y2443936D01*
Y2435472D01*
X3557856Y2427008D01*
X3540928D01*
X3532464Y2435472D01*
X2884860Y2426876D02*
X2884701Y2477659D01*
X2910093Y2477739D01*
X2918583Y2469301D01*
X2918636Y2452374D01*
X2910199Y2443883D01*
X2884807Y2443804D01*
X2901735Y2443857D02*
X2918716Y2426982D01*
X2969499Y2427141D02*
X2935644Y2427035D01*
X2969393Y2460997D01*
X2969367Y2469460D01*
X2960876Y2477898D01*
X2943949Y2477845D01*
X2935511Y2469354D01*
X3126076Y3957179D02*
X3117425Y3948908D01*
X3117046Y3931984D01*
X3125318Y3923332D01*
X3159165Y3922574D01*
X3167816Y3930846D01*
X3168196Y3947769D01*
X3159923Y3956421D01*
X3168765Y3973155D02*
X3169144Y3990078D01*
X3168954Y3981616D01*
X3118184Y3982755D01*
X3126456Y3974103D01*
X6541725Y625394D02*
Y600002D01*
X6560769D01*
X6554421Y612698D01*
Y619046D01*
X6560769Y625394D01*
X6573465D01*
X6579813Y619046D01*
Y606350D01*
X6573465Y600002D01*
X6668725Y625394D02*
X6675073Y612698D01*
X6687769Y600002D01*
X6700465D01*
X6706813Y606350D01*
Y619046D01*
X6700465Y625394D01*
X6694117D01*
X6687769Y619046D01*
Y600002D01*
X6795725D02*
Y625394D01*
X6802073D01*
X6827465Y600002D01*
X6833813D01*
X6929073D02*
X6922725Y606350D01*
Y619046D01*
X6929073Y625394D01*
X6935421D01*
X6941769Y619046D01*
X6948117Y625394D01*
X6954465D01*
X6960813Y619046D01*
Y606350D01*
X6954465Y600002D01*
X6948117D01*
X6941769Y606350D01*
X6935421Y600002D01*
X6929073D01*
X6941769Y606350D02*
Y619046D01*
X6965200Y850900D02*
Y863596D01*
Y857248D01*
X6927112D01*
X6933460Y850900D01*
X6825500Y876292D02*
Y850900D01*
X6800108Y876292D01*
X6793760D01*
X6787412Y869944D01*
Y857248D01*
X6793760Y850900D01*
X6666760Y825500D02*
X6660412Y831848D01*
Y844544D01*
X6666760Y850892D01*
X6673108D01*
X6679456Y844544D01*
Y838196D01*
Y844544D01*
X6685804Y850892D01*
X6692152D01*
X6698500Y844544D01*
Y831848D01*
X6692152Y825500D01*
X6584200Y869944D02*
X6546112D01*
X6565156Y850900D01*
Y876292D01*
X7295400Y1151472D02*
X7303864Y1143008D01*
X7320792D01*
X7329256Y1151472D01*
Y1185328D01*
X7320792Y1193792D01*
X7303864D01*
X7295400Y1185328D01*
X7278472Y1193792D02*
X7261544D01*
X7270008D01*
Y1143008D01*
X7278472Y1151472D01*
X7253080Y437408D02*
Y488192D01*
X7278472D01*
X7286936Y479728D01*
Y462800D01*
X7278472Y454336D01*
X7253080D01*
X7270008D02*
X7286936Y437408D01*
X7303864Y479728D02*
X7312328Y488192D01*
X7329256D01*
X7337720Y479728D01*
Y471264D01*
X7329256Y462800D01*
X7320792D01*
X7329256D01*
X7337720Y454336D01*
Y445872D01*
X7329256Y437408D01*
X7312328D01*
X7303864Y445872D01*
X7337944Y837813D02*
X7337491Y787031D01*
X7312100Y787258D01*
X7303712Y795797D01*
X7303863Y812724D01*
X7312402Y821112D01*
X7337793Y820886D01*
X7320866Y821037D02*
X7304090Y838115D01*
X7253309Y838569D02*
X7287163Y838266D01*
X7253006Y804714D01*
X7252931Y796251D01*
X7261318Y787712D01*
X7278246Y787561D01*
X7286785Y795948D01*
X6541725Y3225394D02*
Y3200002D01*
X6560769D01*
X6554421Y3212698D01*
Y3219046D01*
X6560769Y3225394D01*
X6573465D01*
X6579813Y3219046D01*
Y3206350D01*
X6573465Y3200002D01*
X6668725Y3225394D02*
X6675073Y3212698D01*
X6687769Y3200002D01*
X6700465D01*
X6706813Y3206350D01*
Y3219046D01*
X6700465Y3225394D01*
X6694117D01*
X6687769Y3219046D01*
Y3200002D01*
X6795725D02*
Y3225394D01*
X6802073D01*
X6827465Y3200002D01*
X6833813D01*
X6929073D02*
X6922725Y3206350D01*
Y3219046D01*
X6929073Y3225394D01*
X6935421D01*
X6941769Y3219046D01*
X6948117Y3225394D01*
X6954465D01*
X6960813Y3219046D01*
Y3206350D01*
X6954465Y3200002D01*
X6948117D01*
X6941769Y3206350D01*
X6935421Y3200002D01*
X6929073D01*
X6941769Y3206350D02*
Y3219046D01*
X6965200Y3450900D02*
Y3463596D01*
Y3457248D01*
X6927112D01*
X6933460Y3450900D01*
X6825500Y3476292D02*
Y3450900D01*
X6800108Y3476292D01*
X6793760D01*
X6787412Y3469944D01*
Y3457248D01*
X6793760Y3450900D01*
X6666760Y3425500D02*
X6660412Y3431848D01*
Y3444544D01*
X6666760Y3450892D01*
X6673108D01*
X6679456Y3444544D01*
Y3438196D01*
Y3444544D01*
X6685804Y3450892D01*
X6692152D01*
X6698500Y3444544D01*
Y3431848D01*
X6692152Y3425500D01*
X6584200Y3469944D02*
X6546112D01*
X6565156Y3450900D01*
Y3476292D01*
X7295400Y3751472D02*
X7303864Y3743008D01*
X7320792D01*
X7329256Y3751472D01*
Y3785328D01*
X7320792Y3793792D01*
X7303864D01*
X7295400Y3785328D01*
X7278472Y3793792D02*
X7261544D01*
X7270008D01*
Y3743008D01*
X7278472Y3751472D01*
X7253080Y3037408D02*
Y3088192D01*
X7278472D01*
X7286936Y3079728D01*
Y3062800D01*
X7278472Y3054336D01*
X7253080D01*
X7270008D02*
X7286936Y3037408D01*
X7303864Y3079728D02*
X7312328Y3088192D01*
X7329256D01*
X7337720Y3079728D01*
Y3071264D01*
X7329256Y3062800D01*
X7320792D01*
X7329256D01*
X7337720Y3054336D01*
Y3045872D01*
X7329256Y3037408D01*
X7312328D01*
X7303864Y3045872D01*
X7337944Y3437813D02*
X7337491Y3387031D01*
X7312100Y3387258D01*
X7303712Y3395797D01*
X7303863Y3412724D01*
X7312402Y3421113D01*
X7337793Y3420886D01*
X7320866Y3421037D02*
X7304090Y3438115D01*
X7253309Y3438569D02*
X7287163Y3438266D01*
X7253006Y3404715D01*
X7252931Y3396251D01*
X7261318Y3387712D01*
X7278246Y3387561D01*
X7286785Y3395949D01*
X6541725Y5825394D02*
Y5800002D01*
X6560769D01*
X6554421Y5812698D01*
Y5819046D01*
X6560769Y5825394D01*
X6573465D01*
X6579813Y5819046D01*
Y5806350D01*
X6573465Y5800002D01*
X6668725Y5825394D02*
X6675073Y5812698D01*
X6687769Y5800002D01*
X6700465D01*
X6706813Y5806350D01*
Y5819046D01*
X6700465Y5825394D01*
X6694117D01*
X6687769Y5819046D01*
Y5800002D01*
X6795725D02*
Y5825394D01*
X6802073D01*
X6827465Y5800002D01*
X6833813D01*
X6929073D02*
X6922725Y5806350D01*
Y5819046D01*
X6929073Y5825394D01*
X6935421D01*
X6941769Y5819046D01*
X6948117Y5825394D01*
X6954465D01*
X6960813Y5819046D01*
Y5806350D01*
X6954465Y5800002D01*
X6948117D01*
X6941769Y5806350D01*
X6935421Y5800002D01*
X6929073D01*
X6941769Y5806350D02*
Y5819046D01*
X6965200Y6050900D02*
Y6063596D01*
Y6057248D01*
X6927112D01*
X6933460Y6050900D01*
X6825500Y6076292D02*
Y6050900D01*
X6800108Y6076292D01*
X6793760D01*
X6787412Y6069944D01*
Y6057248D01*
X6793760Y6050900D01*
X6666760Y6025500D02*
X6660412Y6031848D01*
Y6044544D01*
X6666760Y6050892D01*
X6673108D01*
X6679456Y6044544D01*
Y6038196D01*
Y6044544D01*
X6685804Y6050892D01*
X6692152D01*
X6698500Y6044544D01*
Y6031848D01*
X6692152Y6025500D01*
X6584200Y6069944D02*
X6546112D01*
X6565156Y6050900D01*
Y6076292D01*
X7295400Y6351472D02*
X7303864Y6343008D01*
X7320792D01*
X7329256Y6351472D01*
Y6385328D01*
X7320792Y6393792D01*
X7303864D01*
X7295400Y6385328D01*
X7278472Y6393792D02*
X7261544D01*
X7270008D01*
Y6343008D01*
X7278472Y6351472D01*
X7253080Y5637409D02*
Y5688192D01*
X7278472D01*
X7286936Y5679728D01*
Y5662800D01*
X7278472Y5654336D01*
X7253080D01*
X7270008D02*
X7286936Y5637409D01*
X7303864Y5679728D02*
X7312328Y5688192D01*
X7329256D01*
X7337720Y5679728D01*
Y5671264D01*
X7329256Y5662800D01*
X7320792D01*
X7329256D01*
X7337720Y5654336D01*
Y5645873D01*
X7329256Y5637409D01*
X7312328D01*
X7303864Y5645873D01*
X7337944Y6037813D02*
X7337491Y5987031D01*
X7312100Y5987258D01*
X7303712Y5995797D01*
X7303863Y6012725D01*
X7312402Y6021113D01*
X7337793Y6020886D01*
X7320866Y6021037D02*
X7304090Y6038115D01*
X7253309Y6038569D02*
X7287163Y6038267D01*
X7253006Y6004715D01*
X7252931Y5996251D01*
X7261318Y5987712D01*
X7278246Y5987561D01*
X7286785Y5995949D01*
X5030108Y290518D02*
X5080892D01*
Y265126D01*
X5072428Y256662D01*
X5055500D01*
X5047036Y265126D01*
Y290518D01*
Y273590D02*
X5030108Y256662D01*
X5072428Y239735D02*
X5080892Y231271D01*
Y214343D01*
X5072428Y205879D01*
X5063964D01*
X5055500Y214343D01*
Y222807D01*
Y214343D01*
X5047036Y205879D01*
X5038572D01*
X5030108Y214343D01*
Y231271D01*
X5038572Y239735D01*
X5028691Y1545181D02*
X4977908D01*
Y1570572D01*
X4986372Y1579036D01*
X5003300D01*
X5011764Y1570572D01*
Y1545181D01*
Y1562108D02*
X5028691Y1579036D01*
Y1629820D02*
Y1595964D01*
X4994836Y1629820D01*
X4986372D01*
X4977908Y1621356D01*
Y1604428D01*
X4986372Y1595964D01*
X4508000Y1693328D02*
X4499536Y1701792D01*
X4482608D01*
X4474144Y1693328D01*
Y1659472D01*
X4482608Y1651008D01*
X4499536D01*
X4508000Y1659472D01*
X4524928Y1651008D02*
X4541856D01*
X4533392D01*
Y1701792D01*
X4524928Y1693328D01*
X5030108Y2590518D02*
X5080892D01*
Y2565126D01*
X5072428Y2556662D01*
X5055500D01*
X5047036Y2565126D01*
Y2590518D01*
Y2573590D02*
X5030108Y2556662D01*
X5072428Y2539735D02*
X5080892Y2531271D01*
Y2514343D01*
X5072428Y2505879D01*
X5063964D01*
X5055500Y2514343D01*
Y2522807D01*
Y2514343D01*
X5047036Y2505879D01*
X5038572D01*
X5030108Y2514343D01*
Y2531271D01*
X5038572Y2539735D01*
X5028691Y3845181D02*
X4977908D01*
Y3870572D01*
X4986372Y3879036D01*
X5003300D01*
X5011764Y3870572D01*
Y3845181D01*
Y3862108D02*
X5028691Y3879036D01*
Y3929820D02*
Y3895964D01*
X4994836Y3929820D01*
X4986372D01*
X4977908Y3921356D01*
Y3904428D01*
X4986372Y3895964D01*
X4508000Y3993328D02*
X4499536Y4001792D01*
X4482608D01*
X4474144Y3993328D01*
Y3959472D01*
X4482608Y3951008D01*
X4499536D01*
X4508000Y3959472D01*
X4524928Y3951008D02*
X4541856D01*
X4533392D01*
Y4001792D01*
X4524928Y3993328D01*
D31*
X4315000Y8266653D02*
X4323330Y8274983D01*
X4339992D01*
X4348322Y8266653D01*
Y8258322D01*
X4339992Y8249991D01*
X4331661D01*
X4339992D01*
X4348322Y8241661D01*
Y8233330D01*
X4339992Y8225000D01*
X4323330D01*
X4315000Y8233330D01*
X4364983Y8225000D02*
Y8233330D01*
X4373314D01*
Y8225000D01*
X4364983D01*
X4406637Y8266653D02*
X4414967Y8274983D01*
X4431628D01*
X4439959Y8266653D01*
Y8258322D01*
X4431628Y8249991D01*
X4423298D01*
X4431628D01*
X4439959Y8241661D01*
Y8233330D01*
X4431628Y8225000D01*
X4414967D01*
X4406637Y8233330D01*
X4456620Y8274983D02*
Y8241661D01*
X4473281Y8225000D01*
X4489943Y8241661D01*
Y8274983D01*
X4315000Y6093353D02*
X4323330Y6101683D01*
X4339992D01*
X4348322Y6093353D01*
Y6085022D01*
X4339992Y6076691D01*
X4331661D01*
X4339992D01*
X4348322Y6068361D01*
Y6060030D01*
X4339992Y6051700D01*
X4323330D01*
X4315000Y6060030D01*
X4364983Y6051700D02*
Y6060030D01*
X4373314D01*
Y6051700D01*
X4364983D01*
X4406637Y6093353D02*
X4414967Y6101683D01*
X4431628D01*
X4439959Y6093353D01*
Y6085022D01*
X4431628Y6076691D01*
X4423298D01*
X4431628D01*
X4439959Y6068361D01*
Y6060030D01*
X4431628Y6051700D01*
X4414967D01*
X4406637Y6060030D01*
X4456620Y6101683D02*
Y6068361D01*
X4473281Y6051700D01*
X4489943Y6068361D01*
Y6101683D01*
X4333323Y7366653D02*
X4324992Y7374983D01*
X4308331D01*
X4300000Y7366653D01*
Y7333331D01*
X4308331Y7325000D01*
X4324992D01*
X4333323Y7333331D01*
Y7349992D01*
X4316661D01*
X4349984Y7325000D02*
Y7374983D01*
X4383306Y7325000D01*
Y7374983D01*
X4399967D02*
Y7325000D01*
X4424959D01*
X4433290Y7333331D01*
Y7366653D01*
X4424959Y7374983D01*
X4399967D01*
X4333323Y5290953D02*
X4324992Y5299284D01*
X4308331D01*
X4300000Y5290953D01*
Y5257631D01*
X4308331Y5249300D01*
X4324992D01*
X4333323Y5257631D01*
Y5274292D01*
X4316661D01*
X4349984Y5249300D02*
Y5299284D01*
X4383306Y5249300D01*
Y5299284D01*
X4399967D02*
Y5249300D01*
X4424959D01*
X4433290Y5257631D01*
Y5290953D01*
X4424959Y5299284D01*
X4399967D01*
X856300Y203200D02*
X896300D01*
X1567498Y1650998D02*
X1607498D01*
X965200Y1679300D02*
Y1719300D01*
X856300Y2503200D02*
X896300D01*
X1567498Y3950998D02*
X1607498D01*
X965200Y3979300D02*
Y4019300D01*
X3530000Y221300D02*
Y261300D01*
X3021400Y1651000D02*
X3061400D01*
X2920200Y221300D02*
Y261300D01*
X3530000Y2521300D02*
Y2561300D01*
X3021400Y3951000D02*
X3061400D01*
X2920200Y2521300D02*
Y2561300D01*
X7295400Y1046800D02*
Y1086800D01*
Y341200D02*
Y381200D01*
Y691200D02*
Y731200D01*
Y3646800D02*
Y3686800D01*
Y2941200D02*
Y2981200D01*
Y3291200D02*
Y3331200D01*
Y6246800D02*
Y6286800D01*
Y5541200D02*
Y5581200D01*
Y5891200D02*
Y5931200D01*
X5072200Y1587500D02*
X5112200D01*
X4946600Y248199D02*
X4986600D01*
X4508000Y1567500D02*
Y1607500D01*
X5072200Y3887500D02*
X5112200D01*
X4946600Y2548199D02*
X4986600D01*
X4508000Y3867500D02*
Y3907500D01*
%TF.MD5,1df4011005bd04a1494ae279c56b77e4*%
M02*
