%TF.GenerationSoftware,Altium Limited,Altium Designer,24.3.1 (35)*%
G04 Layer_Color=8421504*
%FSLAX45Y45*%
%MOMM*%
%TF.SameCoordinates,065391E9-2A1D-4ECE-AA0D-878B158C5FC5*%
%TF.FilePolarity,Positive*%
%TF.FileFunction,Paste,Top*%
%TF.Part,CustomerPanel*%
G01*
G75*
%TA.AperFunction,SMDPad,CuDef*%
%ADD10R,1.80000X2.00000*%
%ADD11R,1.30000X0.60000*%
G04:AMPARAMS|DCode=14|XSize=0.55mm|YSize=0.5mm|CornerRadius=0.0625mm|HoleSize=0mm|Usage=FLASHONLY|Rotation=0.000|XOffset=0mm|YOffset=0mm|HoleType=Round|Shape=RoundedRectangle|*
%AMROUNDEDRECTD14*
21,1,0.55000,0.37500,0,0,0.0*
21,1,0.42500,0.50000,0,0,0.0*
1,1,0.12500,0.21250,-0.18750*
1,1,0.12500,-0.21250,-0.18750*
1,1,0.12500,-0.21250,0.18750*
1,1,0.12500,0.21250,0.18750*
%
%ADD14ROUNDEDRECTD14*%
G04:AMPARAMS|DCode=15|XSize=0.55mm|YSize=0.5mm|CornerRadius=0.0625mm|HoleSize=0mm|Usage=FLASHONLY|Rotation=270.000|XOffset=0mm|YOffset=0mm|HoleType=Round|Shape=RoundedRectangle|*
%AMROUNDEDRECTD15*
21,1,0.55000,0.37500,0,0,270.0*
21,1,0.42500,0.50000,0,0,270.0*
1,1,0.12500,-0.18750,-0.21250*
1,1,0.12500,-0.18750,0.21250*
1,1,0.12500,0.18750,0.21250*
1,1,0.12500,0.18750,-0.21250*
%
%ADD15ROUNDEDRECTD15*%
%ADD16R,0.90000X2.25000*%
%ADD17R,0.90000X2.80000*%
D10*
X4927600Y7120001D02*
D03*
Y8479999D02*
D03*
Y6405000D02*
D03*
Y5045003D02*
D03*
D11*
X4652599Y8250002D02*
D03*
Y8150002D02*
D03*
Y8050002D02*
D03*
Y7950002D02*
D03*
Y7850002D02*
D03*
Y7750003D02*
D03*
Y7649998D02*
D03*
Y7549998D02*
D03*
Y7449998D02*
D03*
Y7349998D02*
D03*
Y5275000D02*
D03*
Y5374999D02*
D03*
Y5474999D02*
D03*
Y5574999D02*
D03*
Y5675004D02*
D03*
Y5775004D02*
D03*
Y5875003D02*
D03*
Y5975003D02*
D03*
Y6075003D02*
D03*
Y6175003D02*
D03*
D14*
X876300Y158201D02*
D03*
Y248199D02*
D03*
X1587498Y1695997D02*
D03*
Y1606000D02*
D03*
X876300Y2458201D02*
D03*
Y2548199D02*
D03*
X1587498Y3995997D02*
D03*
Y3906000D02*
D03*
X3041400Y1606001D02*
D03*
Y1696004D02*
D03*
Y3906001D02*
D03*
Y3996004D02*
D03*
X5092200Y1632499D02*
D03*
Y1542501D02*
D03*
X4966600Y203200D02*
D03*
Y293197D02*
D03*
X5092200Y3932499D02*
D03*
Y3842501D02*
D03*
X4966600Y2503200D02*
D03*
Y2593197D02*
D03*
D15*
X920196Y1699300D02*
D03*
X1010199D02*
D03*
X920196Y3999300D02*
D03*
X1010199D02*
D03*
X3574999Y241300D02*
D03*
X3485001D02*
D03*
X2875202D02*
D03*
X2965200D02*
D03*
X3574999Y2541300D02*
D03*
X3485001D02*
D03*
X2875202D02*
D03*
X2965200D02*
D03*
X7250401Y1066800D02*
D03*
X7340399D02*
D03*
X7340404Y361200D02*
D03*
X7250401D02*
D03*
X7340399Y711200D02*
D03*
X7250401D02*
D03*
Y3666800D02*
D03*
X7340399D02*
D03*
X7340404Y2961200D02*
D03*
X7250401D02*
D03*
X7340399Y3311200D02*
D03*
X7250401D02*
D03*
Y6266800D02*
D03*
X7340399D02*
D03*
X7340404Y5561200D02*
D03*
X7250401D02*
D03*
X7340399Y5911200D02*
D03*
X7250401D02*
D03*
X4552999Y1587500D02*
D03*
X4463001D02*
D03*
X4552999Y3887500D02*
D03*
X4463001D02*
D03*
D16*
X711581Y634228D02*
D03*
X836585D02*
D03*
X966582D02*
D03*
X1091585D02*
D03*
X711581Y1169228D02*
D03*
X966582D02*
D03*
X1091585D02*
D03*
X711581Y2934228D02*
D03*
X836585D02*
D03*
X966582D02*
D03*
X1091585D02*
D03*
X711581Y3469228D02*
D03*
X966582D02*
D03*
X1091585D02*
D03*
X2709884Y632526D02*
D03*
X2834883D02*
D03*
X2964885D02*
D03*
X3089884D02*
D03*
X2709884Y1167526D02*
D03*
X2964885D02*
D03*
X3089884D02*
D03*
X2709884Y2932526D02*
D03*
X2834883D02*
D03*
X2964885D02*
D03*
X3089884D02*
D03*
X2709884Y3467526D02*
D03*
X2964885D02*
D03*
X3089884D02*
D03*
X6558800Y444500D02*
D03*
X6939800Y1054100D02*
D03*
X6812800D02*
D03*
X6558800D02*
D03*
X6685800Y444500D02*
D03*
X6812800D02*
D03*
X6939800D02*
D03*
X6558800Y3044500D02*
D03*
X6939800Y3654100D02*
D03*
X6812800D02*
D03*
X6558800D02*
D03*
X6685800Y3044500D02*
D03*
X6812800D02*
D03*
X6939800D02*
D03*
X6558800Y5644500D02*
D03*
X6939800Y6254100D02*
D03*
X6812800D02*
D03*
X6558800D02*
D03*
X6685800Y5644500D02*
D03*
X6812800D02*
D03*
X6939800D02*
D03*
X4711581Y634228D02*
D03*
X4836584D02*
D03*
X4966582D02*
D03*
X5091585D02*
D03*
X4711581Y1169228D02*
D03*
X4966582D02*
D03*
X5091585D02*
D03*
X4711581Y2934228D02*
D03*
X4836584D02*
D03*
X4966582D02*
D03*
X5091585D02*
D03*
X4711581Y3469228D02*
D03*
X4966582D02*
D03*
X5091585D02*
D03*
D17*
X836585Y1141730D02*
D03*
Y3441730D02*
D03*
X2834883Y1140028D02*
D03*
Y3440028D02*
D03*
X6685800Y1028700D02*
D03*
Y3628700D02*
D03*
Y6228700D02*
D03*
X4836584Y1141730D02*
D03*
Y3441730D02*
D03*
%TF.MD5,8b4d76be54b0302edc41e6dac982fce2*%
M02*
