%TF.GenerationSoftware,Altium Limited,Altium Designer,24.3.1 (35)*%
G04 Layer_Color=32768*
%FSLAX45Y45*%
%MOMM*%
%TF.SameCoordinates,065391E9-2A1D-4ECE-AA0D-878B158C5FC5*%
%TF.FilePolarity,Positive*%
%TF.FileFunction,Other,Mechanical_19*%
%TF.Part,CustomerPanel*%
G01*
G75*
G36*
X7405456Y6280109D02*
X7405954D01*
X7406564Y6280054D01*
X7407228Y6279943D01*
X7408003Y6279832D01*
X7409609Y6279556D01*
X7411270Y6279113D01*
X7412931Y6278504D01*
X7413707Y6278116D01*
X7414482Y6277673D01*
X7414537Y6277618D01*
X7414648Y6277562D01*
X7414869Y6277396D01*
X7415091Y6277175D01*
X7415423Y6276953D01*
X7415811Y6276621D01*
X7416254Y6276233D01*
X7416697Y6275790D01*
X7417140Y6275292D01*
X7417638Y6274794D01*
X7418635Y6273520D01*
X7419576Y6272025D01*
X7420407Y6270364D01*
Y6270309D01*
X7420517Y6270142D01*
X7420573Y6269866D01*
X7420739Y6269533D01*
X7420850Y6269090D01*
X7421016Y6268537D01*
X7421237Y6267928D01*
X7421403Y6267263D01*
X7421569Y6266543D01*
X7421791Y6265713D01*
X7422068Y6263996D01*
X7422289Y6262058D01*
X7422400Y6260065D01*
Y6260009D01*
Y6259788D01*
Y6259456D01*
X7422345Y6259068D01*
Y6258514D01*
X7422289Y6257961D01*
X7422234Y6257241D01*
X7422123Y6256521D01*
X7421846Y6254915D01*
X7421459Y6253143D01*
X7420905Y6251371D01*
X7420130Y6249655D01*
X7420074Y6249599D01*
X7420019Y6249433D01*
X7419908Y6249212D01*
X7419687Y6248935D01*
X7419465Y6248547D01*
X7419188Y6248104D01*
X7418469Y6247108D01*
X7417527Y6246000D01*
X7416420Y6244893D01*
X7415146Y6243785D01*
X7413651Y6242844D01*
X7413596Y6242789D01*
X7413430Y6242733D01*
X7413208Y6242623D01*
X7412931Y6242456D01*
X7412488Y6242290D01*
X7412045Y6242124D01*
X7411492Y6241903D01*
X7410883Y6241681D01*
X7410218Y6241460D01*
X7409498Y6241238D01*
X7407948Y6240906D01*
X7406176Y6240629D01*
X7404349Y6240518D01*
X7403795D01*
X7403407Y6240574D01*
X7402909Y6240629D01*
X7402300Y6240684D01*
X7401691Y6240740D01*
X7400971Y6240906D01*
X7399476Y6241238D01*
X7397815Y6241737D01*
X7396984Y6242069D01*
X7396209Y6242456D01*
X7395434Y6242955D01*
X7394659Y6243453D01*
X7394603Y6243508D01*
X7394492Y6243564D01*
X7394271Y6243730D01*
X7393994Y6244007D01*
X7393717Y6244284D01*
X7393330Y6244671D01*
X7392942Y6245114D01*
X7392499Y6245557D01*
X7392056Y6246111D01*
X7391613Y6246775D01*
X7391115Y6247440D01*
X7390672Y6248160D01*
X7390284Y6248990D01*
X7389841Y6249821D01*
X7389509Y6250707D01*
X7389177Y6251704D01*
X7394160Y6252866D01*
Y6252811D01*
X7394216Y6252700D01*
X7394326Y6252479D01*
X7394437Y6252202D01*
X7394548Y6251870D01*
X7394714Y6251427D01*
X7395157Y6250541D01*
X7395711Y6249544D01*
X7396375Y6248547D01*
X7397206Y6247606D01*
X7398092Y6246775D01*
X7398202Y6246665D01*
X7398535Y6246443D01*
X7399088Y6246166D01*
X7399808Y6245779D01*
X7400749Y6245446D01*
X7401802Y6245114D01*
X7403075Y6244893D01*
X7404459Y6244837D01*
X7404902D01*
X7405179Y6244893D01*
X7405567D01*
X7406010Y6244948D01*
X7407062Y6245114D01*
X7408225Y6245336D01*
X7409443Y6245723D01*
X7410716Y6246277D01*
X7411879Y6246997D01*
X7411935D01*
X7411990Y6247108D01*
X7412378Y6247385D01*
X7412876Y6247827D01*
X7413485Y6248492D01*
X7414205Y6249323D01*
X7414869Y6250264D01*
X7415478Y6251427D01*
X7416032Y6252700D01*
Y6252756D01*
X7416088Y6252866D01*
X7416143Y6253032D01*
X7416198Y6253309D01*
X7416309Y6253642D01*
X7416420Y6254029D01*
X7416586Y6254970D01*
X7416807Y6256078D01*
X7417029Y6257296D01*
X7417140Y6258625D01*
X7417195Y6260065D01*
Y6260120D01*
Y6260286D01*
Y6260563D01*
Y6260895D01*
X7417140Y6261283D01*
Y6261781D01*
X7417084Y6262335D01*
X7417029Y6262944D01*
X7416863Y6264273D01*
X7416586Y6265713D01*
X7416254Y6267152D01*
X7415811Y6268592D01*
Y6268647D01*
X7415755Y6268758D01*
X7415645Y6268924D01*
X7415534Y6269201D01*
X7415202Y6269866D01*
X7414703Y6270641D01*
X7414094Y6271527D01*
X7413319Y6272468D01*
X7412433Y6273299D01*
X7411381Y6274074D01*
X7411326D01*
X7411215Y6274129D01*
X7411049Y6274240D01*
X7410827Y6274351D01*
X7410550Y6274461D01*
X7410218Y6274628D01*
X7409443Y6274960D01*
X7408446Y6275292D01*
X7407339Y6275569D01*
X7406121Y6275790D01*
X7404847Y6275846D01*
X7404459D01*
X7404127Y6275790D01*
X7403740D01*
X7403352Y6275735D01*
X7402355Y6275513D01*
X7401192Y6275237D01*
X7400030Y6274794D01*
X7398811Y6274185D01*
X7398202Y6273852D01*
X7397649Y6273409D01*
X7397593Y6273354D01*
X7397538Y6273299D01*
X7397372Y6273132D01*
X7397150Y6272966D01*
X7396929Y6272690D01*
X7396652Y6272357D01*
X7396320Y6272025D01*
X7396043Y6271582D01*
X7395711Y6271084D01*
X7395323Y6270530D01*
X7394991Y6269976D01*
X7394659Y6269312D01*
X7394382Y6268592D01*
X7394105Y6267817D01*
X7393828Y6266986D01*
X7393606Y6266100D01*
X7388512Y6267374D01*
Y6267429D01*
X7388568Y6267651D01*
X7388678Y6267983D01*
X7388845Y6268426D01*
X7389011Y6268924D01*
X7389232Y6269533D01*
X7389509Y6270198D01*
X7389841Y6270918D01*
X7390616Y6272468D01*
X7391613Y6274018D01*
X7392222Y6274794D01*
X7392831Y6275569D01*
X7393496Y6276233D01*
X7394271Y6276898D01*
X7394326Y6276953D01*
X7394437Y6277064D01*
X7394714Y6277175D01*
X7394991Y6277396D01*
X7395434Y6277673D01*
X7395877Y6277950D01*
X7396486Y6278227D01*
X7397095Y6278504D01*
X7397815Y6278836D01*
X7398590Y6279113D01*
X7399421Y6279390D01*
X7400307Y6279666D01*
X7401248Y6279888D01*
X7402245Y6279999D01*
X7403297Y6280109D01*
X7404404Y6280165D01*
X7405013D01*
X7405456Y6280109D01*
D02*
G37*
G36*
X7371181Y6249544D02*
X7371236Y6249599D01*
X7371513Y6249821D01*
X7371845Y6250153D01*
X7372399Y6250541D01*
X7373008Y6251039D01*
X7373783Y6251593D01*
X7374669Y6252202D01*
X7375666Y6252811D01*
X7375721D01*
X7375777Y6252866D01*
X7376109Y6253088D01*
X7376663Y6253365D01*
X7377327Y6253697D01*
X7378102Y6254085D01*
X7378933Y6254472D01*
X7379763Y6254860D01*
X7380594Y6255192D01*
Y6250651D01*
X7380539D01*
X7380428Y6250541D01*
X7380206Y6250485D01*
X7379930Y6250319D01*
X7379597Y6250153D01*
X7379210Y6249932D01*
X7378268Y6249378D01*
X7377161Y6248769D01*
X7376054Y6247994D01*
X7374891Y6247108D01*
X7373728Y6246166D01*
X7373673Y6246111D01*
X7373617Y6246056D01*
X7373451Y6245889D01*
X7373230Y6245723D01*
X7372731Y6245170D01*
X7372067Y6244505D01*
X7371402Y6243730D01*
X7370682Y6242844D01*
X7370073Y6241958D01*
X7369520Y6241017D01*
X7366474D01*
Y6279500D01*
X7371181D01*
Y6249544D01*
D02*
G37*
G36*
X7218678Y5936928D02*
X7219121Y5936873D01*
X7219674Y5936818D01*
X7220284Y5936707D01*
X7220893Y5936596D01*
X7222332Y5936209D01*
X7223772Y5935655D01*
X7224492Y5935323D01*
X7225212Y5934935D01*
X7225876Y5934437D01*
X7226485Y5933883D01*
X7226541Y5933828D01*
X7226651Y5933772D01*
X7226762Y5933551D01*
X7226984Y5933329D01*
X7227260Y5933052D01*
X7227537Y5932665D01*
X7227814Y5932277D01*
X7228146Y5931779D01*
X7228700Y5930727D01*
X7229254Y5929398D01*
X7229475Y5928733D01*
X7229586Y5927958D01*
X7229697Y5927183D01*
X7229752Y5926352D01*
Y5926242D01*
Y5925965D01*
X7229697Y5925522D01*
X7229641Y5924913D01*
X7229531Y5924248D01*
X7229309Y5923473D01*
X7229088Y5922642D01*
X7228755Y5921812D01*
X7228700Y5921701D01*
X7228589Y5921424D01*
X7228368Y5920981D01*
X7228036Y5920372D01*
X7227593Y5919708D01*
X7227039Y5918877D01*
X7226374Y5918047D01*
X7225599Y5917105D01*
X7225488Y5916995D01*
X7225212Y5916662D01*
X7224935Y5916385D01*
X7224658Y5916109D01*
X7224326Y5915776D01*
X7223883Y5915333D01*
X7223440Y5914890D01*
X7222886Y5914392D01*
X7222332Y5913838D01*
X7221668Y5913229D01*
X7220948Y5912620D01*
X7220173Y5911900D01*
X7219287Y5911180D01*
X7218401Y5910405D01*
X7218345Y5910350D01*
X7218235Y5910239D01*
X7218013Y5910073D01*
X7217736Y5909852D01*
X7217404Y5909519D01*
X7217017Y5909187D01*
X7216131Y5908467D01*
X7215189Y5907637D01*
X7214303Y5906806D01*
X7213528Y5906086D01*
X7213196Y5905809D01*
X7212919Y5905533D01*
X7212864Y5905477D01*
X7212698Y5905311D01*
X7212476Y5905090D01*
X7212199Y5904757D01*
X7211922Y5904370D01*
X7211590Y5903982D01*
X7210926Y5903041D01*
X7229807D01*
Y5898500D01*
X7204392D01*
Y5898556D01*
Y5898777D01*
Y5899109D01*
X7204447Y5899552D01*
X7204502Y5900051D01*
X7204613Y5900604D01*
X7204724Y5901158D01*
X7204945Y5901767D01*
Y5901823D01*
X7205001Y5901878D01*
X7205112Y5902210D01*
X7205333Y5902709D01*
X7205665Y5903373D01*
X7206108Y5904148D01*
X7206662Y5905034D01*
X7207271Y5905920D01*
X7208046Y5906861D01*
Y5906917D01*
X7208157Y5906972D01*
X7208434Y5907304D01*
X7208932Y5907803D01*
X7209652Y5908523D01*
X7210483Y5909353D01*
X7211535Y5910350D01*
X7212808Y5911457D01*
X7214193Y5912620D01*
X7214248Y5912675D01*
X7214469Y5912842D01*
X7214802Y5913118D01*
X7215189Y5913451D01*
X7215688Y5913894D01*
X7216297Y5914392D01*
X7216906Y5914946D01*
X7217626Y5915555D01*
X7219010Y5916884D01*
X7220394Y5918213D01*
X7221059Y5918877D01*
X7221668Y5919542D01*
X7222222Y5920151D01*
X7222664Y5920760D01*
Y5920815D01*
X7222775Y5920871D01*
X7222886Y5921037D01*
X7222997Y5921258D01*
X7223384Y5921867D01*
X7223827Y5922587D01*
X7224215Y5923473D01*
X7224603Y5924414D01*
X7224824Y5925466D01*
X7224935Y5926463D01*
Y5926518D01*
Y5926574D01*
X7224879Y5926906D01*
X7224824Y5927460D01*
X7224658Y5928069D01*
X7224436Y5928844D01*
X7224049Y5929619D01*
X7223550Y5930395D01*
X7222886Y5931170D01*
X7222775Y5931280D01*
X7222498Y5931502D01*
X7222111Y5931779D01*
X7221502Y5932166D01*
X7220726Y5932499D01*
X7219841Y5932831D01*
X7218788Y5933052D01*
X7217626Y5933108D01*
X7217293D01*
X7217072Y5933052D01*
X7216407Y5932997D01*
X7215632Y5932831D01*
X7214802Y5932609D01*
X7213860Y5932222D01*
X7212974Y5931723D01*
X7212144Y5931059D01*
X7212033Y5930948D01*
X7211812Y5930671D01*
X7211479Y5930228D01*
X7211147Y5929564D01*
X7210760Y5928789D01*
X7210427Y5927792D01*
X7210206Y5926685D01*
X7210095Y5925411D01*
X7205278Y5925909D01*
Y5925965D01*
X7205333Y5926131D01*
Y5926408D01*
X7205388Y5926795D01*
X7205499Y5927238D01*
X7205610Y5927737D01*
X7205776Y5928346D01*
X7205942Y5928955D01*
X7206385Y5930284D01*
X7207050Y5931613D01*
X7207437Y5932277D01*
X7207936Y5932942D01*
X7208434Y5933551D01*
X7208988Y5934104D01*
X7209043Y5934160D01*
X7209154Y5934215D01*
X7209320Y5934381D01*
X7209597Y5934547D01*
X7209929Y5934769D01*
X7210317Y5934990D01*
X7210760Y5935267D01*
X7211313Y5935544D01*
X7211922Y5935821D01*
X7212587Y5936098D01*
X7213307Y5936319D01*
X7214082Y5936541D01*
X7214912Y5936707D01*
X7215798Y5936873D01*
X7216740Y5936928D01*
X7217736Y5936984D01*
X7218290D01*
X7218678Y5936928D01*
D02*
G37*
G36*
X7186617Y5936762D02*
X7187116D01*
X7188278Y5936707D01*
X7189497Y5936541D01*
X7190826Y5936375D01*
X7192044Y5936098D01*
X7192653Y5935932D01*
X7193151Y5935766D01*
X7193207D01*
X7193262Y5935710D01*
X7193594Y5935544D01*
X7194093Y5935323D01*
X7194702Y5934935D01*
X7195366Y5934437D01*
X7196086Y5933772D01*
X7196750Y5932997D01*
X7197415Y5932111D01*
Y5932056D01*
X7197470Y5932000D01*
X7197692Y5931668D01*
X7197913Y5931114D01*
X7198245Y5930395D01*
X7198522Y5929564D01*
X7198799Y5928567D01*
X7198965Y5927515D01*
X7199021Y5926352D01*
Y5926297D01*
Y5926186D01*
Y5925965D01*
X7198965Y5925688D01*
Y5925300D01*
X7198910Y5924913D01*
X7198688Y5923971D01*
X7198356Y5922864D01*
X7197913Y5921701D01*
X7197249Y5920538D01*
X7196806Y5919985D01*
X7196363Y5919431D01*
X7196307Y5919376D01*
X7196252Y5919320D01*
X7196086Y5919154D01*
X7195864Y5918988D01*
X7195588Y5918766D01*
X7195255Y5918545D01*
X7194812Y5918268D01*
X7194369Y5917936D01*
X7193816Y5917659D01*
X7193207Y5917382D01*
X7192542Y5917050D01*
X7191822Y5916773D01*
X7190992Y5916552D01*
X7190161Y5916275D01*
X7189220Y5916109D01*
X7188223Y5915942D01*
X7188334Y5915887D01*
X7188555Y5915776D01*
X7188888Y5915555D01*
X7189331Y5915333D01*
X7190327Y5914724D01*
X7190826Y5914337D01*
X7191269Y5914004D01*
X7191379Y5913894D01*
X7191656Y5913617D01*
X7192099Y5913174D01*
X7192653Y5912620D01*
X7193262Y5911845D01*
X7193982Y5911014D01*
X7194702Y5910018D01*
X7195477Y5908910D01*
X7202066Y5898500D01*
X7195754D01*
X7190715Y5906474D01*
Y5906529D01*
X7190604Y5906640D01*
X7190493Y5906806D01*
X7190327Y5907028D01*
X7189940Y5907637D01*
X7189441Y5908412D01*
X7188832Y5909242D01*
X7188223Y5910128D01*
X7187614Y5910959D01*
X7187060Y5911734D01*
X7187005Y5911790D01*
X7186839Y5912011D01*
X7186562Y5912343D01*
X7186174Y5912731D01*
X7185344Y5913561D01*
X7184901Y5913949D01*
X7184458Y5914281D01*
X7184402Y5914337D01*
X7184292Y5914392D01*
X7184070Y5914503D01*
X7183738Y5914669D01*
X7183406Y5914835D01*
X7183018Y5915001D01*
X7182132Y5915278D01*
X7182077D01*
X7181966Y5915333D01*
X7181745D01*
X7181468Y5915389D01*
X7181080Y5915444D01*
X7180637D01*
X7180028Y5915499D01*
X7173494D01*
Y5898500D01*
X7168400D01*
Y5936818D01*
X7186174D01*
X7186617Y5936762D01*
D02*
G37*
G36*
X7218235Y5586928D02*
X7218955Y5586818D01*
X7219841Y5586652D01*
X7220837Y5586375D01*
X7221834Y5586042D01*
X7222831Y5585599D01*
X7222886D01*
X7222941Y5585544D01*
X7223274Y5585378D01*
X7223772Y5585046D01*
X7224326Y5584658D01*
X7224990Y5584104D01*
X7225655Y5583495D01*
X7226319Y5582775D01*
X7226873Y5581945D01*
X7226928Y5581834D01*
X7227094Y5581557D01*
X7227316Y5581059D01*
X7227593Y5580450D01*
X7227869Y5579730D01*
X7228091Y5578899D01*
X7228257Y5577958D01*
X7228312Y5577017D01*
Y5576906D01*
Y5576574D01*
X7228257Y5576131D01*
X7228146Y5575522D01*
X7227980Y5574802D01*
X7227703Y5574027D01*
X7227371Y5573251D01*
X7226928Y5572476D01*
X7226873Y5572366D01*
X7226707Y5572144D01*
X7226374Y5571756D01*
X7225931Y5571313D01*
X7225378Y5570815D01*
X7224713Y5570261D01*
X7223938Y5569763D01*
X7222997Y5569265D01*
X7223052D01*
X7223163Y5569209D01*
X7223329Y5569154D01*
X7223550Y5569099D01*
X7224160Y5568877D01*
X7224935Y5568545D01*
X7225821Y5568102D01*
X7226707Y5567548D01*
X7227537Y5566828D01*
X7228312Y5565998D01*
X7228368Y5565887D01*
X7228589Y5565555D01*
X7228922Y5565001D01*
X7229254Y5564281D01*
X7229586Y5563395D01*
X7229918Y5562343D01*
X7230140Y5561125D01*
X7230195Y5559796D01*
Y5559741D01*
Y5559575D01*
Y5559298D01*
X7230140Y5558966D01*
X7230084Y5558523D01*
X7229974Y5558024D01*
X7229863Y5557470D01*
X7229752Y5556861D01*
X7229309Y5555532D01*
X7228977Y5554813D01*
X7228645Y5554148D01*
X7228202Y5553428D01*
X7227703Y5552708D01*
X7227150Y5551989D01*
X7226485Y5551324D01*
X7226430Y5551269D01*
X7226319Y5551158D01*
X7226098Y5550992D01*
X7225821Y5550770D01*
X7225488Y5550494D01*
X7225045Y5550217D01*
X7224547Y5549885D01*
X7223938Y5549608D01*
X7223329Y5549275D01*
X7222609Y5548943D01*
X7221889Y5548666D01*
X7221059Y5548389D01*
X7220173Y5548168D01*
X7219231Y5548002D01*
X7218290Y5547891D01*
X7217238Y5547836D01*
X7216740D01*
X7216407Y5547891D01*
X7215964Y5547946D01*
X7215466Y5548002D01*
X7214912Y5548113D01*
X7214303Y5548223D01*
X7212974Y5548556D01*
X7211590Y5549109D01*
X7210870Y5549442D01*
X7210206Y5549829D01*
X7209541Y5550327D01*
X7208877Y5550826D01*
X7208821Y5550881D01*
X7208711Y5550992D01*
X7208545Y5551158D01*
X7208379Y5551380D01*
X7208102Y5551656D01*
X7207825Y5552044D01*
X7207493Y5552432D01*
X7207160Y5552930D01*
X7206828Y5553484D01*
X7206496Y5554037D01*
X7205887Y5555366D01*
X7205388Y5556917D01*
X7205222Y5557747D01*
X7205112Y5558633D01*
X7209818Y5559242D01*
Y5559187D01*
X7209874Y5559076D01*
X7209929Y5558855D01*
X7209984Y5558578D01*
X7210040Y5558246D01*
X7210150Y5557858D01*
X7210427Y5557027D01*
X7210815Y5556031D01*
X7211313Y5555089D01*
X7211867Y5554204D01*
X7212531Y5553428D01*
X7212642Y5553373D01*
X7212864Y5553151D01*
X7213307Y5552875D01*
X7213860Y5552598D01*
X7214525Y5552266D01*
X7215355Y5551989D01*
X7216297Y5551767D01*
X7217293Y5551712D01*
X7217626D01*
X7217847Y5551767D01*
X7218456Y5551823D01*
X7219231Y5551989D01*
X7220117Y5552266D01*
X7221059Y5552653D01*
X7222000Y5553207D01*
X7222886Y5553982D01*
X7222997Y5554093D01*
X7223274Y5554425D01*
X7223606Y5554923D01*
X7224049Y5555588D01*
X7224492Y5556418D01*
X7224824Y5557360D01*
X7225101Y5558467D01*
X7225212Y5559685D01*
Y5559741D01*
Y5559851D01*
Y5560018D01*
X7225156Y5560239D01*
X7225101Y5560848D01*
X7224935Y5561568D01*
X7224713Y5562454D01*
X7224326Y5563340D01*
X7223772Y5564226D01*
X7223052Y5565056D01*
X7222941Y5565167D01*
X7222664Y5565389D01*
X7222222Y5565721D01*
X7221612Y5566109D01*
X7220837Y5566496D01*
X7219896Y5566828D01*
X7218844Y5567050D01*
X7217681Y5567161D01*
X7217183D01*
X7216795Y5567105D01*
X7216297Y5567050D01*
X7215743Y5566939D01*
X7215079Y5566828D01*
X7214359Y5566662D01*
X7214912Y5570815D01*
X7215189D01*
X7215411Y5570760D01*
X7216131D01*
X7216740Y5570870D01*
X7217460Y5570981D01*
X7218290Y5571147D01*
X7219231Y5571424D01*
X7220117Y5571812D01*
X7221059Y5572310D01*
X7221114D01*
X7221169Y5572366D01*
X7221446Y5572587D01*
X7221834Y5572975D01*
X7222277Y5573473D01*
X7222720Y5574193D01*
X7223107Y5575023D01*
X7223384Y5575965D01*
X7223495Y5576518D01*
Y5577128D01*
Y5577183D01*
Y5577238D01*
Y5577571D01*
X7223384Y5578013D01*
X7223274Y5578623D01*
X7223052Y5579287D01*
X7222775Y5580007D01*
X7222332Y5580727D01*
X7221723Y5581391D01*
X7221668Y5581447D01*
X7221391Y5581668D01*
X7221003Y5581945D01*
X7220505Y5582277D01*
X7219841Y5582554D01*
X7219065Y5582831D01*
X7218179Y5583052D01*
X7217183Y5583108D01*
X7216740D01*
X7216241Y5582997D01*
X7215577Y5582886D01*
X7214857Y5582665D01*
X7214137Y5582388D01*
X7213362Y5581945D01*
X7212642Y5581391D01*
X7212587Y5581336D01*
X7212365Y5581059D01*
X7212033Y5580671D01*
X7211645Y5580118D01*
X7211258Y5579398D01*
X7210870Y5578512D01*
X7210538Y5577460D01*
X7210317Y5576242D01*
X7205610Y5577072D01*
Y5577128D01*
X7205665Y5577294D01*
X7205721Y5577515D01*
X7205776Y5577847D01*
X7205887Y5578235D01*
X7206053Y5578678D01*
X7206385Y5579730D01*
X7206939Y5580948D01*
X7207603Y5582166D01*
X7208434Y5583329D01*
X7209486Y5584381D01*
X7209541Y5584437D01*
X7209652Y5584492D01*
X7209818Y5584603D01*
X7210040Y5584769D01*
X7210317Y5584990D01*
X7210704Y5585212D01*
X7211092Y5585433D01*
X7211590Y5585710D01*
X7212698Y5586153D01*
X7213971Y5586596D01*
X7215466Y5586873D01*
X7216241Y5586984D01*
X7217626D01*
X7218235Y5586928D01*
D02*
G37*
G36*
X7186617Y5586762D02*
X7187116D01*
X7188278Y5586707D01*
X7189497Y5586541D01*
X7190826Y5586375D01*
X7192044Y5586098D01*
X7192653Y5585932D01*
X7193151Y5585766D01*
X7193207D01*
X7193262Y5585710D01*
X7193594Y5585544D01*
X7194093Y5585323D01*
X7194702Y5584935D01*
X7195366Y5584437D01*
X7196086Y5583772D01*
X7196750Y5582997D01*
X7197415Y5582111D01*
Y5582056D01*
X7197470Y5582000D01*
X7197692Y5581668D01*
X7197913Y5581114D01*
X7198245Y5580394D01*
X7198522Y5579564D01*
X7198799Y5578567D01*
X7198965Y5577515D01*
X7199021Y5576352D01*
Y5576297D01*
Y5576186D01*
Y5575965D01*
X7198965Y5575688D01*
Y5575300D01*
X7198910Y5574913D01*
X7198688Y5573971D01*
X7198356Y5572864D01*
X7197913Y5571701D01*
X7197249Y5570538D01*
X7196806Y5569985D01*
X7196363Y5569431D01*
X7196307Y5569375D01*
X7196252Y5569320D01*
X7196086Y5569154D01*
X7195864Y5568988D01*
X7195588Y5568766D01*
X7195255Y5568545D01*
X7194812Y5568268D01*
X7194369Y5567936D01*
X7193816Y5567659D01*
X7193207Y5567382D01*
X7192542Y5567050D01*
X7191822Y5566773D01*
X7190992Y5566551D01*
X7190161Y5566275D01*
X7189220Y5566109D01*
X7188223Y5565942D01*
X7188334Y5565887D01*
X7188555Y5565776D01*
X7188888Y5565555D01*
X7189331Y5565333D01*
X7190327Y5564724D01*
X7190826Y5564337D01*
X7191269Y5564004D01*
X7191379Y5563894D01*
X7191656Y5563617D01*
X7192099Y5563174D01*
X7192653Y5562620D01*
X7193262Y5561845D01*
X7193982Y5561014D01*
X7194702Y5560018D01*
X7195477Y5558910D01*
X7202066Y5548500D01*
X7195754D01*
X7190715Y5556474D01*
Y5556529D01*
X7190604Y5556640D01*
X7190493Y5556806D01*
X7190327Y5557027D01*
X7189940Y5557637D01*
X7189441Y5558412D01*
X7188832Y5559242D01*
X7188223Y5560128D01*
X7187614Y5560959D01*
X7187060Y5561734D01*
X7187005Y5561789D01*
X7186839Y5562011D01*
X7186562Y5562343D01*
X7186174Y5562731D01*
X7185344Y5563561D01*
X7184901Y5563949D01*
X7184458Y5564281D01*
X7184402Y5564337D01*
X7184292Y5564392D01*
X7184070Y5564503D01*
X7183738Y5564669D01*
X7183406Y5564835D01*
X7183018Y5565001D01*
X7182132Y5565278D01*
X7182077D01*
X7181966Y5565333D01*
X7181745D01*
X7181468Y5565389D01*
X7181080Y5565444D01*
X7180637D01*
X7180028Y5565499D01*
X7173494D01*
Y5548500D01*
X7168400D01*
Y5586818D01*
X7186174D01*
X7186617Y5586762D01*
D02*
G37*
G36*
X7405456Y3680109D02*
X7405954D01*
X7406564Y3680054D01*
X7407228Y3679943D01*
X7408003Y3679832D01*
X7409609Y3679556D01*
X7411270Y3679113D01*
X7412931Y3678503D01*
X7413707Y3678116D01*
X7414482Y3677673D01*
X7414537Y3677617D01*
X7414648Y3677562D01*
X7414869Y3677396D01*
X7415091Y3677175D01*
X7415423Y3676953D01*
X7415811Y3676621D01*
X7416254Y3676233D01*
X7416697Y3675790D01*
X7417140Y3675292D01*
X7417638Y3674794D01*
X7418635Y3673520D01*
X7419576Y3672025D01*
X7420407Y3670364D01*
Y3670308D01*
X7420517Y3670142D01*
X7420573Y3669865D01*
X7420739Y3669533D01*
X7420850Y3669090D01*
X7421016Y3668536D01*
X7421237Y3667927D01*
X7421403Y3667263D01*
X7421569Y3666543D01*
X7421791Y3665713D01*
X7422068Y3663996D01*
X7422289Y3662058D01*
X7422400Y3660065D01*
Y3660009D01*
Y3659788D01*
Y3659455D01*
X7422345Y3659068D01*
Y3658514D01*
X7422289Y3657960D01*
X7422234Y3657241D01*
X7422123Y3656521D01*
X7421846Y3654915D01*
X7421459Y3653143D01*
X7420905Y3651371D01*
X7420130Y3649655D01*
X7420074Y3649599D01*
X7420019Y3649433D01*
X7419908Y3649212D01*
X7419687Y3648935D01*
X7419465Y3648547D01*
X7419188Y3648104D01*
X7418469Y3647108D01*
X7417527Y3646000D01*
X7416420Y3644893D01*
X7415146Y3643785D01*
X7413651Y3642844D01*
X7413596Y3642788D01*
X7413430Y3642733D01*
X7413208Y3642622D01*
X7412931Y3642456D01*
X7412488Y3642290D01*
X7412045Y3642124D01*
X7411492Y3641903D01*
X7410883Y3641681D01*
X7410218Y3641460D01*
X7409498Y3641238D01*
X7407948Y3640906D01*
X7406176Y3640629D01*
X7404349Y3640518D01*
X7403795D01*
X7403407Y3640574D01*
X7402909Y3640629D01*
X7402300Y3640684D01*
X7401691Y3640740D01*
X7400971Y3640906D01*
X7399476Y3641238D01*
X7397815Y3641736D01*
X7396984Y3642069D01*
X7396209Y3642456D01*
X7395434Y3642955D01*
X7394659Y3643453D01*
X7394603Y3643508D01*
X7394492Y3643564D01*
X7394271Y3643730D01*
X7393994Y3644007D01*
X7393717Y3644284D01*
X7393330Y3644671D01*
X7392942Y3645114D01*
X7392499Y3645557D01*
X7392056Y3646111D01*
X7391613Y3646775D01*
X7391115Y3647440D01*
X7390672Y3648160D01*
X7390284Y3648990D01*
X7389841Y3649821D01*
X7389509Y3650707D01*
X7389177Y3651703D01*
X7394160Y3652866D01*
Y3652811D01*
X7394216Y3652700D01*
X7394326Y3652479D01*
X7394437Y3652202D01*
X7394548Y3651870D01*
X7394714Y3651427D01*
X7395157Y3650541D01*
X7395711Y3649544D01*
X7396375Y3648547D01*
X7397206Y3647606D01*
X7398092Y3646775D01*
X7398202Y3646665D01*
X7398535Y3646443D01*
X7399088Y3646166D01*
X7399808Y3645779D01*
X7400749Y3645446D01*
X7401802Y3645114D01*
X7403075Y3644893D01*
X7404459Y3644837D01*
X7404902D01*
X7405179Y3644893D01*
X7405567D01*
X7406010Y3644948D01*
X7407062Y3645114D01*
X7408225Y3645336D01*
X7409443Y3645723D01*
X7410716Y3646277D01*
X7411879Y3646997D01*
X7411935D01*
X7411990Y3647108D01*
X7412378Y3647384D01*
X7412876Y3647827D01*
X7413485Y3648492D01*
X7414205Y3649322D01*
X7414869Y3650264D01*
X7415478Y3651427D01*
X7416032Y3652700D01*
Y3652755D01*
X7416088Y3652866D01*
X7416143Y3653032D01*
X7416198Y3653309D01*
X7416309Y3653641D01*
X7416420Y3654029D01*
X7416586Y3654970D01*
X7416807Y3656078D01*
X7417029Y3657296D01*
X7417140Y3658625D01*
X7417195Y3660065D01*
Y3660120D01*
Y3660286D01*
Y3660563D01*
Y3660895D01*
X7417140Y3661283D01*
Y3661781D01*
X7417084Y3662335D01*
X7417029Y3662944D01*
X7416863Y3664273D01*
X7416586Y3665713D01*
X7416254Y3667152D01*
X7415811Y3668592D01*
Y3668647D01*
X7415755Y3668758D01*
X7415645Y3668924D01*
X7415534Y3669201D01*
X7415202Y3669865D01*
X7414703Y3670641D01*
X7414094Y3671527D01*
X7413319Y3672468D01*
X7412433Y3673298D01*
X7411381Y3674074D01*
X7411326D01*
X7411215Y3674129D01*
X7411049Y3674240D01*
X7410827Y3674351D01*
X7410550Y3674461D01*
X7410218Y3674627D01*
X7409443Y3674960D01*
X7408446Y3675292D01*
X7407339Y3675569D01*
X7406121Y3675790D01*
X7404847Y3675846D01*
X7404459D01*
X7404127Y3675790D01*
X7403740D01*
X7403352Y3675735D01*
X7402355Y3675513D01*
X7401192Y3675236D01*
X7400030Y3674794D01*
X7398811Y3674184D01*
X7398202Y3673852D01*
X7397649Y3673409D01*
X7397593Y3673354D01*
X7397538Y3673298D01*
X7397372Y3673132D01*
X7397150Y3672966D01*
X7396929Y3672689D01*
X7396652Y3672357D01*
X7396320Y3672025D01*
X7396043Y3671582D01*
X7395711Y3671084D01*
X7395323Y3670530D01*
X7394991Y3669976D01*
X7394659Y3669312D01*
X7394382Y3668592D01*
X7394105Y3667817D01*
X7393828Y3666986D01*
X7393606Y3666100D01*
X7388512Y3667374D01*
Y3667429D01*
X7388568Y3667651D01*
X7388678Y3667983D01*
X7388845Y3668426D01*
X7389011Y3668924D01*
X7389232Y3669533D01*
X7389509Y3670198D01*
X7389841Y3670917D01*
X7390616Y3672468D01*
X7391613Y3674018D01*
X7392222Y3674794D01*
X7392831Y3675569D01*
X7393496Y3676233D01*
X7394271Y3676898D01*
X7394326Y3676953D01*
X7394437Y3677064D01*
X7394714Y3677175D01*
X7394991Y3677396D01*
X7395434Y3677673D01*
X7395877Y3677950D01*
X7396486Y3678227D01*
X7397095Y3678503D01*
X7397815Y3678836D01*
X7398590Y3679113D01*
X7399421Y3679389D01*
X7400307Y3679666D01*
X7401248Y3679888D01*
X7402245Y3679998D01*
X7403297Y3680109D01*
X7404404Y3680165D01*
X7405013D01*
X7405456Y3680109D01*
D02*
G37*
G36*
X7371181Y3649544D02*
X7371236Y3649599D01*
X7371513Y3649821D01*
X7371845Y3650153D01*
X7372399Y3650541D01*
X7373008Y3651039D01*
X7373783Y3651593D01*
X7374669Y3652202D01*
X7375666Y3652811D01*
X7375721D01*
X7375777Y3652866D01*
X7376109Y3653088D01*
X7376663Y3653365D01*
X7377327Y3653697D01*
X7378102Y3654084D01*
X7378933Y3654472D01*
X7379763Y3654860D01*
X7380594Y3655192D01*
Y3650651D01*
X7380539D01*
X7380428Y3650541D01*
X7380206Y3650485D01*
X7379930Y3650319D01*
X7379597Y3650153D01*
X7379210Y3649931D01*
X7378268Y3649378D01*
X7377161Y3648769D01*
X7376054Y3647993D01*
X7374891Y3647108D01*
X7373728Y3646166D01*
X7373673Y3646111D01*
X7373617Y3646055D01*
X7373451Y3645889D01*
X7373230Y3645723D01*
X7372731Y3645169D01*
X7372067Y3644505D01*
X7371402Y3643730D01*
X7370682Y3642844D01*
X7370073Y3641958D01*
X7369520Y3641017D01*
X7366474D01*
Y3679500D01*
X7371181D01*
Y3649544D01*
D02*
G37*
G36*
X7218678Y3336928D02*
X7219121Y3336873D01*
X7219674Y3336818D01*
X7220284Y3336707D01*
X7220893Y3336596D01*
X7222332Y3336208D01*
X7223772Y3335655D01*
X7224492Y3335323D01*
X7225212Y3334935D01*
X7225876Y3334437D01*
X7226485Y3333883D01*
X7226541Y3333827D01*
X7226651Y3333772D01*
X7226762Y3333551D01*
X7226984Y3333329D01*
X7227260Y3333052D01*
X7227537Y3332665D01*
X7227814Y3332277D01*
X7228146Y3331779D01*
X7228700Y3330727D01*
X7229254Y3329398D01*
X7229475Y3328733D01*
X7229586Y3327958D01*
X7229697Y3327183D01*
X7229752Y3326352D01*
Y3326242D01*
Y3325965D01*
X7229697Y3325522D01*
X7229641Y3324913D01*
X7229531Y3324248D01*
X7229309Y3323473D01*
X7229088Y3322642D01*
X7228755Y3321812D01*
X7228700Y3321701D01*
X7228589Y3321424D01*
X7228368Y3320981D01*
X7228036Y3320372D01*
X7227593Y3319708D01*
X7227039Y3318877D01*
X7226374Y3318046D01*
X7225599Y3317105D01*
X7225488Y3316994D01*
X7225212Y3316662D01*
X7224935Y3316385D01*
X7224658Y3316108D01*
X7224326Y3315776D01*
X7223883Y3315333D01*
X7223440Y3314890D01*
X7222886Y3314392D01*
X7222332Y3313838D01*
X7221668Y3313229D01*
X7220948Y3312620D01*
X7220173Y3311900D01*
X7219287Y3311180D01*
X7218401Y3310405D01*
X7218345Y3310350D01*
X7218235Y3310239D01*
X7218013Y3310073D01*
X7217736Y3309851D01*
X7217404Y3309519D01*
X7217017Y3309187D01*
X7216131Y3308467D01*
X7215189Y3307637D01*
X7214303Y3306806D01*
X7213528Y3306086D01*
X7213196Y3305809D01*
X7212919Y3305532D01*
X7212864Y3305477D01*
X7212698Y3305311D01*
X7212476Y3305089D01*
X7212199Y3304757D01*
X7211922Y3304370D01*
X7211590Y3303982D01*
X7210926Y3303041D01*
X7229807D01*
Y3298500D01*
X7204392D01*
Y3298556D01*
Y3298777D01*
Y3299109D01*
X7204447Y3299552D01*
X7204502Y3300051D01*
X7204613Y3300604D01*
X7204724Y3301158D01*
X7204945Y3301767D01*
Y3301822D01*
X7205001Y3301878D01*
X7205112Y3302210D01*
X7205333Y3302708D01*
X7205665Y3303373D01*
X7206108Y3304148D01*
X7206662Y3305034D01*
X7207271Y3305920D01*
X7208046Y3306861D01*
Y3306917D01*
X7208157Y3306972D01*
X7208434Y3307304D01*
X7208932Y3307803D01*
X7209652Y3308522D01*
X7210483Y3309353D01*
X7211535Y3310350D01*
X7212808Y3311457D01*
X7214193Y3312620D01*
X7214248Y3312675D01*
X7214469Y3312841D01*
X7214802Y3313118D01*
X7215189Y3313451D01*
X7215688Y3313894D01*
X7216297Y3314392D01*
X7216906Y3314946D01*
X7217626Y3315555D01*
X7219010Y3316884D01*
X7220394Y3318213D01*
X7221059Y3318877D01*
X7221668Y3319541D01*
X7222222Y3320151D01*
X7222664Y3320760D01*
Y3320815D01*
X7222775Y3320870D01*
X7222886Y3321037D01*
X7222997Y3321258D01*
X7223384Y3321867D01*
X7223827Y3322587D01*
X7224215Y3323473D01*
X7224603Y3324414D01*
X7224824Y3325466D01*
X7224935Y3326463D01*
Y3326518D01*
Y3326574D01*
X7224879Y3326906D01*
X7224824Y3327460D01*
X7224658Y3328069D01*
X7224436Y3328844D01*
X7224049Y3329619D01*
X7223550Y3330394D01*
X7222886Y3331170D01*
X7222775Y3331280D01*
X7222498Y3331502D01*
X7222111Y3331779D01*
X7221502Y3332166D01*
X7220726Y3332499D01*
X7219841Y3332831D01*
X7218788Y3333052D01*
X7217626Y3333108D01*
X7217293D01*
X7217072Y3333052D01*
X7216407Y3332997D01*
X7215632Y3332831D01*
X7214802Y3332609D01*
X7213860Y3332222D01*
X7212974Y3331723D01*
X7212144Y3331059D01*
X7212033Y3330948D01*
X7211812Y3330671D01*
X7211479Y3330228D01*
X7211147Y3329564D01*
X7210760Y3328789D01*
X7210427Y3327792D01*
X7210206Y3326684D01*
X7210095Y3325411D01*
X7205278Y3325909D01*
Y3325965D01*
X7205333Y3326131D01*
Y3326408D01*
X7205388Y3326795D01*
X7205499Y3327238D01*
X7205610Y3327737D01*
X7205776Y3328346D01*
X7205942Y3328955D01*
X7206385Y3330284D01*
X7207050Y3331613D01*
X7207437Y3332277D01*
X7207936Y3332942D01*
X7208434Y3333551D01*
X7208988Y3334104D01*
X7209043Y3334160D01*
X7209154Y3334215D01*
X7209320Y3334381D01*
X7209597Y3334547D01*
X7209929Y3334769D01*
X7210317Y3334990D01*
X7210760Y3335267D01*
X7211313Y3335544D01*
X7211922Y3335821D01*
X7212587Y3336098D01*
X7213307Y3336319D01*
X7214082Y3336541D01*
X7214912Y3336707D01*
X7215798Y3336873D01*
X7216740Y3336928D01*
X7217736Y3336984D01*
X7218290D01*
X7218678Y3336928D01*
D02*
G37*
G36*
X7186617Y3336762D02*
X7187116D01*
X7188278Y3336707D01*
X7189497Y3336541D01*
X7190826Y3336375D01*
X7192044Y3336098D01*
X7192653Y3335932D01*
X7193151Y3335765D01*
X7193207D01*
X7193262Y3335710D01*
X7193594Y3335544D01*
X7194093Y3335323D01*
X7194702Y3334935D01*
X7195366Y3334437D01*
X7196086Y3333772D01*
X7196750Y3332997D01*
X7197415Y3332111D01*
Y3332056D01*
X7197470Y3332000D01*
X7197692Y3331668D01*
X7197913Y3331114D01*
X7198245Y3330394D01*
X7198522Y3329564D01*
X7198799Y3328567D01*
X7198965Y3327515D01*
X7199021Y3326352D01*
Y3326297D01*
Y3326186D01*
Y3325965D01*
X7198965Y3325688D01*
Y3325300D01*
X7198910Y3324913D01*
X7198688Y3323971D01*
X7198356Y3322864D01*
X7197913Y3321701D01*
X7197249Y3320538D01*
X7196806Y3319984D01*
X7196363Y3319431D01*
X7196307Y3319375D01*
X7196252Y3319320D01*
X7196086Y3319154D01*
X7195864Y3318988D01*
X7195588Y3318766D01*
X7195255Y3318545D01*
X7194812Y3318268D01*
X7194369Y3317936D01*
X7193816Y3317659D01*
X7193207Y3317382D01*
X7192542Y3317050D01*
X7191822Y3316773D01*
X7190992Y3316551D01*
X7190161Y3316275D01*
X7189220Y3316108D01*
X7188223Y3315942D01*
X7188334Y3315887D01*
X7188555Y3315776D01*
X7188888Y3315555D01*
X7189331Y3315333D01*
X7190327Y3314724D01*
X7190826Y3314337D01*
X7191269Y3314004D01*
X7191379Y3313894D01*
X7191656Y3313617D01*
X7192099Y3313174D01*
X7192653Y3312620D01*
X7193262Y3311845D01*
X7193982Y3311014D01*
X7194702Y3310018D01*
X7195477Y3308910D01*
X7202066Y3298500D01*
X7195754D01*
X7190715Y3306474D01*
Y3306529D01*
X7190604Y3306640D01*
X7190493Y3306806D01*
X7190327Y3307027D01*
X7189940Y3307637D01*
X7189441Y3308412D01*
X7188832Y3309242D01*
X7188223Y3310128D01*
X7187614Y3310959D01*
X7187060Y3311734D01*
X7187005Y3311789D01*
X7186839Y3312011D01*
X7186562Y3312343D01*
X7186174Y3312731D01*
X7185344Y3313561D01*
X7184901Y3313949D01*
X7184458Y3314281D01*
X7184402Y3314337D01*
X7184292Y3314392D01*
X7184070Y3314503D01*
X7183738Y3314669D01*
X7183406Y3314835D01*
X7183018Y3315001D01*
X7182132Y3315278D01*
X7182077D01*
X7181966Y3315333D01*
X7181745D01*
X7181468Y3315389D01*
X7181080Y3315444D01*
X7180637D01*
X7180028Y3315499D01*
X7173494D01*
Y3298500D01*
X7168400D01*
Y3336818D01*
X7186174D01*
X7186617Y3336762D01*
D02*
G37*
G36*
X7218235Y2986928D02*
X7218955Y2986817D01*
X7219841Y2986651D01*
X7220837Y2986375D01*
X7221834Y2986042D01*
X7222831Y2985599D01*
X7222886D01*
X7222941Y2985544D01*
X7223274Y2985378D01*
X7223772Y2985046D01*
X7224326Y2984658D01*
X7224990Y2984104D01*
X7225655Y2983495D01*
X7226319Y2982775D01*
X7226873Y2981945D01*
X7226928Y2981834D01*
X7227094Y2981557D01*
X7227316Y2981059D01*
X7227593Y2980450D01*
X7227869Y2979730D01*
X7228091Y2978899D01*
X7228257Y2977958D01*
X7228312Y2977017D01*
Y2976906D01*
Y2976574D01*
X7228257Y2976131D01*
X7228146Y2975522D01*
X7227980Y2974802D01*
X7227703Y2974027D01*
X7227371Y2973251D01*
X7226928Y2972476D01*
X7226873Y2972365D01*
X7226707Y2972144D01*
X7226374Y2971756D01*
X7225931Y2971313D01*
X7225378Y2970815D01*
X7224713Y2970261D01*
X7223938Y2969763D01*
X7222997Y2969265D01*
X7223052D01*
X7223163Y2969209D01*
X7223329Y2969154D01*
X7223550Y2969098D01*
X7224160Y2968877D01*
X7224935Y2968545D01*
X7225821Y2968102D01*
X7226707Y2967548D01*
X7227537Y2966828D01*
X7228312Y2965998D01*
X7228368Y2965887D01*
X7228589Y2965555D01*
X7228922Y2965001D01*
X7229254Y2964281D01*
X7229586Y2963395D01*
X7229918Y2962343D01*
X7230140Y2961125D01*
X7230195Y2959796D01*
Y2959741D01*
Y2959574D01*
Y2959298D01*
X7230140Y2958965D01*
X7230084Y2958522D01*
X7229974Y2958024D01*
X7229863Y2957470D01*
X7229752Y2956861D01*
X7229309Y2955532D01*
X7228977Y2954812D01*
X7228645Y2954148D01*
X7228202Y2953428D01*
X7227703Y2952708D01*
X7227150Y2951989D01*
X7226485Y2951324D01*
X7226430Y2951269D01*
X7226319Y2951158D01*
X7226098Y2950992D01*
X7225821Y2950770D01*
X7225488Y2950493D01*
X7225045Y2950217D01*
X7224547Y2949884D01*
X7223938Y2949608D01*
X7223329Y2949275D01*
X7222609Y2948943D01*
X7221889Y2948666D01*
X7221059Y2948389D01*
X7220173Y2948168D01*
X7219231Y2948002D01*
X7218290Y2947891D01*
X7217238Y2947836D01*
X7216740D01*
X7216407Y2947891D01*
X7215964Y2947946D01*
X7215466Y2948002D01*
X7214912Y2948112D01*
X7214303Y2948223D01*
X7212974Y2948555D01*
X7211590Y2949109D01*
X7210870Y2949441D01*
X7210206Y2949829D01*
X7209541Y2950327D01*
X7208877Y2950826D01*
X7208821Y2950881D01*
X7208711Y2950992D01*
X7208545Y2951158D01*
X7208379Y2951379D01*
X7208102Y2951656D01*
X7207825Y2952044D01*
X7207493Y2952431D01*
X7207160Y2952930D01*
X7206828Y2953484D01*
X7206496Y2954037D01*
X7205887Y2955366D01*
X7205388Y2956917D01*
X7205222Y2957747D01*
X7205112Y2958633D01*
X7209818Y2959242D01*
Y2959187D01*
X7209874Y2959076D01*
X7209929Y2958855D01*
X7209984Y2958578D01*
X7210040Y2958246D01*
X7210150Y2957858D01*
X7210427Y2957027D01*
X7210815Y2956031D01*
X7211313Y2955089D01*
X7211867Y2954203D01*
X7212531Y2953428D01*
X7212642Y2953373D01*
X7212864Y2953151D01*
X7213307Y2952874D01*
X7213860Y2952598D01*
X7214525Y2952265D01*
X7215355Y2951989D01*
X7216297Y2951767D01*
X7217293Y2951712D01*
X7217626D01*
X7217847Y2951767D01*
X7218456Y2951822D01*
X7219231Y2951989D01*
X7220117Y2952265D01*
X7221059Y2952653D01*
X7222000Y2953207D01*
X7222886Y2953982D01*
X7222997Y2954093D01*
X7223274Y2954425D01*
X7223606Y2954923D01*
X7224049Y2955588D01*
X7224492Y2956418D01*
X7224824Y2957360D01*
X7225101Y2958467D01*
X7225212Y2959685D01*
Y2959741D01*
Y2959851D01*
Y2960017D01*
X7225156Y2960239D01*
X7225101Y2960848D01*
X7224935Y2961568D01*
X7224713Y2962454D01*
X7224326Y2963340D01*
X7223772Y2964226D01*
X7223052Y2965056D01*
X7222941Y2965167D01*
X7222664Y2965389D01*
X7222222Y2965721D01*
X7221612Y2966108D01*
X7220837Y2966496D01*
X7219896Y2966828D01*
X7218844Y2967050D01*
X7217681Y2967160D01*
X7217183D01*
X7216795Y2967105D01*
X7216297Y2967050D01*
X7215743Y2966939D01*
X7215079Y2966828D01*
X7214359Y2966662D01*
X7214912Y2970815D01*
X7215189D01*
X7215411Y2970760D01*
X7216131D01*
X7216740Y2970870D01*
X7217460Y2970981D01*
X7218290Y2971147D01*
X7219231Y2971424D01*
X7220117Y2971812D01*
X7221059Y2972310D01*
X7221114D01*
X7221169Y2972365D01*
X7221446Y2972587D01*
X7221834Y2972974D01*
X7222277Y2973473D01*
X7222720Y2974193D01*
X7223107Y2975023D01*
X7223384Y2975965D01*
X7223495Y2976518D01*
Y2977127D01*
Y2977183D01*
Y2977238D01*
Y2977570D01*
X7223384Y2978013D01*
X7223274Y2978622D01*
X7223052Y2979287D01*
X7222775Y2980007D01*
X7222332Y2980727D01*
X7221723Y2981391D01*
X7221668Y2981446D01*
X7221391Y2981668D01*
X7221003Y2981945D01*
X7220505Y2982277D01*
X7219841Y2982554D01*
X7219065Y2982831D01*
X7218179Y2983052D01*
X7217183Y2983108D01*
X7216740D01*
X7216241Y2982997D01*
X7215577Y2982886D01*
X7214857Y2982665D01*
X7214137Y2982388D01*
X7213362Y2981945D01*
X7212642Y2981391D01*
X7212587Y2981336D01*
X7212365Y2981059D01*
X7212033Y2980671D01*
X7211645Y2980117D01*
X7211258Y2979398D01*
X7210870Y2978512D01*
X7210538Y2977460D01*
X7210317Y2976241D01*
X7205610Y2977072D01*
Y2977127D01*
X7205665Y2977294D01*
X7205721Y2977515D01*
X7205776Y2977847D01*
X7205887Y2978235D01*
X7206053Y2978678D01*
X7206385Y2979730D01*
X7206939Y2980948D01*
X7207603Y2982166D01*
X7208434Y2983329D01*
X7209486Y2984381D01*
X7209541Y2984436D01*
X7209652Y2984492D01*
X7209818Y2984603D01*
X7210040Y2984769D01*
X7210317Y2984990D01*
X7210704Y2985212D01*
X7211092Y2985433D01*
X7211590Y2985710D01*
X7212698Y2986153D01*
X7213971Y2986596D01*
X7215466Y2986873D01*
X7216241Y2986984D01*
X7217626D01*
X7218235Y2986928D01*
D02*
G37*
G36*
X7186617Y2986762D02*
X7187116D01*
X7188278Y2986707D01*
X7189497Y2986541D01*
X7190826Y2986375D01*
X7192044Y2986098D01*
X7192653Y2985932D01*
X7193151Y2985765D01*
X7193207D01*
X7193262Y2985710D01*
X7193594Y2985544D01*
X7194093Y2985322D01*
X7194702Y2984935D01*
X7195366Y2984436D01*
X7196086Y2983772D01*
X7196750Y2982997D01*
X7197415Y2982111D01*
Y2982056D01*
X7197470Y2982000D01*
X7197692Y2981668D01*
X7197913Y2981114D01*
X7198245Y2980394D01*
X7198522Y2979564D01*
X7198799Y2978567D01*
X7198965Y2977515D01*
X7199021Y2976352D01*
Y2976297D01*
Y2976186D01*
Y2975965D01*
X7198965Y2975688D01*
Y2975300D01*
X7198910Y2974913D01*
X7198688Y2973971D01*
X7198356Y2972864D01*
X7197913Y2971701D01*
X7197249Y2970538D01*
X7196806Y2969984D01*
X7196363Y2969431D01*
X7196307Y2969375D01*
X7196252Y2969320D01*
X7196086Y2969154D01*
X7195864Y2968988D01*
X7195588Y2968766D01*
X7195255Y2968545D01*
X7194812Y2968268D01*
X7194369Y2967936D01*
X7193816Y2967659D01*
X7193207Y2967382D01*
X7192542Y2967050D01*
X7191822Y2966773D01*
X7190992Y2966551D01*
X7190161Y2966274D01*
X7189220Y2966108D01*
X7188223Y2965942D01*
X7188334Y2965887D01*
X7188555Y2965776D01*
X7188888Y2965555D01*
X7189331Y2965333D01*
X7190327Y2964724D01*
X7190826Y2964336D01*
X7191269Y2964004D01*
X7191379Y2963893D01*
X7191656Y2963617D01*
X7192099Y2963174D01*
X7192653Y2962620D01*
X7193262Y2961845D01*
X7193982Y2961014D01*
X7194702Y2960017D01*
X7195477Y2958910D01*
X7202066Y2948500D01*
X7195754D01*
X7190715Y2956474D01*
Y2956529D01*
X7190604Y2956640D01*
X7190493Y2956806D01*
X7190327Y2957027D01*
X7189940Y2957636D01*
X7189441Y2958412D01*
X7188832Y2959242D01*
X7188223Y2960128D01*
X7187614Y2960959D01*
X7187060Y2961734D01*
X7187005Y2961789D01*
X7186839Y2962011D01*
X7186562Y2962343D01*
X7186174Y2962731D01*
X7185344Y2963561D01*
X7184901Y2963949D01*
X7184458Y2964281D01*
X7184402Y2964336D01*
X7184292Y2964392D01*
X7184070Y2964503D01*
X7183738Y2964669D01*
X7183406Y2964835D01*
X7183018Y2965001D01*
X7182132Y2965278D01*
X7182077D01*
X7181966Y2965333D01*
X7181745D01*
X7181468Y2965389D01*
X7181080Y2965444D01*
X7180637D01*
X7180028Y2965499D01*
X7173494D01*
Y2948500D01*
X7168400D01*
Y2986817D01*
X7186174D01*
X7186617Y2986762D01*
D02*
G37*
G36*
X7405456Y1080109D02*
X7405954D01*
X7406564Y1080054D01*
X7407228Y1079943D01*
X7408003Y1079832D01*
X7409609Y1079555D01*
X7411270Y1079112D01*
X7412931Y1078503D01*
X7413707Y1078116D01*
X7414482Y1077673D01*
X7414537Y1077617D01*
X7414648Y1077562D01*
X7414869Y1077396D01*
X7415091Y1077174D01*
X7415423Y1076953D01*
X7415811Y1076621D01*
X7416254Y1076233D01*
X7416697Y1075790D01*
X7417140Y1075292D01*
X7417638Y1074793D01*
X7418635Y1073520D01*
X7419576Y1072025D01*
X7420407Y1070364D01*
Y1070308D01*
X7420517Y1070142D01*
X7420573Y1069865D01*
X7420739Y1069533D01*
X7420850Y1069090D01*
X7421016Y1068536D01*
X7421237Y1067927D01*
X7421403Y1067263D01*
X7421569Y1066543D01*
X7421791Y1065712D01*
X7422068Y1063996D01*
X7422289Y1062058D01*
X7422400Y1060064D01*
Y1060009D01*
Y1059788D01*
Y1059455D01*
X7422345Y1059068D01*
Y1058514D01*
X7422289Y1057960D01*
X7422234Y1057240D01*
X7422123Y1056521D01*
X7421846Y1054915D01*
X7421459Y1053143D01*
X7420905Y1051371D01*
X7420130Y1049654D01*
X7420074Y1049599D01*
X7420019Y1049433D01*
X7419908Y1049212D01*
X7419687Y1048935D01*
X7419465Y1048547D01*
X7419188Y1048104D01*
X7418469Y1047107D01*
X7417527Y1046000D01*
X7416420Y1044892D01*
X7415146Y1043785D01*
X7413651Y1042844D01*
X7413596Y1042788D01*
X7413430Y1042733D01*
X7413208Y1042622D01*
X7412931Y1042456D01*
X7412488Y1042290D01*
X7412045Y1042124D01*
X7411492Y1041902D01*
X7410883Y1041681D01*
X7410218Y1041459D01*
X7409498Y1041238D01*
X7407948Y1040906D01*
X7406176Y1040629D01*
X7404349Y1040518D01*
X7403795D01*
X7403407Y1040573D01*
X7402909Y1040629D01*
X7402300Y1040684D01*
X7401691Y1040740D01*
X7400971Y1040906D01*
X7399476Y1041238D01*
X7397815Y1041736D01*
X7396984Y1042069D01*
X7396209Y1042456D01*
X7395434Y1042954D01*
X7394659Y1043453D01*
X7394603Y1043508D01*
X7394492Y1043564D01*
X7394271Y1043730D01*
X7393994Y1044007D01*
X7393717Y1044283D01*
X7393330Y1044671D01*
X7392942Y1045114D01*
X7392499Y1045557D01*
X7392056Y1046111D01*
X7391613Y1046775D01*
X7391115Y1047440D01*
X7390672Y1048159D01*
X7390284Y1048990D01*
X7389841Y1049821D01*
X7389509Y1050707D01*
X7389177Y1051703D01*
X7394160Y1052866D01*
Y1052811D01*
X7394216Y1052700D01*
X7394326Y1052478D01*
X7394437Y1052202D01*
X7394548Y1051869D01*
X7394714Y1051426D01*
X7395157Y1050540D01*
X7395711Y1049544D01*
X7396375Y1048547D01*
X7397206Y1047606D01*
X7398092Y1046775D01*
X7398202Y1046664D01*
X7398535Y1046443D01*
X7399088Y1046166D01*
X7399808Y1045778D01*
X7400749Y1045446D01*
X7401802Y1045114D01*
X7403075Y1044892D01*
X7404459Y1044837D01*
X7404902D01*
X7405179Y1044892D01*
X7405567D01*
X7406010Y1044948D01*
X7407062Y1045114D01*
X7408225Y1045335D01*
X7409443Y1045723D01*
X7410716Y1046277D01*
X7411879Y1046997D01*
X7411935D01*
X7411990Y1047107D01*
X7412378Y1047384D01*
X7412876Y1047827D01*
X7413485Y1048492D01*
X7414205Y1049322D01*
X7414869Y1050264D01*
X7415478Y1051426D01*
X7416032Y1052700D01*
Y1052755D01*
X7416088Y1052866D01*
X7416143Y1053032D01*
X7416198Y1053309D01*
X7416309Y1053641D01*
X7416420Y1054029D01*
X7416586Y1054970D01*
X7416807Y1056078D01*
X7417029Y1057296D01*
X7417140Y1058625D01*
X7417195Y1060064D01*
Y1060120D01*
Y1060286D01*
Y1060563D01*
Y1060895D01*
X7417140Y1061283D01*
Y1061781D01*
X7417084Y1062335D01*
X7417029Y1062944D01*
X7416863Y1064273D01*
X7416586Y1065712D01*
X7416254Y1067152D01*
X7415811Y1068592D01*
Y1068647D01*
X7415755Y1068758D01*
X7415645Y1068924D01*
X7415534Y1069201D01*
X7415202Y1069865D01*
X7414703Y1070640D01*
X7414094Y1071526D01*
X7413319Y1072468D01*
X7412433Y1073298D01*
X7411381Y1074074D01*
X7411326D01*
X7411215Y1074129D01*
X7411049Y1074240D01*
X7410827Y1074350D01*
X7410550Y1074461D01*
X7410218Y1074627D01*
X7409443Y1074959D01*
X7408446Y1075292D01*
X7407339Y1075569D01*
X7406121Y1075790D01*
X7404847Y1075845D01*
X7404459D01*
X7404127Y1075790D01*
X7403740D01*
X7403352Y1075735D01*
X7402355Y1075513D01*
X7401192Y1075236D01*
X7400030Y1074793D01*
X7398811Y1074184D01*
X7398202Y1073852D01*
X7397649Y1073409D01*
X7397593Y1073354D01*
X7397538Y1073298D01*
X7397372Y1073132D01*
X7397150Y1072966D01*
X7396929Y1072689D01*
X7396652Y1072357D01*
X7396320Y1072025D01*
X7396043Y1071582D01*
X7395711Y1071083D01*
X7395323Y1070530D01*
X7394991Y1069976D01*
X7394659Y1069312D01*
X7394382Y1068592D01*
X7394105Y1067817D01*
X7393828Y1066986D01*
X7393606Y1066100D01*
X7388512Y1067374D01*
Y1067429D01*
X7388568Y1067650D01*
X7388678Y1067983D01*
X7388845Y1068426D01*
X7389011Y1068924D01*
X7389232Y1069533D01*
X7389509Y1070198D01*
X7389841Y1070917D01*
X7390616Y1072468D01*
X7391613Y1074018D01*
X7392222Y1074793D01*
X7392831Y1075569D01*
X7393496Y1076233D01*
X7394271Y1076898D01*
X7394326Y1076953D01*
X7394437Y1077064D01*
X7394714Y1077174D01*
X7394991Y1077396D01*
X7395434Y1077673D01*
X7395877Y1077950D01*
X7396486Y1078226D01*
X7397095Y1078503D01*
X7397815Y1078836D01*
X7398590Y1079112D01*
X7399421Y1079389D01*
X7400307Y1079666D01*
X7401248Y1079888D01*
X7402245Y1079998D01*
X7403297Y1080109D01*
X7404404Y1080164D01*
X7405013D01*
X7405456Y1080109D01*
D02*
G37*
G36*
X7371181Y1049544D02*
X7371236Y1049599D01*
X7371513Y1049821D01*
X7371845Y1050153D01*
X7372399Y1050540D01*
X7373008Y1051039D01*
X7373783Y1051593D01*
X7374669Y1052202D01*
X7375666Y1052811D01*
X7375721D01*
X7375777Y1052866D01*
X7376109Y1053088D01*
X7376663Y1053364D01*
X7377327Y1053697D01*
X7378102Y1054084D01*
X7378933Y1054472D01*
X7379763Y1054859D01*
X7380594Y1055192D01*
Y1050651D01*
X7380539D01*
X7380428Y1050540D01*
X7380206Y1050485D01*
X7379930Y1050319D01*
X7379597Y1050153D01*
X7379210Y1049931D01*
X7378268Y1049378D01*
X7377161Y1048769D01*
X7376054Y1047993D01*
X7374891Y1047107D01*
X7373728Y1046166D01*
X7373673Y1046111D01*
X7373617Y1046055D01*
X7373451Y1045889D01*
X7373230Y1045723D01*
X7372731Y1045169D01*
X7372067Y1044505D01*
X7371402Y1043730D01*
X7370682Y1042844D01*
X7370073Y1041958D01*
X7369520Y1041016D01*
X7366474D01*
Y1079500D01*
X7371181D01*
Y1049544D01*
D02*
G37*
G36*
X7218678Y736928D02*
X7219121Y736873D01*
X7219674Y736817D01*
X7220284Y736707D01*
X7220893Y736596D01*
X7222332Y736208D01*
X7223772Y735655D01*
X7224492Y735322D01*
X7225212Y734935D01*
X7225876Y734436D01*
X7226485Y733883D01*
X7226541Y733827D01*
X7226651Y733772D01*
X7226762Y733550D01*
X7226984Y733329D01*
X7227260Y733052D01*
X7227537Y732665D01*
X7227814Y732277D01*
X7228146Y731779D01*
X7228700Y730727D01*
X7229254Y729398D01*
X7229475Y728733D01*
X7229586Y727958D01*
X7229697Y727183D01*
X7229752Y726352D01*
Y726241D01*
Y725965D01*
X7229697Y725522D01*
X7229641Y724912D01*
X7229531Y724248D01*
X7229309Y723473D01*
X7229088Y722642D01*
X7228755Y721812D01*
X7228700Y721701D01*
X7228589Y721424D01*
X7228368Y720981D01*
X7228036Y720372D01*
X7227593Y719707D01*
X7227039Y718877D01*
X7226374Y718046D01*
X7225599Y717105D01*
X7225488Y716994D01*
X7225212Y716662D01*
X7224935Y716385D01*
X7224658Y716108D01*
X7224326Y715776D01*
X7223883Y715333D01*
X7223440Y714890D01*
X7222886Y714392D01*
X7222332Y713838D01*
X7221668Y713229D01*
X7220948Y712620D01*
X7220173Y711900D01*
X7219287Y711180D01*
X7218401Y710405D01*
X7218345Y710350D01*
X7218235Y710239D01*
X7218013Y710073D01*
X7217736Y709851D01*
X7217404Y709519D01*
X7217017Y709187D01*
X7216131Y708467D01*
X7215189Y707636D01*
X7214303Y706806D01*
X7213528Y706086D01*
X7213196Y705809D01*
X7212919Y705532D01*
X7212864Y705477D01*
X7212698Y705311D01*
X7212476Y705089D01*
X7212199Y704757D01*
X7211922Y704369D01*
X7211590Y703982D01*
X7210926Y703041D01*
X7229807D01*
Y698500D01*
X7204392D01*
Y698555D01*
Y698777D01*
Y699109D01*
X7204447Y699552D01*
X7204502Y700050D01*
X7204613Y700604D01*
X7204724Y701158D01*
X7204945Y701767D01*
Y701822D01*
X7205001Y701878D01*
X7205112Y702210D01*
X7205333Y702708D01*
X7205665Y703373D01*
X7206108Y704148D01*
X7206662Y705034D01*
X7207271Y705920D01*
X7208046Y706861D01*
Y706917D01*
X7208157Y706972D01*
X7208434Y707304D01*
X7208932Y707802D01*
X7209652Y708522D01*
X7210483Y709353D01*
X7211535Y710350D01*
X7212808Y711457D01*
X7214193Y712620D01*
X7214248Y712675D01*
X7214469Y712841D01*
X7214802Y713118D01*
X7215189Y713450D01*
X7215688Y713893D01*
X7216297Y714392D01*
X7216906Y714945D01*
X7217626Y715555D01*
X7219010Y716884D01*
X7220394Y718212D01*
X7221059Y718877D01*
X7221668Y719541D01*
X7222222Y720150D01*
X7222664Y720760D01*
Y720815D01*
X7222775Y720870D01*
X7222886Y721036D01*
X7222997Y721258D01*
X7223384Y721867D01*
X7223827Y722587D01*
X7224215Y723473D01*
X7224603Y724414D01*
X7224824Y725466D01*
X7224935Y726463D01*
Y726518D01*
Y726574D01*
X7224879Y726906D01*
X7224824Y727460D01*
X7224658Y728069D01*
X7224436Y728844D01*
X7224049Y729619D01*
X7223550Y730394D01*
X7222886Y731169D01*
X7222775Y731280D01*
X7222498Y731502D01*
X7222111Y731779D01*
X7221502Y732166D01*
X7220726Y732498D01*
X7219841Y732831D01*
X7218788Y733052D01*
X7217626Y733108D01*
X7217293D01*
X7217072Y733052D01*
X7216407Y732997D01*
X7215632Y732831D01*
X7214802Y732609D01*
X7213860Y732222D01*
X7212974Y731723D01*
X7212144Y731059D01*
X7212033Y730948D01*
X7211812Y730671D01*
X7211479Y730228D01*
X7211147Y729564D01*
X7210760Y728788D01*
X7210427Y727792D01*
X7210206Y726684D01*
X7210095Y725411D01*
X7205278Y725909D01*
Y725965D01*
X7205333Y726131D01*
Y726407D01*
X7205388Y726795D01*
X7205499Y727238D01*
X7205610Y727736D01*
X7205776Y728346D01*
X7205942Y728955D01*
X7206385Y730284D01*
X7207050Y731612D01*
X7207437Y732277D01*
X7207936Y732941D01*
X7208434Y733550D01*
X7208988Y734104D01*
X7209043Y734160D01*
X7209154Y734215D01*
X7209320Y734381D01*
X7209597Y734547D01*
X7209929Y734769D01*
X7210317Y734990D01*
X7210760Y735267D01*
X7211313Y735544D01*
X7211922Y735821D01*
X7212587Y736098D01*
X7213307Y736319D01*
X7214082Y736541D01*
X7214912Y736707D01*
X7215798Y736873D01*
X7216740Y736928D01*
X7217736Y736984D01*
X7218290D01*
X7218678Y736928D01*
D02*
G37*
G36*
X7186617Y736762D02*
X7187116D01*
X7188278Y736707D01*
X7189497Y736541D01*
X7190826Y736374D01*
X7192044Y736098D01*
X7192653Y735931D01*
X7193151Y735765D01*
X7193207D01*
X7193262Y735710D01*
X7193594Y735544D01*
X7194093Y735322D01*
X7194702Y734935D01*
X7195366Y734436D01*
X7196086Y733772D01*
X7196750Y732997D01*
X7197415Y732111D01*
Y732055D01*
X7197470Y732000D01*
X7197692Y731668D01*
X7197913Y731114D01*
X7198245Y730394D01*
X7198522Y729564D01*
X7198799Y728567D01*
X7198965Y727515D01*
X7199021Y726352D01*
Y726297D01*
Y726186D01*
Y725965D01*
X7198965Y725688D01*
Y725300D01*
X7198910Y724912D01*
X7198688Y723971D01*
X7198356Y722864D01*
X7197913Y721701D01*
X7197249Y720538D01*
X7196806Y719984D01*
X7196363Y719431D01*
X7196307Y719375D01*
X7196252Y719320D01*
X7196086Y719154D01*
X7195864Y718988D01*
X7195588Y718766D01*
X7195255Y718545D01*
X7194812Y718268D01*
X7194369Y717936D01*
X7193816Y717659D01*
X7193207Y717382D01*
X7192542Y717050D01*
X7191822Y716773D01*
X7190992Y716551D01*
X7190161Y716274D01*
X7189220Y716108D01*
X7188223Y715942D01*
X7188334Y715887D01*
X7188555Y715776D01*
X7188888Y715555D01*
X7189331Y715333D01*
X7190327Y714724D01*
X7190826Y714336D01*
X7191269Y714004D01*
X7191379Y713893D01*
X7191656Y713617D01*
X7192099Y713174D01*
X7192653Y712620D01*
X7193262Y711845D01*
X7193982Y711014D01*
X7194702Y710017D01*
X7195477Y708910D01*
X7202066Y698500D01*
X7195754D01*
X7190715Y706474D01*
Y706529D01*
X7190604Y706640D01*
X7190493Y706806D01*
X7190327Y707027D01*
X7189940Y707636D01*
X7189441Y708412D01*
X7188832Y709242D01*
X7188223Y710128D01*
X7187614Y710959D01*
X7187060Y711734D01*
X7187005Y711789D01*
X7186839Y712011D01*
X7186562Y712343D01*
X7186174Y712731D01*
X7185344Y713561D01*
X7184901Y713949D01*
X7184458Y714281D01*
X7184402Y714336D01*
X7184292Y714392D01*
X7184070Y714503D01*
X7183738Y714669D01*
X7183406Y714835D01*
X7183018Y715001D01*
X7182132Y715278D01*
X7182077D01*
X7181966Y715333D01*
X7181745D01*
X7181468Y715388D01*
X7181080Y715444D01*
X7180637D01*
X7180028Y715499D01*
X7173494D01*
Y698500D01*
X7168400D01*
Y736817D01*
X7186174D01*
X7186617Y736762D01*
D02*
G37*
G36*
X7218235Y386928D02*
X7218955Y386817D01*
X7219841Y386651D01*
X7220837Y386374D01*
X7221834Y386042D01*
X7222831Y385599D01*
X7222886D01*
X7222941Y385544D01*
X7223274Y385378D01*
X7223772Y385045D01*
X7224326Y384658D01*
X7224990Y384104D01*
X7225655Y383495D01*
X7226319Y382775D01*
X7226873Y381945D01*
X7226928Y381834D01*
X7227094Y381557D01*
X7227316Y381059D01*
X7227593Y380450D01*
X7227869Y379730D01*
X7228091Y378899D01*
X7228257Y377958D01*
X7228312Y377017D01*
Y376906D01*
Y376574D01*
X7228257Y376131D01*
X7228146Y375521D01*
X7227980Y374802D01*
X7227703Y374026D01*
X7227371Y373251D01*
X7226928Y372476D01*
X7226873Y372365D01*
X7226707Y372144D01*
X7226374Y371756D01*
X7225931Y371313D01*
X7225378Y370815D01*
X7224713Y370261D01*
X7223938Y369763D01*
X7222997Y369264D01*
X7223052D01*
X7223163Y369209D01*
X7223329Y369154D01*
X7223550Y369098D01*
X7224160Y368877D01*
X7224935Y368545D01*
X7225821Y368102D01*
X7226707Y367548D01*
X7227537Y366828D01*
X7228312Y365997D01*
X7228368Y365887D01*
X7228589Y365555D01*
X7228922Y365001D01*
X7229254Y364281D01*
X7229586Y363395D01*
X7229918Y362343D01*
X7230140Y361125D01*
X7230195Y359796D01*
Y359740D01*
Y359574D01*
Y359297D01*
X7230140Y358965D01*
X7230084Y358522D01*
X7229974Y358024D01*
X7229863Y357470D01*
X7229752Y356861D01*
X7229309Y355532D01*
X7228977Y354812D01*
X7228645Y354148D01*
X7228202Y353428D01*
X7227703Y352708D01*
X7227150Y351988D01*
X7226485Y351324D01*
X7226430Y351269D01*
X7226319Y351158D01*
X7226098Y350992D01*
X7225821Y350770D01*
X7225488Y350493D01*
X7225045Y350216D01*
X7224547Y349884D01*
X7223938Y349607D01*
X7223329Y349275D01*
X7222609Y348943D01*
X7221889Y348666D01*
X7221059Y348389D01*
X7220173Y348168D01*
X7219231Y348002D01*
X7218290Y347891D01*
X7217238Y347835D01*
X7216740D01*
X7216407Y347891D01*
X7215964Y347946D01*
X7215466Y348002D01*
X7214912Y348112D01*
X7214303Y348223D01*
X7212974Y348555D01*
X7211590Y349109D01*
X7210870Y349441D01*
X7210206Y349829D01*
X7209541Y350327D01*
X7208877Y350826D01*
X7208821Y350881D01*
X7208711Y350992D01*
X7208545Y351158D01*
X7208379Y351379D01*
X7208102Y351656D01*
X7207825Y352044D01*
X7207493Y352431D01*
X7207160Y352930D01*
X7206828Y353483D01*
X7206496Y354037D01*
X7205887Y355366D01*
X7205388Y356916D01*
X7205222Y357747D01*
X7205112Y358633D01*
X7209818Y359242D01*
Y359187D01*
X7209874Y359076D01*
X7209929Y358855D01*
X7209984Y358578D01*
X7210040Y358245D01*
X7210150Y357858D01*
X7210427Y357027D01*
X7210815Y356031D01*
X7211313Y355089D01*
X7211867Y354203D01*
X7212531Y353428D01*
X7212642Y353373D01*
X7212864Y353151D01*
X7213307Y352874D01*
X7213860Y352597D01*
X7214525Y352265D01*
X7215355Y351988D01*
X7216297Y351767D01*
X7217293Y351712D01*
X7217626D01*
X7217847Y351767D01*
X7218456Y351822D01*
X7219231Y351988D01*
X7220117Y352265D01*
X7221059Y352653D01*
X7222000Y353207D01*
X7222886Y353982D01*
X7222997Y354093D01*
X7223274Y354425D01*
X7223606Y354923D01*
X7224049Y355588D01*
X7224492Y356418D01*
X7224824Y357359D01*
X7225101Y358467D01*
X7225212Y359685D01*
Y359740D01*
Y359851D01*
Y360017D01*
X7225156Y360239D01*
X7225101Y360848D01*
X7224935Y361568D01*
X7224713Y362454D01*
X7224326Y363340D01*
X7223772Y364226D01*
X7223052Y365056D01*
X7222941Y365167D01*
X7222664Y365388D01*
X7222222Y365721D01*
X7221612Y366108D01*
X7220837Y366496D01*
X7219896Y366828D01*
X7218844Y367050D01*
X7217681Y367160D01*
X7217183D01*
X7216795Y367105D01*
X7216297Y367050D01*
X7215743Y366939D01*
X7215079Y366828D01*
X7214359Y366662D01*
X7214912Y370815D01*
X7215189D01*
X7215411Y370759D01*
X7216131D01*
X7216740Y370870D01*
X7217460Y370981D01*
X7218290Y371147D01*
X7219231Y371424D01*
X7220117Y371812D01*
X7221059Y372310D01*
X7221114D01*
X7221169Y372365D01*
X7221446Y372587D01*
X7221834Y372974D01*
X7222277Y373473D01*
X7222720Y374193D01*
X7223107Y375023D01*
X7223384Y375964D01*
X7223495Y376518D01*
Y377127D01*
Y377183D01*
Y377238D01*
Y377570D01*
X7223384Y378013D01*
X7223274Y378622D01*
X7223052Y379287D01*
X7222775Y380007D01*
X7222332Y380726D01*
X7221723Y381391D01*
X7221668Y381446D01*
X7221391Y381668D01*
X7221003Y381945D01*
X7220505Y382277D01*
X7219841Y382554D01*
X7219065Y382831D01*
X7218179Y383052D01*
X7217183Y383107D01*
X7216740D01*
X7216241Y382997D01*
X7215577Y382886D01*
X7214857Y382664D01*
X7214137Y382388D01*
X7213362Y381945D01*
X7212642Y381391D01*
X7212587Y381336D01*
X7212365Y381059D01*
X7212033Y380671D01*
X7211645Y380117D01*
X7211258Y379398D01*
X7210870Y378512D01*
X7210538Y377459D01*
X7210317Y376241D01*
X7205610Y377072D01*
Y377127D01*
X7205665Y377293D01*
X7205721Y377515D01*
X7205776Y377847D01*
X7205887Y378235D01*
X7206053Y378678D01*
X7206385Y379730D01*
X7206939Y380948D01*
X7207603Y382166D01*
X7208434Y383329D01*
X7209486Y384381D01*
X7209541Y384436D01*
X7209652Y384492D01*
X7209818Y384602D01*
X7210040Y384769D01*
X7210317Y384990D01*
X7210704Y385212D01*
X7211092Y385433D01*
X7211590Y385710D01*
X7212698Y386153D01*
X7213971Y386596D01*
X7215466Y386873D01*
X7216241Y386983D01*
X7217626D01*
X7218235Y386928D01*
D02*
G37*
G36*
X7186617Y386762D02*
X7187116D01*
X7188278Y386707D01*
X7189497Y386541D01*
X7190826Y386374D01*
X7192044Y386098D01*
X7192653Y385931D01*
X7193151Y385765D01*
X7193207D01*
X7193262Y385710D01*
X7193594Y385544D01*
X7194093Y385322D01*
X7194702Y384935D01*
X7195366Y384436D01*
X7196086Y383772D01*
X7196750Y382997D01*
X7197415Y382111D01*
Y382055D01*
X7197470Y382000D01*
X7197692Y381668D01*
X7197913Y381114D01*
X7198245Y380394D01*
X7198522Y379564D01*
X7198799Y378567D01*
X7198965Y377515D01*
X7199021Y376352D01*
Y376297D01*
Y376186D01*
Y375964D01*
X7198965Y375688D01*
Y375300D01*
X7198910Y374912D01*
X7198688Y373971D01*
X7198356Y372864D01*
X7197913Y371701D01*
X7197249Y370538D01*
X7196806Y369984D01*
X7196363Y369431D01*
X7196307Y369375D01*
X7196252Y369320D01*
X7196086Y369154D01*
X7195864Y368988D01*
X7195588Y368766D01*
X7195255Y368545D01*
X7194812Y368268D01*
X7194369Y367936D01*
X7193816Y367659D01*
X7193207Y367382D01*
X7192542Y367050D01*
X7191822Y366773D01*
X7190992Y366551D01*
X7190161Y366274D01*
X7189220Y366108D01*
X7188223Y365942D01*
X7188334Y365887D01*
X7188555Y365776D01*
X7188888Y365555D01*
X7189331Y365333D01*
X7190327Y364724D01*
X7190826Y364336D01*
X7191269Y364004D01*
X7191379Y363893D01*
X7191656Y363616D01*
X7192099Y363174D01*
X7192653Y362620D01*
X7193262Y361845D01*
X7193982Y361014D01*
X7194702Y360017D01*
X7195477Y358910D01*
X7202066Y348500D01*
X7195754D01*
X7190715Y356474D01*
Y356529D01*
X7190604Y356640D01*
X7190493Y356806D01*
X7190327Y357027D01*
X7189940Y357636D01*
X7189441Y358412D01*
X7188832Y359242D01*
X7188223Y360128D01*
X7187614Y360959D01*
X7187060Y361734D01*
X7187005Y361789D01*
X7186839Y362011D01*
X7186562Y362343D01*
X7186174Y362731D01*
X7185344Y363561D01*
X7184901Y363949D01*
X7184458Y364281D01*
X7184402Y364336D01*
X7184292Y364392D01*
X7184070Y364502D01*
X7183738Y364669D01*
X7183406Y364835D01*
X7183018Y365001D01*
X7182132Y365278D01*
X7182077D01*
X7181966Y365333D01*
X7181745D01*
X7181468Y365388D01*
X7181080Y365444D01*
X7180637D01*
X7180028Y365499D01*
X7173494D01*
Y348500D01*
X7168400D01*
Y386817D01*
X7186174D01*
X7186617Y386762D01*
D02*
G37*
%LPC*%
G36*
X7185565Y5932554D02*
X7173494D01*
Y5919874D01*
X7184901D01*
X7185565Y5919929D01*
X7186340Y5919985D01*
X7187226Y5920040D01*
X7188112Y5920151D01*
X7188998Y5920317D01*
X7189774Y5920538D01*
X7189884Y5920594D01*
X7190106Y5920704D01*
X7190438Y5920871D01*
X7190881Y5921092D01*
X7191379Y5921424D01*
X7191878Y5921812D01*
X7192376Y5922310D01*
X7192764Y5922864D01*
X7192819Y5922919D01*
X7192930Y5923141D01*
X7193096Y5923473D01*
X7193317Y5923916D01*
X7193483Y5924414D01*
X7193650Y5924968D01*
X7193760Y5925633D01*
X7193816Y5926297D01*
Y5926352D01*
Y5926408D01*
X7193760Y5926740D01*
X7193705Y5927238D01*
X7193594Y5927903D01*
X7193317Y5928567D01*
X7192985Y5929342D01*
X7192487Y5930062D01*
X7191822Y5930782D01*
X7191712Y5930838D01*
X7191435Y5931059D01*
X7190992Y5931336D01*
X7190272Y5931668D01*
X7189441Y5932000D01*
X7188334Y5932277D01*
X7187060Y5932499D01*
X7185565Y5932554D01*
D02*
G37*
G36*
Y5582554D02*
X7173494D01*
Y5569874D01*
X7184901D01*
X7185565Y5569929D01*
X7186340Y5569985D01*
X7187226Y5570040D01*
X7188112Y5570151D01*
X7188998Y5570317D01*
X7189774Y5570538D01*
X7189884Y5570594D01*
X7190106Y5570704D01*
X7190438Y5570870D01*
X7190881Y5571092D01*
X7191379Y5571424D01*
X7191878Y5571812D01*
X7192376Y5572310D01*
X7192764Y5572864D01*
X7192819Y5572919D01*
X7192930Y5573141D01*
X7193096Y5573473D01*
X7193317Y5573916D01*
X7193483Y5574414D01*
X7193650Y5574968D01*
X7193760Y5575632D01*
X7193816Y5576297D01*
Y5576352D01*
Y5576408D01*
X7193760Y5576740D01*
X7193705Y5577238D01*
X7193594Y5577903D01*
X7193317Y5578567D01*
X7192985Y5579342D01*
X7192487Y5580062D01*
X7191822Y5580782D01*
X7191712Y5580837D01*
X7191435Y5581059D01*
X7190992Y5581336D01*
X7190272Y5581668D01*
X7189441Y5582000D01*
X7188334Y5582277D01*
X7187060Y5582499D01*
X7185565Y5582554D01*
D02*
G37*
G36*
Y3332554D02*
X7173494D01*
Y3319874D01*
X7184901D01*
X7185565Y3319929D01*
X7186340Y3319984D01*
X7187226Y3320040D01*
X7188112Y3320151D01*
X7188998Y3320317D01*
X7189774Y3320538D01*
X7189884Y3320594D01*
X7190106Y3320704D01*
X7190438Y3320870D01*
X7190881Y3321092D01*
X7191379Y3321424D01*
X7191878Y3321812D01*
X7192376Y3322310D01*
X7192764Y3322864D01*
X7192819Y3322919D01*
X7192930Y3323141D01*
X7193096Y3323473D01*
X7193317Y3323916D01*
X7193483Y3324414D01*
X7193650Y3324968D01*
X7193760Y3325632D01*
X7193816Y3326297D01*
Y3326352D01*
Y3326408D01*
X7193760Y3326740D01*
X7193705Y3327238D01*
X7193594Y3327903D01*
X7193317Y3328567D01*
X7192985Y3329342D01*
X7192487Y3330062D01*
X7191822Y3330782D01*
X7191712Y3330837D01*
X7191435Y3331059D01*
X7190992Y3331336D01*
X7190272Y3331668D01*
X7189441Y3332000D01*
X7188334Y3332277D01*
X7187060Y3332499D01*
X7185565Y3332554D01*
D02*
G37*
G36*
Y2982554D02*
X7173494D01*
Y2969874D01*
X7184901D01*
X7185565Y2969929D01*
X7186340Y2969984D01*
X7187226Y2970040D01*
X7188112Y2970151D01*
X7188998Y2970317D01*
X7189774Y2970538D01*
X7189884Y2970593D01*
X7190106Y2970704D01*
X7190438Y2970870D01*
X7190881Y2971092D01*
X7191379Y2971424D01*
X7191878Y2971812D01*
X7192376Y2972310D01*
X7192764Y2972864D01*
X7192819Y2972919D01*
X7192930Y2973141D01*
X7193096Y2973473D01*
X7193317Y2973916D01*
X7193483Y2974414D01*
X7193650Y2974968D01*
X7193760Y2975632D01*
X7193816Y2976297D01*
Y2976352D01*
Y2976408D01*
X7193760Y2976740D01*
X7193705Y2977238D01*
X7193594Y2977903D01*
X7193317Y2978567D01*
X7192985Y2979342D01*
X7192487Y2980062D01*
X7191822Y2980782D01*
X7191712Y2980837D01*
X7191435Y2981059D01*
X7190992Y2981336D01*
X7190272Y2981668D01*
X7189441Y2982000D01*
X7188334Y2982277D01*
X7187060Y2982498D01*
X7185565Y2982554D01*
D02*
G37*
G36*
Y732554D02*
X7173494D01*
Y719874D01*
X7184901D01*
X7185565Y719929D01*
X7186340Y719984D01*
X7187226Y720040D01*
X7188112Y720150D01*
X7188998Y720317D01*
X7189774Y720538D01*
X7189884Y720593D01*
X7190106Y720704D01*
X7190438Y720870D01*
X7190881Y721092D01*
X7191379Y721424D01*
X7191878Y721812D01*
X7192376Y722310D01*
X7192764Y722864D01*
X7192819Y722919D01*
X7192930Y723141D01*
X7193096Y723473D01*
X7193317Y723916D01*
X7193483Y724414D01*
X7193650Y724968D01*
X7193760Y725632D01*
X7193816Y726297D01*
Y726352D01*
Y726407D01*
X7193760Y726740D01*
X7193705Y727238D01*
X7193594Y727903D01*
X7193317Y728567D01*
X7192985Y729342D01*
X7192487Y730062D01*
X7191822Y730782D01*
X7191712Y730837D01*
X7191435Y731059D01*
X7190992Y731336D01*
X7190272Y731668D01*
X7189441Y732000D01*
X7188334Y732277D01*
X7187060Y732498D01*
X7185565Y732554D01*
D02*
G37*
G36*
Y382554D02*
X7173494D01*
Y369874D01*
X7184901D01*
X7185565Y369929D01*
X7186340Y369984D01*
X7187226Y370040D01*
X7188112Y370150D01*
X7188998Y370317D01*
X7189774Y370538D01*
X7189884Y370593D01*
X7190106Y370704D01*
X7190438Y370870D01*
X7190881Y371092D01*
X7191379Y371424D01*
X7191878Y371812D01*
X7192376Y372310D01*
X7192764Y372864D01*
X7192819Y372919D01*
X7192930Y373140D01*
X7193096Y373473D01*
X7193317Y373916D01*
X7193483Y374414D01*
X7193650Y374968D01*
X7193760Y375632D01*
X7193816Y376297D01*
Y376352D01*
Y376407D01*
X7193760Y376740D01*
X7193705Y377238D01*
X7193594Y377902D01*
X7193317Y378567D01*
X7192985Y379342D01*
X7192487Y380062D01*
X7191822Y380782D01*
X7191712Y380837D01*
X7191435Y381059D01*
X7190992Y381336D01*
X7190272Y381668D01*
X7189441Y382000D01*
X7188334Y382277D01*
X7187060Y382498D01*
X7185565Y382554D01*
D02*
G37*
%LPD*%
%TF.MD5,843710a1497d644a5c03d4bbeb8bcc92*%
M02*
