%TF.GenerationSoftware,Altium Limited,Altium Designer,24.3.1 (35)*%
G04 Layer_Physical_Order=2*
G04 Layer_Color=16711680*
%FSLAX45Y45*%
%MOMM*%
%TF.SameCoordinates,065391E9-2A1D-4ECE-AA0D-878B158C5FC5*%
%TF.FilePolarity,Positive*%
%TF.FileFunction,Copper,L2,Bot,Signal*%
%TF.Part,CustomerPanel*%
G01*
G75*
%TA.AperFunction,SMDPad,CuDef*%
%ADD10R,1.80000X2.00000*%
%ADD11R,1.30000X0.60000*%
%TA.AperFunction,Conductor*%
%ADD12C,0.70000*%
%ADD13C,0.50000*%
%TA.AperFunction,ComponentPad*%
%ADD18C,1.50800*%
%ADD19R,1.50800X1.50800*%
%ADD20C,1.65100*%
%ADD21C,1.52400*%
%ADD22R,1.52400X1.52400*%
%ADD23C,3.51600*%
%ADD24R,1.50800X1.50800*%
%TA.AperFunction,ViaPad*%
%ADD25C,1.10000*%
%ADD26C,5.00000*%
%ADD27C,0.70000*%
%ADD28C,1.50000*%
G36*
X7458809Y5241192D02*
X6041191D01*
Y6519095D01*
X6053891Y6520766D01*
X6056442Y6511247D01*
X6069660Y6488353D01*
X6088353Y6469660D01*
X6111247Y6456443D01*
X6136782Y6449601D01*
X6163218D01*
X6188753Y6456443D01*
X6211647Y6469660D01*
X6230340Y6488353D01*
X6243558Y6511247D01*
X6250400Y6536782D01*
Y6563218D01*
X6243558Y6588753D01*
X6230340Y6611647D01*
X6211647Y6630340D01*
X6188753Y6643558D01*
X6179234Y6646109D01*
X6180906Y6658809D01*
X7458809D01*
Y5241192D01*
D02*
G37*
G36*
X5458808Y4541191D02*
X41191D01*
Y8958808D01*
X5458808D01*
Y4541191D01*
D02*
G37*
G36*
X701801Y4047075D02*
X534500Y3879774D01*
X521800Y3885034D01*
Y3994404D01*
X291000D01*
Y3743604D01*
X514613D01*
Y3488126D01*
X518525Y3468460D01*
X529664Y3451789D01*
X573788Y3407666D01*
X590459Y3396526D01*
X591001Y3396419D01*
Y3283602D01*
Y3183602D01*
Y3083603D01*
Y2983603D01*
Y2883603D01*
Y2783603D01*
Y2751703D01*
X681401D01*
Y2739003D01*
D01*
Y2751703D01*
X771801D01*
Y2787616D01*
X874915D01*
X882985Y2786011D01*
X993499D01*
Y2750098D01*
X1083899D01*
X1174299D01*
Y2781998D01*
Y2881998D01*
Y2981998D01*
Y3081997D01*
Y3181997D01*
Y3281997D01*
Y3386009D01*
X1505697D01*
X1525362Y3389921D01*
X1542033Y3401061D01*
X1747075Y3606103D01*
X1758809Y3601242D01*
Y2341191D01*
X41191D01*
Y4058808D01*
X67930D01*
X73190Y4046108D01*
X63095Y4036014D01*
X54184Y4014500D01*
X174416D01*
X165505Y4036014D01*
X155410Y4046108D01*
X160670Y4058808D01*
X696941D01*
X701801Y4047075D01*
D02*
G37*
G36*
X3538063Y3954654D02*
X3549599Y3951864D01*
Y3936781D01*
X3556441Y3911246D01*
X3569659Y3888352D01*
X3588352Y3869659D01*
X3611246Y3856441D01*
X3636781Y3849599D01*
X3663217D01*
X3688752Y3856441D01*
X3711646Y3869659D01*
X3730339Y3888352D01*
X3743557Y3911246D01*
X3746109Y3920768D01*
X3758809Y3919096D01*
Y2341191D01*
X3185176D01*
X3181476Y2348396D01*
X3180664Y2353891D01*
X3307855Y2481083D01*
X3329614Y2490095D01*
X3346605Y2507086D01*
X3355800Y2529286D01*
Y2553314D01*
X3346605Y2575514D01*
X3329614Y2592505D01*
X3320449Y2596301D01*
X3322975Y2609001D01*
X3485400D01*
Y2859801D01*
X3254600D01*
Y2609001D01*
X3267825D01*
X3270351Y2596301D01*
X3261186Y2592505D01*
X3244195Y2575514D01*
X3235183Y2553755D01*
X3216100Y2534672D01*
X3203400Y2539933D01*
Y2553314D01*
X3194205Y2575514D01*
X3177214Y2592505D01*
X3155700Y2601416D01*
Y2541300D01*
X3143000D01*
Y2528600D01*
X3082884D01*
X3091795Y2507086D01*
X3108786Y2490095D01*
X3130986Y2480900D01*
X3144367D01*
X3149628Y2468200D01*
X3121715Y2440287D01*
X2402073D01*
X2383765Y2447870D01*
X2348035Y2483601D01*
X2353295Y2496301D01*
X2547200D01*
Y2747101D01*
X2342787D01*
Y3257327D01*
X2385775Y3300315D01*
X2616401D01*
Y3196302D01*
Y3096303D01*
Y2996298D01*
Y2896298D01*
Y2864398D01*
X2706801D01*
X2797201D01*
Y2900311D01*
X2862567D01*
X2882232Y2904222D01*
X2898903Y2915362D01*
X2991900Y3008358D01*
X3004600Y3003098D01*
Y2977098D01*
X3094999D01*
X3185399D01*
Y3008998D01*
Y3109003D01*
Y3209002D01*
Y3309002D01*
Y3409002D01*
Y3519802D01*
X3146387D01*
Y3742014D01*
X3342085Y3937713D01*
X3452127D01*
X3473886Y3928700D01*
X3497914D01*
X3520114Y3937895D01*
X3536899Y3954681D01*
X3538063Y3954654D01*
D02*
G37*
G36*
X5758808Y2341191D02*
X4202472D01*
X4193986Y2353892D01*
X4199302Y2366726D01*
Y2390754D01*
X4190290Y2412513D01*
Y3192317D01*
X4196587Y3198615D01*
X4616401D01*
Y3094603D01*
Y2994603D01*
Y2962703D01*
X4706801D01*
X4797200D01*
Y2998616D01*
X4829868D01*
X4849533Y3002527D01*
X4866204Y3013667D01*
X4951153Y3098615D01*
X5006199D01*
Y3062703D01*
X5096599D01*
X5186999D01*
Y3094603D01*
Y3194602D01*
Y3294602D01*
Y3405402D01*
X5006199D01*
Y3400958D01*
X4978314D01*
X4892934Y3486338D01*
X4876263Y3497478D01*
X4856598Y3501389D01*
X4797200D01*
Y3505402D01*
X4758188D01*
Y3607815D01*
X4825255Y3674883D01*
X4847014Y3683895D01*
X4864004Y3700886D01*
X4873200Y3723086D01*
Y3747114D01*
X4864004Y3769314D01*
X4847014Y3786305D01*
X4824814Y3795500D01*
X4800786D01*
X4778586Y3786305D01*
X4761595Y3769314D01*
X4752583Y3747555D01*
X4670464Y3665437D01*
X4659325Y3648766D01*
X4655413Y3629101D01*
Y3505402D01*
X4640667D01*
Y3711275D01*
X4854405Y3925013D01*
X5337827D01*
X5359586Y3916000D01*
X5383614D01*
X5405814Y3925195D01*
X5422804Y3942186D01*
X5432000Y3964386D01*
Y3988414D01*
X5422804Y4010614D01*
X5405814Y4027605D01*
X5383614Y4036800D01*
X5359586D01*
X5337827Y4027787D01*
X4833120D01*
X4813455Y4023876D01*
X4796784Y4012736D01*
X4559900Y3775852D01*
X4547200Y3781113D01*
Y3805399D01*
X4316400D01*
Y3554599D01*
X4537893D01*
Y3354100D01*
X4541804Y3334435D01*
X4552944Y3317764D01*
X4556618Y3314090D01*
X4556531Y3312271D01*
X4552554Y3301390D01*
X4175302D01*
X4155637Y3297478D01*
X4138966Y3286339D01*
X4102566Y3249939D01*
X4091427Y3233268D01*
X4087515Y3213602D01*
Y2412513D01*
X4078502Y2390754D01*
Y2366726D01*
X4083818Y2353892D01*
X4075332Y2341191D01*
X4041191D01*
Y3919094D01*
X4053891Y3920766D01*
X4056442Y3911247D01*
X4069660Y3888353D01*
X4088353Y3869660D01*
X4111247Y3856442D01*
X4136782Y3849600D01*
X4163218D01*
X4188753Y3856442D01*
X4211647Y3869660D01*
X4230340Y3888353D01*
X4243558Y3911247D01*
X4250400Y3936782D01*
Y3963218D01*
X4243558Y3988753D01*
X4230340Y4011647D01*
X4211647Y4030340D01*
X4188753Y4043558D01*
X4179234Y4046108D01*
X4180906Y4058808D01*
X5758808D01*
Y2341191D01*
D02*
G37*
G36*
X7458809Y2641192D02*
X6041191D01*
Y3919095D01*
X6053891Y3920766D01*
X6056442Y3911247D01*
X6069660Y3888353D01*
X6088353Y3869660D01*
X6111247Y3856442D01*
X6136782Y3849600D01*
X6163218D01*
X6188753Y3856442D01*
X6211647Y3869660D01*
X6230340Y3888353D01*
X6243558Y3911247D01*
X6250400Y3936782D01*
Y3963218D01*
X6243558Y3988753D01*
X6230340Y4011647D01*
X6211647Y4030340D01*
X6188753Y4043558D01*
X6179234Y4046109D01*
X6180906Y4058809D01*
X7458809D01*
Y2641192D01*
D02*
G37*
G36*
X701801Y1747075D02*
X534500Y1579774D01*
X521800Y1585034D01*
Y1694404D01*
X291000D01*
Y1443604D01*
X514613D01*
Y1188126D01*
X518525Y1168460D01*
X529664Y1151789D01*
X573788Y1107666D01*
X590459Y1096526D01*
X591001Y1096419D01*
Y983602D01*
Y883602D01*
Y783603D01*
Y683603D01*
Y583603D01*
Y483603D01*
Y451703D01*
X681401D01*
Y439003D01*
D01*
Y451703D01*
X771801D01*
Y487616D01*
X874915D01*
X882985Y486011D01*
X993499D01*
Y450098D01*
X1083899D01*
X1174299D01*
Y481998D01*
Y581998D01*
Y681998D01*
Y781997D01*
Y881997D01*
Y981997D01*
Y1086010D01*
X1505697D01*
X1525362Y1089921D01*
X1542033Y1101061D01*
X1747075Y1306103D01*
X1758809Y1301243D01*
Y41191D01*
X41191D01*
Y1758809D01*
X67930D01*
X73190Y1746109D01*
X63095Y1736014D01*
X54184Y1714500D01*
X174416D01*
X165505Y1736014D01*
X155410Y1746109D01*
X160670Y1758809D01*
X696941D01*
X701801Y1747075D01*
D02*
G37*
G36*
X3538063Y1654654D02*
X3549599Y1651864D01*
Y1636781D01*
X3556441Y1611246D01*
X3569659Y1588352D01*
X3588352Y1569659D01*
X3611246Y1556441D01*
X3636781Y1549599D01*
X3663217D01*
X3688752Y1556441D01*
X3711646Y1569659D01*
X3730339Y1588352D01*
X3743557Y1611246D01*
X3746109Y1620768D01*
X3758809Y1619096D01*
Y41191D01*
X3185176D01*
X3181476Y48396D01*
X3180664Y53891D01*
X3307855Y181083D01*
X3329614Y190095D01*
X3346605Y207086D01*
X3355800Y229286D01*
Y253314D01*
X3346605Y275514D01*
X3329614Y292505D01*
X3320449Y296301D01*
X3322975Y309001D01*
X3485400D01*
Y559801D01*
X3254600D01*
Y309001D01*
X3267825D01*
X3270351Y296301D01*
X3261186Y292505D01*
X3244195Y275514D01*
X3235183Y253755D01*
X3216100Y234672D01*
X3203400Y239933D01*
Y253314D01*
X3194205Y275514D01*
X3177214Y292505D01*
X3155700Y301416D01*
Y241300D01*
X3143000D01*
Y228600D01*
X3082884D01*
X3091795Y207086D01*
X3108786Y190095D01*
X3130986Y180900D01*
X3144367D01*
X3149628Y168200D01*
X3121715Y140287D01*
X2402073D01*
X2383765Y147870D01*
X2348035Y183601D01*
X2353295Y196301D01*
X2547200D01*
Y447101D01*
X2342787D01*
Y957328D01*
X2385775Y1000315D01*
X2616401D01*
Y896302D01*
Y796303D01*
Y696298D01*
Y596298D01*
Y564398D01*
X2706801D01*
X2797201D01*
Y600311D01*
X2862567D01*
X2882232Y604222D01*
X2898903Y615362D01*
X2991900Y708359D01*
X3004600Y703098D01*
Y677098D01*
X3094999D01*
X3185399D01*
Y708998D01*
Y809003D01*
Y909003D01*
Y1009002D01*
Y1109002D01*
Y1219802D01*
X3146387D01*
Y1442014D01*
X3342085Y1637713D01*
X3452127D01*
X3473886Y1628700D01*
X3497914D01*
X3520114Y1637895D01*
X3536899Y1654681D01*
X3538063Y1654654D01*
D02*
G37*
G36*
X5758808Y41191D02*
X4202472D01*
X4193986Y53892D01*
X4199302Y66726D01*
Y90754D01*
X4190290Y112513D01*
Y892317D01*
X4196587Y898615D01*
X4616401D01*
Y794603D01*
Y694603D01*
Y662703D01*
X4706801D01*
X4797200D01*
Y698616D01*
X4829868D01*
X4849533Y702527D01*
X4866204Y713667D01*
X4951153Y798615D01*
X5006199D01*
Y762703D01*
X5096599D01*
X5186999D01*
Y794603D01*
Y894602D01*
Y994602D01*
Y1105402D01*
X5006199D01*
Y1100958D01*
X4978314D01*
X4892934Y1186338D01*
X4876263Y1197478D01*
X4856598Y1201389D01*
X4797200D01*
Y1205402D01*
X4758188D01*
Y1307816D01*
X4825255Y1374883D01*
X4847014Y1383895D01*
X4864004Y1400886D01*
X4873200Y1423086D01*
Y1447114D01*
X4864004Y1469314D01*
X4847014Y1486305D01*
X4824814Y1495500D01*
X4800786D01*
X4778586Y1486305D01*
X4761595Y1469314D01*
X4752583Y1447555D01*
X4670464Y1365437D01*
X4659325Y1348766D01*
X4655413Y1329101D01*
Y1205402D01*
X4640667D01*
Y1411275D01*
X4854405Y1625013D01*
X5337827D01*
X5359586Y1616000D01*
X5383614D01*
X5405814Y1625195D01*
X5422804Y1642186D01*
X5432000Y1664386D01*
Y1688414D01*
X5422804Y1710614D01*
X5405814Y1727605D01*
X5383614Y1736800D01*
X5359586D01*
X5337827Y1727787D01*
X4833120D01*
X4813455Y1723876D01*
X4796784Y1712736D01*
X4559900Y1475852D01*
X4547200Y1481113D01*
Y1505399D01*
X4316400D01*
Y1254599D01*
X4537893D01*
Y1054100D01*
X4541804Y1034435D01*
X4552944Y1017764D01*
X4556618Y1014090D01*
X4556531Y1012271D01*
X4552554Y1001390D01*
X4175302D01*
X4155637Y997478D01*
X4138966Y986339D01*
X4102566Y949939D01*
X4091427Y933268D01*
X4087515Y913602D01*
Y112513D01*
X4078502Y90754D01*
Y66726D01*
X4083818Y53892D01*
X4075332Y41191D01*
X4041191D01*
Y1619094D01*
X4053891Y1620766D01*
X4056442Y1611247D01*
X4069660Y1588353D01*
X4088353Y1569660D01*
X4111247Y1556442D01*
X4136782Y1549600D01*
X4163218D01*
X4188753Y1556442D01*
X4211647Y1569660D01*
X4230340Y1588353D01*
X4243558Y1611247D01*
X4250400Y1636782D01*
Y1663218D01*
X4243558Y1688753D01*
X4230340Y1711647D01*
X4211647Y1730340D01*
X4188753Y1743558D01*
X4179234Y1746109D01*
X4180906Y1758809D01*
X5758808D01*
Y41191D01*
D02*
G37*
G36*
X7458809D02*
X6041191D01*
Y1319094D01*
X6053891Y1320766D01*
X6056442Y1311247D01*
X6069660Y1288353D01*
X6088353Y1269660D01*
X6111247Y1256442D01*
X6136782Y1249600D01*
X6163218D01*
X6188753Y1256442D01*
X6211647Y1269660D01*
X6230340Y1288353D01*
X6243558Y1311247D01*
X6250400Y1336782D01*
Y1363218D01*
X6243558Y1388753D01*
X6230340Y1411647D01*
X6211647Y1430340D01*
X6188753Y1443558D01*
X6179234Y1446109D01*
X6180906Y1458809D01*
X7458809D01*
Y41191D01*
D02*
G37*
%LPC*%
G36*
X7168400Y6593616D02*
Y6546200D01*
X7215816D01*
X7206905Y6567714D01*
X7189914Y6584705D01*
X7168400Y6593616D01*
D02*
G37*
G36*
X7143000D02*
X7121486Y6584705D01*
X7104495Y6567714D01*
X7095584Y6546200D01*
X7143000D01*
Y6593616D01*
D02*
G37*
G36*
X7215816Y6520800D02*
X7168400D01*
Y6473384D01*
X7189914Y6482296D01*
X7206905Y6499286D01*
X7215816Y6520800D01*
D02*
G37*
G36*
X7143000D02*
X7095584D01*
X7104495Y6499286D01*
X7121486Y6482296D01*
X7143000Y6473384D01*
Y6520800D01*
D02*
G37*
G36*
X6712300Y6455405D02*
X6481500D01*
Y6204605D01*
X6712300D01*
Y6455405D01*
D02*
G37*
G36*
X7205814Y6162100D02*
X7181786D01*
X7159586Y6152905D01*
X7142595Y6135914D01*
X7133583Y6114155D01*
X6975001Y5955573D01*
X6962301Y5960834D01*
Y6044603D01*
Y6155402D01*
X6781501D01*
Y6153088D01*
X6160773D01*
X6139014Y6162100D01*
X6114986D01*
X6092786Y6152905D01*
X6075795Y6135914D01*
X6066600Y6113714D01*
Y6089686D01*
X6075795Y6067486D01*
X6092786Y6050496D01*
X6114986Y6041300D01*
X6139014D01*
X6160773Y6050313D01*
X6372007D01*
X6375860Y6037613D01*
X6373953Y6036339D01*
X6344664Y6007049D01*
X6333524Y5990378D01*
X6329613Y5970713D01*
Y5407090D01*
X6333524Y5387425D01*
X6344664Y5370754D01*
X6373953Y5341464D01*
X6390624Y5330325D01*
X6410289Y5326413D01*
X6956827D01*
X6978586Y5317400D01*
X7002614D01*
X7024814Y5326596D01*
X7041805Y5343586D01*
X7051000Y5365786D01*
Y5389814D01*
X7041805Y5412014D01*
X7024814Y5429005D01*
X7002614Y5438200D01*
X6978586D01*
X6956827Y5429188D01*
X6432387D01*
Y5948615D01*
X6781501D01*
Y5844603D01*
Y5812703D01*
X6871901D01*
X6962301D01*
Y5848616D01*
X6992103D01*
X7011768Y5852527D01*
X7028439Y5863667D01*
X7206255Y6041483D01*
X7228014Y6050496D01*
X7245005Y6067486D01*
X7254200Y6089686D01*
Y6113714D01*
X7245005Y6135914D01*
X7228014Y6152905D01*
X7205814Y6162100D01*
D02*
G37*
G36*
X6962301Y5787303D02*
X6884601D01*
Y5744603D01*
X6962301D01*
Y5787303D01*
D02*
G37*
G36*
X6859201D02*
X6781501D01*
Y5744603D01*
X6859201D01*
Y5787303D01*
D02*
G37*
G36*
X6712300Y5695401D02*
X6481500D01*
Y5444601D01*
X6712300D01*
Y5695401D01*
D02*
G37*
G36*
X1716012Y8913951D02*
X1687588D01*
X1660133Y8906594D01*
X1635517Y8892382D01*
X1615419Y8872284D01*
X1601207Y8847668D01*
X1593850Y8820213D01*
Y8791789D01*
X1601207Y8764334D01*
X1615419Y8739718D01*
X1635517Y8719620D01*
X1660133Y8705408D01*
X1687588Y8698051D01*
X1716012D01*
X1743467Y8705408D01*
X1768083Y8719620D01*
X1788181Y8739718D01*
X1802393Y8764334D01*
X1809750Y8791789D01*
Y8820213D01*
X1802393Y8847668D01*
X1788181Y8872284D01*
X1768083Y8892382D01*
X1743467Y8906594D01*
X1716012Y8913951D01*
D02*
G37*
G36*
X192012D02*
X163588D01*
X136133Y8906594D01*
X111517Y8892382D01*
X91419Y8872284D01*
X77207Y8847668D01*
X69850Y8820213D01*
Y8791789D01*
X77207Y8764334D01*
X91419Y8739718D01*
X111517Y8719620D01*
X136133Y8705408D01*
X163588Y8698051D01*
X192012D01*
X219467Y8705408D01*
X244083Y8719620D01*
X264181Y8739718D01*
X278393Y8764334D01*
X285750Y8791789D01*
Y8820213D01*
X278393Y8847668D01*
X264181Y8872284D01*
X244083Y8892382D01*
X219467Y8906594D01*
X192012Y8913951D01*
D02*
G37*
G36*
X2616770Y8715600D02*
X2616200D01*
Y8627500D01*
X2704300D01*
Y8628070D01*
X2697430Y8653707D01*
X2684160Y8676692D01*
X2665392Y8695460D01*
X2642407Y8708730D01*
X2616770Y8715600D01*
D02*
G37*
G36*
X2590800D02*
X2590230D01*
X2564593Y8708730D01*
X2541608Y8695460D01*
X2522840Y8676692D01*
X2509570Y8653707D01*
X2502700Y8628070D01*
Y8627500D01*
X2590800D01*
Y8715600D01*
D02*
G37*
G36*
X2704300Y8602100D02*
X2616200D01*
Y8514000D01*
X2616770D01*
X2642407Y8520869D01*
X2665392Y8534140D01*
X2684160Y8552907D01*
X2697430Y8575893D01*
X2704300Y8601529D01*
Y8602100D01*
D02*
G37*
G36*
X2590800D02*
X2502700D01*
Y8601529D01*
X2509570Y8575893D01*
X2522840Y8552907D01*
X2541608Y8534140D01*
X2564593Y8520869D01*
X2590230Y8514000D01*
X2590800D01*
Y8602100D01*
D02*
G37*
G36*
X1715176Y8653601D02*
X1688424D01*
X1662584Y8646677D01*
X1639416Y8633301D01*
X1620500Y8614385D01*
X1607124Y8591217D01*
X1600200Y8565377D01*
Y8538625D01*
X1607124Y8512785D01*
X1620500Y8489617D01*
X1639416Y8470701D01*
X1662584Y8457325D01*
X1688424Y8450401D01*
X1715176D01*
X1741016Y8457325D01*
X1764184Y8470701D01*
X1783100Y8489617D01*
X1796476Y8512785D01*
X1803400Y8538625D01*
Y8565377D01*
X1796476Y8591217D01*
X1783100Y8614385D01*
X1764184Y8633301D01*
X1741016Y8646677D01*
X1715176Y8653601D01*
D02*
G37*
G36*
X191176D02*
X164424D01*
X138584Y8646677D01*
X115416Y8633301D01*
X96500Y8614385D01*
X83124Y8591217D01*
X76200Y8565377D01*
Y8538625D01*
X83124Y8512785D01*
X96500Y8489617D01*
X115416Y8470701D01*
X138584Y8457325D01*
X164424Y8450401D01*
X191176D01*
X217016Y8457325D01*
X240184Y8470701D01*
X259100Y8489617D01*
X272476Y8512785D01*
X279400Y8538625D01*
Y8565377D01*
X272476Y8591217D01*
X259100Y8614385D01*
X240184Y8633301D01*
X217016Y8646677D01*
X191176Y8653601D01*
D02*
G37*
G36*
X1715176Y8399601D02*
X1714500D01*
Y8310701D01*
X1803400D01*
Y8311377D01*
X1796476Y8337217D01*
X1783100Y8360385D01*
X1764184Y8379301D01*
X1741016Y8392677D01*
X1715176Y8399601D01*
D02*
G37*
G36*
X1689100D02*
X1688424D01*
X1662584Y8392677D01*
X1639416Y8379301D01*
X1620500Y8360385D01*
X1607124Y8337217D01*
X1600200Y8311377D01*
Y8310701D01*
X1689100D01*
Y8399601D01*
D02*
G37*
G36*
X2704300Y8465600D02*
X2502700D01*
Y8264000D01*
X2704300D01*
Y8465600D01*
D02*
G37*
G36*
X4021674Y8775400D02*
X3978325D01*
X3935510Y8768618D01*
X3894283Y8755223D01*
X3855659Y8735543D01*
X3820589Y8710063D01*
X3789937Y8679411D01*
X3764457Y8644341D01*
X3744777Y8605717D01*
X3731381Y8564489D01*
X3724600Y8521674D01*
Y8478325D01*
X3731381Y8435510D01*
X3744777Y8394283D01*
X3764457Y8355659D01*
X3789937Y8320589D01*
X3820589Y8289936D01*
X3855659Y8264456D01*
X3894283Y8244777D01*
X3935510Y8231381D01*
X3978325Y8224600D01*
X4021674D01*
X4064489Y8231381D01*
X4105717Y8244777D01*
X4144341Y8264456D01*
X4179411Y8289936D01*
X4210063Y8320589D01*
X4235543Y8355659D01*
X4255223Y8394283D01*
X4268619Y8435510D01*
X4275400Y8478325D01*
Y8521674D01*
X4268619Y8564489D01*
X4255223Y8605717D01*
X4235543Y8644341D01*
X4210063Y8679411D01*
X4179411Y8710063D01*
X4144341Y8735543D01*
X4105717Y8755223D01*
X4064489Y8768618D01*
X4021674Y8775400D01*
D02*
G37*
G36*
X1803400Y8285301D02*
X1714500D01*
Y8196401D01*
X1715176D01*
X1741016Y8203325D01*
X1764184Y8216701D01*
X1783100Y8235617D01*
X1796476Y8258785D01*
X1803400Y8284625D01*
Y8285301D01*
D02*
G37*
G36*
X1689100D02*
X1600200D01*
Y8284625D01*
X1607124Y8258785D01*
X1620500Y8235617D01*
X1639416Y8216701D01*
X1662584Y8203325D01*
X1688424Y8196401D01*
X1689100D01*
Y8285301D01*
D02*
G37*
G36*
X191176Y8399601D02*
X164424D01*
X138584Y8392677D01*
X115416Y8379301D01*
X96500Y8360385D01*
X83124Y8337217D01*
X76200Y8311377D01*
Y8284625D01*
X83124Y8258785D01*
X96500Y8235617D01*
X115416Y8216701D01*
X138584Y8203325D01*
X164424Y8196401D01*
X191176D01*
X217016Y8203325D01*
X240184Y8216701D01*
X259100Y8235617D01*
X272476Y8258785D01*
X279400Y8284625D01*
Y8311377D01*
X272476Y8337217D01*
X259100Y8360385D01*
X240184Y8379301D01*
X217016Y8392677D01*
X191176Y8399601D01*
D02*
G37*
G36*
X4431614Y8210400D02*
X4407586D01*
X4385386Y8201205D01*
X4368395Y8184214D01*
X4359200Y8162014D01*
Y8137986D01*
X4368213Y8116227D01*
Y8089099D01*
X4360094Y8085712D01*
X4355513Y8085206D01*
X4339514Y8101205D01*
X4317314Y8110400D01*
X4293286D01*
X4271086Y8101205D01*
X4254095Y8084214D01*
X4244900Y8062014D01*
Y8037986D01*
X4253913Y8016227D01*
Y7967713D01*
X4241213Y7965186D01*
X4233331Y7984214D01*
X4216341Y8001204D01*
X4194141Y8010400D01*
X4170113D01*
X4147913Y8001204D01*
X4130922Y7984214D01*
X4121727Y7962014D01*
Y7937986D01*
X4130740Y7916227D01*
Y7890684D01*
X4130034Y7890234D01*
X4118040Y7886791D01*
X4103626Y7901204D01*
X4081426Y7910400D01*
X4057398D01*
X4035198Y7901204D01*
X4018208Y7884214D01*
X4009012Y7862014D01*
Y7837986D01*
X4018025Y7816227D01*
Y7003197D01*
X3873088Y6858260D01*
X3861370Y6861400D01*
X3834830D01*
X3809193Y6854530D01*
X3786208Y6841260D01*
X3767440Y6822492D01*
X3754170Y6799507D01*
X3747300Y6773870D01*
Y6747329D01*
X3754170Y6721693D01*
X3767440Y6698707D01*
X3786208Y6679940D01*
X3809193Y6666669D01*
X3834830Y6659800D01*
X3861370D01*
X3887007Y6666669D01*
X3909992Y6679940D01*
X3928760Y6698707D01*
X3942030Y6721693D01*
X3948900Y6747329D01*
Y6773870D01*
X3945760Y6785588D01*
X4105748Y6945576D01*
X4116888Y6962247D01*
X4118040Y6968037D01*
X4130740Y6966786D01*
Y6861912D01*
X3873088Y6604260D01*
X3861370Y6607400D01*
X3834830D01*
X3809193Y6600530D01*
X3786208Y6587260D01*
X3767440Y6568492D01*
X3754170Y6545507D01*
X3747300Y6519870D01*
Y6493329D01*
X3754170Y6467693D01*
X3767440Y6444707D01*
X3786208Y6425940D01*
X3809193Y6412669D01*
X3834830Y6405800D01*
X3861370D01*
X3887007Y6412669D01*
X3909992Y6425940D01*
X3928760Y6444707D01*
X3942030Y6467693D01*
X3948900Y6493329D01*
Y6519870D01*
X3945760Y6531588D01*
X4218463Y6804290D01*
X4229602Y6820961D01*
X4233514Y6840627D01*
Y7916227D01*
X4241213Y7934813D01*
X4253913Y7932287D01*
Y6731085D01*
X3873088Y6350260D01*
X3861370Y6353400D01*
X3834830D01*
X3809193Y6346530D01*
X3786208Y6333260D01*
X3767440Y6314492D01*
X3754170Y6291507D01*
X3747300Y6265870D01*
Y6239329D01*
X3754170Y6213693D01*
X3767440Y6190707D01*
X3786208Y6171940D01*
X3809193Y6158669D01*
X3834830Y6151800D01*
X3861370D01*
X3887007Y6158669D01*
X3909992Y6171940D01*
X3928760Y6190707D01*
X3942030Y6213693D01*
X3948900Y6239329D01*
Y6265870D01*
X3945760Y6277588D01*
X4341636Y6673464D01*
X4352776Y6690135D01*
X4355513Y6703895D01*
X4368213Y6702644D01*
Y6591385D01*
X3873088Y6096260D01*
X3861370Y6099400D01*
X3834830D01*
X3809193Y6092530D01*
X3786208Y6079260D01*
X3767440Y6060492D01*
X3754170Y6037507D01*
X3747300Y6011870D01*
Y5985329D01*
X3754170Y5959693D01*
X3767440Y5936707D01*
X3786208Y5917940D01*
X3809193Y5904669D01*
X3834830Y5897800D01*
X3861370D01*
X3876665Y5901898D01*
X3883239Y5890512D01*
X3849062Y5856335D01*
X3841756Y5845400D01*
X3834830D01*
X3809193Y5838530D01*
X3786208Y5825260D01*
X3767440Y5806492D01*
X3754170Y5783507D01*
X3747300Y5757870D01*
Y5731329D01*
X3754170Y5705693D01*
X3767440Y5682707D01*
X3786208Y5663940D01*
X3809193Y5650669D01*
X3834830Y5643800D01*
X3861370D01*
X3887007Y5650669D01*
X3909992Y5663940D01*
X3928760Y5682707D01*
X3942030Y5705693D01*
X3948900Y5731329D01*
Y5757870D01*
X3942030Y5783507D01*
X3934545Y5796473D01*
X3963482Y5825409D01*
X3975186Y5819153D01*
X3974513Y5815768D01*
Y5689685D01*
X3873088Y5588260D01*
X3861370Y5591400D01*
X3834830D01*
X3809193Y5584530D01*
X3786208Y5571260D01*
X3767440Y5552492D01*
X3754170Y5529507D01*
X3747300Y5503870D01*
Y5477329D01*
X3754170Y5451693D01*
X3767440Y5428707D01*
X3769427Y5426720D01*
X3764567Y5414987D01*
X2739085D01*
X2627136Y5526936D01*
X2610465Y5538076D01*
X2590800Y5541987D01*
X2410825D01*
X2404760Y5552492D01*
X2385992Y5571260D01*
X2363007Y5584530D01*
X2337370Y5591400D01*
X2310830D01*
X2285193Y5584530D01*
X2262208Y5571260D01*
X2243440Y5552492D01*
X2230170Y5529507D01*
X2223300Y5503870D01*
Y5477329D01*
X2230170Y5451693D01*
X2243440Y5428707D01*
X2262208Y5409940D01*
X2285193Y5396669D01*
X2310830Y5389800D01*
X2337370D01*
X2363007Y5396669D01*
X2385992Y5409940D01*
X2404760Y5428707D01*
X2410825Y5439213D01*
X2569515D01*
X2681464Y5327264D01*
X2698135Y5316124D01*
X2717800Y5312213D01*
X2957480D01*
X2960566Y5299893D01*
X2959375Y5299257D01*
X2924810Y5270890D01*
X2896443Y5236325D01*
X2875365Y5196889D01*
X2862384Y5154100D01*
X2858002Y5109600D01*
X2862384Y5065100D01*
X2875365Y5022311D01*
X2896443Y4982875D01*
X2924810Y4948310D01*
X2959375Y4919943D01*
X2998811Y4898864D01*
X3041600Y4885884D01*
X3086100Y4881502D01*
X3130600Y4885884D01*
X3173389Y4898864D01*
X3212825Y4919943D01*
X3247390Y4948310D01*
X3275757Y4982875D01*
X3296835Y5022311D01*
X3309816Y5065100D01*
X3314198Y5109600D01*
X3309816Y5154100D01*
X3296835Y5196889D01*
X3275757Y5236325D01*
X3247390Y5270890D01*
X3212825Y5299257D01*
X3211634Y5299893D01*
X3214720Y5312213D01*
X3764567D01*
X3769427Y5300479D01*
X3767440Y5298492D01*
X3754170Y5275507D01*
X3747300Y5249870D01*
Y5223329D01*
X3754170Y5197693D01*
X3767440Y5174707D01*
X3786208Y5155940D01*
X3809193Y5142669D01*
X3834830Y5135800D01*
X3861370D01*
X3887007Y5142669D01*
X3909992Y5155940D01*
X3928760Y5174707D01*
X3934825Y5185213D01*
X4038013D01*
Y4940173D01*
X4029000Y4918414D01*
Y4894386D01*
X4038195Y4872186D01*
X4055186Y4855195D01*
X4077386Y4846000D01*
X4101414D01*
X4123614Y4855195D01*
X4140605Y4872186D01*
X4149800Y4894386D01*
Y4918414D01*
X4140787Y4940173D01*
Y5207310D01*
X4136876Y5226976D01*
X4125736Y5243647D01*
X4096447Y5272936D01*
X4079776Y5284076D01*
X4060110Y5287987D01*
X3934825D01*
X3928760Y5298492D01*
X3926773Y5300479D01*
X3931633Y5312213D01*
X4000500D01*
X4020165Y5316124D01*
X4036836Y5327264D01*
X4176536Y5466963D01*
X4177713Y5468724D01*
X4190413Y5464872D01*
Y5016373D01*
X4181400Y4994614D01*
Y4970586D01*
X4190595Y4948386D01*
X4207586Y4931395D01*
X4229786Y4922200D01*
X4253814D01*
X4276014Y4931395D01*
X4293005Y4948386D01*
X4302200Y4970586D01*
Y4994614D01*
X4293187Y5016373D01*
Y5830410D01*
X4289276Y5850076D01*
X4278136Y5866747D01*
X4272904Y5871979D01*
X4277764Y5883713D01*
X4342813D01*
Y5092573D01*
X4333800Y5070814D01*
Y5046786D01*
X4342995Y5024586D01*
X4359986Y5007595D01*
X4382186Y4998400D01*
X4406214D01*
X4428414Y5007595D01*
X4445405Y5024586D01*
X4454600Y5046786D01*
Y5070814D01*
X4445587Y5092573D01*
Y5905810D01*
X4441676Y5925476D01*
X4430536Y5942147D01*
X4401247Y5971436D01*
X4384576Y5982576D01*
X4364910Y5986487D01*
X4000500D01*
X3980835Y5982576D01*
X3964164Y5971436D01*
X3956188Y5963461D01*
X3944802Y5970035D01*
X3948900Y5985329D01*
Y6011870D01*
X3945760Y6023588D01*
X4455936Y6533764D01*
X4467076Y6550435D01*
X4470987Y6570100D01*
Y8116227D01*
X4480000Y8137986D01*
Y8162014D01*
X4470805Y8184214D01*
X4453814Y8201205D01*
X4431614Y8210400D01*
D02*
G37*
G36*
X1715176Y8145601D02*
X1688424D01*
X1662584Y8138677D01*
X1639416Y8125301D01*
X1620500Y8106385D01*
X1607124Y8083217D01*
X1600200Y8057377D01*
Y8030625D01*
X1607124Y8004785D01*
X1620500Y7981617D01*
X1639416Y7962701D01*
X1662584Y7949325D01*
X1688424Y7942401D01*
X1715176D01*
X1741016Y7949325D01*
X1764184Y7962701D01*
X1783100Y7981617D01*
X1796476Y8004785D01*
X1803400Y8030625D01*
Y8057377D01*
X1796476Y8083217D01*
X1783100Y8106385D01*
X1764184Y8125301D01*
X1741016Y8138677D01*
X1715176Y8145601D01*
D02*
G37*
G36*
X191176D02*
X164424D01*
X138584Y8138677D01*
X115416Y8125301D01*
X96500Y8106385D01*
X83124Y8083217D01*
X76200Y8057377D01*
Y8030625D01*
X83124Y8004785D01*
X96500Y7981617D01*
X115416Y7962701D01*
X138584Y7949325D01*
X164424Y7942401D01*
X191176D01*
X217016Y7949325D01*
X240184Y7962701D01*
X259100Y7981617D01*
X272476Y8004785D01*
X279400Y8030625D01*
Y8057377D01*
X272476Y8083217D01*
X259100Y8106385D01*
X240184Y8125301D01*
X217016Y8138677D01*
X191176Y8145601D01*
D02*
G37*
G36*
X1715176Y7891601D02*
X1688424D01*
X1662584Y7884677D01*
X1639416Y7871301D01*
X1620500Y7852385D01*
X1607124Y7829217D01*
X1600200Y7803377D01*
Y7776625D01*
X1607124Y7750785D01*
X1620500Y7727617D01*
X1639416Y7708701D01*
X1662584Y7695325D01*
X1688424Y7688401D01*
X1715176D01*
X1741016Y7695325D01*
X1764184Y7708701D01*
X1783100Y7727617D01*
X1796476Y7750785D01*
X1803400Y7776625D01*
Y7803377D01*
X1796476Y7829217D01*
X1783100Y7852385D01*
X1764184Y7871301D01*
X1741016Y7884677D01*
X1715176Y7891601D01*
D02*
G37*
G36*
X191176D02*
X164424D01*
X138584Y7884677D01*
X115416Y7871301D01*
X96500Y7852385D01*
X83124Y7829217D01*
X76200Y7803377D01*
Y7776625D01*
X83124Y7750785D01*
X96500Y7727617D01*
X115416Y7708701D01*
X138584Y7695325D01*
X164424Y7688401D01*
X191176D01*
X217016Y7695325D01*
X240184Y7708701D01*
X259100Y7727617D01*
X272476Y7750785D01*
X279400Y7776625D01*
Y7803377D01*
X272476Y7829217D01*
X259100Y7852385D01*
X240184Y7871301D01*
X217016Y7884677D01*
X191176Y7891601D01*
D02*
G37*
G36*
X3861370Y7877400D02*
X3834830D01*
X3809193Y7870530D01*
X3786208Y7857260D01*
X3767440Y7838492D01*
X3754170Y7815507D01*
X3747300Y7789870D01*
Y7763329D01*
X3754170Y7737693D01*
X3767440Y7714707D01*
X3786208Y7695940D01*
X3809193Y7682669D01*
X3834830Y7675800D01*
X3861370D01*
X3887007Y7682669D01*
X3909992Y7695940D01*
X3928760Y7714707D01*
X3942030Y7737693D01*
X3948900Y7763329D01*
Y7789870D01*
X3942030Y7815507D01*
X3928760Y7838492D01*
X3909992Y7857260D01*
X3887007Y7870530D01*
X3861370Y7877400D01*
D02*
G37*
G36*
X2424900D02*
X2223300D01*
Y7675800D01*
X2424900D01*
Y7877400D01*
D02*
G37*
G36*
X2337370Y7623400D02*
X2336800D01*
Y7535300D01*
X2424900D01*
Y7535870D01*
X2418030Y7561507D01*
X2404760Y7584492D01*
X2385992Y7603260D01*
X2363007Y7616530D01*
X2337370Y7623400D01*
D02*
G37*
G36*
X2311400D02*
X2310830D01*
X2285193Y7616530D01*
X2262208Y7603260D01*
X2243440Y7584492D01*
X2230170Y7561507D01*
X2223300Y7535870D01*
Y7535300D01*
X2311400D01*
Y7623400D01*
D02*
G37*
G36*
X1715176Y7637601D02*
X1688424D01*
X1662584Y7630677D01*
X1639416Y7617301D01*
X1620500Y7598385D01*
X1607124Y7575217D01*
X1600200Y7549377D01*
Y7522625D01*
X1607124Y7496785D01*
X1620500Y7473617D01*
X1639416Y7454701D01*
X1662584Y7441325D01*
X1688424Y7434401D01*
X1715176D01*
X1741016Y7441325D01*
X1764184Y7454701D01*
X1783100Y7473617D01*
X1796476Y7496785D01*
X1803400Y7522625D01*
Y7549377D01*
X1796476Y7575217D01*
X1783100Y7598385D01*
X1764184Y7617301D01*
X1741016Y7630677D01*
X1715176Y7637601D01*
D02*
G37*
G36*
X191176D02*
X164424D01*
X138584Y7630677D01*
X115416Y7617301D01*
X96500Y7598385D01*
X83124Y7575217D01*
X76200Y7549377D01*
Y7522625D01*
X83124Y7496785D01*
X96500Y7473617D01*
X115416Y7454701D01*
X138584Y7441325D01*
X164424Y7434401D01*
X191176D01*
X217016Y7441325D01*
X240184Y7454701D01*
X259100Y7473617D01*
X272476Y7496785D01*
X279400Y7522625D01*
Y7549377D01*
X272476Y7575217D01*
X259100Y7598385D01*
X240184Y7617301D01*
X217016Y7630677D01*
X191176Y7637601D01*
D02*
G37*
G36*
X3861370Y7623400D02*
X3834830D01*
X3809193Y7616530D01*
X3786208Y7603260D01*
X3767440Y7584492D01*
X3754170Y7561507D01*
X3747300Y7535870D01*
Y7509329D01*
X3754170Y7483693D01*
X3767440Y7460707D01*
X3786208Y7441940D01*
X3809193Y7428669D01*
X3834830Y7421800D01*
X3861370D01*
X3887007Y7428669D01*
X3909992Y7441940D01*
X3928760Y7460707D01*
X3942030Y7483693D01*
X3948900Y7509329D01*
Y7535870D01*
X3942030Y7561507D01*
X3928760Y7584492D01*
X3909992Y7603260D01*
X3887007Y7616530D01*
X3861370Y7623400D01*
D02*
G37*
G36*
X2424900Y7509900D02*
X2336800D01*
Y7421800D01*
X2337370D01*
X2363007Y7428669D01*
X2385992Y7441940D01*
X2404760Y7460707D01*
X2418030Y7483693D01*
X2424900Y7509329D01*
Y7509900D01*
D02*
G37*
G36*
X2311400D02*
X2223300D01*
Y7509329D01*
X2230170Y7483693D01*
X2243440Y7460707D01*
X2262208Y7441940D01*
X2285193Y7428669D01*
X2310830Y7421800D01*
X2311400D01*
Y7509900D01*
D02*
G37*
G36*
X3086100Y7877698D02*
X3041600Y7873315D01*
X2998811Y7860335D01*
X2959375Y7839257D01*
X2924810Y7810890D01*
X2896443Y7776325D01*
X2875365Y7736889D01*
X2862384Y7694100D01*
X2858002Y7649600D01*
X2862384Y7605100D01*
X2875365Y7562311D01*
X2896443Y7522875D01*
X2924810Y7488310D01*
X2959375Y7459943D01*
X2998811Y7438864D01*
X3041600Y7425884D01*
X3086100Y7421502D01*
X3130600Y7425884D01*
X3173389Y7438864D01*
X3212825Y7459943D01*
X3247390Y7488310D01*
X3275757Y7522875D01*
X3296835Y7562311D01*
X3309816Y7605100D01*
X3314198Y7649600D01*
X3309816Y7694100D01*
X3296835Y7736889D01*
X3275757Y7776325D01*
X3247390Y7810890D01*
X3212825Y7839257D01*
X3173389Y7860335D01*
X3130600Y7873315D01*
X3086100Y7877698D01*
D02*
G37*
G36*
X1715176Y7383601D02*
X1688424D01*
X1662584Y7376677D01*
X1639416Y7363301D01*
X1620500Y7344385D01*
X1607124Y7321217D01*
X1600200Y7295377D01*
Y7268625D01*
X1607124Y7242785D01*
X1620500Y7219617D01*
X1639416Y7200701D01*
X1662584Y7187325D01*
X1688424Y7180401D01*
X1715176D01*
X1741016Y7187325D01*
X1764184Y7200701D01*
X1783100Y7219617D01*
X1796476Y7242785D01*
X1803400Y7268625D01*
Y7295377D01*
X1796476Y7321217D01*
X1783100Y7344385D01*
X1764184Y7363301D01*
X1741016Y7376677D01*
X1715176Y7383601D01*
D02*
G37*
G36*
X191176D02*
X164424D01*
X138584Y7376677D01*
X115416Y7363301D01*
X96500Y7344385D01*
X83124Y7321217D01*
X76200Y7295377D01*
Y7268625D01*
X83124Y7242785D01*
X96500Y7219617D01*
X115416Y7200701D01*
X138584Y7187325D01*
X164424Y7180401D01*
X191176D01*
X217016Y7187325D01*
X240184Y7200701D01*
X259100Y7219617D01*
X272476Y7242785D01*
X279400Y7268625D01*
Y7295377D01*
X272476Y7321217D01*
X259100Y7344385D01*
X240184Y7363301D01*
X217016Y7376677D01*
X191176Y7383601D01*
D02*
G37*
G36*
X3861370Y7369400D02*
X3834830D01*
X3809193Y7362530D01*
X3786208Y7349260D01*
X3767440Y7330492D01*
X3754170Y7307507D01*
X3747300Y7281870D01*
Y7255329D01*
X3754170Y7229693D01*
X3767440Y7206707D01*
X3786208Y7187940D01*
X3809193Y7174669D01*
X3834830Y7167800D01*
X3861370D01*
X3887007Y7174669D01*
X3909992Y7187940D01*
X3928760Y7206707D01*
X3942030Y7229693D01*
X3948900Y7255329D01*
Y7281870D01*
X3942030Y7307507D01*
X3928760Y7330492D01*
X3909992Y7349260D01*
X3887007Y7362530D01*
X3861370Y7369400D01*
D02*
G37*
G36*
X2337370D02*
X2310830D01*
X2285193Y7362530D01*
X2262208Y7349260D01*
X2243440Y7330492D01*
X2230170Y7307507D01*
X2223300Y7281870D01*
Y7255329D01*
X2230170Y7229693D01*
X2243440Y7206707D01*
X2262208Y7187940D01*
X2285193Y7174669D01*
X2310830Y7167800D01*
X2337370D01*
X2363007Y7174669D01*
X2385992Y7187940D01*
X2404760Y7206707D01*
X2410825Y7217213D01*
X2475913D01*
Y6938987D01*
X2407633D01*
X2402773Y6950720D01*
X2404760Y6952707D01*
X2418030Y6975693D01*
X2424900Y7001329D01*
Y7027870D01*
X2418030Y7053507D01*
X2404760Y7076492D01*
X2385992Y7095260D01*
X2363007Y7108530D01*
X2337370Y7115400D01*
X2310830D01*
X2285193Y7108530D01*
X2262208Y7095260D01*
X2246336Y7079388D01*
X1789449D01*
X1783100Y7090385D01*
X1764184Y7109301D01*
X1741016Y7122677D01*
X1715176Y7129601D01*
X1688424D01*
X1662584Y7122677D01*
X1639416Y7109301D01*
X1620500Y7090385D01*
X1607124Y7067217D01*
X1600200Y7041377D01*
Y7014625D01*
X1607124Y6988785D01*
X1620500Y6965617D01*
X1639416Y6946701D01*
X1662584Y6933325D01*
X1688424Y6926401D01*
X1715176D01*
X1741016Y6933325D01*
X1764184Y6946701D01*
X1783100Y6965617D01*
X1789449Y6976614D01*
X2229923D01*
X2230170Y6975693D01*
X2243440Y6952707D01*
X2245427Y6950720D01*
X2240567Y6938987D01*
X1820390D01*
X1800724Y6935076D01*
X1784053Y6923936D01*
X1731377Y6871260D01*
X1715176Y6875601D01*
X1688424D01*
X1662584Y6868677D01*
X1639416Y6855301D01*
X1620500Y6836385D01*
X1607124Y6813217D01*
X1600200Y6787377D01*
Y6760625D01*
X1607124Y6734785D01*
X1620500Y6711617D01*
X1639416Y6692701D01*
X1662584Y6679325D01*
X1688424Y6672401D01*
X1715176D01*
X1741016Y6679325D01*
X1764184Y6692701D01*
X1783100Y6711617D01*
X1796476Y6734785D01*
X1803400Y6760625D01*
Y6787377D01*
X1801168Y6795706D01*
X1841675Y6836213D01*
X2240567D01*
X2245427Y6824479D01*
X2243440Y6822492D01*
X2230170Y6799507D01*
X2223300Y6773870D01*
Y6747329D01*
X2230170Y6721693D01*
X2243440Y6698707D01*
X2262208Y6679940D01*
X2285193Y6666669D01*
X2310830Y6659800D01*
X2337370D01*
X2363007Y6666669D01*
X2385992Y6679940D01*
X2404760Y6698707D01*
X2418030Y6721693D01*
X2424900Y6747329D01*
Y6773870D01*
X2418030Y6799507D01*
X2404760Y6822492D01*
X2402773Y6824479D01*
X2407633Y6836213D01*
X2498010D01*
X2517676Y6840124D01*
X2534347Y6851264D01*
X2563636Y6880553D01*
X2574776Y6897224D01*
X2578687Y6916889D01*
Y7239310D01*
X2574776Y7258976D01*
X2563636Y7275647D01*
X2534347Y7304936D01*
X2517676Y7316076D01*
X2498010Y7319987D01*
X2410825D01*
X2404760Y7330492D01*
X2385992Y7349260D01*
X2363007Y7362530D01*
X2337370Y7369400D01*
D02*
G37*
G36*
X191176Y7129601D02*
X164424D01*
X138584Y7122677D01*
X115416Y7109301D01*
X96500Y7090385D01*
X83124Y7067217D01*
X76200Y7041377D01*
Y7014625D01*
X83124Y6988785D01*
X96500Y6965617D01*
X115416Y6946701D01*
X138584Y6933325D01*
X164424Y6926401D01*
X191176D01*
X217016Y6933325D01*
X240184Y6946701D01*
X259100Y6965617D01*
X272476Y6988785D01*
X279400Y7014625D01*
Y7041377D01*
X272476Y7067217D01*
X259100Y7090385D01*
X240184Y7109301D01*
X217016Y7122677D01*
X191176Y7129601D01*
D02*
G37*
G36*
X3861370Y7115400D02*
X3834830D01*
X3809193Y7108530D01*
X3786208Y7095260D01*
X3767440Y7076492D01*
X3754170Y7053507D01*
X3747300Y7027870D01*
Y7001329D01*
X3754170Y6975693D01*
X3767440Y6952707D01*
X3786208Y6933940D01*
X3809193Y6920669D01*
X3834830Y6913800D01*
X3861370D01*
X3887007Y6920669D01*
X3909992Y6933940D01*
X3928760Y6952707D01*
X3942030Y6975693D01*
X3948900Y7001329D01*
Y7027870D01*
X3942030Y7053507D01*
X3928760Y7076492D01*
X3909992Y7095260D01*
X3887007Y7108530D01*
X3861370Y7115400D01*
D02*
G37*
G36*
X4912700Y6929833D02*
Y6862700D01*
X4979833D01*
X4974921Y6881033D01*
X4964336Y6899367D01*
X4949367Y6914336D01*
X4931033Y6924921D01*
X4912700Y6929833D01*
D02*
G37*
G36*
X4887300D02*
X4868967Y6924921D01*
X4850633Y6914336D01*
X4835664Y6899367D01*
X4825080Y6881033D01*
X4820167Y6862700D01*
X4887300D01*
Y6929833D01*
D02*
G37*
G36*
X4979833Y6837300D02*
X4912700D01*
Y6770167D01*
X4931033Y6775079D01*
X4949367Y6785664D01*
X4964336Y6800633D01*
X4974921Y6818967D01*
X4979833Y6837300D01*
D02*
G37*
G36*
X4887300D02*
X4820167D01*
X4825080Y6818967D01*
X4835664Y6800633D01*
X4850633Y6785664D01*
X4868967Y6775079D01*
X4887300Y6770167D01*
Y6837300D01*
D02*
G37*
G36*
X191176Y6875601D02*
X164424D01*
X138584Y6868677D01*
X115416Y6855301D01*
X96500Y6836385D01*
X83124Y6813217D01*
X76200Y6787377D01*
Y6760625D01*
X83124Y6734785D01*
X96500Y6711617D01*
X115416Y6692701D01*
X138584Y6679325D01*
X164424Y6672401D01*
X191176D01*
X217016Y6679325D01*
X240184Y6692701D01*
X259100Y6711617D01*
X272476Y6734785D01*
X279400Y6760625D01*
Y6787377D01*
X272476Y6813217D01*
X259100Y6836385D01*
X240184Y6855301D01*
X217016Y6868677D01*
X191176Y6875601D01*
D02*
G37*
G36*
X2337370Y6607400D02*
X2336800D01*
Y6519300D01*
X2424900D01*
Y6519870D01*
X2418030Y6545507D01*
X2404760Y6568492D01*
X2385992Y6587260D01*
X2363007Y6600530D01*
X2337370Y6607400D01*
D02*
G37*
G36*
X2311400D02*
X2310830D01*
X2285193Y6600530D01*
X2262208Y6587260D01*
X2243440Y6568492D01*
X2230170Y6545507D01*
X2223300Y6519870D01*
Y6519300D01*
X2311400D01*
Y6607400D01*
D02*
G37*
G36*
X1715176Y6621601D02*
X1688424D01*
X1662584Y6614677D01*
X1639416Y6601301D01*
X1620500Y6582385D01*
X1607124Y6559217D01*
X1600200Y6533377D01*
Y6506625D01*
X1607124Y6480785D01*
X1620500Y6457617D01*
X1639416Y6438701D01*
X1662584Y6425325D01*
X1688424Y6418401D01*
X1715176D01*
X1741016Y6425325D01*
X1764184Y6438701D01*
X1783100Y6457617D01*
X1796476Y6480785D01*
X1803400Y6506625D01*
Y6533377D01*
X1796476Y6559217D01*
X1783100Y6582385D01*
X1764184Y6601301D01*
X1741016Y6614677D01*
X1715176Y6621601D01*
D02*
G37*
G36*
X191176D02*
X164424D01*
X138584Y6614677D01*
X115416Y6601301D01*
X96500Y6582385D01*
X83124Y6559217D01*
X76200Y6533377D01*
Y6506625D01*
X83124Y6480785D01*
X96500Y6457617D01*
X115416Y6438701D01*
X138584Y6425325D01*
X164424Y6418401D01*
X191176D01*
X217016Y6425325D01*
X240184Y6438701D01*
X259100Y6457617D01*
X272476Y6480785D01*
X279400Y6506625D01*
Y6533377D01*
X272476Y6559217D01*
X259100Y6582385D01*
X240184Y6601301D01*
X217016Y6614677D01*
X191176Y6621601D01*
D02*
G37*
G36*
X2424900Y6493900D02*
X2336800D01*
Y6405800D01*
X2337370D01*
X2363007Y6412669D01*
X2385992Y6425940D01*
X2404760Y6444707D01*
X2418030Y6467693D01*
X2424900Y6493329D01*
Y6493900D01*
D02*
G37*
G36*
X2311400D02*
X2223300D01*
Y6493329D01*
X2230170Y6467693D01*
X2243440Y6444707D01*
X2262208Y6425940D01*
X2285193Y6412669D01*
X2310830Y6405800D01*
X2311400D01*
Y6493900D01*
D02*
G37*
G36*
X2337370Y6353400D02*
X2336800D01*
Y6265300D01*
X2424900D01*
Y6265870D01*
X2418030Y6291507D01*
X2404760Y6314492D01*
X2385992Y6333260D01*
X2363007Y6346530D01*
X2337370Y6353400D01*
D02*
G37*
G36*
X2311400D02*
X2310830D01*
X2285193Y6346530D01*
X2262208Y6333260D01*
X2243440Y6314492D01*
X2230170Y6291507D01*
X2223300Y6265870D01*
Y6265300D01*
X2311400D01*
Y6353400D01*
D02*
G37*
G36*
X1715176Y6367601D02*
X1688424D01*
X1662584Y6360677D01*
X1639416Y6347301D01*
X1620500Y6328385D01*
X1607124Y6305217D01*
X1600200Y6279377D01*
Y6252625D01*
X1607124Y6226785D01*
X1620500Y6203617D01*
X1639416Y6184701D01*
X1662584Y6171325D01*
X1688424Y6164401D01*
X1715176D01*
X1741016Y6171325D01*
X1764184Y6184701D01*
X1783100Y6203617D01*
X1796476Y6226785D01*
X1803400Y6252625D01*
Y6279377D01*
X1796476Y6305217D01*
X1783100Y6328385D01*
X1764184Y6347301D01*
X1741016Y6360677D01*
X1715176Y6367601D01*
D02*
G37*
G36*
X191176D02*
X164424D01*
X138584Y6360677D01*
X115416Y6347301D01*
X96500Y6328385D01*
X83124Y6305217D01*
X76200Y6279377D01*
Y6252625D01*
X83124Y6226785D01*
X96500Y6203617D01*
X115416Y6184701D01*
X138584Y6171325D01*
X164424Y6164401D01*
X191176D01*
X217016Y6171325D01*
X240184Y6184701D01*
X259100Y6203617D01*
X272476Y6226785D01*
X279400Y6252625D01*
Y6279377D01*
X272476Y6305217D01*
X259100Y6328385D01*
X240184Y6347301D01*
X217016Y6360677D01*
X191176Y6367601D01*
D02*
G37*
G36*
X2424900Y6239900D02*
X2336800D01*
Y6151800D01*
X2337370D01*
X2363007Y6158669D01*
X2385992Y6171940D01*
X2404760Y6190707D01*
X2418030Y6213693D01*
X2424900Y6239329D01*
Y6239900D01*
D02*
G37*
G36*
X2311400D02*
X2223300D01*
Y6239329D01*
X2230170Y6213693D01*
X2243440Y6190707D01*
X2262208Y6171940D01*
X2285193Y6158669D01*
X2310830Y6151800D01*
X2311400D01*
Y6239900D01*
D02*
G37*
G36*
X2337370Y6099400D02*
X2336800D01*
Y6011300D01*
X2424900D01*
Y6011870D01*
X2418030Y6037507D01*
X2404760Y6060492D01*
X2385992Y6079260D01*
X2363007Y6092530D01*
X2337370Y6099400D01*
D02*
G37*
G36*
X2311400D02*
X2310830D01*
X2285193Y6092530D01*
X2262208Y6079260D01*
X2243440Y6060492D01*
X2230170Y6037507D01*
X2223300Y6011870D01*
Y6011300D01*
X2311400D01*
Y6099400D01*
D02*
G37*
G36*
X1715176Y6113601D02*
X1688424D01*
X1662584Y6106677D01*
X1639416Y6093301D01*
X1620500Y6074385D01*
X1607124Y6051217D01*
X1600200Y6025377D01*
Y5998625D01*
X1607124Y5972785D01*
X1620500Y5949617D01*
X1639416Y5930701D01*
X1662584Y5917325D01*
X1688424Y5910401D01*
X1715176D01*
X1741016Y5917325D01*
X1764184Y5930701D01*
X1783100Y5949617D01*
X1796476Y5972785D01*
X1803400Y5998625D01*
Y6025377D01*
X1796476Y6051217D01*
X1783100Y6074385D01*
X1764184Y6093301D01*
X1741016Y6106677D01*
X1715176Y6113601D01*
D02*
G37*
G36*
X191176D02*
X164424D01*
X138584Y6106677D01*
X115416Y6093301D01*
X96500Y6074385D01*
X83124Y6051217D01*
X76200Y6025377D01*
Y5998625D01*
X83124Y5972785D01*
X96500Y5949617D01*
X115416Y5930701D01*
X138584Y5917325D01*
X164424Y5910401D01*
X191176D01*
X217016Y5917325D01*
X240184Y5930701D01*
X259100Y5949617D01*
X272476Y5972785D01*
X279400Y5998625D01*
Y6025377D01*
X272476Y6051217D01*
X259100Y6074385D01*
X240184Y6093301D01*
X217016Y6106677D01*
X191176Y6113601D01*
D02*
G37*
G36*
X2424900Y5985900D02*
X2336800D01*
Y5897800D01*
X2337370D01*
X2363007Y5904669D01*
X2385992Y5917940D01*
X2404760Y5936707D01*
X2418030Y5959693D01*
X2424900Y5985329D01*
Y5985900D01*
D02*
G37*
G36*
X2311400D02*
X2223300D01*
Y5985329D01*
X2230170Y5959693D01*
X2243440Y5936707D01*
X2262208Y5917940D01*
X2285193Y5904669D01*
X2310830Y5897800D01*
X2311400D01*
Y5985900D01*
D02*
G37*
G36*
X1715176Y5859601D02*
X1688424D01*
X1662584Y5852677D01*
X1639416Y5839301D01*
X1620500Y5820385D01*
X1607124Y5797217D01*
X1600200Y5771377D01*
Y5744625D01*
X1607124Y5718785D01*
X1620500Y5695617D01*
X1639416Y5676701D01*
X1662584Y5663325D01*
X1688424Y5656401D01*
X1715176D01*
X1741016Y5663325D01*
X1764184Y5676701D01*
X1783100Y5695617D01*
X1796476Y5718785D01*
X1803400Y5744625D01*
Y5771377D01*
X1796476Y5797217D01*
X1783100Y5820385D01*
X1764184Y5839301D01*
X1741016Y5852677D01*
X1715176Y5859601D01*
D02*
G37*
G36*
X191176D02*
X164424D01*
X138584Y5852677D01*
X115416Y5839301D01*
X96500Y5820385D01*
X83124Y5797217D01*
X76200Y5771377D01*
Y5744625D01*
X83124Y5718785D01*
X96500Y5695617D01*
X115416Y5676701D01*
X138584Y5663325D01*
X164424Y5656401D01*
X191176D01*
X217016Y5663325D01*
X240184Y5676701D01*
X259100Y5695617D01*
X272476Y5718785D01*
X279400Y5744625D01*
Y5771377D01*
X272476Y5797217D01*
X259100Y5820385D01*
X240184Y5839301D01*
X217016Y5852677D01*
X191176Y5859601D01*
D02*
G37*
G36*
X2337370Y5845400D02*
X2310830D01*
X2285193Y5838530D01*
X2262208Y5825260D01*
X2243440Y5806492D01*
X2230170Y5783507D01*
X2223300Y5757870D01*
Y5731329D01*
X2230170Y5705693D01*
X2243440Y5682707D01*
X2262208Y5663940D01*
X2285193Y5650669D01*
X2310830Y5643800D01*
X2337370D01*
X2363007Y5650669D01*
X2385992Y5663940D01*
X2404760Y5682707D01*
X2418030Y5705693D01*
X2424900Y5731329D01*
Y5757870D01*
X2418030Y5783507D01*
X2404760Y5806492D01*
X2385992Y5825260D01*
X2363007Y5838530D01*
X2337370Y5845400D01*
D02*
G37*
G36*
X1715176Y5605601D02*
X1688424D01*
X1662584Y5598677D01*
X1639416Y5585301D01*
X1620500Y5566385D01*
X1607124Y5543217D01*
X1600200Y5517377D01*
Y5490625D01*
X1607124Y5464785D01*
X1620500Y5441617D01*
X1639416Y5422701D01*
X1662584Y5409325D01*
X1688424Y5402401D01*
X1715176D01*
X1741016Y5409325D01*
X1764184Y5422701D01*
X1783100Y5441617D01*
X1796476Y5464785D01*
X1803400Y5490625D01*
Y5517377D01*
X1796476Y5543217D01*
X1783100Y5566385D01*
X1764184Y5585301D01*
X1741016Y5598677D01*
X1715176Y5605601D01*
D02*
G37*
G36*
X191176D02*
X164424D01*
X138584Y5598677D01*
X115416Y5585301D01*
X96500Y5566385D01*
X83124Y5543217D01*
X76200Y5517377D01*
Y5490625D01*
X83124Y5464785D01*
X96500Y5441617D01*
X115416Y5422701D01*
X138584Y5409325D01*
X164424Y5402401D01*
X191176D01*
X217016Y5409325D01*
X240184Y5422701D01*
X259100Y5441617D01*
X272476Y5464785D01*
X279400Y5490625D01*
Y5517377D01*
X272476Y5543217D01*
X259100Y5566385D01*
X240184Y5585301D01*
X217016Y5598677D01*
X191176Y5605601D01*
D02*
G37*
G36*
X2017185Y6637800D02*
X1996015D01*
X1975567Y6632320D01*
X1957233Y6621736D01*
X1942264Y6606767D01*
X1931679Y6588433D01*
X1926200Y6567985D01*
Y6546815D01*
X1931679Y6526367D01*
X1942264Y6508033D01*
X1945017Y6505281D01*
Y5580310D01*
X1716069Y5351362D01*
X1715176Y5351601D01*
X1688424D01*
X1662584Y5344677D01*
X1639416Y5331301D01*
X1620500Y5312385D01*
X1607124Y5289217D01*
X1600200Y5263377D01*
Y5236625D01*
X1607124Y5210785D01*
X1620500Y5187617D01*
X1639416Y5168701D01*
X1662584Y5155325D01*
X1688424Y5148401D01*
X1715176D01*
X1741016Y5155325D01*
X1764184Y5168701D01*
X1783100Y5187617D01*
X1796476Y5210785D01*
X1803400Y5236625D01*
Y5263377D01*
X1803161Y5264270D01*
X2050146Y5511255D01*
X2063495Y5531234D01*
X2068183Y5554801D01*
Y6505281D01*
X2070936Y6508033D01*
X2081521Y6526367D01*
X2087000Y6546815D01*
Y6567985D01*
X2081521Y6588433D01*
X2070936Y6606767D01*
X2055967Y6621736D01*
X2037633Y6632320D01*
X2017185Y6637800D01*
D02*
G37*
G36*
X191176Y5351601D02*
X164424D01*
X138584Y5344677D01*
X115416Y5331301D01*
X96500Y5312385D01*
X83124Y5289217D01*
X76200Y5263377D01*
Y5236625D01*
X83124Y5210785D01*
X96500Y5187617D01*
X115416Y5168701D01*
X138584Y5155325D01*
X164424Y5148401D01*
X191176D01*
X217016Y5155325D01*
X240184Y5168701D01*
X259100Y5187617D01*
X272476Y5210785D01*
X279400Y5236625D01*
Y5263377D01*
X272476Y5289217D01*
X259100Y5312385D01*
X240184Y5331301D01*
X217016Y5344677D01*
X191176Y5351601D01*
D02*
G37*
G36*
X2337370Y5337400D02*
X2310830D01*
X2285193Y5330530D01*
X2262208Y5317260D01*
X2243440Y5298492D01*
X2230170Y5275507D01*
X2223300Y5249870D01*
Y5223329D01*
X2230170Y5197693D01*
X2243440Y5174707D01*
X2262208Y5155940D01*
X2285193Y5142669D01*
X2310830Y5135800D01*
X2337370D01*
X2363007Y5142669D01*
X2385992Y5155940D01*
X2404760Y5174707D01*
X2418030Y5197693D01*
X2424900Y5223329D01*
Y5249870D01*
X2418030Y5275507D01*
X2404760Y5298492D01*
X2385992Y5317260D01*
X2363007Y5330530D01*
X2337370Y5337400D01*
D02*
G37*
G36*
X1803400Y5097601D02*
X1600200D01*
Y4894401D01*
X1803400D01*
Y5097601D01*
D02*
G37*
G36*
X191176D02*
X164424D01*
X138584Y5090677D01*
X115416Y5077301D01*
X96500Y5058385D01*
X83124Y5035217D01*
X76200Y5009377D01*
Y4982625D01*
X83124Y4956785D01*
X96500Y4933617D01*
X115416Y4914701D01*
X138584Y4901325D01*
X164424Y4894401D01*
X191176D01*
X217016Y4901325D01*
X240184Y4914701D01*
X259100Y4933617D01*
X272476Y4956785D01*
X279400Y4982625D01*
Y5009377D01*
X272476Y5035217D01*
X259100Y5058385D01*
X240184Y5077301D01*
X217016Y5090677D01*
X191176Y5097601D01*
D02*
G37*
G36*
X3861370Y5083400D02*
X3834830D01*
X3809193Y5076530D01*
X3786208Y5063260D01*
X3767440Y5044492D01*
X3754170Y5021507D01*
X3747300Y4995870D01*
Y4969329D01*
X3754170Y4943693D01*
X3767440Y4920707D01*
X3786208Y4901940D01*
X3809193Y4888669D01*
X3834830Y4881800D01*
X3861370D01*
X3887007Y4888669D01*
X3909992Y4901940D01*
X3928760Y4920707D01*
X3942030Y4943693D01*
X3948900Y4969329D01*
Y4995870D01*
X3942030Y5021507D01*
X3928760Y5044492D01*
X3909992Y5063260D01*
X3887007Y5076530D01*
X3861370Y5083400D01*
D02*
G37*
G36*
X2337370D02*
X2310830D01*
X2285193Y5076530D01*
X2262208Y5063260D01*
X2243440Y5044492D01*
X2230170Y5021507D01*
X2223300Y4995870D01*
Y4969329D01*
X2230170Y4943693D01*
X2243440Y4920707D01*
X2262208Y4901940D01*
X2285193Y4888669D01*
X2310830Y4881800D01*
X2337370D01*
X2363007Y4888669D01*
X2385992Y4901940D01*
X2404760Y4920707D01*
X2418030Y4943693D01*
X2424900Y4969329D01*
Y4995870D01*
X2418030Y5021507D01*
X2404760Y5044492D01*
X2385992Y5063260D01*
X2363007Y5076530D01*
X2337370Y5083400D01*
D02*
G37*
G36*
X4912700Y4829833D02*
Y4762700D01*
X4979833D01*
X4974921Y4781033D01*
X4964336Y4799367D01*
X4949367Y4814336D01*
X4931033Y4824920D01*
X4912700Y4829833D01*
D02*
G37*
G36*
X4887300D02*
X4868967Y4824920D01*
X4850633Y4814336D01*
X4835664Y4799367D01*
X4825080Y4781033D01*
X4820167Y4762700D01*
X4887300D01*
Y4829833D01*
D02*
G37*
G36*
X4979833Y4737300D02*
X4912700D01*
Y4670167D01*
X4931033Y4675079D01*
X4949367Y4685664D01*
X4964336Y4700633D01*
X4974921Y4718967D01*
X4979833Y4737300D01*
D02*
G37*
G36*
X4887300D02*
X4820167D01*
X4825080Y4718967D01*
X4835664Y4700633D01*
X4850633Y4685664D01*
X4868967Y4675079D01*
X4887300Y4670167D01*
Y4737300D01*
D02*
G37*
G36*
X1716012Y4849951D02*
X1687588D01*
X1660133Y4842594D01*
X1635517Y4828382D01*
X1615419Y4808284D01*
X1601207Y4783668D01*
X1593850Y4756213D01*
Y4727789D01*
X1601207Y4700334D01*
X1615419Y4675718D01*
X1635517Y4655620D01*
X1660133Y4641408D01*
X1687588Y4634051D01*
X1716012D01*
X1743467Y4641408D01*
X1768083Y4655620D01*
X1788181Y4675718D01*
X1802393Y4700334D01*
X1809750Y4727789D01*
Y4756213D01*
X1802393Y4783668D01*
X1788181Y4808284D01*
X1768083Y4828382D01*
X1743467Y4842594D01*
X1716012Y4849951D01*
D02*
G37*
G36*
X192012D02*
X163588D01*
X136133Y4842594D01*
X111517Y4828382D01*
X91419Y4808284D01*
X77207Y4783668D01*
X69850Y4756213D01*
Y4727789D01*
X77207Y4700334D01*
X91419Y4675718D01*
X111517Y4655620D01*
X136133Y4641408D01*
X163588Y4634051D01*
X192012D01*
X219467Y4641408D01*
X244083Y4655620D01*
X264181Y4675718D01*
X278393Y4700334D01*
X285750Y4727789D01*
Y4756213D01*
X278393Y4783668D01*
X264181Y4808284D01*
X244083Y4828382D01*
X219467Y4842594D01*
X192012Y4849951D01*
D02*
G37*
G36*
X174416Y3989100D02*
X127000D01*
Y3941684D01*
X148514Y3950595D01*
X165505Y3967586D01*
X174416Y3989100D01*
D02*
G37*
G36*
X101600D02*
X54184D01*
X63095Y3967586D01*
X80086Y3950595D01*
X101600Y3941684D01*
Y3989100D01*
D02*
G37*
G36*
X771801Y2726303D02*
X694101D01*
Y2683603D01*
X771801D01*
Y2726303D01*
D02*
G37*
G36*
X668701D02*
X591001D01*
Y2683603D01*
X668701D01*
Y2726303D01*
D02*
G37*
G36*
X1174299Y2724698D02*
X1096599D01*
Y2681998D01*
X1174299D01*
Y2724698D01*
D02*
G37*
G36*
X1071199D02*
X993499D01*
Y2681998D01*
X1071199D01*
Y2724698D01*
D02*
G37*
G36*
X521800Y2634401D02*
X291000D01*
Y2383601D01*
X521800D01*
Y2634401D01*
D02*
G37*
G36*
X1474300Y2632801D02*
X1243500D01*
Y2382001D01*
X1474300D01*
Y2632801D01*
D02*
G37*
G36*
X3485400Y3819799D02*
X3254600D01*
Y3568999D01*
X3485400D01*
Y3819799D01*
D02*
G37*
G36*
X3185399Y2951698D02*
X3107699D01*
Y2908998D01*
X3185399D01*
Y2951698D01*
D02*
G37*
G36*
X3082299D02*
X3004600D01*
Y2908998D01*
X3082299D01*
Y2951698D01*
D02*
G37*
G36*
X2797201Y2838998D02*
X2719501D01*
Y2796298D01*
X2797201D01*
Y2838998D01*
D02*
G37*
G36*
X2694101D02*
X2616401D01*
Y2796298D01*
X2694101D01*
Y2838998D01*
D02*
G37*
G36*
X3130300Y2601416D02*
X3108786Y2592505D01*
X3091795Y2575514D01*
X3082884Y2554000D01*
X3130300D01*
Y2601416D01*
D02*
G37*
G36*
X4927100Y3909516D02*
Y3862100D01*
X4974516D01*
X4965604Y3883614D01*
X4948614Y3900605D01*
X4927100Y3909516D01*
D02*
G37*
G36*
X4901700D02*
X4880186Y3900605D01*
X4863195Y3883614D01*
X4854284Y3862100D01*
X4901700D01*
Y3909516D01*
D02*
G37*
G36*
X4974516Y3836700D02*
X4927100D01*
Y3789284D01*
X4948614Y3798195D01*
X4965604Y3815186D01*
X4974516Y3836700D01*
D02*
G37*
G36*
X4901700D02*
X4854284D01*
X4863195Y3815186D01*
X4880186Y3798195D01*
X4901700Y3789284D01*
Y3836700D01*
D02*
G37*
G36*
X5487000Y3705399D02*
X5256200D01*
Y3454599D01*
X5487000D01*
Y3705399D01*
D02*
G37*
G36*
X5186999Y3037303D02*
X5109299D01*
Y2994603D01*
X5186999D01*
Y3037303D01*
D02*
G37*
G36*
X5083899D02*
X5006199D01*
Y2994603D01*
X5083899D01*
Y3037303D01*
D02*
G37*
G36*
X4797200Y2937303D02*
X4719501D01*
Y2894603D01*
X4797200D01*
Y2937303D01*
D02*
G37*
G36*
X4694101D02*
X4616401D01*
Y2894603D01*
X4694101D01*
Y2937303D01*
D02*
G37*
G36*
X5487000Y2945401D02*
X5256200D01*
Y2694601D01*
X5487000D01*
Y2945401D01*
D02*
G37*
G36*
X4547200Y2845401D02*
X4316400D01*
Y2594601D01*
X4547200D01*
Y2845401D01*
D02*
G37*
G36*
X4723614Y2563600D02*
X4699586D01*
X4677827Y2554587D01*
X4478273D01*
X4456514Y2563600D01*
X4432486D01*
X4410286Y2554405D01*
X4393295Y2537414D01*
X4384100Y2515214D01*
Y2491186D01*
X4393295Y2468986D01*
X4410286Y2451995D01*
X4432486Y2442800D01*
X4456514D01*
X4478273Y2451813D01*
X4677827D01*
X4699586Y2442800D01*
X4723614D01*
X4745814Y2451995D01*
X4762805Y2468986D01*
X4772000Y2491186D01*
Y2515214D01*
X4762805Y2537414D01*
X4745814Y2554405D01*
X4723614Y2563600D01*
D02*
G37*
G36*
X7168400Y3993616D02*
Y3946200D01*
X7215816D01*
X7206905Y3967714D01*
X7189914Y3984705D01*
X7168400Y3993616D01*
D02*
G37*
G36*
X7143000D02*
X7121486Y3984705D01*
X7104495Y3967714D01*
X7095584Y3946200D01*
X7143000D01*
Y3993616D01*
D02*
G37*
G36*
X7215816Y3920800D02*
X7168400D01*
Y3873384D01*
X7189914Y3882296D01*
X7206905Y3899286D01*
X7215816Y3920800D01*
D02*
G37*
G36*
X7143000D02*
X7095584D01*
X7104495Y3899286D01*
X7121486Y3882296D01*
X7143000Y3873384D01*
Y3920800D01*
D02*
G37*
G36*
X6712300Y3855405D02*
X6481500D01*
Y3604604D01*
X6712300D01*
Y3855405D01*
D02*
G37*
G36*
X7205814Y3562100D02*
X7181786D01*
X7159586Y3552905D01*
X7142595Y3535914D01*
X7133583Y3514155D01*
X6975001Y3355573D01*
X6962301Y3360834D01*
Y3444602D01*
Y3555402D01*
X6781501D01*
Y3553087D01*
X6160773D01*
X6139014Y3562100D01*
X6114986D01*
X6092786Y3552905D01*
X6075795Y3535914D01*
X6066600Y3513714D01*
Y3489686D01*
X6075795Y3467486D01*
X6092786Y3450496D01*
X6114986Y3441300D01*
X6139014D01*
X6160773Y3450313D01*
X6372007D01*
X6375860Y3437613D01*
X6373953Y3436339D01*
X6344664Y3407049D01*
X6333524Y3390378D01*
X6329613Y3370713D01*
Y2807090D01*
X6333524Y2787424D01*
X6344664Y2770753D01*
X6373953Y2741464D01*
X6390624Y2730324D01*
X6410289Y2726413D01*
X6956827D01*
X6978586Y2717400D01*
X7002614D01*
X7024814Y2726596D01*
X7041805Y2743586D01*
X7051000Y2765786D01*
Y2789814D01*
X7041805Y2812014D01*
X7024814Y2829005D01*
X7002614Y2838200D01*
X6978586D01*
X6956827Y2829187D01*
X6432387D01*
Y3348615D01*
X6781501D01*
Y3244603D01*
Y3212703D01*
X6871901D01*
X6962301D01*
Y3248616D01*
X6992103D01*
X7011768Y3252527D01*
X7028439Y3263667D01*
X7206255Y3441483D01*
X7228014Y3450496D01*
X7245005Y3467486D01*
X7254200Y3489686D01*
Y3513714D01*
X7245005Y3535914D01*
X7228014Y3552905D01*
X7205814Y3562100D01*
D02*
G37*
G36*
X6962301Y3187303D02*
X6884601D01*
Y3144603D01*
X6962301D01*
Y3187303D01*
D02*
G37*
G36*
X6859201D02*
X6781501D01*
Y3144603D01*
X6859201D01*
Y3187303D01*
D02*
G37*
G36*
X6712300Y3095401D02*
X6481500D01*
Y2844601D01*
X6712300D01*
Y3095401D01*
D02*
G37*
G36*
X174416Y1689100D02*
X127000D01*
Y1641684D01*
X148514Y1650595D01*
X165505Y1667586D01*
X174416Y1689100D01*
D02*
G37*
G36*
X101600D02*
X54184D01*
X63095Y1667586D01*
X80086Y1650595D01*
X101600Y1641684D01*
Y1689100D01*
D02*
G37*
G36*
X771801Y426303D02*
X694101D01*
Y383603D01*
X771801D01*
Y426303D01*
D02*
G37*
G36*
X668701D02*
X591001D01*
Y383603D01*
X668701D01*
Y426303D01*
D02*
G37*
G36*
X1174299Y424698D02*
X1096599D01*
Y381998D01*
X1174299D01*
Y424698D01*
D02*
G37*
G36*
X1071199D02*
X993499D01*
Y381998D01*
X1071199D01*
Y424698D01*
D02*
G37*
G36*
X521800Y334401D02*
X291000D01*
Y83601D01*
X521800D01*
Y334401D01*
D02*
G37*
G36*
X1474300Y332801D02*
X1243500D01*
Y82001D01*
X1474300D01*
Y332801D01*
D02*
G37*
G36*
X3485400Y1519799D02*
X3254600D01*
Y1268999D01*
X3485400D01*
Y1519799D01*
D02*
G37*
G36*
X3185399Y651698D02*
X3107699D01*
Y608998D01*
X3185399D01*
Y651698D01*
D02*
G37*
G36*
X3082299D02*
X3004600D01*
Y608998D01*
X3082299D01*
Y651698D01*
D02*
G37*
G36*
X2797201Y538998D02*
X2719501D01*
Y496298D01*
X2797201D01*
Y538998D01*
D02*
G37*
G36*
X2694101D02*
X2616401D01*
Y496298D01*
X2694101D01*
Y538998D01*
D02*
G37*
G36*
X3130300Y301416D02*
X3108786Y292505D01*
X3091795Y275514D01*
X3082884Y254000D01*
X3130300D01*
Y301416D01*
D02*
G37*
G36*
X4927100Y1609516D02*
Y1562100D01*
X4974516D01*
X4965604Y1583614D01*
X4948614Y1600605D01*
X4927100Y1609516D01*
D02*
G37*
G36*
X4901700D02*
X4880186Y1600605D01*
X4863195Y1583614D01*
X4854284Y1562100D01*
X4901700D01*
Y1609516D01*
D02*
G37*
G36*
X4974516Y1536700D02*
X4927100D01*
Y1489284D01*
X4948614Y1498195D01*
X4965604Y1515186D01*
X4974516Y1536700D01*
D02*
G37*
G36*
X4901700D02*
X4854284D01*
X4863195Y1515186D01*
X4880186Y1498195D01*
X4901700Y1489284D01*
Y1536700D01*
D02*
G37*
G36*
X5487000Y1405399D02*
X5256200D01*
Y1154599D01*
X5487000D01*
Y1405399D01*
D02*
G37*
G36*
X5186999Y737303D02*
X5109299D01*
Y694603D01*
X5186999D01*
Y737303D01*
D02*
G37*
G36*
X5083899D02*
X5006199D01*
Y694603D01*
X5083899D01*
Y737303D01*
D02*
G37*
G36*
X4797200Y637303D02*
X4719501D01*
Y594603D01*
X4797200D01*
Y637303D01*
D02*
G37*
G36*
X4694101D02*
X4616401D01*
Y594603D01*
X4694101D01*
Y637303D01*
D02*
G37*
G36*
X5487000Y645401D02*
X5256200D01*
Y394601D01*
X5487000D01*
Y645401D01*
D02*
G37*
G36*
X4547200Y545401D02*
X4316400D01*
Y294601D01*
X4547200D01*
Y545401D01*
D02*
G37*
G36*
X4723614Y263600D02*
X4699586D01*
X4677827Y254587D01*
X4478273D01*
X4456514Y263600D01*
X4432486D01*
X4410286Y254405D01*
X4393295Y237414D01*
X4384100Y215214D01*
Y191186D01*
X4393295Y168986D01*
X4410286Y151995D01*
X4432486Y142800D01*
X4456514D01*
X4478273Y151813D01*
X4677827D01*
X4699586Y142800D01*
X4723614D01*
X4745814Y151995D01*
X4762805Y168986D01*
X4772000Y191186D01*
Y215214D01*
X4762805Y237414D01*
X4745814Y254405D01*
X4723614Y263600D01*
D02*
G37*
G36*
X7168400Y1393616D02*
Y1346200D01*
X7215816D01*
X7206905Y1367714D01*
X7189914Y1384705D01*
X7168400Y1393616D01*
D02*
G37*
G36*
X7143000D02*
X7121486Y1384705D01*
X7104495Y1367714D01*
X7095584Y1346200D01*
X7143000D01*
Y1393616D01*
D02*
G37*
G36*
X7215816Y1320800D02*
X7168400D01*
Y1273384D01*
X7189914Y1282295D01*
X7206905Y1299286D01*
X7215816Y1320800D01*
D02*
G37*
G36*
X7143000D02*
X7095584D01*
X7104495Y1299286D01*
X7121486Y1282295D01*
X7143000Y1273384D01*
Y1320800D01*
D02*
G37*
G36*
X6712300Y1255404D02*
X6481500D01*
Y1004604D01*
X6712300D01*
Y1255404D01*
D02*
G37*
G36*
X7205814Y962100D02*
X7181786D01*
X7159586Y952905D01*
X7142595Y935914D01*
X7133583Y914155D01*
X6975001Y755573D01*
X6962301Y760834D01*
Y844602D01*
Y955402D01*
X6781501D01*
Y953087D01*
X6160773D01*
X6139014Y962100D01*
X6114986D01*
X6092786Y952905D01*
X6075795Y935914D01*
X6066600Y913714D01*
Y889686D01*
X6075795Y867486D01*
X6092786Y850495D01*
X6114986Y841300D01*
X6139014D01*
X6160773Y850313D01*
X6372007D01*
X6375860Y837613D01*
X6373953Y836339D01*
X6344664Y807049D01*
X6333524Y790378D01*
X6329613Y770713D01*
Y207090D01*
X6333524Y187424D01*
X6344664Y170753D01*
X6373953Y141464D01*
X6390624Y130324D01*
X6410289Y126413D01*
X6956827D01*
X6978586Y117400D01*
X7002614D01*
X7024814Y126595D01*
X7041805Y143586D01*
X7051000Y165786D01*
Y189814D01*
X7041805Y212014D01*
X7024814Y229005D01*
X7002614Y238200D01*
X6978586D01*
X6956827Y229187D01*
X6432387D01*
Y748615D01*
X6781501D01*
Y644603D01*
Y612703D01*
X6871901D01*
X6962301D01*
Y648615D01*
X6992103D01*
X7011768Y652527D01*
X7028439Y663666D01*
X7206255Y841483D01*
X7228014Y850495D01*
X7245005Y867486D01*
X7254200Y889686D01*
Y913714D01*
X7245005Y935914D01*
X7228014Y952905D01*
X7205814Y962100D01*
D02*
G37*
G36*
X6962301Y587303D02*
X6884601D01*
Y544603D01*
X6962301D01*
Y587303D01*
D02*
G37*
G36*
X6859201D02*
X6781501D01*
Y544603D01*
X6859201D01*
Y587303D01*
D02*
G37*
G36*
X6712300Y495401D02*
X6481500D01*
Y244601D01*
X6712300D01*
Y495401D01*
D02*
G37*
%LPD*%
D10*
X406400Y1569004D02*
D03*
Y209001D02*
D03*
X1358900Y207401D02*
D03*
Y1367399D02*
D03*
X406400Y3869004D02*
D03*
Y2509001D02*
D03*
X1358900Y2507401D02*
D03*
Y3667399D02*
D03*
X3370000Y1394399D02*
D03*
Y434401D02*
D03*
X2431800Y1481699D02*
D03*
Y321701D02*
D03*
X3370000Y3694399D02*
D03*
Y2734401D02*
D03*
X2431800Y3781699D02*
D03*
Y2621701D02*
D03*
X6596900Y370001D02*
D03*
Y1130004D02*
D03*
Y2970001D02*
D03*
Y3730004D02*
D03*
Y5570001D02*
D03*
Y6330005D02*
D03*
X4431800Y1379999D02*
D03*
Y420001D02*
D03*
X5371600Y520001D02*
D03*
Y1279999D02*
D03*
X4431800Y3679999D02*
D03*
Y2720001D02*
D03*
X5371600Y2820001D02*
D03*
Y3579999D02*
D03*
D11*
X681401Y439003D02*
D03*
Y539003D02*
D03*
Y639003D02*
D03*
Y739003D02*
D03*
Y839003D02*
D03*
Y939002D02*
D03*
Y1039002D02*
D03*
Y1139002D02*
D03*
Y1239002D02*
D03*
Y1339002D02*
D03*
X1083899Y1137397D02*
D03*
Y1037397D02*
D03*
Y937397D02*
D03*
Y837397D02*
D03*
Y737398D02*
D03*
Y637398D02*
D03*
Y537398D02*
D03*
Y437398D02*
D03*
X681401Y2739003D02*
D03*
Y2839003D02*
D03*
Y2939003D02*
D03*
Y3039003D02*
D03*
Y3139003D02*
D03*
Y3239002D02*
D03*
Y3339002D02*
D03*
Y3439002D02*
D03*
Y3539002D02*
D03*
Y3639002D02*
D03*
X1083899Y3437397D02*
D03*
Y3337397D02*
D03*
Y3237397D02*
D03*
Y3137397D02*
D03*
Y3037398D02*
D03*
Y2937398D02*
D03*
Y2837398D02*
D03*
Y2737398D02*
D03*
X3094999Y664398D02*
D03*
Y764398D02*
D03*
Y864403D02*
D03*
Y964402D02*
D03*
Y1064402D02*
D03*
Y1164402D02*
D03*
X2706801Y551698D02*
D03*
Y651698D02*
D03*
Y751698D02*
D03*
Y851703D02*
D03*
Y951702D02*
D03*
Y1051702D02*
D03*
Y1151702D02*
D03*
Y1251702D02*
D03*
X3094999Y2964398D02*
D03*
Y3064398D02*
D03*
Y3164403D02*
D03*
Y3264402D02*
D03*
Y3364402D02*
D03*
Y3464402D02*
D03*
X2706801Y2851698D02*
D03*
Y2951698D02*
D03*
Y3051698D02*
D03*
Y3151703D02*
D03*
Y3251702D02*
D03*
Y3351702D02*
D03*
Y3451702D02*
D03*
Y3551702D02*
D03*
X6871901Y900002D02*
D03*
Y800002D02*
D03*
Y700003D02*
D03*
Y600003D02*
D03*
Y3500002D02*
D03*
Y3400003D02*
D03*
Y3300003D02*
D03*
Y3200003D02*
D03*
Y6100003D02*
D03*
Y6000003D02*
D03*
Y5900003D02*
D03*
Y5800003D02*
D03*
X4706801Y650003D02*
D03*
Y750003D02*
D03*
Y850003D02*
D03*
Y950002D02*
D03*
Y1050002D02*
D03*
Y1150002D02*
D03*
X5096599Y1050002D02*
D03*
Y950002D02*
D03*
Y850003D02*
D03*
Y750003D02*
D03*
X4706801Y2950003D02*
D03*
Y3050003D02*
D03*
Y3150003D02*
D03*
Y3250002D02*
D03*
Y3350002D02*
D03*
Y3450002D02*
D03*
X5096599Y3350002D02*
D03*
Y3250002D02*
D03*
Y3150003D02*
D03*
Y3050003D02*
D03*
D12*
X4900000Y4750000D02*
X5092700Y4942700D01*
X4900000Y6850000D02*
X5092700Y6657300D01*
Y4942700D02*
Y6657300D01*
X2009505Y8610800D02*
X2603500D01*
X2006600Y5554801D02*
Y6557400D01*
X1701800Y5250001D02*
X2006600Y5554801D01*
X2009505Y7522600D02*
X2318494D01*
X1968500Y7563605D02*
X2009505Y7522600D01*
X1968500Y7563605D02*
Y8297300D01*
Y8569795D01*
X2009505Y8610800D01*
X1701800Y8298001D02*
X1967799D01*
X1968500Y8297300D01*
D13*
X4069412Y6981912D02*
Y7850000D01*
X3854450Y6754250D02*
Y6766950D01*
X4069412Y6981912D01*
X4419600Y6570100D02*
Y8150000D01*
X3848100Y5998600D02*
X4419600Y6570100D01*
X4305300Y6709800D02*
Y8050000D01*
X4000500Y5363600D02*
X4140200Y5503300D01*
X2717800Y5363600D02*
X4000500D01*
X2590800Y5490600D02*
X2717800Y5363600D01*
X4364910Y5935100D02*
X4394200Y5905810D01*
X4000500Y5935100D02*
X4364910D01*
X4394200Y5058800D02*
Y5905810D01*
X3885399Y5819999D02*
X4000500Y5935100D01*
X4025900Y5815768D02*
X4069832Y5859700D01*
X4241800Y4982600D02*
Y5830410D01*
X4212510Y5859700D02*
X4241800Y5830410D01*
X4069832Y5859700D02*
X4212510D01*
X1701800Y7028001D02*
X2310699D01*
X2324100Y7014600D01*
X2315788Y7268600D02*
X2498010D01*
X2527300Y6916889D02*
Y7239310D01*
X2498010Y7268600D02*
X2527300Y7239310D01*
X1820390Y6887600D02*
X2498010D01*
X2527300Y6916889D01*
X1706791Y6774001D02*
X1820390Y6887600D01*
X1701800Y6774001D02*
X1706791D01*
X3848100Y6506600D02*
X4182127Y6840627D01*
Y7950573D01*
X3848100Y6252600D02*
X4305300Y6709800D01*
X3804434Y5236600D02*
X4060110D01*
X4089400Y4906400D02*
Y5207310D01*
X3848100Y5490600D02*
X4025900Y5668400D01*
Y5815768D01*
X4060110Y5236600D02*
X4089400Y5207310D01*
X3848100Y5771876D02*
X3885399Y5809175D01*
Y5819999D01*
X3848100Y5744600D02*
Y5771876D01*
X4140200Y5503300D02*
Y5731900D01*
X2324100Y5490600D02*
X2590800D01*
X927100Y1409700D02*
Y1524932D01*
X856402Y1339002D02*
X927100Y1409700D01*
X681401Y1339002D02*
X856402D01*
X983772Y1239002D02*
X1130000Y1385229D01*
Y1524000D01*
X816599Y1610599D02*
X1460500D01*
X730000Y1524000D02*
X816599Y1610599D01*
X681401Y1239002D02*
X983772D01*
X1724601Y1356301D02*
Y1689100D01*
X1083899Y1137397D02*
X1505697D01*
X1724601Y1356301D01*
X1338798Y1734602D02*
X1460500Y1612900D01*
X762000Y1734602D02*
X1338798D01*
X566001Y1538602D02*
X762000Y1734602D01*
X566001Y1188126D02*
X610124Y1144002D01*
X114300Y939829D02*
Y1701800D01*
Y939829D02*
X610126Y444003D01*
X676401D01*
X681401Y439003D01*
X676401Y1144002D02*
X681401Y1139002D01*
X610124Y1144002D02*
X676401D01*
X566001Y1188126D02*
Y1538602D01*
X681401Y439003D02*
X881380D01*
X882985Y437398D02*
X1083899D01*
X881380Y439003D02*
X882985Y437398D01*
Y1037397D02*
X1083899D01*
X881380Y1039002D02*
X882985Y1037397D01*
X681401Y1039002D02*
X881380D01*
X882985Y937397D02*
X1083899D01*
X881380Y939002D02*
X882985Y937397D01*
X681401Y939002D02*
X881380D01*
X882985Y837397D02*
X1083899D01*
X881380Y839003D02*
X882985Y837397D01*
X681401Y839003D02*
X881380D01*
X882985Y737398D02*
X1083899D01*
X881380Y739003D02*
X882985Y737398D01*
X681401Y739003D02*
X881380D01*
X882985Y637398D02*
X1083899D01*
X881380Y639003D02*
X882985Y637398D01*
X681401Y639003D02*
X881380D01*
X882985Y537398D02*
X1083899D01*
X881380Y539003D02*
X882985Y537398D01*
X681401Y539003D02*
X881380D01*
X927100Y3709700D02*
Y3824932D01*
X856402Y3639002D02*
X927100Y3709700D01*
X681401Y3639002D02*
X856402D01*
X983772Y3539002D02*
X1130000Y3685229D01*
Y3824000D01*
X816599Y3910598D02*
X1460500D01*
X730000Y3824000D02*
X816599Y3910598D01*
X681401Y3539002D02*
X983772D01*
X1724601Y3656301D02*
Y3989100D01*
X1083899Y3437397D02*
X1505697D01*
X1724601Y3656301D01*
X1338798Y4034602D02*
X1460500Y3912900D01*
X762000Y4034602D02*
X1338798D01*
X566001Y3838602D02*
X762000Y4034602D01*
X566001Y3488126D02*
X610124Y3444002D01*
X114300Y3239829D02*
Y4001800D01*
Y3239829D02*
X610126Y2744003D01*
X676401D01*
X681401Y2739003D01*
X676401Y3444002D02*
X681401Y3439002D01*
X610124Y3444002D02*
X676401D01*
X566001Y3488126D02*
Y3838602D01*
X681401Y2739003D02*
X881380D01*
X882985Y2737398D02*
X1083899D01*
X881380Y2739003D02*
X882985Y2737398D01*
Y3337397D02*
X1083899D01*
X881380Y3339002D02*
X882985Y3337397D01*
X681401Y3339002D02*
X881380D01*
X882985Y3237397D02*
X1083899D01*
X881380Y3239002D02*
X882985Y3237397D01*
X681401Y3239002D02*
X881380D01*
X882985Y3137397D02*
X1083899D01*
X881380Y3139003D02*
X882985Y3137397D01*
X681401Y3139003D02*
X881380D01*
X882985Y3037398D02*
X1083899D01*
X881380Y3039003D02*
X882985Y3037398D01*
X681401Y3039003D02*
X881380D01*
X882985Y2937398D02*
X1083899D01*
X881380Y2939003D02*
X882985Y2937398D01*
X681401Y2939003D02*
X881380D01*
X882985Y2837398D02*
X1083899D01*
X881380Y2839003D02*
X882985Y2837398D01*
X681401Y2839003D02*
X881380D01*
X3094999Y280590D02*
Y664398D01*
Y280590D02*
X3130462Y245127D01*
X3139173D01*
X3143000Y241300D01*
X2368300Y88900D02*
X3143000D01*
X3274865Y220765D01*
X2869198Y551698D02*
X2982579Y665079D01*
X3094319D01*
X2862567Y651698D02*
X2975266Y764398D01*
X3094999D01*
X2950900Y1164402D02*
X3094999D01*
X2863600Y1251702D02*
X2950900Y1164402D01*
X3094999D02*
Y1463299D01*
X3320800Y1689100D01*
X3485900D01*
X2968640Y864403D02*
X3094999D01*
X2849308Y851703D02*
X2962008Y964402D01*
X2706801Y951702D02*
X2842677D01*
X2706801Y851703D02*
X2849308D01*
X2962008Y964402D02*
X3094999D01*
X2955376Y1064402D02*
X3094999D01*
X2855935Y751698D02*
X2968640Y864403D01*
X2706801Y551698D02*
X2869198D01*
X2842677Y951702D02*
X2955376Y1064402D01*
X2706801Y651698D02*
X2862567D01*
X2706801Y751698D02*
X2855935D01*
X2177800Y190500D02*
Y1054100D01*
X2274514Y1150814D01*
X2291400Y167563D02*
X2368300Y90663D01*
Y88900D02*
Y90663D01*
X2291400Y167563D02*
Y978613D01*
X2364490Y1051702D01*
X2706801D01*
X2274514Y1150814D02*
X2705913D01*
X2706801Y1151702D01*
Y1251702D02*
X2863600D01*
X3094999Y2580590D02*
Y2964398D01*
Y2580590D02*
X3130462Y2545127D01*
X3139173D01*
X3143000Y2541300D01*
X2368300Y2388900D02*
X3143000D01*
X3274865Y2520765D01*
X2869198Y2851698D02*
X2982579Y2965079D01*
X3094319D01*
X2862567Y2951698D02*
X2975266Y3064398D01*
X3094999D01*
X2950900Y3464402D02*
X3094999D01*
X2863600Y3551702D02*
X2950900Y3464402D01*
X3094999D02*
Y3763299D01*
X3320800Y3989100D01*
X3485900D01*
X2968640Y3164403D02*
X3094999D01*
X2849308Y3151703D02*
X2962008Y3264402D01*
X2706801Y3251702D02*
X2842677D01*
X2706801Y3151703D02*
X2849308D01*
X2962008Y3264402D02*
X3094999D01*
X2955376Y3364402D02*
X3094999D01*
X2855935Y3051698D02*
X2968640Y3164403D01*
X2706801Y2851698D02*
X2869198D01*
X2842677Y3251702D02*
X2955376Y3364402D01*
X2706801Y2951698D02*
X2862567D01*
X2706801Y3051698D02*
X2855935D01*
X2177800Y2490500D02*
Y3354100D01*
X2274514Y3450814D01*
X2291400Y2467563D02*
X2368300Y2390663D01*
Y2388900D02*
Y2390663D01*
X2291400Y2467563D02*
Y3278613D01*
X2364490Y3351702D01*
X2706801D01*
X2274514Y3450814D02*
X2705913D01*
X2706801Y3451702D01*
Y3551702D02*
X2863600D01*
X6410289Y177800D02*
X6990600D01*
X6381000Y207090D02*
X6410289Y177800D01*
Y800002D02*
X6871901D01*
X6381000Y207090D02*
Y770713D01*
X6410289Y800002D01*
X6127000Y901700D02*
X6870203D01*
X6992103Y700003D02*
X7193800Y901700D01*
X6871901Y700003D02*
X6992103D01*
X7155700Y1333500D02*
X7405311D01*
X6871901Y600003D02*
X7405311D01*
Y1333500D02*
X7434600Y1304210D01*
X7405311Y600003D02*
X7434600Y629292D01*
Y1304210D01*
X6410289Y2777800D02*
X6990600D01*
X6381000Y2807090D02*
X6410289Y2777800D01*
Y3400003D02*
X6871901D01*
X6381000Y2807090D02*
Y3370713D01*
X6410289Y3400003D01*
X6127000Y3501700D02*
X6870203D01*
X6992103Y3300003D02*
X7193800Y3501700D01*
X6871901Y3300003D02*
X6992103D01*
X7155700Y3933500D02*
X7405311D01*
X6871901Y3200003D02*
X7405311D01*
Y3933500D02*
X7434600Y3904211D01*
X7405311Y3200003D02*
X7434600Y3229292D01*
Y3904211D01*
X6410289Y5377800D02*
X6990600D01*
X6381000Y5407090D02*
X6410289Y5377800D01*
Y6000003D02*
X6871901D01*
X6381000Y5407090D02*
Y5970713D01*
X6410289Y6000003D01*
X6127000Y6101700D02*
X6870203D01*
X6992103Y5900003D02*
X7193800Y6101700D01*
X6871901Y5900003D02*
X6992103D01*
X7155700Y6533500D02*
X7405311D01*
X6871901Y5800003D02*
X7405311D01*
Y6533500D02*
X7434600Y6504211D01*
X7405311Y5800003D02*
X7434600Y5829293D01*
Y6504211D01*
X4444500Y196301D02*
X4448327Y200128D01*
X4706801Y1150002D02*
Y1329101D01*
Y1148316D02*
Y1150002D01*
X4856598D02*
X4957029Y1049571D01*
X4706801Y1150002D02*
X4856598D01*
X4589280Y1054100D02*
X4593378Y1050002D01*
X4706801D01*
X4701801Y1055002D02*
X4706801Y1050002D01*
X4589280Y1054100D02*
Y1432560D01*
X4175302Y950002D02*
X4706801D01*
X4138902Y913602D02*
X4175302Y950002D01*
X4138902Y78740D02*
Y913602D01*
X4706801Y1329101D02*
X4812800Y1435100D01*
X4833120Y1676400D02*
X5371600D01*
X4589280Y1432560D02*
X4833120Y1676400D01*
X4957029Y1049571D02*
X5096168D01*
X4823236Y850003D02*
X4922174Y948940D01*
X5095537D01*
X4706801Y850003D02*
X4823236D01*
X4706801Y750003D02*
X4829868D01*
X4929868Y850003D02*
X5096599D01*
X4829868Y750003D02*
X4929868Y850003D01*
X4865903Y650003D02*
X4965903Y750003D01*
X4706801Y650003D02*
X4865903D01*
X4965903Y750003D02*
X5473903D01*
X5524000Y800100D01*
Y1520110D01*
X4462469Y200128D02*
X4465541Y203200D01*
X4711600D01*
X4718488D01*
X4448327Y200128D02*
X4462469D01*
X4914400Y1549400D02*
X5494710D01*
X5524000Y1520110D01*
X4444500Y2496301D02*
X4448327Y2500128D01*
X4706801Y3450002D02*
Y3629101D01*
Y3448316D02*
Y3450002D01*
X4856598D02*
X4957029Y3349571D01*
X4706801Y3450002D02*
X4856598D01*
X4589280Y3354100D02*
X4593378Y3350002D01*
X4706801D01*
X4701801Y3355002D02*
X4706801Y3350002D01*
X4589280Y3354100D02*
Y3732560D01*
X4175302Y3250002D02*
X4706801D01*
X4138902Y3213602D02*
X4175302Y3250002D01*
X4138902Y2378740D02*
Y3213602D01*
X4706801Y3629101D02*
X4812800Y3735100D01*
X4833120Y3976400D02*
X5371600D01*
X4589280Y3732560D02*
X4833120Y3976400D01*
X4957029Y3349571D02*
X5096168D01*
X4823236Y3150003D02*
X4922174Y3248940D01*
X5095537D01*
X4706801Y3150003D02*
X4823236D01*
X4706801Y3050003D02*
X4829868D01*
X4929868Y3150003D02*
X5096599D01*
X4829868Y3050003D02*
X4929868Y3150003D01*
X4865903Y2950003D02*
X4965903Y3050003D01*
X4706801Y2950003D02*
X4865903D01*
X4965903Y3050003D02*
X5473903D01*
X5524000Y3100100D01*
Y3820110D01*
X4462469Y2500128D02*
X4465541Y2503200D01*
X4711600D01*
X4718488D01*
X4448327Y2500128D02*
X4462469D01*
X4914400Y3849400D02*
X5494710D01*
X5524000Y3820110D01*
D18*
X2603500Y8614800D02*
D03*
X3848100Y7776600D02*
D03*
Y7522600D02*
D03*
Y7268600D02*
D03*
Y7014600D02*
D03*
Y6760600D02*
D03*
Y6506600D02*
D03*
Y6252600D02*
D03*
Y5998600D02*
D03*
Y5744600D02*
D03*
Y5490600D02*
D03*
Y5236600D02*
D03*
Y4982600D02*
D03*
X2324100D02*
D03*
Y5236600D02*
D03*
Y5490600D02*
D03*
Y5744600D02*
D03*
Y5998600D02*
D03*
Y6252600D02*
D03*
Y6506600D02*
D03*
Y6760600D02*
D03*
Y7014600D02*
D03*
Y7268600D02*
D03*
Y7522600D02*
D03*
D19*
X2603500Y8364800D02*
D03*
D20*
X1701800Y8806001D02*
D03*
X177800D02*
D03*
Y4742001D02*
D03*
X1701800D02*
D03*
D21*
X177800Y4996001D02*
D03*
Y5250001D02*
D03*
Y5504001D02*
D03*
Y5758001D02*
D03*
Y6012001D02*
D03*
Y6266001D02*
D03*
Y6520001D02*
D03*
Y6774001D02*
D03*
Y7028001D02*
D03*
Y7282001D02*
D03*
Y7536001D02*
D03*
Y7790001D02*
D03*
Y8044001D02*
D03*
Y8298001D02*
D03*
Y8552001D02*
D03*
X1701800D02*
D03*
Y8298001D02*
D03*
Y8044001D02*
D03*
Y7790001D02*
D03*
Y7536001D02*
D03*
Y7282001D02*
D03*
Y7028001D02*
D03*
Y6774001D02*
D03*
Y6520001D02*
D03*
Y6266001D02*
D03*
Y6012001D02*
D03*
Y5758001D02*
D03*
Y5504001D02*
D03*
Y5250001D02*
D03*
D22*
Y4996001D02*
D03*
D23*
X3086100Y5109600D02*
D03*
Y7649600D02*
D03*
D24*
X2324100Y7776600D02*
D03*
D25*
X4900000Y4750000D02*
D03*
Y6850000D02*
D03*
X2006600Y6557400D02*
D03*
D26*
X4000000Y8500000D02*
D03*
D27*
X4069412Y7850000D02*
D03*
X4182127Y7950000D02*
D03*
X4419600Y8150000D02*
D03*
X4305300Y8050000D02*
D03*
X4241800Y4982600D02*
D03*
X4140200Y5731900D02*
D03*
X4394200Y5058800D02*
D03*
X4089400Y4906400D02*
D03*
X1130000Y1524000D02*
D03*
X930000D02*
D03*
X730000D02*
D03*
X1460500Y1610599D02*
D03*
X114300Y1701800D02*
D03*
X1724601Y1689100D02*
D03*
X1130000Y3824000D02*
D03*
X930000D02*
D03*
X730000D02*
D03*
X1460500Y3910598D02*
D03*
X114300Y4001800D02*
D03*
X1724601Y3989100D02*
D03*
X3143000Y241300D02*
D03*
X3295400D02*
D03*
X2177800Y190500D02*
D03*
X2368300Y88900D02*
D03*
X3485900Y1689100D02*
D03*
X3143000Y2541300D02*
D03*
X3295400D02*
D03*
X2177800Y2490500D02*
D03*
X2368300Y2388900D02*
D03*
X3485900Y3989100D02*
D03*
X6990600Y177800D02*
D03*
X7193800Y901700D02*
D03*
X7155700Y1333500D02*
D03*
X6127000Y901700D02*
D03*
X6990600Y2777800D02*
D03*
X7193800Y3501700D02*
D03*
X7155700Y3933500D02*
D03*
X6127000Y3501700D02*
D03*
X6990600Y5377800D02*
D03*
X7193800Y6101700D02*
D03*
X7155700Y6533500D02*
D03*
X6127000Y6101700D02*
D03*
X4812800Y1435100D02*
D03*
X4444500Y203200D02*
D03*
X4711600D02*
D03*
X4138902Y78740D02*
D03*
X5371600Y1676400D02*
D03*
X4914400Y1549400D02*
D03*
X4812800Y3735100D02*
D03*
X4444500Y2503200D02*
D03*
X4711600D02*
D03*
X4138902Y2378740D02*
D03*
X5371600Y3976400D02*
D03*
X4914400Y3849400D02*
D03*
D28*
X3649999Y1649999D02*
D03*
Y3949999D02*
D03*
X6150000Y1350000D02*
D03*
Y3950000D02*
D03*
Y6550000D02*
D03*
X4150000Y1650000D02*
D03*
Y3950000D02*
D03*
%TF.MD5,21c4db25c59420a6b07542eb41bc75c7*%
M02*
