%TF.GenerationSoftware,Altium Limited,Altium Designer,24.3.1 (35)*%
G04 Layer_Color=8388736*
%FSLAX45Y45*%
%MOMM*%
%TF.SameCoordinates,065391E9-2A1D-4ECE-AA0D-878B158C5FC5*%
%TF.FilePolarity,Negative*%
%TF.FileFunction,Soldermask,Top*%
%TF.Part,CustomerPanel*%
G01*
G75*
%TA.AperFunction,SMDPad,CuDef*%
%ADD34R,2.00320X2.20320*%
%ADD35R,1.50320X0.80320*%
G04:AMPARAMS|DCode=36|XSize=0.7532mm|YSize=0.7032mm|CornerRadius=0.1641mm|HoleSize=0mm|Usage=FLASHONLY|Rotation=0.000|XOffset=0mm|YOffset=0mm|HoleType=Round|Shape=RoundedRectangle|*
%AMROUNDEDRECTD36*
21,1,0.75320,0.37500,0,0,0.0*
21,1,0.42500,0.70320,0,0,0.0*
1,1,0.32820,0.21250,-0.18750*
1,1,0.32820,-0.21250,-0.18750*
1,1,0.32820,-0.21250,0.18750*
1,1,0.32820,0.21250,0.18750*
%
%ADD36ROUNDEDRECTD36*%
G04:AMPARAMS|DCode=37|XSize=0.7532mm|YSize=0.7032mm|CornerRadius=0.1641mm|HoleSize=0mm|Usage=FLASHONLY|Rotation=270.000|XOffset=0mm|YOffset=0mm|HoleType=Round|Shape=RoundedRectangle|*
%AMROUNDEDRECTD37*
21,1,0.75320,0.37500,0,0,270.0*
21,1,0.42500,0.70320,0,0,270.0*
1,1,0.32820,-0.18750,-0.21250*
1,1,0.32820,-0.18750,0.21250*
1,1,0.32820,0.18750,0.21250*
1,1,0.32820,0.18750,-0.21250*
%
%ADD37ROUNDEDRECTD37*%
%ADD38R,1.10320X2.45320*%
%ADD39R,1.10320X3.00320*%
%TA.AperFunction,ComponentPad*%
%ADD40C,1.71120*%
%ADD41R,1.71120X1.71120*%
%ADD42C,1.85420*%
%ADD43C,1.72720*%
%ADD44R,1.72720X1.72720*%
%ADD45C,3.61600*%
%ADD46C,1.60800*%
%ADD47R,1.60800X1.60800*%
%TA.AperFunction,ViaPad*%
%ADD48C,1.30320*%
%ADD49C,5.20320*%
%ADD50C,0.90320*%
%ADD51C,1.70320*%
D34*
X4927600Y7120001D02*
D03*
Y8479999D02*
D03*
Y6405000D02*
D03*
Y5045003D02*
D03*
D35*
X4652599Y8250002D02*
D03*
Y8150002D02*
D03*
Y8050002D02*
D03*
Y7950002D02*
D03*
Y7850002D02*
D03*
Y7750003D02*
D03*
Y7649998D02*
D03*
Y7549998D02*
D03*
Y7449998D02*
D03*
Y7349998D02*
D03*
Y5275000D02*
D03*
Y5374999D02*
D03*
Y5474999D02*
D03*
Y5574999D02*
D03*
Y5675004D02*
D03*
Y5775004D02*
D03*
Y5875003D02*
D03*
Y5975003D02*
D03*
Y6075003D02*
D03*
Y6175003D02*
D03*
D36*
X876300Y158201D02*
D03*
Y248199D02*
D03*
X1587498Y1695997D02*
D03*
Y1606000D02*
D03*
X876300Y2458201D02*
D03*
Y2548199D02*
D03*
X1587498Y3995997D02*
D03*
Y3906000D02*
D03*
X3041400Y1606001D02*
D03*
Y1696004D02*
D03*
Y3906001D02*
D03*
Y3996004D02*
D03*
X5092200Y1632499D02*
D03*
Y1542501D02*
D03*
X4966600Y203200D02*
D03*
Y293197D02*
D03*
X5092200Y3932499D02*
D03*
Y3842501D02*
D03*
X4966600Y2503200D02*
D03*
Y2593197D02*
D03*
D37*
X920196Y1699300D02*
D03*
X1010199D02*
D03*
X920196Y3999300D02*
D03*
X1010199D02*
D03*
X3574999Y241300D02*
D03*
X3485001D02*
D03*
X2875202D02*
D03*
X2965200D02*
D03*
X3574999Y2541300D02*
D03*
X3485001D02*
D03*
X2875202D02*
D03*
X2965200D02*
D03*
X7250401Y1066800D02*
D03*
X7340399D02*
D03*
X7340404Y361200D02*
D03*
X7250401D02*
D03*
X7340399Y711200D02*
D03*
X7250401D02*
D03*
Y3666800D02*
D03*
X7340399D02*
D03*
X7340404Y2961200D02*
D03*
X7250401D02*
D03*
X7340399Y3311200D02*
D03*
X7250401D02*
D03*
Y6266800D02*
D03*
X7340399D02*
D03*
X7340404Y5561200D02*
D03*
X7250401D02*
D03*
X7340399Y5911200D02*
D03*
X7250401D02*
D03*
X4552999Y1587500D02*
D03*
X4463001D02*
D03*
X4552999Y3887500D02*
D03*
X4463001D02*
D03*
D38*
X711581Y634228D02*
D03*
X836585D02*
D03*
X966582D02*
D03*
X1091585D02*
D03*
X711581Y1169228D02*
D03*
X966582D02*
D03*
X1091585D02*
D03*
X711581Y2934228D02*
D03*
X836585D02*
D03*
X966582D02*
D03*
X1091585D02*
D03*
X711581Y3469228D02*
D03*
X966582D02*
D03*
X1091585D02*
D03*
X2709884Y632526D02*
D03*
X2834883D02*
D03*
X2964885D02*
D03*
X3089884D02*
D03*
X2709884Y1167526D02*
D03*
X2964885D02*
D03*
X3089884D02*
D03*
X2709884Y2932526D02*
D03*
X2834883D02*
D03*
X2964885D02*
D03*
X3089884D02*
D03*
X2709884Y3467526D02*
D03*
X2964885D02*
D03*
X3089884D02*
D03*
X6558800Y444500D02*
D03*
X6939800Y1054100D02*
D03*
X6812800D02*
D03*
X6558800D02*
D03*
X6685800Y444500D02*
D03*
X6812800D02*
D03*
X6939800D02*
D03*
X6558800Y3044500D02*
D03*
X6939800Y3654100D02*
D03*
X6812800D02*
D03*
X6558800D02*
D03*
X6685800Y3044500D02*
D03*
X6812800D02*
D03*
X6939800D02*
D03*
X6558800Y5644500D02*
D03*
X6939800Y6254100D02*
D03*
X6812800D02*
D03*
X6558800D02*
D03*
X6685800Y5644500D02*
D03*
X6812800D02*
D03*
X6939800D02*
D03*
X4711581Y634228D02*
D03*
X4836584D02*
D03*
X4966582D02*
D03*
X5091585D02*
D03*
X4711581Y1169228D02*
D03*
X4966582D02*
D03*
X5091585D02*
D03*
X4711581Y2934228D02*
D03*
X4836584D02*
D03*
X4966582D02*
D03*
X5091585D02*
D03*
X4711581Y3469228D02*
D03*
X4966582D02*
D03*
X5091585D02*
D03*
D39*
X836585Y1141730D02*
D03*
Y3441730D02*
D03*
X2834883Y1140028D02*
D03*
Y3440028D02*
D03*
X6685800Y1028700D02*
D03*
Y3628700D02*
D03*
Y6228700D02*
D03*
X4836584Y1141730D02*
D03*
Y3441730D02*
D03*
D40*
X2603500Y8614800D02*
D03*
D41*
Y8364800D02*
D03*
D42*
X1701800Y8806001D02*
D03*
X177800D02*
D03*
Y4742001D02*
D03*
X1701800D02*
D03*
D43*
X177800Y4996001D02*
D03*
Y5250001D02*
D03*
Y5504001D02*
D03*
Y5758001D02*
D03*
Y6012001D02*
D03*
Y6266001D02*
D03*
Y6520001D02*
D03*
Y6774001D02*
D03*
Y7028001D02*
D03*
Y7282001D02*
D03*
Y7536001D02*
D03*
Y7790001D02*
D03*
Y8044001D02*
D03*
Y8298001D02*
D03*
Y8552001D02*
D03*
X1701800D02*
D03*
Y8298001D02*
D03*
Y8044001D02*
D03*
Y7790001D02*
D03*
Y7536001D02*
D03*
Y7282001D02*
D03*
Y7028001D02*
D03*
Y6774001D02*
D03*
Y6520001D02*
D03*
Y6266001D02*
D03*
Y6012001D02*
D03*
Y5758001D02*
D03*
Y5504001D02*
D03*
Y5250001D02*
D03*
D44*
Y4996001D02*
D03*
D45*
X3086100Y5109600D02*
D03*
Y7649600D02*
D03*
D46*
X3848100Y7776600D02*
D03*
Y7522600D02*
D03*
Y7268600D02*
D03*
Y7014600D02*
D03*
Y6760600D02*
D03*
Y6506600D02*
D03*
Y6252600D02*
D03*
Y5998600D02*
D03*
Y5744600D02*
D03*
Y5490600D02*
D03*
Y5236600D02*
D03*
Y4982600D02*
D03*
X2324100D02*
D03*
Y5236600D02*
D03*
Y5490600D02*
D03*
Y5744600D02*
D03*
Y5998600D02*
D03*
Y6252600D02*
D03*
Y6506600D02*
D03*
Y6760600D02*
D03*
Y7014600D02*
D03*
Y7268600D02*
D03*
Y7522600D02*
D03*
D47*
Y7776600D02*
D03*
D48*
X4900000Y4750000D02*
D03*
Y6850000D02*
D03*
X2006600Y6557400D02*
D03*
D49*
X4000000Y8500000D02*
D03*
D50*
X4069412Y7850000D02*
D03*
X4182127Y7950000D02*
D03*
X4419600Y8150000D02*
D03*
X4305300Y8050000D02*
D03*
X4241800Y4982600D02*
D03*
X4140200Y5731900D02*
D03*
X4394200Y5058800D02*
D03*
X4089400Y4906400D02*
D03*
X1130000Y1524000D02*
D03*
X930000D02*
D03*
X730000D02*
D03*
X1460500Y1610599D02*
D03*
X114300Y1701800D02*
D03*
X1724601Y1689100D02*
D03*
X1130000Y3824000D02*
D03*
X930000D02*
D03*
X730000D02*
D03*
X1460500Y3910598D02*
D03*
X114300Y4001800D02*
D03*
X1724601Y3989100D02*
D03*
X3143000Y241300D02*
D03*
X3295400D02*
D03*
X2177800Y190500D02*
D03*
X2368300Y88900D02*
D03*
X3485900Y1689100D02*
D03*
X3143000Y2541300D02*
D03*
X3295400D02*
D03*
X2177800Y2490500D02*
D03*
X2368300Y2388900D02*
D03*
X3485900Y3989100D02*
D03*
X6990600Y177800D02*
D03*
X7193800Y901700D02*
D03*
X7155700Y1333500D02*
D03*
X6127000Y901700D02*
D03*
X6990600Y2777800D02*
D03*
X7193800Y3501700D02*
D03*
X7155700Y3933500D02*
D03*
X6127000Y3501700D02*
D03*
X6990600Y5377800D02*
D03*
X7193800Y6101700D02*
D03*
X7155700Y6533500D02*
D03*
X6127000Y6101700D02*
D03*
X4812800Y1435100D02*
D03*
X4444500Y203200D02*
D03*
X4711600D02*
D03*
X4138902Y78740D02*
D03*
X5371600Y1676400D02*
D03*
X4914400Y1549400D02*
D03*
X4812800Y3735100D02*
D03*
X4444500Y2503200D02*
D03*
X4711600D02*
D03*
X4138902Y2378740D02*
D03*
X5371600Y3976400D02*
D03*
X4914400Y3849400D02*
D03*
D51*
X3649999Y1649999D02*
D03*
Y3949999D02*
D03*
X6150000Y1350000D02*
D03*
Y3950000D02*
D03*
Y6550000D02*
D03*
X4150000Y1650000D02*
D03*
Y3950000D02*
D03*
%TF.MD5,f35bb47a4fc31bd71e9694c59d516317*%
M02*
