%TF.GenerationSoftware,Altium Limited,Altium Designer,24.3.1 (35)*%
G04 Layer_Color=0*
%FSLAX45Y45*%
%MOMM*%
%TF.SameCoordinates,065391E9-2A1D-4ECE-AA0D-878B158C5FC5*%
%TF.FilePolarity,Positive*%
%TF.FileFunction,NonPlated,1,2,NPTH,Drill*%
%TF.Part,CustomerPanel*%
G01*
G75*
%TA.AperFunction,ComponentDrill*%
%ADD57C,1.65100*%
G36*
X5500000Y6300000D02*
X6000000D01*
Y5600000D01*
X5500000D01*
Y6300000D01*
D02*
G37*
G36*
Y5400000D02*
X6000000D01*
Y5200000D01*
X5500000D01*
Y5400000D01*
D02*
G37*
G36*
Y6700000D02*
X6000000D01*
Y6500000D01*
X5500000D01*
Y6700000D01*
D02*
G37*
G36*
X7300000Y5200000D02*
Y4100000D01*
X7500000D01*
Y5200000D01*
X7300000D01*
D02*
G37*
G36*
X5500000D02*
Y4100000D01*
X6200000D01*
Y5200000D01*
X5500000D01*
D02*
G37*
G36*
X6400000D02*
X7100000D01*
Y4100000D01*
X6400000D01*
Y5200000D01*
D02*
G37*
G36*
X5499960Y9000000D02*
X7500000D01*
Y6700000D01*
X5499960D01*
Y9000000D01*
D02*
G37*
G36*
X6400000Y2600000D02*
X7100000D01*
Y1500000D01*
X6400000D01*
Y2600000D01*
D02*
G37*
G36*
X5800000Y300000D02*
X6000000D01*
Y0D01*
X5800000D01*
Y300000D01*
D02*
G37*
G36*
Y1500000D02*
X6000000D01*
Y1200000D01*
X5800000D01*
Y1500000D01*
D02*
G37*
G36*
Y1000000D02*
X6000000D01*
Y500000D01*
X5800000D01*
Y1000000D01*
D02*
G37*
G36*
Y3600000D02*
X6000000D01*
Y3100000D01*
X5800000D01*
Y3600000D01*
D02*
G37*
G36*
Y2900000D02*
X6000000D01*
Y2600000D01*
X5800000D01*
Y2900000D01*
D02*
G37*
G36*
Y4100000D02*
X6000000D01*
Y3800000D01*
X5800000D01*
Y4100000D01*
D02*
G37*
G36*
X3800000Y200000D02*
X4000000D01*
Y0D01*
X3800000D01*
Y200000D01*
D02*
G37*
G36*
X1800000D02*
X2000000D01*
Y0D01*
X1800000D01*
Y200000D01*
D02*
G37*
G36*
X3800000Y1300000D02*
X4000000D01*
Y500000D01*
X3800000D01*
Y1300000D01*
D02*
G37*
G36*
Y3500000D02*
X4000000D01*
Y2800000D01*
X3800000D01*
Y3500000D01*
D02*
G37*
G36*
X1800000Y1300000D02*
X2000000D01*
Y500000D01*
X1800000D01*
Y1300000D01*
D02*
G37*
G36*
Y3500000D02*
X2000000D01*
Y2800000D01*
X1800000D01*
Y3500000D01*
D02*
G37*
G36*
X5800000Y2600000D02*
Y1500000D01*
X6200000D01*
Y2600000D01*
X5800000D01*
D02*
G37*
G36*
X7300000D02*
Y1500000D01*
X7500000D01*
Y2600000D01*
X7300000D01*
D02*
G37*
G36*
X0Y4500000D02*
X200000D01*
Y4100000D01*
X0D01*
Y4500000D01*
D02*
G37*
G36*
X1800000D02*
X2000000D01*
Y3800000D01*
X1800000D01*
Y4500000D01*
D02*
G37*
G36*
X400000D02*
Y4100000D01*
X1400000D01*
Y4500000D01*
X400000D01*
D02*
G37*
G36*
X1800000D02*
X1600000D01*
Y4100000D01*
X1800000D01*
Y4500000D01*
D02*
G37*
G36*
X3800000D02*
X3600000D01*
Y4100000D01*
X3800000D01*
Y4500000D01*
D02*
G37*
G36*
X2400000D02*
Y4100000D01*
X3400000D01*
Y4500000D01*
X2400000D01*
D02*
G37*
G36*
X2000000D02*
X2200000D01*
Y4100000D01*
X2000000D01*
Y4500000D01*
D02*
G37*
G36*
X5500000D02*
X5300000D01*
Y4100000D01*
X5500000D01*
Y4500000D01*
D02*
G37*
G36*
X4400000D02*
Y4100000D01*
X5100000D01*
Y4500000D01*
X4400000D01*
D02*
G37*
G36*
X4000000D02*
X4200000D01*
Y4100000D01*
X4000000D01*
Y4500000D01*
D02*
G37*
G36*
X3800000D02*
X4000000D01*
Y3800000D01*
X3800000D01*
Y4500000D01*
D02*
G37*
G36*
Y2500000D02*
X4000000D01*
Y1600000D01*
X3800000D01*
Y2500000D01*
D02*
G37*
G36*
X4000000Y2300000D02*
X4200000D01*
Y1800000D01*
X4000000D01*
Y2300000D01*
D02*
G37*
G36*
X4400000D02*
Y1800000D01*
X5400000D01*
Y2300000D01*
X4400000D01*
D02*
G37*
G36*
X5800000D02*
X5600000D01*
Y1800000D01*
X5800000D01*
Y2300000D01*
D02*
G37*
G36*
X2000000D02*
X2200000D01*
Y1800000D01*
X2000000D01*
Y2300000D01*
D02*
G37*
G36*
X2400000D02*
Y1800000D01*
X3400000D01*
Y2300000D01*
X2400000D01*
D02*
G37*
G36*
X3800000D02*
X3600000D01*
Y1800000D01*
X3800000D01*
Y2300000D01*
D02*
G37*
G36*
X1800000Y2500000D02*
X2000000D01*
Y1600000D01*
X1800000D01*
Y2500000D01*
D02*
G37*
G36*
Y2300000D02*
X1600000D01*
Y1800000D01*
X1800000D01*
Y2300000D01*
D02*
G37*
G36*
X400000D02*
Y1800000D01*
X1400000D01*
Y2300000D01*
X400000D01*
D02*
G37*
G36*
X0D02*
X200000D01*
Y1800000D01*
X0D01*
Y2300000D01*
D02*
G37*
D57*
X1701800Y8806001D02*
D03*
X177800D02*
D03*
Y4742001D02*
D03*
X1701800D02*
D03*
%TF.MD5,6fca7b1501ebfbfb1cbf20c0ee745cdf*%
M02*
